M48
;Layer_Color=9474304
;FILE_FORMAT=2:5
INCH,LZ
;TYPE=PLATED
T1F00S00C0.02756
T2F00S00C0.02800
T3F00S00C0.03150
T4F00S00C0.03346
T5F00S00C0.03543
T6F00S00C0.03937
T7F00S00C0.12500
%
T01
X0121Y00155
Y00255
X0436Y01215
Y01315
X0433Y0169
Y0179
X0258Y0145
Y0135
Y0125
X0225Y012
Y013
X016Y0212
X015
X0031Y0137
X0021
X01455Y0294
Y0304
X0214Y0259
X0224
X0234
X0272
X0282
X0377Y0228
X0387
X0397
X0208Y0407
X0198
X0168
X0158
Y0383
X0168
X013
X012
Y0407
X013
X0071Y0387
X0061
T02
X0135Y0043
X053Y0187
X0524Y0195
X0418Y0211
X0338Y0174
X0367Y0113
X024Y0145
X016Y01
X0123Y0122
X0174Y02619
X0189Y0331
X0202Y0358
X0099Y0327
X0096Y0297
X0221Y0296
X0236Y0279
X0256Y0267
X0269Y0233
X0256Y0315
X0246Y0309
X0397Y0262
X0409Y0243
X0481Y0245
X0476Y0254
X047Y0269
X0483Y0284
X0491Y0292
X0472Y0331
X0466Y0352
X0524Y0322
X0486Y02265
X0471Y0403
X0405
X0303Y0416
X025Y0411
X0208Y0372
T03
X0394Y0109657
Y0129343
X01Y0111843
Y0092157
X0067
Y0111843
X0071Y0147157
Y0166843
X02715Y034
X02815
X03015
X03115
X03315
X03415
X03615
X03715
X03915
X04015
T04
X0123Y0051
X0227Y0054
X02595
Y0084
X0227
X03465Y01115
Y01415
X0207Y0117
X0177
X0143Y0136
Y0166
X0109
Y0136
X0123Y0081
Y0212
X0093
X0018Y02935
Y03235
Y0356
X01115Y0345
Y0315
X0112Y02865
Y02565
X02755Y0285
Y0315
X03065
X03365
X03665
Y0285
X03365
X03065
X03965
Y0315
X0221Y0382
X0191
X0018Y0386
T05
X0161Y0049
X0191
X0299Y0052
X0309
X0319
X0329
X0339
X0349
X0359
X0369
X0379
X0389
X0399
X0409
X0419
X0429
X0439
X0449
X0486Y0112
Y0122
X0393Y0158
Y0168
Y0178
Y0188
X0363
Y0178
Y0168
Y0158
X0324Y01545
X0314
X0304
X0294
Y01845
X0304
X0314
X0324
X02885Y0212
X02785
X02685
X02585
X02485
X02385
X02285
X02185
X02085
X01985
X0191Y0079
Y0069
Y0059
X0161
Y0069
Y0079
X0026Y00975
Y01075
X0043Y0253
Y0263
X0054Y0319
Y0329
Y0339
Y0349
X0084
Y0339
Y0329
Y0319
X0199Y03215
Y03315
Y03415
Y03115
X0229
Y03215
Y03315
Y03415
X04535Y0343
Y0333
Y0323
Y0313
Y0303
Y0293
Y0283
Y0273
Y0263
Y0253
Y0243
Y0233
Y0223
X05025
Y0233
Y0243
Y0253
Y0263
Y0273
Y0283
Y0293
Y0303
Y0313
Y0323
Y0333
Y0343
Y0353
Y0363
X04535
Y0353
Y0373
Y0383
Y0393
Y0403
X05025
Y0393
Y0383
Y0373
X0329Y0392
X0319
X0309
X0299
X0289
X0279
X0269
Y0402
X0279
X0289
X0299
X0309
X0319
X0329
T06
X00325Y01775
Y01875
Y01975
T07
X0013Y0013
X0537
Y0432
X0013
M30
