%FSLAX25Y25*%
%MOIN*%
G70*
G01*
G75*
G04 Layer_Physical_Order=1*
G04 Layer_Color=255*
%ADD10C,0.02000*%
%ADD11C,0.02500*%
%ADD12C,0.01000*%
%ADD13C,0.05906*%
%ADD14R,0.05906X0.05906*%
%ADD15R,0.04724X0.04724*%
%ADD16C,0.04724*%
%ADD17C,0.05512*%
%ADD18C,0.05315*%
%ADD19R,0.05315X0.05315*%
%ADD20R,0.05906X0.05906*%
%ADD21C,0.06299*%
%ADD22R,0.06299X0.06299*%
%ADD23C,0.06299*%
%ADD24R,0.05906X0.05906*%
%ADD25C,0.05906*%
%ADD26R,0.05906X0.05906*%
G04:AMPARAMS|DCode=27|XSize=160mil|YSize=160mil|CornerRadius=40mil|HoleSize=0mil|Usage=FLASHONLY|Rotation=0.000|XOffset=0mil|YOffset=0mil|HoleType=Round|Shape=RoundedRectangle|*
%AMROUNDEDRECTD27*
21,1,0.16000,0.08000,0,0,0.0*
21,1,0.08000,0.16000,0,0,0.0*
1,1,0.08000,0.04000,-0.04000*
1,1,0.08000,-0.04000,-0.04000*
1,1,0.08000,-0.04000,0.04000*
1,1,0.08000,0.04000,0.04000*
%
%ADD27ROUNDEDRECTD27*%
%ADD28C,0.05000*%
G36*
X194771Y182203D02*
Y170776D01*
X194534Y170487D01*
X193837Y169184D01*
X193409Y167770D01*
X193264Y166300D01*
X193409Y164830D01*
X193837Y163416D01*
X194534Y162113D01*
X195471Y160971D01*
X196613Y160034D01*
X196987Y159834D01*
X197060Y159339D01*
X192489Y154768D01*
X192060Y155025D01*
X192338Y155941D01*
X192491Y157500D01*
X192338Y159059D01*
X191883Y160558D01*
X191145Y161940D01*
X190685Y162500D01*
X191145Y163060D01*
X191883Y164442D01*
X192338Y165941D01*
X192491Y167500D01*
X192338Y169059D01*
X192266Y169295D01*
X192453Y169547D01*
X192453D01*
Y181225D01*
X192691Y183644D01*
X193162Y183812D01*
X194771Y182203D01*
D02*
G37*
G36*
X320866Y272434D02*
X322402Y271968D01*
X324000Y271811D01*
X325598Y271968D01*
X326721Y272309D01*
X327038Y271923D01*
X327030Y271907D01*
X326687Y270776D01*
X326571Y269600D01*
X326571Y269600D01*
X326571D01*
X326571Y269600D01*
X326571D01*
Y263129D01*
X326195Y262800D01*
X326000Y262825D01*
Y259500D01*
X325500D01*
Y259000D01*
X322175D01*
X322224Y258622D01*
X322563Y257804D01*
X323102Y257102D01*
X323262Y256979D01*
X323172Y256487D01*
X322669Y256335D01*
X321390Y255651D01*
X320269Y254731D01*
X319349Y253610D01*
X318665Y252331D01*
X318244Y250943D01*
X318226Y250752D01*
X315773Y248300D01*
X315023Y247386D01*
X314466Y246344D01*
X314123Y245213D01*
X314007Y244036D01*
Y236962D01*
X313637Y236626D01*
X313000Y236689D01*
X311402Y236532D01*
X311029Y236809D01*
Y272395D01*
X311458Y272653D01*
X311866Y272434D01*
X313402Y271968D01*
X315000Y271811D01*
X316598Y271968D01*
X318134Y272434D01*
X319500Y273165D01*
X320866Y272434D01*
D02*
G37*
G36*
X341500Y258613D02*
X341771Y258376D01*
Y250315D01*
X338629D01*
Y258986D01*
X339077Y259208D01*
X339156Y259148D01*
X340045Y258779D01*
X340500Y258719D01*
Y262343D01*
X341500D01*
Y258613D01*
D02*
G37*
G36*
X430965Y360582D02*
X430957Y360500D01*
Y352500D01*
X431130Y350736D01*
X431645Y349039D01*
X432481Y347476D01*
X433605Y346105D01*
X434976Y344981D01*
X436539Y344145D01*
X438236Y343630D01*
X440000Y343456D01*
X448000D01*
X448082Y343464D01*
X448453Y343129D01*
Y24371D01*
X448082Y24035D01*
X448000Y24044D01*
X440000D01*
X438236Y23870D01*
X436539Y23355D01*
X434976Y22519D01*
X433605Y21395D01*
X432481Y20024D01*
X431645Y18461D01*
X431130Y16764D01*
X430957Y15000D01*
Y7000D01*
X431063Y5918D01*
X430727Y5548D01*
X164273D01*
X163937Y5918D01*
X164044Y7000D01*
Y15000D01*
X163870Y16764D01*
X163355Y18461D01*
X162519Y20024D01*
X161679Y21048D01*
X161893Y21500D01*
X193499D01*
Y37415D01*
X193970Y37584D01*
X194337Y37137D01*
X206726Y24748D01*
X206744Y24557D01*
X207165Y23169D01*
X207849Y21890D01*
X208769Y20769D01*
X209890Y19849D01*
X211169Y19165D01*
X212557Y18744D01*
X212748Y18725D01*
X215137Y16337D01*
Y16337D01*
X215137Y16337D01*
X215137Y16337D01*
Y16337D01*
X216051Y15587D01*
X217093Y15030D01*
X217093Y15030D01*
X217093Y15030D01*
D01*
X217093Y15030D01*
X217093Y15030D01*
X218224Y14687D01*
X219400Y14571D01*
X235000D01*
X236176Y14687D01*
X237307Y15030D01*
X237307Y15030D01*
X237307Y15030D01*
X238350Y15587D01*
X239263Y16337D01*
X239263Y16337D01*
X239263Y16337D01*
X256263Y33337D01*
X257013Y34251D01*
X257570Y35293D01*
X257913Y36424D01*
X258029Y37600D01*
Y43138D01*
X259362D01*
Y43187D01*
X259764Y43485D01*
X260557Y43244D01*
X262000Y43102D01*
X263443Y43244D01*
X264831Y43665D01*
X266110Y44349D01*
X267231Y45269D01*
X268151Y46390D01*
X268835Y47669D01*
X268987Y48173D01*
X269479Y48262D01*
X269602Y48102D01*
X270304Y47563D01*
X271122Y47224D01*
X271500Y47175D01*
Y50500D01*
Y53825D01*
X271122Y53776D01*
X270304Y53437D01*
X269602Y52898D01*
X269479Y52738D01*
X268987Y52828D01*
X268835Y53331D01*
X268151Y54610D01*
X267231Y55731D01*
X266110Y56651D01*
X264831Y57335D01*
X263443Y57756D01*
X262000Y57898D01*
X260557Y57756D01*
X259764Y57515D01*
X259362Y57813D01*
Y57862D01*
X244638D01*
Y43138D01*
X245971D01*
Y40097D01*
X232503Y26629D01*
X227308D01*
X227276Y26878D01*
X226937Y27696D01*
X226398Y28398D01*
X225696Y28937D01*
X224878Y29276D01*
X224000Y29391D01*
X223122Y29276D01*
X222304Y28937D01*
X221602Y28398D01*
X221479Y28238D01*
X220987Y28328D01*
X220835Y28831D01*
X220151Y30110D01*
X219231Y31231D01*
X218110Y32151D01*
X216831Y32835D01*
X215443Y33256D01*
X215252Y33274D01*
X205851Y42676D01*
X206042Y43138D01*
X211362D01*
Y43187D01*
X211764Y43485D01*
X212557Y43244D01*
X214000Y43102D01*
X215443Y43244D01*
X216831Y43665D01*
X218110Y44349D01*
X219231Y45269D01*
X220151Y46390D01*
X220835Y47669D01*
X220987Y48173D01*
X221479Y48262D01*
X221602Y48102D01*
X222304Y47563D01*
X223122Y47224D01*
X223500Y47175D01*
Y50500D01*
X224000D01*
Y51000D01*
X227325D01*
X227276Y51378D01*
X226937Y52196D01*
X226398Y52898D01*
X225865Y53307D01*
X225832Y53806D01*
X239216Y67190D01*
X239966Y68103D01*
X240523Y69146D01*
X240866Y70277D01*
X240982Y71453D01*
Y84953D01*
X240866Y86129D01*
X240523Y87260D01*
X239966Y88302D01*
X239216Y89216D01*
X231769Y96663D01*
X230855Y97413D01*
X229813Y97970D01*
X228682Y98313D01*
X227506Y98429D01*
X222497D01*
X215896Y105031D01*
X216233Y105661D01*
X216721Y105766D01*
X217007Y105547D01*
X217968Y105149D01*
X218500Y105079D01*
Y109000D01*
X219500D01*
Y105079D01*
X220032Y105149D01*
X220632Y105397D01*
X221047Y105120D01*
Y101047D01*
X236953D01*
Y103368D01*
X237415Y103559D01*
X257559Y83415D01*
X257368Y82953D01*
X254547D01*
Y79500D01*
X262528D01*
X262823Y79767D01*
X263800Y79671D01*
X264222D01*
X264372Y79500D01*
X272628D01*
X272778Y79671D01*
X274222D01*
X274372Y79500D01*
X282628D01*
X282778Y79671D01*
X284222D01*
X284552Y79295D01*
X284513Y79000D01*
X284649Y77968D01*
X285047Y77007D01*
X285681Y76181D01*
X286507Y75547D01*
X287468Y75149D01*
X288471Y75017D01*
Y26229D01*
X275361D01*
X275276Y26878D01*
X274937Y27696D01*
X274398Y28398D01*
X273696Y28937D01*
X272878Y29276D01*
X272000Y29391D01*
X271122Y29276D01*
X270304Y28937D01*
X269602Y28398D01*
X269479Y28238D01*
X268987Y28328D01*
X268835Y28831D01*
X268151Y30110D01*
X267231Y31231D01*
X266110Y32151D01*
X264831Y32835D01*
X263443Y33256D01*
X262000Y33398D01*
X260557Y33256D01*
X259169Y32835D01*
X257890Y32151D01*
X256769Y31231D01*
X255849Y30110D01*
X255165Y28831D01*
X254744Y27443D01*
X254602Y26000D01*
X254744Y24557D01*
X255165Y23169D01*
X255849Y21890D01*
X256769Y20769D01*
X257890Y19849D01*
X259169Y19165D01*
X260557Y18744D01*
X260748Y18725D01*
X263537Y15937D01*
X264451Y15187D01*
X265493Y14630D01*
X266624Y14287D01*
X267800Y14171D01*
X314600D01*
X315776Y14287D01*
X316907Y14630D01*
X317950Y15187D01*
X318863Y15937D01*
X324263Y21337D01*
X325013Y22251D01*
X325570Y23293D01*
X325913Y24424D01*
X326029Y25600D01*
Y43591D01*
X326491Y43783D01*
X326971Y43303D01*
Y22400D01*
X327087Y21224D01*
X327430Y20093D01*
X327987Y19050D01*
X328737Y18137D01*
X335737Y11137D01*
X335737Y11137D01*
X336650Y10387D01*
X337330Y10024D01*
X337693Y9830D01*
X338824Y9487D01*
X340000Y9371D01*
X383300D01*
X384476Y9487D01*
X385607Y9830D01*
X386649Y10387D01*
X387563Y11137D01*
X412063Y35637D01*
X412813Y36551D01*
X413370Y37593D01*
X413713Y38724D01*
X413829Y39900D01*
Y201354D01*
X414000Y201509D01*
X415559Y201662D01*
X417058Y202117D01*
X418440Y202855D01*
X419651Y203849D01*
X420645Y205060D01*
X421383Y206442D01*
X421838Y207941D01*
X421991Y209500D01*
X421838Y211059D01*
X421766Y211295D01*
X421953Y211547D01*
X421953D01*
Y227453D01*
X413829D01*
Y230603D01*
X416863Y233637D01*
X416863Y233637D01*
X417613Y234550D01*
X418170Y235593D01*
X418170Y235593D01*
X418170Y235593D01*
X418513Y236724D01*
X418629Y237900D01*
X418629Y237900D01*
Y335000D01*
X418513Y336176D01*
X418170Y337307D01*
X417613Y338350D01*
X416863Y339263D01*
X404263Y351863D01*
X403349Y352613D01*
X402307Y353170D01*
X401176Y353513D01*
X400000Y353629D01*
X270000D01*
X268824Y353513D01*
X267693Y353170D01*
X266651Y352613D01*
X265737Y351863D01*
X265737Y351863D01*
X250950Y337076D01*
X240663Y347363D01*
X239750Y348113D01*
X238707Y348670D01*
X237576Y349013D01*
X236400Y349129D01*
X202100D01*
X200924Y349013D01*
X199793Y348670D01*
X198750Y348113D01*
X197837Y347363D01*
X191637Y341163D01*
X190887Y340249D01*
X190330Y339207D01*
X189987Y338076D01*
X189871Y336900D01*
Y309476D01*
X189634Y309187D01*
X188937Y307884D01*
X188508Y306470D01*
X188364Y305000D01*
X188508Y303530D01*
X188937Y302116D01*
X189634Y300813D01*
X190571Y299671D01*
X191713Y298734D01*
X193016Y298037D01*
X194430Y297608D01*
X195900Y297464D01*
X197370Y297608D01*
X198784Y298037D01*
X199691Y298522D01*
X200136Y298294D01*
X200224Y297622D01*
X200563Y296804D01*
X201102Y296102D01*
X201804Y295563D01*
X202622Y295224D01*
X203000Y295175D01*
Y298500D01*
Y302117D01*
X202899Y302236D01*
X203292Y303530D01*
X203436Y305000D01*
X203292Y306470D01*
X202899Y307764D01*
X203000Y307883D01*
Y311500D01*
Y314825D01*
X202622Y314776D01*
X202345Y314661D01*
X201929Y314938D01*
Y321061D01*
X202345Y321339D01*
X202622Y321224D01*
X203000Y321175D01*
Y324500D01*
X204000D01*
Y321175D01*
X204378Y321224D01*
X205196Y321563D01*
X205898Y322102D01*
X206021Y322262D01*
X206513Y322172D01*
X206665Y321669D01*
X207349Y320390D01*
X208269Y319269D01*
X209390Y318349D01*
X209575Y318250D01*
Y317750D01*
X209390Y317651D01*
X208269Y316731D01*
X207349Y315610D01*
X206665Y314331D01*
X206513Y313827D01*
X206021Y313738D01*
X205898Y313898D01*
X205196Y314437D01*
X204378Y314776D01*
X204000Y314825D01*
Y311500D01*
Y308175D01*
X204378Y308224D01*
X205196Y308563D01*
X205898Y309102D01*
X206021Y309262D01*
X206513Y309173D01*
X206665Y308669D01*
X207349Y307390D01*
X207471Y307241D01*
Y302759D01*
X207349Y302610D01*
X206665Y301331D01*
X206513Y300828D01*
X206021Y300738D01*
X205898Y300898D01*
X205196Y301437D01*
X204378Y301776D01*
X204000Y301825D01*
Y298500D01*
Y295175D01*
X204378Y295224D01*
X205196Y295563D01*
X205898Y296102D01*
X206021Y296262D01*
X206513Y296172D01*
X206665Y295669D01*
X207349Y294390D01*
X207471Y294241D01*
Y289759D01*
X207349Y289610D01*
X206665Y288331D01*
X206513Y287827D01*
X206021Y287738D01*
X205898Y287898D01*
X205196Y288437D01*
X204378Y288776D01*
X204000Y288825D01*
Y285500D01*
Y282175D01*
X204378Y282224D01*
X205196Y282563D01*
X205898Y283102D01*
X206021Y283262D01*
X206513Y283172D01*
X206665Y282669D01*
X207349Y281390D01*
X207471Y281241D01*
Y279879D01*
X207020Y279330D01*
X206300Y277982D01*
X205856Y276520D01*
X205787Y275813D01*
X203437Y273463D01*
X202687Y272550D01*
X202130Y271507D01*
X201787Y270376D01*
X201671Y269200D01*
Y215200D01*
X201787Y214024D01*
X202130Y212893D01*
X202687Y211851D01*
X203437Y210937D01*
X214471Y199903D01*
Y185488D01*
X212941Y185338D01*
X211442Y184883D01*
X210060Y184144D01*
X208849Y183151D01*
X207856Y181940D01*
X207314Y180927D01*
X206829Y181048D01*
Y184665D01*
X206831Y184665D01*
X208110Y185349D01*
X209231Y186269D01*
X210151Y187390D01*
X210835Y188669D01*
X211256Y190057D01*
X211398Y191500D01*
X211256Y192943D01*
X210835Y194331D01*
X210151Y195610D01*
X209231Y196731D01*
X208110Y197651D01*
X206831Y198335D01*
X205443Y198756D01*
X204000Y198898D01*
X202557Y198756D01*
X201169Y198335D01*
X199890Y197651D01*
X199000Y196921D01*
X198110Y197651D01*
X196831Y198335D01*
X195443Y198756D01*
X194000Y198898D01*
X192557Y198756D01*
X191169Y198335D01*
X189890Y197651D01*
X188769Y196731D01*
X187849Y195610D01*
X187165Y194331D01*
X186744Y192943D01*
X186602Y191500D01*
X186744Y190057D01*
X187165Y188669D01*
X187849Y187390D01*
X188769Y186269D01*
X189190Y185924D01*
X189021Y185453D01*
X176547D01*
Y169547D01*
X176547D01*
X176734Y169295D01*
X176662Y169059D01*
X176567Y168094D01*
X174237Y165763D01*
X173487Y164849D01*
X172930Y163807D01*
X172587Y162676D01*
X172471Y161500D01*
Y130469D01*
X161502D01*
Y21892D01*
X161050Y21678D01*
X160024Y22519D01*
X158461Y23355D01*
X156764Y23870D01*
X155000Y24044D01*
X147000D01*
X145918Y23937D01*
X145547Y24273D01*
Y182500D01*
Y343227D01*
X145918Y343563D01*
X147000Y343456D01*
X155000D01*
X156764Y343630D01*
X158461Y344145D01*
X160024Y344981D01*
X161395Y346105D01*
X162519Y347476D01*
X163355Y349039D01*
X163870Y350736D01*
X164044Y352500D01*
Y360500D01*
X164035Y360582D01*
X164371Y360952D01*
X430629D01*
X430965Y360582D01*
D02*
G37*
G36*
X360670Y255520D02*
X362018Y254800D01*
X363480Y254356D01*
X365000Y254207D01*
X366520Y254356D01*
X367982Y254800D01*
X369250Y255477D01*
X370518Y254800D01*
X371980Y254356D01*
X373500Y254207D01*
X375020Y254356D01*
X376482Y254800D01*
X377750Y255477D01*
X379018Y254800D01*
X380480Y254356D01*
X382000Y254207D01*
X383520Y254356D01*
X384982Y254800D01*
X386330Y255520D01*
X386500Y255660D01*
X386670Y255520D01*
X388018Y254800D01*
X389480Y254356D01*
X391000Y254207D01*
X392520Y254356D01*
X393982Y254800D01*
X394855Y255266D01*
X395209Y254913D01*
X395165Y254831D01*
X394744Y253443D01*
X394725Y253252D01*
X392337Y250863D01*
X391587Y249950D01*
X391030Y248907D01*
X390687Y247776D01*
X390571Y246600D01*
Y235732D01*
X390019Y235659D01*
X389106Y235281D01*
X388321Y234679D01*
X387719Y233894D01*
X387341Y232980D01*
X387212Y232000D01*
X387341Y231019D01*
X387719Y230106D01*
X388321Y229321D01*
X389106Y228719D01*
X390019Y228341D01*
X390971Y228216D01*
Y226379D01*
X390520Y225830D01*
X389800Y224482D01*
X389356Y223020D01*
X389287Y222313D01*
X386537Y219563D01*
X386450Y219457D01*
X386348Y219365D01*
X386075Y219001D01*
X385787Y218650D01*
X385722Y218529D01*
X385640Y218419D01*
X385444Y218008D01*
X385230Y217607D01*
X385190Y217476D01*
X385131Y217352D01*
X385019Y216911D01*
X384887Y216476D01*
X384873Y216339D01*
X384840Y216207D01*
X384816Y215753D01*
X384771Y215300D01*
X384784Y215163D01*
X384777Y215026D01*
X385471Y199763D01*
Y197379D01*
X385020Y196830D01*
X384300Y195482D01*
X383856Y194020D01*
X383787Y193313D01*
X377791Y187317D01*
X377329Y187509D01*
Y197400D01*
X377329Y197400D01*
X377329Y197400D01*
Y197400D01*
X377329D01*
X377329Y197400D01*
X377213Y198576D01*
X376870Y199707D01*
X376313Y200749D01*
X375563Y201663D01*
X374663Y202563D01*
X373749Y203313D01*
X373703Y203338D01*
X373558Y203816D01*
X374200Y205018D01*
X374644Y206480D01*
X374793Y208000D01*
X374644Y209520D01*
X374200Y210982D01*
X373480Y212330D01*
X373029Y212879D01*
Y216621D01*
X373480Y217170D01*
X374200Y218518D01*
X374644Y219980D01*
X374793Y221500D01*
X374644Y223020D01*
X374200Y224482D01*
X373480Y225830D01*
X372511Y227011D01*
X371330Y227980D01*
X369982Y228700D01*
X368520Y229144D01*
X368123Y229183D01*
X367924Y229642D01*
X368281Y230106D01*
X368659Y231019D01*
X368723Y231500D01*
X361278D01*
X361341Y231019D01*
X361719Y230106D01*
X362321Y229321D01*
X363106Y228719D01*
X363130Y228226D01*
X362670Y227980D01*
X361489Y227011D01*
X360520Y225830D01*
X359800Y224482D01*
X359356Y223020D01*
X359207Y221500D01*
X359356Y219980D01*
X359800Y218518D01*
X360520Y217170D01*
X360971Y216621D01*
Y212879D01*
X360520Y212330D01*
X359800Y210982D01*
X359356Y209520D01*
X359207Y208000D01*
X359356Y206480D01*
X359800Y205018D01*
X359939Y204758D01*
X359682Y204329D01*
X354400D01*
X353224Y204213D01*
X352093Y203870D01*
X351050Y203313D01*
X350137Y202563D01*
X350137Y202563D01*
X344972Y197398D01*
X344481Y197496D01*
X344195Y198187D01*
X343609Y198951D01*
X342845Y199537D01*
X341955Y199906D01*
X341000Y200032D01*
X340045Y199906D01*
X339156Y199537D01*
X339029Y199440D01*
X338648Y199764D01*
X338770Y199993D01*
X339113Y201124D01*
X339229Y202300D01*
Y204982D01*
X339645Y205260D01*
X340045Y205094D01*
X340500Y205034D01*
Y208657D01*
Y212281D01*
X340045Y212221D01*
X339645Y212055D01*
X339229Y212333D01*
Y220685D01*
X348657D01*
Y229340D01*
X349263Y229837D01*
X351781Y232354D01*
X352229Y232133D01*
X352212Y232000D01*
X352341Y231019D01*
X352719Y230106D01*
X353321Y229321D01*
X354106Y228719D01*
X355019Y228341D01*
X355500Y228277D01*
Y232000D01*
Y235722D01*
X355019Y235659D01*
X354106Y235281D01*
X354067Y235251D01*
X353656Y235536D01*
X353713Y235724D01*
X353829Y236900D01*
Y254134D01*
X354231Y254432D01*
X354480Y254356D01*
X356000Y254207D01*
X357520Y254356D01*
X358982Y254800D01*
X360330Y255520D01*
X360500Y255660D01*
X360670Y255520D01*
D02*
G37*
G36*
X406571Y332503D02*
Y322453D01*
X405880D01*
X405603Y322868D01*
X405851Y323468D01*
X405921Y324000D01*
X398079D01*
X398149Y323468D01*
X398397Y322868D01*
X398120Y322453D01*
X394047D01*
Y306547D01*
X406571D01*
Y258358D01*
X406119Y258144D01*
X406110Y258151D01*
X404831Y258835D01*
X403443Y259256D01*
X402000Y259398D01*
X400557Y259256D01*
X399169Y258835D01*
X398435Y258443D01*
X398082Y258796D01*
X398200Y259018D01*
X398644Y260480D01*
X398793Y262000D01*
X398644Y263520D01*
X398200Y264982D01*
X397480Y266330D01*
X397029Y266879D01*
Y274500D01*
X397809Y275450D01*
X398566Y276866D01*
X399032Y278402D01*
X399189Y280000D01*
X399032Y281598D01*
X398566Y283134D01*
X397809Y284550D01*
X396791Y285790D01*
X395550Y286809D01*
X394134Y287566D01*
X392598Y288032D01*
X391000Y288189D01*
X389899Y288081D01*
X389529Y288416D01*
Y291022D01*
X389542Y291225D01*
X389529D01*
Y331380D01*
X389529Y331380D01*
X389529Y331380D01*
Y331380D01*
X389529D01*
X389529Y331380D01*
X389413Y332557D01*
X389070Y333688D01*
X388513Y334730D01*
X387763Y335644D01*
X382298Y341109D01*
X382489Y341571D01*
X397503D01*
X406571Y332503D01*
D02*
G37*
G36*
X401771Y214811D02*
Y42397D01*
X384900Y25526D01*
X384438Y25718D01*
Y35460D01*
X384491Y36000D01*
X384338Y37559D01*
X383883Y39058D01*
X383144Y40440D01*
X382151Y41651D01*
X380940Y42645D01*
X379558Y43383D01*
X378059Y43838D01*
X376500Y43991D01*
X374941Y43838D01*
X373442Y43383D01*
X372726Y43000D01*
X372428Y43402D01*
X373997Y44971D01*
X375000D01*
X376176Y45087D01*
X377307Y45430D01*
X378349Y45987D01*
X379263Y46737D01*
X383085Y50559D01*
X383547Y50368D01*
Y48047D01*
X387620D01*
X387897Y47631D01*
X387649Y47032D01*
X387579Y46500D01*
X395421D01*
X395351Y47032D01*
X395103Y47631D01*
X395380Y48047D01*
X399453D01*
Y63953D01*
X388529D01*
Y71800D01*
X388413Y72976D01*
X388070Y74107D01*
X387513Y75150D01*
X386763Y76063D01*
X384263Y78563D01*
X383349Y79313D01*
X382307Y79870D01*
X381176Y80213D01*
X380000Y80329D01*
X368387D01*
X368051Y80699D01*
X368195Y82157D01*
X368047Y83658D01*
X367609Y85102D01*
X366898Y86432D01*
X365941Y87598D01*
X364775Y88555D01*
X363445Y89266D01*
X362001Y89704D01*
X360829Y89820D01*
Y94185D01*
X368158D01*
Y109500D01*
X360829D01*
Y115421D01*
X361000Y115571D01*
Y119500D01*
Y123429D01*
X360829Y123579D01*
Y125421D01*
X361000Y125571D01*
Y129473D01*
X361027Y129500D01*
X361500D01*
Y129973D01*
X361527Y130000D01*
X365223D01*
X365159Y130481D01*
X364781Y131394D01*
X364797Y131468D01*
X365830Y132020D01*
X367011Y132989D01*
X367980Y134170D01*
X368700Y135518D01*
X369144Y136980D01*
X369213Y137687D01*
X382159Y150633D01*
X382909Y151546D01*
X383466Y152589D01*
X383809Y153720D01*
X383925Y154896D01*
Y171190D01*
X384410Y171312D01*
X385020Y170170D01*
X385989Y168989D01*
X387170Y168020D01*
X388203Y167468D01*
X388219Y167394D01*
X387841Y166481D01*
X387777Y166000D01*
X395222D01*
X395159Y166481D01*
X394781Y167394D01*
X394797Y167468D01*
X395830Y168020D01*
X397011Y168989D01*
X397980Y170170D01*
X398700Y171518D01*
X399144Y172980D01*
X399293Y174500D01*
X399144Y176020D01*
X398700Y177482D01*
X397980Y178830D01*
X397840Y179000D01*
X397980Y179170D01*
X398700Y180518D01*
X399144Y181980D01*
X399293Y183500D01*
X399144Y185020D01*
X398700Y186482D01*
X397980Y187830D01*
X397840Y188000D01*
X397980Y188170D01*
X398700Y189518D01*
X399144Y190980D01*
X399293Y192500D01*
X399144Y194020D01*
X398700Y195482D01*
X397980Y196830D01*
X397529Y197379D01*
Y199900D01*
X397516Y200037D01*
X397523Y200174D01*
X397337Y204256D01*
X397980Y204341D01*
X398894Y204719D01*
X399679Y205321D01*
X400281Y206106D01*
X400659Y207019D01*
X400788Y208000D01*
X400659Y208980D01*
X400281Y209894D01*
X399679Y210679D01*
X398894Y211281D01*
X397980Y211659D01*
X397000Y211788D01*
X396995Y211793D01*
X396944Y212917D01*
X397813Y213787D01*
X398520Y213856D01*
X399982Y214300D01*
X401330Y215020D01*
X401771Y214811D01*
D02*
G37*
G36*
X303849Y46390D02*
X304769Y45269D01*
X305890Y44349D01*
X307169Y43665D01*
X308557Y43244D01*
X310000Y43102D01*
X311443Y43244D01*
X312831Y43665D01*
X313542Y44045D01*
X313971Y43788D01*
Y32979D01*
X313542Y32722D01*
X313331Y32835D01*
X311943Y33256D01*
X310500Y33398D01*
X309057Y33256D01*
X307669Y32835D01*
X306390Y32151D01*
X305269Y31231D01*
X304349Y30110D01*
X303665Y28831D01*
X303513Y28328D01*
X303021Y28238D01*
X302898Y28398D01*
X302196Y28937D01*
X301378Y29276D01*
X300529Y29387D01*
Y47138D01*
X303362D01*
X303362Y47138D01*
Y47138D01*
X303439Y47157D01*
X303849Y46390D01*
D02*
G37*
%LPC*%
G36*
X391500Y146293D02*
X389980Y146144D01*
X388518Y145700D01*
X387170Y144980D01*
X385989Y144011D01*
X385020Y142830D01*
X384300Y141482D01*
X383856Y140020D01*
X383707Y138500D01*
X383856Y136980D01*
X384300Y135518D01*
X385020Y134170D01*
X385160Y134000D01*
X385020Y133830D01*
X384300Y132482D01*
X383856Y131020D01*
X383707Y129500D01*
X383856Y127980D01*
X384300Y126518D01*
X385020Y125170D01*
X385570Y124500D01*
X385020Y123830D01*
X384300Y122482D01*
X383856Y121020D01*
X383707Y119500D01*
X383856Y117980D01*
X384300Y116518D01*
X384421Y116290D01*
X384104Y115903D01*
X382943Y116256D01*
X381500Y116398D01*
X380057Y116256D01*
X378669Y115835D01*
X377390Y115151D01*
X376269Y114231D01*
X375349Y113110D01*
X374665Y111831D01*
X374244Y110443D01*
X374102Y109000D01*
X374244Y107557D01*
X374665Y106169D01*
X375349Y104890D01*
X376269Y103769D01*
X377390Y102849D01*
X378669Y102165D01*
X380057Y101744D01*
X381500Y101602D01*
X382943Y101744D01*
X384331Y102165D01*
X385610Y102849D01*
X386500Y103579D01*
X387390Y102849D01*
X388669Y102165D01*
X390057Y101744D01*
X391500Y101602D01*
X392943Y101744D01*
X394331Y102165D01*
X395610Y102849D01*
X396731Y103769D01*
X397651Y104890D01*
X398335Y106169D01*
X398756Y107557D01*
X398898Y109000D01*
X398756Y110443D01*
X398335Y111831D01*
X397651Y113110D01*
X397529Y113259D01*
Y114621D01*
X397980Y115170D01*
X398700Y116518D01*
X399144Y117980D01*
X399293Y119500D01*
X399144Y121020D01*
X398700Y122482D01*
X397980Y123830D01*
X397430Y124500D01*
X397980Y125170D01*
X398700Y126518D01*
X399144Y127980D01*
X399293Y129500D01*
X399144Y131020D01*
X398700Y132482D01*
X397980Y133830D01*
X397840Y134000D01*
X397980Y134170D01*
X398700Y135518D01*
X399144Y136980D01*
X399293Y138500D01*
X399144Y140020D01*
X398700Y141482D01*
X397980Y142830D01*
X397011Y144011D01*
X395830Y144980D01*
X394482Y145700D01*
X393020Y146144D01*
X391500Y146293D01*
D02*
G37*
G36*
X365223Y119000D02*
X362000D01*
Y115778D01*
X362480Y115841D01*
X363394Y116219D01*
X364179Y116821D01*
X364781Y117606D01*
X365159Y118519D01*
X365223Y119000D01*
D02*
G37*
G36*
X282421Y78500D02*
X279000D01*
Y75079D01*
X279532Y75149D01*
X280493Y75547D01*
X281319Y76181D01*
X281953Y77007D01*
X282351Y77968D01*
X282421Y78500D01*
D02*
G37*
G36*
X362000Y123222D02*
Y120000D01*
X365223D01*
X365159Y120481D01*
X364781Y121394D01*
X364179Y122179D01*
X363394Y122781D01*
X362480Y123159D01*
X362000Y123222D01*
D02*
G37*
G36*
X395222Y165000D02*
X392000D01*
Y161777D01*
X392480Y161841D01*
X393394Y162219D01*
X394179Y162821D01*
X394781Y163606D01*
X395159Y164520D01*
X395222Y165000D01*
D02*
G37*
G36*
X391000D02*
X387777D01*
X387841Y164520D01*
X388219Y163606D01*
X388821Y162821D01*
X389606Y162219D01*
X390519Y161841D01*
X391000Y161777D01*
Y165000D01*
D02*
G37*
G36*
X365223Y129000D02*
X362000D01*
Y125777D01*
X362480Y125841D01*
X363394Y126219D01*
X364179Y126821D01*
X364781Y127606D01*
X365159Y128519D01*
X365223Y129000D01*
D02*
G37*
G36*
X278000Y78500D02*
X274579D01*
X274649Y77968D01*
X275047Y77007D01*
X275681Y76181D01*
X276507Y75547D01*
X277468Y75149D01*
X278000Y75079D01*
Y78500D01*
D02*
G37*
G36*
X227325Y50000D02*
X224500D01*
Y47175D01*
X224878Y47224D01*
X225696Y47563D01*
X226398Y48102D01*
X226937Y48804D01*
X227276Y49622D01*
X227325Y50000D01*
D02*
G37*
G36*
X275325D02*
X272500D01*
Y47175D01*
X272878Y47224D01*
X273696Y47563D01*
X274398Y48102D01*
X274937Y48804D01*
X275276Y49622D01*
X275325Y50000D01*
D02*
G37*
G36*
X391000Y45500D02*
X387579D01*
X387649Y44968D01*
X388047Y44007D01*
X388681Y43181D01*
X389507Y42547D01*
X390468Y42149D01*
X391000Y42079D01*
Y45500D01*
D02*
G37*
G36*
X395421D02*
X392000D01*
Y42079D01*
X392532Y42149D01*
X393493Y42547D01*
X394319Y43181D01*
X394953Y44007D01*
X395351Y44968D01*
X395421Y45500D01*
D02*
G37*
G36*
X272500Y53825D02*
Y51000D01*
X275325D01*
X275276Y51378D01*
X274937Y52196D01*
X274398Y52898D01*
X273696Y53437D01*
X272878Y53776D01*
X272500Y53825D01*
D02*
G37*
G36*
X268000Y78500D02*
X264579D01*
X264649Y77968D01*
X265047Y77007D01*
X265681Y76181D01*
X266507Y75547D01*
X267468Y75149D01*
X268000Y75079D01*
Y78500D01*
D02*
G37*
G36*
X272421D02*
X269000D01*
Y75079D01*
X269532Y75149D01*
X270493Y75547D01*
X271319Y76181D01*
X271953Y77007D01*
X272351Y77968D01*
X272421Y78500D01*
D02*
G37*
G36*
X258000D02*
X254547D01*
Y75047D01*
X258000D01*
Y78500D01*
D02*
G37*
G36*
X262453D02*
X259000D01*
Y75047D01*
X262453D01*
Y78500D01*
D02*
G37*
G36*
X381500Y235722D02*
X381019Y235659D01*
X380106Y235281D01*
X379321Y234679D01*
X378719Y233894D01*
X378341Y232980D01*
X378277Y232500D01*
X381500D01*
Y235722D01*
D02*
G37*
G36*
X382500D02*
Y232500D01*
X385722D01*
X385659Y232980D01*
X385281Y233894D01*
X384679Y234679D01*
X383894Y235281D01*
X382980Y235659D01*
X382500Y235722D01*
D02*
G37*
G36*
X373000D02*
X372519Y235659D01*
X371606Y235281D01*
X370821Y234679D01*
X370219Y233894D01*
X369841Y232980D01*
X369777Y232500D01*
X373000D01*
Y235722D01*
D02*
G37*
G36*
X374000D02*
Y232500D01*
X377222D01*
X377159Y232980D01*
X376781Y233894D01*
X376179Y234679D01*
X375394Y235281D01*
X374481Y235659D01*
X374000Y235722D01*
D02*
G37*
G36*
X325000Y262825D02*
X324622Y262776D01*
X323804Y262437D01*
X323102Y261898D01*
X322563Y261196D01*
X322224Y260378D01*
X322175Y260000D01*
X325000D01*
Y262825D01*
D02*
G37*
G36*
X401500Y328421D02*
X400968Y328351D01*
X400007Y327953D01*
X399181Y327319D01*
X398547Y326493D01*
X398149Y325532D01*
X398079Y325000D01*
X401500D01*
Y328421D01*
D02*
G37*
G36*
X402500D02*
Y325000D01*
X405921D01*
X405851Y325532D01*
X405453Y326493D01*
X404819Y327319D01*
X403993Y327953D01*
X403032Y328351D01*
X402500Y328421D01*
D02*
G37*
G36*
X203000Y285000D02*
X200175D01*
X200224Y284622D01*
X200563Y283804D01*
X201102Y283102D01*
X201804Y282563D01*
X202622Y282224D01*
X203000Y282175D01*
Y285000D01*
D02*
G37*
G36*
Y288825D02*
X202622Y288776D01*
X201804Y288437D01*
X201102Y287898D01*
X200563Y287196D01*
X200224Y286378D01*
X200175Y286000D01*
X203000D01*
Y288825D01*
D02*
G37*
G36*
X365500Y235722D02*
Y232500D01*
X368723D01*
X368659Y232980D01*
X368281Y233894D01*
X367679Y234679D01*
X366894Y235281D01*
X365981Y235659D01*
X365500Y235722D01*
D02*
G37*
G36*
X359722Y231500D02*
X356500D01*
Y228277D01*
X356980Y228341D01*
X357894Y228719D01*
X358679Y229321D01*
X359281Y230106D01*
X359659Y231019D01*
X359722Y231500D01*
D02*
G37*
G36*
X373000D02*
X369777D01*
X369841Y231019D01*
X370219Y230106D01*
X370821Y229321D01*
X371606Y228719D01*
X372519Y228341D01*
X373000Y228277D01*
Y231500D01*
D02*
G37*
G36*
X344623Y208157D02*
X341500D01*
Y205034D01*
X341955Y205094D01*
X342845Y205463D01*
X343609Y206049D01*
X344195Y206813D01*
X344563Y207703D01*
X344623Y208157D01*
D02*
G37*
G36*
X341500Y212281D02*
Y209157D01*
X344623D01*
X344563Y209612D01*
X344195Y210502D01*
X343609Y211266D01*
X342845Y211852D01*
X341955Y212221D01*
X341500Y212281D01*
D02*
G37*
G36*
X377222Y231500D02*
X374000D01*
Y228277D01*
X374481Y228341D01*
X375394Y228719D01*
X376179Y229321D01*
X376781Y230106D01*
X377159Y231019D01*
X377222Y231500D01*
D02*
G37*
G36*
X356500Y235722D02*
Y232500D01*
X359722D01*
X359659Y232980D01*
X359281Y233894D01*
X358679Y234679D01*
X357894Y235281D01*
X356980Y235659D01*
X356500Y235722D01*
D02*
G37*
G36*
X364500D02*
X364019Y235659D01*
X363106Y235281D01*
X362321Y234679D01*
X361719Y233894D01*
X361341Y232980D01*
X361278Y232500D01*
X364500D01*
Y235722D01*
D02*
G37*
G36*
X381500Y231500D02*
X378277D01*
X378341Y231019D01*
X378719Y230106D01*
X379321Y229321D01*
X380106Y228719D01*
X381019Y228341D01*
X381500Y228277D01*
Y231500D01*
D02*
G37*
G36*
X385722D02*
X382500D01*
Y228277D01*
X382980Y228341D01*
X383894Y228719D01*
X384679Y229321D01*
X385281Y230106D01*
X385659Y231019D01*
X385722Y231500D01*
D02*
G37*
%LPD*%
D10*
X354166Y327834D02*
G03*
X357500Y326453I3334J3334D01*
G01*
X355547Y324500D02*
G03*
X354166Y327834I-4714J0D01*
G01*
X374166Y327834D02*
G03*
X377500Y326453I3334J3334D01*
G01*
X375547Y324500D02*
G03*
X374166Y327834I-4714J0D01*
G01*
X211175Y326825D02*
G03*
X213500Y325862I2325J2325D01*
G01*
X212138Y324500D02*
G03*
X211175Y326825I-3289J0D01*
G01*
X215825D02*
G03*
X214862Y324500I2325J-2325D01*
G01*
X213500Y325862D02*
G03*
X215825Y326825I0J3289D01*
G01*
Y322175D02*
G03*
X213500Y323138I-2325J-2325D01*
G01*
X214862Y324500D02*
G03*
X215825Y322175I3289J0D01*
G01*
X399675Y249675D02*
G03*
X400638Y252000I-2325J2325D01*
G01*
X402000Y250638D02*
G03*
X399675Y249675I0J-3289D01*
G01*
X213500Y282211D02*
G03*
X212537Y284537I-3289J0D01*
G01*
X214463D02*
G03*
X213500Y282211I2325J-2325D01*
G01*
Y288789D02*
G03*
X214463Y286463I3289J0D01*
G01*
X212537D02*
G03*
X213500Y288789I-2325J2325D01*
G01*
Y308211D02*
G03*
X212537Y310537I-3289J0D01*
G01*
X214463D02*
G03*
X213500Y308211I2325J-2325D01*
G01*
Y295211D02*
G03*
X212537Y297537I-3289J0D01*
G01*
X214463D02*
G03*
X213500Y295211I2325J-2325D01*
G01*
Y301789D02*
G03*
X214463Y299463I3289J0D01*
G01*
X212537D02*
G03*
X213500Y301789I-2325J2325D01*
G01*
X323175Y247175D02*
G03*
X324138Y249500I-2325J2325D01*
G01*
X325500Y248138D02*
G03*
X323175Y247175I0J-3289D01*
G01*
X230334Y191166D02*
G03*
X227000Y192547I-3334J-3334D01*
G01*
X228953Y194500D02*
G03*
X230334Y191166I4714J0D01*
G01*
X383500Y282500D02*
G03*
X383049Y280650I1296J-1296D01*
G01*
X381650Y282049D02*
G03*
X383500Y282500I554J1747D01*
G01*
X379480Y281520D02*
G03*
X383500Y291225I-9705J9705D01*
G01*
X380894Y280106D02*
G03*
X383500Y286397I-6291J6291D01*
G01*
X379002Y264998D02*
G03*
X382000Y263756I2998J2998D01*
G01*
X380244Y262000D02*
G03*
X379002Y264998I-4239J0D01*
G01*
X372000Y274810D02*
G03*
X370480Y278480I-5190J0D01*
G01*
X373520D02*
G03*
X372000Y274810I3670J-3670D01*
G01*
X358330Y276330D02*
G03*
X359850Y280000I-3670J3670D01*
G01*
X362000Y277850D02*
G03*
X358330Y276330I0J-5190D01*
G01*
X216497Y247997D02*
G03*
X215256Y245000I2998J-2998D01*
G01*
X213500Y246756D02*
G03*
X216497Y247997I0J4239D01*
G01*
X240166Y157834D02*
G03*
X243500Y156453I3334J3334D01*
G01*
X241547Y154500D02*
G03*
X240166Y157834I-4714J0D01*
G01*
X246834Y221166D02*
G03*
X243500Y222547I-3334J-3334D01*
G01*
X245453Y224500D02*
G03*
X246834Y221166I4714J0D01*
G01*
X246834Y231166D02*
G03*
X243500Y232547I-3334J-3334D01*
G01*
X245453Y234500D02*
G03*
X246834Y231166I4714J0D01*
G01*
X246834Y241166D02*
G03*
X243500Y242547I-3334J-3334D01*
G01*
X245453Y244500D02*
G03*
X246834Y241166I4714J0D01*
G01*
Y257834D02*
G03*
X245453Y254500I3334J-3334D01*
G01*
X243500Y256453D02*
G03*
X246834Y257834I0J4714D01*
G01*
X289166Y157834D02*
G03*
X292500Y156453I3334J3334D01*
G01*
X290547Y154500D02*
G03*
X289166Y157834I-4714J0D01*
G01*
X295834Y161167D02*
G03*
X292500Y162547I-3334J-3334D01*
G01*
X294453Y164500D02*
G03*
X295834Y161166I4714J0D01*
G01*
Y177834D02*
G03*
X294453Y174500I3334J-3334D01*
G01*
X292500Y176453D02*
G03*
X295834Y177833I0J4714D01*
G01*
X295834Y187834D02*
G03*
X294453Y184500I3334J-3334D01*
G01*
X292500Y186453D02*
G03*
X295834Y187833I0J4714D01*
G01*
X295834Y297834D02*
G03*
X294453Y294500I3334J-3334D01*
G01*
X292500Y296453D02*
G03*
X295834Y297834I0J4714D01*
G01*
X295834Y307834D02*
G03*
X294453Y304500I3334J-3334D01*
G01*
X292500Y306453D02*
G03*
X295834Y307834I0J4714D01*
G01*
X295834Y327834D02*
G03*
X294453Y324500I3334J-3334D01*
G01*
X292500Y326453D02*
G03*
X295834Y327834I0J4714D01*
G01*
X358503Y135503D02*
G03*
X359744Y138500I-2998J2998D01*
G01*
X361500Y136744D02*
G03*
X358503Y135503I0J-4239D01*
G01*
Y171502D02*
G03*
X359744Y174500I-2998J2998D01*
G01*
X361500Y172744D02*
G03*
X358503Y171502I0J-4239D01*
G01*
X252000Y47211D02*
G03*
X251037Y49537I-3289J0D01*
G01*
X252963D02*
G03*
X252000Y47211I2325J-2325D01*
G01*
X320000D02*
G03*
X319037Y49537I-3289J0D01*
G01*
X320963D02*
G03*
X320000Y47211I2325J-2325D01*
G01*
X313000Y203310D02*
G03*
X311480Y206980I-5190J0D01*
G01*
X314520D02*
G03*
X313000Y203310I3670J-3670D01*
G01*
X216325Y23675D02*
G03*
X214000Y24638I-2325J-2325D01*
G01*
X215362Y26000D02*
G03*
X216325Y23675I3289J0D01*
G01*
X211675Y28325D02*
G03*
X214000Y27362I2325J2325D01*
G01*
X212638Y26000D02*
G03*
X211675Y28325I-3289J0D01*
G01*
X264325Y23675D02*
G03*
X262000Y24638I-2325J-2325D01*
G01*
X263362Y26000D02*
G03*
X264325Y23675I3289J0D01*
G01*
X320330Y283670D02*
G03*
X324000Y282150I3670J3670D01*
G01*
X321850Y280000D02*
G03*
X320330Y283670I-5190J0D01*
G01*
X336999Y176657D02*
G03*
X339828Y177829I0J4002D01*
G01*
Y175485D02*
G03*
X336999Y176657I-2829J-2829D01*
G01*
X391500Y112289D02*
G03*
X392463Y109963I3289J0D01*
G01*
X390537D02*
G03*
X391500Y112289I-2325J2325D01*
G01*
X196325Y189175D02*
G03*
X194000Y190138I-2325J-2325D01*
G01*
X195362Y191500D02*
G03*
X196325Y189175I3289J0D01*
G01*
X361500Y161261D02*
G03*
X360258Y164258I-4239J0D01*
G01*
X362742D02*
G03*
X361500Y161261I2998J-2998D01*
G01*
X364497Y168498D02*
G03*
X363256Y165500I2998J-2998D01*
G01*
X361500Y167256D02*
G03*
X364497Y168498I0J4239D01*
G01*
Y189503D02*
G03*
X361500Y190744I-2998J-2998D01*
G01*
X363256Y192500D02*
G03*
X364497Y189503I4239J0D01*
G01*
X317825Y151675D02*
G03*
X315500Y152638I-2325J-2325D01*
G01*
X316862Y154000D02*
G03*
X317825Y151675I3289J0D01*
G01*
X216325Y52825D02*
G03*
X215362Y50500I2325J-2325D01*
G01*
X214000Y51862D02*
G03*
X216325Y52825I0J3289D01*
G01*
X288500Y113714D02*
G03*
X289881Y110381I4714J0D01*
G01*
X287119D02*
G03*
X288500Y113714I-3334J3334D01*
G01*
X278500D02*
G03*
X279881Y110381I4714J0D01*
G01*
X277119D02*
G03*
X278500Y113714I-3334J3334D01*
G01*
X268500D02*
G03*
X269881Y110381I4714J0D01*
G01*
X267119D02*
G03*
X268500Y113714I-3334J3334D01*
G01*
X258500D02*
G03*
X259881Y110381I4714J0D01*
G01*
X257119D02*
G03*
X258500Y113714I-3334J3334D01*
G01*
X288500Y118286D02*
G03*
X287119Y121619I-4714J0D01*
G01*
X289881D02*
G03*
X288500Y118286I3334J-3334D01*
G01*
X285166Y126333D02*
G03*
X288500Y124953I3334J3334D01*
G01*
X286547Y123000D02*
G03*
X285166Y126334I-4714J0D01*
G01*
X278500Y118286D02*
G03*
X277119Y121619I-4714J0D01*
G01*
X279881D02*
G03*
X278500Y118286I3334J-3334D01*
G01*
X275166Y126333D02*
G03*
X278500Y124953I3334J3334D01*
G01*
X276547Y123000D02*
G03*
X275166Y126334I-4714J0D01*
G01*
X268500Y118286D02*
G03*
X267119Y121619I-4714J0D01*
G01*
X269881D02*
G03*
X268500Y118286I3334J-3334D01*
G01*
X265166Y126333D02*
G03*
X268500Y124953I3334J3334D01*
G01*
X266547Y123000D02*
G03*
X265166Y126334I-4714J0D01*
G01*
X258500Y118286D02*
G03*
X257119Y121619I-4714J0D01*
G01*
X259881D02*
G03*
X258500Y118286I3334J-3334D01*
G01*
X335000Y66221D02*
G03*
X336061Y63661I3621J0D01*
G01*
X333939D02*
G03*
X335000Y66221I-2561J2561D01*
G01*
X285100Y225521D02*
G03*
X286161Y222961I3621J0D01*
G01*
X284039D02*
G03*
X285100Y225521I-2561J2561D01*
G01*
X325600Y237879D02*
G03*
X324539Y240439I-3621J0D01*
G01*
X326661D02*
G03*
X325600Y237879I2561J-2561D01*
G01*
X332600Y244621D02*
G03*
X333661Y242061I3621J0D01*
G01*
X331539D02*
G03*
X332600Y244621I-2561J2561D01*
G01*
X265761Y330239D02*
G03*
X263200Y331300I-2561J-2561D01*
G01*
X264700Y332800D02*
G03*
X265761Y330239I3621J0D01*
G01*
X254839Y139439D02*
G03*
X255900Y142000I-2561J2561D01*
G01*
X257400Y140500D02*
G03*
X254839Y139439I0J-3621D01*
G01*
X278439Y189639D02*
G03*
X279500Y192200I-2561J2561D01*
G01*
X281000Y190700D02*
G03*
X278439Y189639I0J-3621D01*
G01*
X350300Y160621D02*
G03*
X351361Y158061I3621J0D01*
G01*
X349239D02*
G03*
X350300Y160621I-2561J2561D01*
G01*
X193000Y73521D02*
G03*
X194061Y70961I3621J0D01*
G01*
X191939D02*
G03*
X193000Y73521I-2561J2561D01*
G01*
X200800Y169921D02*
G03*
X201861Y167361I3621J0D01*
G01*
X199739D02*
G03*
X200800Y169921I-2561J2561D01*
G01*
X391500Y129500D02*
Y138500D01*
X213500Y275000D02*
Y285500D01*
Y298500D01*
Y311500D01*
X391500Y109000D02*
Y119500D01*
X391000Y262000D02*
Y280000D01*
X288500Y109000D02*
Y123000D01*
X278500Y109000D02*
Y123000D01*
X268500Y109000D02*
Y123000D01*
X391500Y174500D02*
Y183500D01*
X367000Y208000D02*
Y221500D01*
X258500Y109000D02*
Y123000D01*
X361500Y165500D02*
X367300Y171300D01*
Y186700D01*
X361500Y192500D02*
X367300Y186700D01*
X213500Y245000D02*
X219300Y250800D01*
Y318700D01*
X213500Y324500D02*
X219300Y318700D01*
X198600Y68600D02*
X209000Y79000D01*
X198600Y41400D02*
Y68600D01*
Y41400D02*
X214000Y26000D01*
X396600Y246600D02*
X402000Y252000D01*
X396600Y235000D02*
Y246600D01*
Y235000D02*
X397000Y234600D01*
Y221500D02*
Y234600D01*
X341547Y330453D02*
X347500Y324500D01*
X314500Y330453D02*
X341547D01*
X311547Y327500D02*
X314500Y330453D01*
X311547Y313547D02*
Y327500D01*
X292500Y294500D02*
X311547Y313547D01*
X292500Y304500D02*
X307547Y319547D01*
Y330000D01*
X312000Y334453D01*
X347547D01*
X357500Y324500D01*
X292500Y184500D02*
X298500Y190500D01*
Y285800D01*
X298900Y286200D01*
X317800D01*
X324000Y280000D01*
X194000Y191500D02*
X200800Y184700D01*
Y166300D02*
Y184700D01*
X214000Y26000D02*
X219400Y20600D01*
X235000D01*
X252000Y37600D01*
Y50500D01*
X313000Y208500D02*
X320036Y215536D01*
Y244036D01*
X325500Y249500D01*
X354800Y131800D02*
X361500Y138500D01*
X354800Y79500D02*
Y131800D01*
Y79500D02*
X360000Y74300D01*
X380000D01*
X382500Y71800D01*
Y58500D02*
Y71800D01*
X375000Y51000D02*
X382500Y58500D01*
X371500Y51000D02*
X375000D01*
X356500Y36000D02*
X371500Y51000D01*
X206000Y332000D02*
X213500Y324500D01*
X206000Y332000D02*
Y337561D01*
X361500Y138500D02*
X377896Y154896D01*
Y178896D01*
X391500Y192500D01*
X315500Y154000D02*
X318031Y151469D01*
X355596D01*
X361500Y157374D01*
Y165500D01*
X209000Y79000D02*
Y86922D01*
X188547Y107375D02*
X209000Y86922D01*
X188547Y107375D02*
Y142300D01*
X206763Y160516D01*
Y169763D01*
X214500Y177500D01*
X178500Y161500D02*
X184500Y167500D01*
X178500Y108700D02*
Y161500D01*
Y108700D02*
X193000Y94200D01*
Y69900D02*
Y94200D01*
X350300Y157000D02*
Y163300D01*
X361500Y174500D01*
X301000Y63600D02*
Y120743D01*
X278500Y143243D02*
X301000Y120743D01*
X278500Y143243D02*
Y175000D01*
X275500Y178000D02*
X278500Y175000D01*
X275500Y178000D02*
Y186700D01*
X281000Y192200D01*
X253900Y138500D02*
X257400Y142000D01*
X239300Y138500D02*
X253900D01*
X233000Y144800D02*
X239300Y138500D01*
X233000Y144800D02*
Y188500D01*
X227000Y194500D02*
X233000Y188500D01*
X271902Y139598D02*
X288500Y123000D01*
X271902Y139598D02*
Y159389D01*
X271500Y159791D02*
X271902Y159389D01*
X271500Y159791D02*
Y216500D01*
X243500Y244500D02*
X271500Y216500D01*
X286500Y160500D02*
X292500Y154500D01*
X286500Y160500D02*
Y203100D01*
X276300Y213300D02*
X286500Y203100D01*
X276300Y213300D02*
Y319700D01*
X263200Y332800D02*
X276300Y319700D01*
X213500Y324500D02*
X221500Y332500D01*
X230000D01*
X237453Y325047D01*
Y270547D02*
Y325047D01*
Y270547D02*
X243500Y264500D01*
X332600Y241000D02*
Y269600D01*
X343000Y280000D01*
X329250Y198350D02*
X333200Y202300D01*
Y234100D01*
X345000D01*
X347800Y236900D01*
Y265800D01*
X362000Y280000D01*
X207700Y269200D02*
X213500Y275000D01*
X207700Y215200D02*
Y269200D01*
Y215200D02*
X220500Y202400D01*
Y145000D02*
Y202400D01*
X198500Y123000D02*
X220500Y145000D01*
X243500Y314500D02*
X249500Y318500D01*
Y330000D01*
X236400Y343100D02*
X249500Y330000D01*
X202100Y343100D02*
X236400D01*
X195900Y336900D02*
X202100Y343100D01*
X195900Y305000D02*
Y336900D01*
X320000Y25600D02*
Y50500D01*
X262000Y26000D02*
X267800Y20200D01*
X314600D02*
X320000Y25600D01*
X294500Y23200D02*
X297500Y20200D01*
X294500Y23200D02*
Y82500D01*
X291300Y85700D02*
X294500Y82500D01*
X263800Y85700D02*
X291300D01*
X232500Y117000D02*
X263800Y85700D01*
X204500Y117000D02*
X232500D01*
X198500Y123000D02*
X204500Y117000D01*
X390800Y215300D02*
X397000Y221500D01*
X390800Y215300D02*
X391500Y199900D01*
Y192500D02*
Y199900D01*
X372000Y272000D02*
X382000Y262000D01*
X372000Y272000D02*
Y280000D01*
X325600Y202800D02*
Y241500D01*
X322700Y199900D02*
X325600Y202800D01*
X322700Y191800D02*
Y199900D01*
Y191800D02*
X323900Y190600D01*
X346700D01*
X354400Y198300D01*
X370400D01*
X371300Y197400D01*
Y160000D02*
Y197400D01*
X340500Y129200D02*
X371300Y160000D01*
X340500Y62500D02*
Y129200D01*
Y62500D02*
X343000Y60000D01*
X370500D01*
X376500Y66000D01*
X310000Y50500D02*
X320000Y58800D01*
X333000Y45800D01*
Y22400D02*
Y45800D01*
Y22400D02*
X340000Y15400D01*
X383300D01*
X407800Y39900D01*
Y233100D01*
X412600Y237900D01*
Y335000D01*
X400000Y347600D02*
X412600Y335000D01*
X270000Y347600D02*
X400000D01*
X254200Y331800D02*
X270000Y347600D01*
X254200Y265200D02*
Y331800D01*
X243500Y254500D02*
X254200Y265200D01*
X267500Y134000D02*
X278500Y123000D01*
X267500Y134000D02*
Y210500D01*
X243500Y234500D02*
X267500Y210500D01*
X263500Y128000D02*
X268500Y123000D01*
X263500Y128000D02*
Y204500D01*
X243500Y224500D02*
X263500Y204500D01*
X334214Y54200D02*
X354700D01*
X329500Y58914D02*
X334214Y54200D01*
X329500Y58914D02*
Y97900D01*
X282500Y144900D02*
X329500Y97900D01*
X282500Y144900D02*
Y179000D01*
X281000Y180500D02*
X282500Y179000D01*
X285100Y221900D02*
Y330000D01*
X298600Y343500D01*
X371380D01*
X383500Y331380D01*
Y282500D02*
Y331380D01*
X381000Y280000D02*
X383500Y282500D01*
X237300Y160700D02*
X243500Y154500D01*
X237300Y160700D02*
Y204200D01*
X227000Y214500D02*
X237300Y204200D01*
X335000Y62600D02*
Y111100D01*
X299200Y146900D02*
X335000Y111100D01*
X299200Y146900D02*
Y157800D01*
X292500Y164500D02*
X299200Y157800D01*
X305000Y187000D02*
Y280000D01*
X292500Y174500D02*
X305000Y187000D01*
X362900Y339100D02*
X377500Y324500D01*
X307100Y339100D02*
X362900D01*
X292500Y324500D02*
X307100Y339100D01*
X214000Y50500D02*
X234953Y71453D01*
Y84953D01*
X227506Y92400D02*
X234953Y84953D01*
X220000Y92400D02*
X227506D01*
X209000Y103400D02*
X220000Y92400D01*
X209000Y103400D02*
Y109000D01*
X332043Y176657D02*
X341000D01*
X313000Y195700D02*
X332043Y176657D01*
X313000Y195700D02*
Y208500D01*
X267800Y20200D02*
X297500D01*
X314600D01*
D11*
X402000Y239315D02*
G03*
X401214Y241214I-2685J0D01*
G01*
X402786D02*
G03*
X402000Y239315I1899J-1899D01*
G01*
X403899Y243899D02*
G03*
X403112Y242000I1899J-1899D01*
G01*
X402000Y243112D02*
G03*
X403899Y243899I0J2685D01*
G01*
X203500Y288185D02*
G03*
X204286Y286286I2685J0D01*
G01*
X202714D02*
G03*
X203500Y288185I-1899J1899D01*
G01*
X201601Y283601D02*
G03*
X202388Y285500I-1899J1899D01*
G01*
X203500Y284388D02*
G03*
X201601Y283601I0J-2685D01*
G01*
X203500Y308815D02*
G03*
X202714Y310714I-2685J0D01*
G01*
X204286D02*
G03*
X203500Y308815I1899J-1899D01*
G01*
Y314185D02*
G03*
X204286Y312286I2685J0D01*
G01*
X202714D02*
G03*
X203500Y314185I-1899J1899D01*
G01*
Y295815D02*
G03*
X202714Y297714I-2685J0D01*
G01*
X204286D02*
G03*
X203500Y295815I1899J-1899D01*
G01*
Y301185D02*
G03*
X204286Y299286I2685J0D01*
G01*
X202714D02*
G03*
X203500Y301185I-1899J1899D01*
G01*
X404907Y321593D02*
G03*
X402000Y322797I-2907J-2907D01*
G01*
X403703Y324500D02*
G03*
X404907Y321593I4111J0D01*
G01*
X229907Y287407D02*
G03*
X228703Y284500I2907J-2907D01*
G01*
X227000Y286203D02*
G03*
X229907Y287407I0J4111D01*
G01*
Y321593D02*
G03*
X227000Y322797I-2907J-2907D01*
G01*
X228703Y324500D02*
G03*
X229907Y321593I4111J0D01*
G01*
X356000Y228364D02*
G03*
X354935Y230935I-3636J0D01*
G01*
X357065D02*
G03*
X356000Y228364I2571J-2571D01*
G01*
X219000Y105000D02*
G03*
X217820Y107773I-3846J0D01*
G01*
X220180D02*
G03*
X219000Y105000I2666J-2772D01*
G01*
X220703Y109000D02*
G03*
X224735Y99265I13768J0D01*
G01*
X218203Y109000D02*
G03*
X220467Y103533I7732J0D01*
G01*
X394407Y48907D02*
G03*
X393203Y46000I2907J-2907D01*
G01*
X391500Y47703D02*
G03*
X394407Y48907I0J4111D01*
G01*
X361500Y123136D02*
G03*
X362565Y120565I3636J0D01*
G01*
X360435D02*
G03*
X361500Y123136I-2571J2571D01*
G01*
X364071Y116929D02*
G03*
X361500Y117994I-2571J-2571D01*
G01*
X363006Y119500D02*
G03*
X364071Y116929I3636J0D01*
G01*
X361500Y125864D02*
G03*
X360435Y128435I-3636J0D01*
G01*
X362565D02*
G03*
X361500Y125864I2571J-2571D01*
G01*
X364071Y132071D02*
G03*
X363006Y129500I2571J-2571D01*
G01*
X361500Y131006D02*
G03*
X364071Y132071I0J3636D01*
G01*
X272000Y47815D02*
G03*
X271214Y49714I-2685J0D01*
G01*
X272786D02*
G03*
X272000Y47815I1899J-1899D01*
G01*
X270101Y52399D02*
G03*
X272000Y51612I1899J1899D01*
G01*
X270888Y50500D02*
G03*
X270101Y52399I-2685J0D01*
G01*
X300000Y47815D02*
G03*
X299214Y49714I-2685J0D01*
G01*
X300786D02*
G03*
X300000Y47815I1899J-1899D01*
G01*
X341000Y199741D02*
G03*
X341995Y197338I3398J0D01*
G01*
X340005D02*
G03*
X341000Y199741I-2403J2403D01*
G01*
Y205259D02*
G03*
X340005Y207662I-3398J0D01*
G01*
X341995D02*
G03*
X341000Y205259I2403J-2403D01*
G01*
X343403Y211060D02*
G03*
X342407Y208657I2403J-2403D01*
G01*
X341000Y210065D02*
G03*
X343403Y211060I0J3398D01*
G01*
X187407Y150407D02*
G03*
X186203Y147500I2907J-2907D01*
G01*
X184500Y149203D02*
G03*
X187407Y150407I0J4111D01*
G01*
X391500Y161864D02*
G03*
X390435Y164435I-3636J0D01*
G01*
X392565D02*
G03*
X391500Y161864I2571J-2571D01*
G01*
X394071Y168071D02*
G03*
X393006Y165500I2571J-2571D01*
G01*
X391500Y167006D02*
G03*
X394071Y168071I0J3636D01*
G01*
X300500Y28685D02*
G03*
X301286Y26786I2685J0D01*
G01*
X299714D02*
G03*
X300500Y28685I-1899J1899D01*
G01*
X397000Y204364D02*
G03*
X395935Y206935I-3636J0D01*
G01*
X398065D02*
G03*
X397000Y204364I2571J-2571D01*
G01*
X399571Y210571D02*
G03*
X398506Y208000I2571J-2571D01*
G01*
X397000Y209506D02*
G03*
X399571Y210571I0J3636D01*
G01*
X224000Y47815D02*
G03*
X223214Y49714I-2685J0D01*
G01*
X224786D02*
G03*
X224000Y47815I1899J-1899D01*
G01*
X225899Y52399D02*
G03*
X225112Y50500I1899J-1899D01*
G01*
X224000Y51612D02*
G03*
X225899Y52399I0J2685D01*
G01*
X268500Y74889D02*
G03*
X267296Y77796I-4111J0D01*
G01*
X269704D02*
G03*
X268500Y74889I2907J-2907D01*
G01*
X272000Y26000D02*
Y50500D01*
X300500Y26000D02*
Y38000D01*
X300000Y38500D02*
X300500Y38000D01*
X300000Y38500D02*
Y50500D01*
X224000Y26000D02*
Y50500D01*
X341000Y196343D02*
Y208657D01*
X361500Y119500D02*
Y129500D01*
X203500Y285500D02*
Y298500D01*
Y311500D01*
Y324500D01*
X224000Y50500D02*
X239203Y65703D01*
Y91092D01*
X232724Y97570D02*
X239203Y91092D01*
X226430Y97570D02*
X232724D01*
X219000Y105000D02*
X226430Y97570D01*
X219000Y105000D02*
Y109000D01*
X391500Y165500D02*
X397600Y171600D01*
Y200300D01*
X397000Y200900D02*
X397600Y200300D01*
X397000Y200900D02*
Y208000D01*
X402000Y242000D02*
X408300Y248300D01*
Y320800D01*
X405700D02*
X408300D01*
X402000Y324500D02*
X405700Y320800D01*
X184500Y147500D02*
X190800Y153800D01*
Y183700D01*
X188300Y186200D02*
X190800Y183700D01*
X188300Y186200D02*
Y270300D01*
X203500Y285500D01*
X397000Y208000D02*
X403100Y214100D01*
Y232600D01*
X402000Y233700D02*
X403100Y232600D01*
X402000Y233700D02*
Y242000D01*
X391500Y46000D02*
X395297Y49797D01*
X397703D01*
Y83297D01*
X361500Y119500D02*
X397703Y83297D01*
X227000Y284500D02*
X233203Y290703D01*
Y318297D01*
X227000Y324500D02*
X233203Y318297D01*
X268500Y54000D02*
X272000Y50500D01*
X268500Y54000D02*
Y79000D01*
X341000Y208657D02*
X356000Y223657D01*
Y232000D01*
X391500Y159500D02*
Y165500D01*
X361500Y129500D02*
X391500Y159500D01*
D12*
X168502Y31499D02*
X167502Y30499D01*
Y28500D01*
X168502Y27500D01*
X172500D01*
X173500Y28500D01*
Y30499D01*
X172500Y31499D01*
X170501D01*
Y29499D01*
X169501Y33498D02*
X172500D01*
X173500Y34498D01*
Y37497D01*
X169501D01*
X173500Y39496D02*
Y41495D01*
Y40496D01*
X169501D01*
Y39496D01*
X168502Y45494D02*
X169501D01*
Y44495D01*
Y46494D01*
Y45494D01*
X172500D01*
X173500Y46494D01*
X169501Y50493D02*
Y52492D01*
X170501Y53492D01*
X173500D01*
Y50493D01*
X172500Y49493D01*
X171501Y50493D01*
Y53492D01*
X169501Y55491D02*
X173500D01*
X171501D01*
X170501Y56491D01*
X169501Y57490D01*
Y58490D01*
X174500Y61489D02*
Y65488D01*
X167502Y67487D02*
Y71486D01*
Y69486D01*
X173500D01*
X169501Y73485D02*
X172500D01*
X173500Y74485D01*
Y77484D01*
X169501D01*
X173500Y79483D02*
X169501D01*
Y82482D01*
X170501Y83482D01*
X173500D01*
Y88480D02*
Y86481D01*
X172500Y85481D01*
X170501D01*
X169501Y86481D01*
Y88480D01*
X170501Y89480D01*
X171501D01*
Y85481D01*
X169501Y91479D02*
X173500D01*
X171501D01*
X170501Y92479D01*
X169501Y93479D01*
Y94478D01*
X167502Y103475D02*
X171501D01*
X173500Y105475D01*
X171501Y107474D01*
X167502D01*
X173500Y113472D02*
Y109474D01*
X169501Y113472D01*
X168502D01*
X167502Y112472D01*
Y110473D01*
X168502Y109474D01*
X173500Y115471D02*
X172500D01*
Y116471D01*
X173500D01*
Y115471D01*
X168502Y120470D02*
X167502Y121470D01*
Y123469D01*
X168502Y124469D01*
X172500D01*
X173500Y123469D01*
Y121470D01*
X172500Y120470D01*
X168502D01*
X180502Y31499D02*
X179502Y30499D01*
Y28500D01*
X180502Y27500D01*
X184500D01*
X185500Y28500D01*
Y30499D01*
X184500Y31499D01*
X185500Y33498D02*
Y35497D01*
Y34498D01*
X179502D01*
Y33498D01*
X181501Y39496D02*
Y41495D01*
X182501Y42495D01*
X185500D01*
Y39496D01*
X184500Y38496D01*
X183501Y39496D01*
Y42495D01*
X181501Y44495D02*
X184500D01*
X185500Y45494D01*
Y48493D01*
X186500D01*
X187499Y47493D01*
Y46494D01*
X185500Y48493D02*
X181501D01*
X179502Y56491D02*
X185500D01*
Y59490D01*
X184500Y60489D01*
X183501D01*
X182501Y59490D01*
Y56491D01*
Y59490D01*
X181501Y60489D01*
X180502D01*
X179502Y59490D01*
Y56491D01*
X181501Y62489D02*
X185500D01*
X183501D01*
X182501Y63488D01*
X181501Y64488D01*
Y65488D01*
X185500Y69486D02*
Y71486D01*
X184500Y72486D01*
X182501D01*
X181501Y71486D01*
Y69486D01*
X182501Y68487D01*
X184500D01*
X185500Y69486D01*
Y75485D02*
Y77484D01*
X184500Y78483D01*
X182501D01*
X181501Y77484D01*
Y75485D01*
X182501Y74485D01*
X184500D01*
X185500Y75485D01*
Y80483D02*
X179502D01*
X183501D02*
X181501Y83482D01*
X183501Y80483D02*
X185500Y83482D01*
Y86481D02*
Y89480D01*
X184500Y90480D01*
X183501Y89480D01*
Y87481D01*
X182501Y86481D01*
X181501Y87481D01*
Y90480D01*
D13*
X208500Y123000D02*
D03*
X198500D02*
D03*
X218500D02*
D03*
X228500D02*
D03*
X238500D02*
D03*
X248500D02*
D03*
X258500D02*
D03*
X268500D02*
D03*
X278500D02*
D03*
X268500Y79000D02*
D03*
X278500D02*
D03*
X288500D02*
D03*
X258500Y109000D02*
D03*
X268500D02*
D03*
X278500D02*
D03*
X288500D02*
D03*
X214500Y147500D02*
D03*
Y157500D02*
D03*
Y167500D02*
D03*
Y177500D02*
D03*
X184500Y147500D02*
D03*
Y157500D02*
D03*
Y167500D02*
D03*
X346500Y36000D02*
D03*
X356500D02*
D03*
X366500D02*
D03*
X376500D02*
D03*
X346500Y66000D02*
D03*
X356500D02*
D03*
X366500D02*
D03*
D14*
X288500Y123000D02*
D03*
X258500Y79000D02*
D03*
X376500Y66000D02*
D03*
D15*
X204000Y50500D02*
D03*
X300000D02*
D03*
X252000D02*
D03*
D16*
X214000D02*
D03*
X224000D02*
D03*
X310500Y26000D02*
D03*
X300500D02*
D03*
X315500Y154000D02*
D03*
X305500D02*
D03*
X194000Y191500D02*
D03*
X204000D02*
D03*
X391500Y109000D02*
D03*
X381500D02*
D03*
X262000Y26000D02*
D03*
X272000D02*
D03*
X214000D02*
D03*
X224000D02*
D03*
X310000Y50500D02*
D03*
X320000D02*
D03*
X262000D02*
D03*
X272000D02*
D03*
X325500Y249500D02*
D03*
Y259500D02*
D03*
X213500Y298500D02*
D03*
X203500D02*
D03*
Y311500D02*
D03*
X213500D02*
D03*
X203500Y285500D02*
D03*
X213500D02*
D03*
X402000Y242000D02*
D03*
Y252000D02*
D03*
X203500Y324500D02*
D03*
X213500D02*
D03*
D17*
X367000Y208000D02*
D03*
X397000D02*
D03*
X367000Y221500D02*
D03*
X397000D02*
D03*
X361500Y192500D02*
D03*
X391500D02*
D03*
X361500Y165500D02*
D03*
X391500D02*
D03*
X361500Y174500D02*
D03*
X391500D02*
D03*
Y183500D02*
D03*
X361500D02*
D03*
X305500Y165500D02*
D03*
X335500D02*
D03*
X391500Y138500D02*
D03*
X361500D02*
D03*
X391500Y129500D02*
D03*
X361500D02*
D03*
X213500Y275000D02*
D03*
Y245000D02*
D03*
X361500Y119500D02*
D03*
X391500D02*
D03*
X356000Y232000D02*
D03*
Y262000D02*
D03*
X365000Y232000D02*
D03*
Y262000D02*
D03*
X373500Y232000D02*
D03*
Y262000D02*
D03*
X382000Y232000D02*
D03*
Y262000D02*
D03*
X391000Y232000D02*
D03*
Y262000D02*
D03*
D18*
X341000Y262343D02*
D03*
X360500Y82157D02*
D03*
X341000Y208657D02*
D03*
Y196343D02*
D03*
D19*
Y242657D02*
D03*
X360500Y101843D02*
D03*
X341000Y228343D02*
D03*
Y176657D02*
D03*
D20*
X184500Y177500D02*
D03*
D21*
X324000Y280000D02*
D03*
X334000D02*
D03*
X305000D02*
D03*
X315000D02*
D03*
X343000D02*
D03*
X353000D02*
D03*
X362000D02*
D03*
X372000D02*
D03*
X381000D02*
D03*
X391000D02*
D03*
D22*
X313000Y208500D02*
D03*
D23*
Y218500D02*
D03*
Y228500D02*
D03*
D24*
X414000Y219500D02*
D03*
X292500Y324500D02*
D03*
X243500D02*
D03*
X391500Y56000D02*
D03*
X229000Y109000D02*
D03*
X227000Y324500D02*
D03*
X402000Y314500D02*
D03*
D25*
X414000Y209500D02*
D03*
X292500Y314500D02*
D03*
Y304500D02*
D03*
Y294500D02*
D03*
Y284500D02*
D03*
Y274500D02*
D03*
Y264500D02*
D03*
Y254500D02*
D03*
Y244500D02*
D03*
Y234500D02*
D03*
Y224500D02*
D03*
Y214500D02*
D03*
Y204500D02*
D03*
Y194500D02*
D03*
Y184500D02*
D03*
Y174500D02*
D03*
Y164500D02*
D03*
Y154500D02*
D03*
Y144500D02*
D03*
X243500Y314500D02*
D03*
Y304500D02*
D03*
Y294500D02*
D03*
Y284500D02*
D03*
Y274500D02*
D03*
Y264500D02*
D03*
Y254500D02*
D03*
Y244500D02*
D03*
Y234500D02*
D03*
Y224500D02*
D03*
Y214500D02*
D03*
Y204500D02*
D03*
Y194500D02*
D03*
Y184500D02*
D03*
Y174500D02*
D03*
Y164500D02*
D03*
Y154500D02*
D03*
Y144500D02*
D03*
X391500Y46000D02*
D03*
X199000Y79000D02*
D03*
X209000D02*
D03*
X219000D02*
D03*
X229000D02*
D03*
X199000Y109000D02*
D03*
X209000D02*
D03*
X219000D02*
D03*
X227000Y314500D02*
D03*
Y304500D02*
D03*
Y294500D02*
D03*
Y284500D02*
D03*
Y274500D02*
D03*
Y264500D02*
D03*
Y254500D02*
D03*
Y244500D02*
D03*
Y234500D02*
D03*
Y224500D02*
D03*
Y214500D02*
D03*
Y204500D02*
D03*
Y194500D02*
D03*
Y184500D02*
D03*
Y174500D02*
D03*
X402000Y324500D02*
D03*
X377500Y314500D02*
D03*
X367500Y324500D02*
D03*
Y314500D02*
D03*
X357500Y324500D02*
D03*
Y314500D02*
D03*
X347500Y324500D02*
D03*
Y314500D02*
D03*
X337500Y324500D02*
D03*
Y314500D02*
D03*
X327500Y324500D02*
D03*
Y314500D02*
D03*
X317500Y324500D02*
D03*
Y314500D02*
D03*
D26*
X377500Y324500D02*
D03*
D27*
X151000Y356500D02*
D03*
X444000D02*
D03*
Y11000D02*
D03*
X151000D02*
D03*
D28*
X200800Y166300D02*
D03*
X206000Y337561D02*
D03*
X193000Y69900D02*
D03*
X350300Y157000D02*
D03*
X301000Y63600D02*
D03*
X281000Y192200D02*
D03*
X257400Y142000D02*
D03*
X263200Y332800D02*
D03*
X332600Y241000D02*
D03*
X329250Y198350D02*
D03*
X195900Y305000D02*
D03*
X325600Y241500D02*
D03*
X354700Y54200D02*
D03*
X281000Y180500D02*
D03*
X285100Y221900D02*
D03*
X335000Y62600D02*
D03*
M02*
