%FSLAX25Y25*%
%MOIN*%
G70*
G01*
G75*
G04 Layer_Physical_Order=1*
G04 Layer_Color=255*
%ADD10C,0.02000*%
%ADD11C,0.02500*%
%ADD12C,0.01000*%
G04:AMPARAMS|DCode=13|XSize=160mil|YSize=160mil|CornerRadius=40mil|HoleSize=0mil|Usage=FLASHONLY|Rotation=0.000|XOffset=0mil|YOffset=0mil|HoleType=Round|Shape=RoundedRectangle|*
%AMROUNDEDRECTD13*
21,1,0.16000,0.08000,0,0,0.0*
21,1,0.08000,0.16000,0,0,0.0*
1,1,0.08000,0.04000,-0.04000*
1,1,0.08000,-0.04000,-0.04000*
1,1,0.08000,-0.04000,0.04000*
1,1,0.08000,0.04000,0.04000*
%
%ADD13ROUNDEDRECTD13*%
%ADD14C,0.05906*%
%ADD15R,0.05906X0.05906*%
%ADD16C,0.04724*%
%ADD17R,0.05906X0.05906*%
%ADD18C,0.05906*%
%ADD19R,0.05906X0.05906*%
%ADD20C,0.05512*%
%ADD21C,0.06299*%
%ADD22R,0.04724X0.04724*%
%ADD23C,0.06299*%
%ADD24R,0.06299X0.06299*%
%ADD25R,0.05315X0.05315*%
%ADD26C,0.05315*%
%ADD27R,0.05906X0.05906*%
%ADD28C,0.05000*%
G36*
X434812Y363522D02*
X434430Y362807D01*
X434087Y361676D01*
X433971Y360500D01*
Y352500D01*
X434087Y351324D01*
X434430Y350193D01*
X434987Y349150D01*
X435737Y348237D01*
X436651Y347487D01*
X437693Y346930D01*
X438824Y346587D01*
X440000Y346471D01*
X448000D01*
X449176Y346587D01*
X450307Y346930D01*
X451022Y347312D01*
X451451Y347055D01*
Y20445D01*
X451022Y20188D01*
X450307Y20570D01*
X449176Y20913D01*
X448000Y21029D01*
X440000D01*
X438824Y20913D01*
X437693Y20570D01*
X436651Y20013D01*
X435737Y19263D01*
X434987Y18350D01*
X434430Y17307D01*
X434087Y16176D01*
X433971Y15000D01*
Y7000D01*
X434087Y5824D01*
X434430Y4693D01*
X434987Y3650D01*
X435520Y3001D01*
X435306Y2549D01*
X159694D01*
X159480Y3001D01*
X160013Y3650D01*
X160570Y4693D01*
X160913Y5824D01*
X161029Y7000D01*
Y15000D01*
X160913Y16176D01*
X160570Y17307D01*
X160013Y18350D01*
X159263Y19263D01*
X158350Y20013D01*
X157307Y20570D01*
X156176Y20913D01*
X155000Y21029D01*
X147000D01*
X145824Y20913D01*
X144693Y20570D01*
X143650Y20013D01*
X143001Y19480D01*
X142549Y19694D01*
Y182500D01*
Y347806D01*
X143001Y348020D01*
X143650Y347487D01*
X144693Y346930D01*
X145824Y346587D01*
X147000Y346471D01*
X155000D01*
X156176Y346587D01*
X157307Y346930D01*
X158350Y347487D01*
X159263Y348237D01*
X160013Y349150D01*
X160570Y350193D01*
X160913Y351324D01*
X161029Y352500D01*
Y360500D01*
X160913Y361676D01*
X160570Y362807D01*
X160188Y363522D01*
X160445Y363951D01*
X434555D01*
X434812Y363522D01*
D02*
G37*
%LPC*%
G36*
X258000Y78500D02*
X254547D01*
Y75047D01*
X258000D01*
Y78500D01*
D02*
G37*
G36*
X262453D02*
X259000D01*
Y75047D01*
X262453D01*
Y78500D01*
D02*
G37*
G36*
X206825Y324000D02*
X200175D01*
X200222Y323640D01*
Y312360D01*
X200175Y312000D01*
X206825D01*
X206778Y312360D01*
Y323640D01*
X206825Y324000D01*
D02*
G37*
G36*
X272421Y78500D02*
X264579D01*
X264649Y77968D01*
X265047Y77007D01*
X265222Y76779D01*
Y54091D01*
X264969Y53967D01*
X264695Y53931D01*
X264200Y54310D01*
X263139Y54750D01*
X262000Y54900D01*
X260861Y54750D01*
X259800Y54310D01*
X258889Y53611D01*
X258190Y52700D01*
X257750Y51639D01*
X257600Y50500D01*
X257750Y49361D01*
X258190Y48300D01*
X258889Y47389D01*
X259800Y46690D01*
X260861Y46250D01*
X262000Y46100D01*
X263139Y46250D01*
X264200Y46690D01*
X265111Y47389D01*
X265810Y48300D01*
X266250Y49361D01*
X266400Y50500D01*
X266355Y50839D01*
X266804Y51061D01*
X268722Y49142D01*
Y26860D01*
X268675Y26500D01*
X275325D01*
X275278Y26860D01*
Y49640D01*
X275325Y50000D01*
X272000D01*
Y51000D01*
X275325D01*
X275276Y51378D01*
X274937Y52196D01*
X274398Y52898D01*
X273710Y53426D01*
X271778Y55358D01*
Y76779D01*
X271953Y77007D01*
X272351Y77968D01*
X272421Y78500D01*
D02*
G37*
G36*
X288000D02*
X284579D01*
X284649Y77968D01*
X285047Y77007D01*
X285681Y76181D01*
X286507Y75547D01*
X287468Y75149D01*
X288000Y75079D01*
Y78500D01*
D02*
G37*
G36*
X258000Y82953D02*
X254547D01*
Y79500D01*
X258000D01*
Y82953D01*
D02*
G37*
G36*
X278000Y78500D02*
X274579D01*
X274649Y77968D01*
X275047Y77007D01*
X275681Y76181D01*
X276507Y75547D01*
X277468Y75149D01*
X278000Y75079D01*
Y78500D01*
D02*
G37*
G36*
X282421D02*
X279000D01*
Y75079D01*
X279532Y75149D01*
X280493Y75547D01*
X281319Y76181D01*
X281953Y77007D01*
X282351Y77968D01*
X282421Y78500D01*
D02*
G37*
G36*
X400000Y350626D02*
X270000D01*
X269217Y350523D01*
X268487Y350220D01*
X268215Y350012D01*
X267860Y349740D01*
X267860Y349740D01*
X252060Y333940D01*
X251579Y333313D01*
X251491Y333099D01*
X251426Y332942D01*
X250935Y332844D01*
X238540Y345240D01*
X237913Y345721D01*
X237699Y345809D01*
X237183Y346023D01*
X236400Y346126D01*
X202100D01*
X201317Y346023D01*
X200889Y345846D01*
X200587Y345721D01*
X200315Y345512D01*
X199960Y345240D01*
X199960Y345240D01*
X193760Y339040D01*
X193280Y338413D01*
X193191Y338199D01*
X192977Y337683D01*
X192874Y336900D01*
Y308350D01*
X192691Y308209D01*
X191969Y307269D01*
X191516Y306175D01*
X191361Y305000D01*
X191516Y303825D01*
X191969Y302731D01*
X192691Y301791D01*
X193631Y301069D01*
X194725Y300616D01*
X195900Y300461D01*
X197075Y300616D01*
X198169Y301069D01*
X199109Y301791D01*
X199749Y302623D01*
X200222Y302463D01*
Y299360D01*
X200175Y299000D01*
X206825D01*
X206778Y299360D01*
Y310640D01*
X206825Y311000D01*
X200175D01*
X200222Y310640D01*
Y307537D01*
X199749Y307377D01*
X199109Y308209D01*
X198926Y308350D01*
Y335647D01*
X200989Y337710D01*
X201463Y337549D01*
X201616Y336386D01*
X202069Y335291D01*
X202791Y334351D01*
X202974Y334210D01*
Y332000D01*
X203077Y331217D01*
X203291Y330701D01*
X203380Y330487D01*
X203860Y329860D01*
X209114Y324607D01*
X209100Y324500D01*
X209250Y323361D01*
X209690Y322300D01*
X210389Y321389D01*
X211300Y320690D01*
X212361Y320250D01*
X213500Y320100D01*
X213607Y320114D01*
X216274Y317447D01*
Y315435D01*
X215826Y315214D01*
X215700Y315310D01*
X214639Y315750D01*
X213500Y315900D01*
X212361Y315750D01*
X211300Y315310D01*
X210389Y314611D01*
X209690Y313700D01*
X209250Y312639D01*
X209100Y311500D01*
X209250Y310361D01*
X209690Y309300D01*
X210389Y308389D01*
X210474Y308323D01*
Y301677D01*
X210389Y301611D01*
X209690Y300700D01*
X209250Y299639D01*
X209100Y298500D01*
X209250Y297361D01*
X209690Y296300D01*
X210389Y295389D01*
X210474Y295323D01*
Y288677D01*
X210389Y288611D01*
X209690Y287700D01*
X209250Y286639D01*
X209100Y285500D01*
X209250Y284361D01*
X209690Y283300D01*
X210389Y282389D01*
X210474Y282323D01*
Y278673D01*
X210108Y278392D01*
X209346Y277398D01*
X208867Y276241D01*
X208703Y275000D01*
X208763Y274542D01*
X205560Y271340D01*
X205080Y270713D01*
X204991Y270499D01*
X204777Y269983D01*
X204674Y269200D01*
Y215200D01*
X204777Y214417D01*
X204991Y213901D01*
X205080Y213687D01*
X205560Y213060D01*
X217474Y201147D01*
Y182026D01*
X217026Y181805D01*
X216998Y181826D01*
X215793Y182325D01*
X214500Y182495D01*
X213207Y182325D01*
X212002Y181826D01*
X210968Y181032D01*
X210174Y179998D01*
X209675Y178793D01*
X209505Y177500D01*
X209588Y176867D01*
X204623Y171903D01*
X204299Y171480D01*
X203826Y171641D01*
Y184700D01*
X203723Y185483D01*
X203420Y186213D01*
X202996Y186766D01*
X203172Y187073D01*
X203293Y187193D01*
X204000Y187100D01*
X205139Y187250D01*
X206200Y187690D01*
X207111Y188389D01*
X207810Y189300D01*
X208250Y190361D01*
X208400Y191500D01*
X208250Y192639D01*
X207810Y193700D01*
X207111Y194611D01*
X206200Y195310D01*
X205139Y195750D01*
X204000Y195900D01*
X202861Y195750D01*
X201800Y195310D01*
X200889Y194611D01*
X200190Y193700D01*
X199750Y192639D01*
X199600Y191500D01*
X199699Y190750D01*
X199250Y190529D01*
X198386Y191393D01*
X198400Y191500D01*
X198250Y192639D01*
X197810Y193700D01*
X197111Y194611D01*
X196200Y195310D01*
X195139Y195750D01*
X194000Y195900D01*
X192861Y195750D01*
X191994Y195391D01*
X191578Y195668D01*
Y268942D01*
X205210Y282574D01*
X205898Y283102D01*
X206437Y283804D01*
X206776Y284622D01*
X206825Y285000D01*
X203500D01*
Y286000D01*
X206825D01*
X206778Y286360D01*
Y297640D01*
X206825Y298000D01*
X200175D01*
X200222Y297640D01*
Y286858D01*
X185982Y272618D01*
X185461Y271939D01*
X185297Y271544D01*
X185134Y271148D01*
X185078Y270724D01*
X185022Y270300D01*
Y186200D01*
X185078Y185776D01*
X185134Y185352D01*
X185297Y184956D01*
X185461Y184561D01*
X185982Y183882D01*
X186950Y182915D01*
X186758Y182453D01*
X179547D01*
Y172547D01*
X182462D01*
X182559Y172057D01*
X182002Y171826D01*
X180968Y171032D01*
X180174Y169998D01*
X179675Y168793D01*
X179505Y167500D01*
X179588Y166867D01*
X176360Y163640D01*
X175880Y163013D01*
X175791Y162799D01*
X175577Y162283D01*
X175474Y161500D01*
Y127469D01*
X164502D01*
Y24500D01*
X190499D01*
Y65615D01*
X190915Y65893D01*
X191825Y65516D01*
X193000Y65361D01*
X194175Y65516D01*
X195158Y65923D01*
X195574Y65645D01*
Y41400D01*
X195677Y40617D01*
X195891Y40101D01*
X195979Y39887D01*
X196460Y39260D01*
X209614Y26107D01*
X209600Y26000D01*
X209750Y24861D01*
X210190Y23800D01*
X210889Y22889D01*
X211800Y22190D01*
X212861Y21750D01*
X214000Y21600D01*
X214107Y21614D01*
X217260Y18460D01*
X217887Y17979D01*
X218617Y17677D01*
X219400Y17574D01*
X235000D01*
X235783Y17677D01*
X236299Y17891D01*
X236513Y17979D01*
X237140Y18460D01*
X254140Y35460D01*
X254621Y36087D01*
X254923Y36817D01*
X255026Y37600D01*
Y46138D01*
X256362D01*
Y54862D01*
X247638D01*
Y46138D01*
X248974D01*
Y38853D01*
X233747Y23626D01*
X226981D01*
X226760Y24074D01*
X226937Y24304D01*
X227276Y25122D01*
X227325Y25500D01*
X220675D01*
X220724Y25122D01*
X221063Y24304D01*
X221240Y24074D01*
X221088Y23766D01*
X220594Y23685D01*
X218386Y25894D01*
X218400Y26000D01*
X218250Y27139D01*
X217810Y28200D01*
X217111Y29111D01*
X216200Y29810D01*
X215139Y30250D01*
X214000Y30400D01*
X213893Y30386D01*
X201626Y42653D01*
Y46138D01*
X208362D01*
Y54862D01*
X201626D01*
Y67347D01*
X208367Y74088D01*
X209000Y74005D01*
X210293Y74175D01*
X211498Y74674D01*
X212532Y75468D01*
X213326Y76502D01*
X213750Y77525D01*
X214250D01*
X214674Y76502D01*
X215468Y75468D01*
X216502Y74674D01*
X217707Y74175D01*
X219000Y74005D01*
X220293Y74175D01*
X221498Y74674D01*
X222532Y75468D01*
X223326Y76502D01*
X223750Y77525D01*
X224250D01*
X224674Y76502D01*
X225468Y75468D01*
X226502Y74674D01*
X227707Y74175D01*
X229000Y74005D01*
X230293Y74175D01*
X231498Y74674D01*
X231927Y74462D01*
Y72706D01*
X214107Y54886D01*
X214000Y54900D01*
X212861Y54750D01*
X211800Y54310D01*
X210889Y53611D01*
X210190Y52700D01*
X209750Y51639D01*
X209600Y50500D01*
X209750Y49361D01*
X210190Y48300D01*
X210889Y47389D01*
X211800Y46690D01*
X212861Y46250D01*
X214000Y46100D01*
X215139Y46250D01*
X216200Y46690D01*
X217111Y47389D01*
X217810Y48300D01*
X218250Y49361D01*
X218400Y50500D01*
X218386Y50607D01*
X235463Y67684D01*
X235814Y67538D01*
X235912Y67048D01*
X222290Y53426D01*
X221602Y52898D01*
X221063Y52196D01*
X220724Y51378D01*
X220675Y51000D01*
X224000D01*
Y50000D01*
X220675D01*
X220722Y49640D01*
Y26860D01*
X220675Y26500D01*
X227325D01*
X227278Y26860D01*
Y49142D01*
X241521Y63385D01*
X241815Y63769D01*
X242042Y64064D01*
X242138Y64295D01*
X242369Y64854D01*
X242481Y65703D01*
X242481Y65703D01*
X242481Y65703D01*
Y65703D01*
Y91092D01*
X242425Y91516D01*
X242369Y91940D01*
X242205Y92335D01*
X242042Y92731D01*
X241747Y93115D01*
X241521Y93410D01*
X235042Y99888D01*
X234363Y100409D01*
X233968Y100573D01*
X233573Y100736D01*
X233149Y100792D01*
X232724Y100848D01*
X227788D01*
X225050Y103585D01*
X225242Y104047D01*
X233953D01*
Y110615D01*
X234415Y110806D01*
X261660Y83560D01*
X261660Y83560D01*
X261835Y83426D01*
X261674Y82953D01*
X259000D01*
Y79500D01*
X262453D01*
Y82561D01*
X262868Y82839D01*
X263017Y82777D01*
X263800Y82674D01*
X266017D01*
X266178Y82201D01*
X265681Y81819D01*
X265047Y80993D01*
X264649Y80032D01*
X264579Y79500D01*
X272421D01*
X272351Y80032D01*
X271953Y80993D01*
X271319Y81819D01*
X270822Y82201D01*
X270983Y82674D01*
X276017D01*
X276178Y82201D01*
X275681Y81819D01*
X275047Y80993D01*
X274649Y80032D01*
X274579Y79500D01*
X282421D01*
X282351Y80032D01*
X281953Y80993D01*
X281319Y81819D01*
X280822Y82201D01*
X280983Y82674D01*
X286017D01*
X286178Y82201D01*
X285681Y81819D01*
X285047Y80993D01*
X284649Y80032D01*
X284579Y79500D01*
X288500D01*
Y79000D01*
X289000D01*
Y75079D01*
X289532Y75149D01*
X290493Y75547D01*
X291026Y75956D01*
X291474Y75735D01*
Y23226D01*
X274675D01*
X274453Y23674D01*
X274937Y24304D01*
X275276Y25122D01*
X275325Y25500D01*
X268675D01*
X268724Y25122D01*
X269063Y24304D01*
X269547Y23674D01*
X269425Y23429D01*
X268932Y23347D01*
X266386Y25894D01*
X266400Y26000D01*
X266250Y27139D01*
X265810Y28200D01*
X265111Y29111D01*
X264200Y29810D01*
X263139Y30250D01*
X262000Y30400D01*
X260861Y30250D01*
X259800Y29810D01*
X258889Y29111D01*
X258190Y28200D01*
X257750Y27139D01*
X257600Y26000D01*
X257750Y24861D01*
X258190Y23800D01*
X258889Y22889D01*
X259800Y22190D01*
X260861Y21750D01*
X262000Y21600D01*
X262107Y21614D01*
X265660Y18060D01*
X266287Y17580D01*
X266501Y17491D01*
X267017Y17277D01*
X267800Y17174D01*
X314600D01*
X315383Y17277D01*
X315899Y17491D01*
X316113Y17580D01*
X316740Y18060D01*
X322140Y23460D01*
X322621Y24087D01*
X322923Y24817D01*
X323026Y25600D01*
X323026Y25600D01*
X323026Y25600D01*
Y25600D01*
Y47323D01*
X323111Y47389D01*
X323810Y48300D01*
X324250Y49361D01*
X324282Y49605D01*
X324755Y49765D01*
X329974Y44547D01*
Y22400D01*
X330077Y21617D01*
X330291Y21101D01*
X330380Y20887D01*
X330860Y20260D01*
X337860Y13260D01*
X337860Y13260D01*
X338215Y12988D01*
X338487Y12779D01*
X339217Y12477D01*
X339217Y12477D01*
X339217Y12477D01*
D01*
X339217Y12477D01*
X339217Y12477D01*
X340000Y12374D01*
X383300D01*
X384083Y12477D01*
X384599Y12691D01*
X384813Y12779D01*
X385440Y13260D01*
X409940Y37760D01*
X410421Y38387D01*
X410723Y39117D01*
X410826Y39900D01*
Y205128D01*
X411274Y205349D01*
X411502Y205174D01*
X412707Y204675D01*
X414000Y204504D01*
X415293Y204675D01*
X416498Y205174D01*
X417532Y205968D01*
X418326Y207002D01*
X418825Y208207D01*
X418996Y209500D01*
X418825Y210793D01*
X418326Y211998D01*
X417532Y213032D01*
X416498Y213826D01*
X415941Y214057D01*
X416039Y214547D01*
X418953D01*
Y224453D01*
X410826D01*
Y231847D01*
X414740Y235760D01*
X414740Y235760D01*
X414948Y236033D01*
X415220Y236387D01*
X415434Y236903D01*
X415523Y237117D01*
X415535Y237208D01*
X415626Y237900D01*
X415626Y237900D01*
Y335000D01*
X415523Y335783D01*
X415220Y336513D01*
X414740Y337140D01*
X402140Y349740D01*
X401513Y350220D01*
X401299Y350309D01*
X400783Y350523D01*
X400000Y350626D01*
D02*
G37*
G36*
X204000Y327825D02*
Y325000D01*
X206825D01*
X206776Y325378D01*
X206437Y326196D01*
X205898Y326898D01*
X205196Y327437D01*
X204378Y327776D01*
X204000Y327825D01*
D02*
G37*
G36*
X203000D02*
X202622Y327776D01*
X201804Y327437D01*
X201102Y326898D01*
X200563Y326196D01*
X200224Y325378D01*
X200175Y325000D01*
X203000D01*
Y327825D01*
D02*
G37*
%LPD*%
G36*
X224047Y113953D02*
X224047D01*
Y105242D01*
X223585Y105051D01*
X222278Y106358D01*
Y106779D01*
X222453Y107007D01*
X222851Y107968D01*
X222921Y108500D01*
X215079D01*
X215149Y107968D01*
X215547Y107007D01*
X215722Y106779D01*
Y105000D01*
X215778Y104576D01*
X215834Y104152D01*
X215997Y103756D01*
X216161Y103361D01*
X216682Y102682D01*
X216682Y102682D01*
X216682Y102682D01*
X223476Y95888D01*
X223285Y95426D01*
X221253D01*
X212053Y104626D01*
X212086Y105125D01*
X212532Y105468D01*
X213326Y106502D01*
X213825Y107707D01*
X213996Y109000D01*
X213825Y110293D01*
X213326Y111498D01*
X212532Y112532D01*
X211498Y113326D01*
X211118Y113484D01*
X211215Y113974D01*
X224047D01*
Y113953D01*
D02*
G37*
G36*
X326474Y96647D02*
Y58914D01*
X326577Y58131D01*
X326791Y57615D01*
X326880Y57401D01*
X327360Y56774D01*
X332074Y52060D01*
X332701Y51579D01*
X332915Y51491D01*
X333431Y51277D01*
X334214Y51174D01*
X351350D01*
X351491Y50991D01*
X352431Y50269D01*
X353525Y49816D01*
X354700Y49661D01*
X355875Y49816D01*
X356969Y50269D01*
X357909Y50991D01*
X358631Y51931D01*
X359084Y53025D01*
X359239Y54200D01*
X359084Y55375D01*
X358631Y56469D01*
X358588Y56526D01*
X358809Y56974D01*
X370500D01*
X371283Y57077D01*
X371799Y57291D01*
X372013Y57380D01*
X372640Y57860D01*
X375827Y61047D01*
X379474D01*
Y59753D01*
X373747Y54026D01*
X371500D01*
X370717Y53923D01*
X370289Y53746D01*
X369987Y53620D01*
X369715Y53412D01*
X369360Y53140D01*
X369360Y53140D01*
X357133Y40912D01*
X356500Y40995D01*
X355207Y40825D01*
X354002Y40326D01*
X352968Y39532D01*
X352174Y38498D01*
X351750Y37475D01*
X351250D01*
X350826Y38498D01*
X350032Y39532D01*
X348998Y40326D01*
X347793Y40825D01*
X346500Y40995D01*
X345207Y40825D01*
X344002Y40326D01*
X342968Y39532D01*
X342174Y38498D01*
X341675Y37293D01*
X341505Y36000D01*
X341675Y34707D01*
X342174Y33502D01*
X342485Y33097D01*
X342264Y32648D01*
X338450D01*
Y21882D01*
X337988Y21691D01*
X336026Y23653D01*
Y45800D01*
X336026Y45800D01*
X335923Y46583D01*
X335620Y47313D01*
X335140Y47940D01*
X335140Y47940D01*
X322140Y60940D01*
X321937Y61095D01*
X321749Y61269D01*
X321624Y61335D01*
X321513Y61421D01*
X321276Y61518D01*
X321050Y61638D01*
X320913Y61669D01*
X320783Y61723D01*
X320530Y61756D01*
X320280Y61813D01*
X320139Y61808D01*
X320000Y61826D01*
X319746Y61792D01*
X319491Y61783D01*
X319356Y61741D01*
X319217Y61723D01*
X318981Y61625D01*
X318736Y61549D01*
X318617Y61474D01*
X318487Y61421D01*
X318284Y61265D01*
X318068Y61128D01*
X310486Y54836D01*
X310000Y54900D01*
X308861Y54750D01*
X307800Y54310D01*
X306889Y53611D01*
X306190Y52700D01*
X305750Y51639D01*
X305600Y50500D01*
X305750Y49361D01*
X306190Y48300D01*
X306889Y47389D01*
X307800Y46690D01*
X308861Y46250D01*
X310000Y46100D01*
X311139Y46250D01*
X312200Y46690D01*
X313111Y47389D01*
X313810Y48300D01*
X314250Y49361D01*
X314358Y50185D01*
X315179Y50866D01*
X315616Y50624D01*
X315600Y50500D01*
X315750Y49361D01*
X316190Y48300D01*
X316889Y47389D01*
X316974Y47323D01*
Y26853D01*
X315265Y25144D01*
X314816Y25365D01*
X314900Y26000D01*
X314750Y27139D01*
X314310Y28200D01*
X313611Y29111D01*
X312700Y29810D01*
X311639Y30250D01*
X310500Y30400D01*
X309361Y30250D01*
X308300Y29810D01*
X307389Y29111D01*
X306690Y28200D01*
X306250Y27139D01*
X306100Y26000D01*
X306250Y24861D01*
X306690Y23800D01*
X306786Y23674D01*
X306565Y23226D01*
X303175D01*
X302953Y23674D01*
X303437Y24304D01*
X303776Y25122D01*
X303825Y25500D01*
X300500D01*
Y26500D01*
X303825D01*
X303778Y26860D01*
Y38000D01*
X303778Y38000D01*
X303778Y38000D01*
Y38000D01*
X303778D01*
X303778Y38000D01*
X303666Y38848D01*
X303435Y39408D01*
X303339Y39639D01*
X303278Y39718D01*
Y47138D01*
X303362D01*
Y50000D01*
X300000D01*
Y50500D01*
X299500D01*
Y53862D01*
X297526D01*
Y60028D01*
X297974Y60250D01*
X298731Y59669D01*
X299825Y59216D01*
X301000Y59061D01*
X302175Y59216D01*
X303269Y59669D01*
X304209Y60391D01*
X304931Y61331D01*
X305384Y62425D01*
X305539Y63600D01*
X305384Y64775D01*
X304931Y65869D01*
X304209Y66809D01*
X304026Y66950D01*
Y118442D01*
X304488Y118633D01*
X326474Y96647D01*
D02*
G37*
G36*
X223468Y290968D02*
X224502Y290174D01*
X225707Y289675D01*
X226765Y289535D01*
X226926Y289062D01*
X226253Y288388D01*
X225968Y288351D01*
X225007Y287953D01*
X224181Y287319D01*
X223547Y286493D01*
X223149Y285532D01*
X223079Y285000D01*
X227000D01*
Y284500D01*
X227500D01*
Y280579D01*
X228032Y280649D01*
X228993Y281047D01*
X229819Y281681D01*
X230453Y282507D01*
X230851Y283468D01*
X230889Y283753D01*
X233965Y286829D01*
X234427Y286638D01*
Y270547D01*
X234530Y269764D01*
X234744Y269248D01*
X234832Y269034D01*
X235313Y268408D01*
X238588Y265133D01*
X238505Y264500D01*
X238675Y263207D01*
X239174Y262002D01*
X239968Y260968D01*
X241002Y260174D01*
X242025Y259750D01*
Y259250D01*
X241002Y258826D01*
X239968Y258032D01*
X239174Y256998D01*
X238675Y255793D01*
X238505Y254500D01*
X238675Y253207D01*
X239174Y252002D01*
X239968Y250968D01*
X241002Y250174D01*
X242025Y249750D01*
Y249250D01*
X241002Y248826D01*
X239968Y248032D01*
X239174Y246998D01*
X238675Y245793D01*
X238505Y244500D01*
X238675Y243207D01*
X239174Y242002D01*
X239968Y240968D01*
X241002Y240174D01*
X242025Y239750D01*
Y239250D01*
X241002Y238826D01*
X239968Y238032D01*
X239174Y236998D01*
X238675Y235793D01*
X238505Y234500D01*
X238675Y233207D01*
X239174Y232002D01*
X239968Y230968D01*
X241002Y230174D01*
X242025Y229750D01*
Y229250D01*
X241002Y228826D01*
X239968Y228032D01*
X239174Y226998D01*
X238675Y225793D01*
X238505Y224500D01*
X238675Y223207D01*
X239174Y222002D01*
X239968Y220968D01*
X241002Y220174D01*
X242025Y219750D01*
Y219250D01*
X241002Y218826D01*
X239968Y218032D01*
X239174Y216998D01*
X238675Y215793D01*
X238505Y214500D01*
X238675Y213207D01*
X239174Y212002D01*
X239968Y210968D01*
X241002Y210174D01*
X242025Y209750D01*
Y209250D01*
X241002Y208826D01*
X239968Y208032D01*
X239234Y207077D01*
X238735Y207044D01*
X231912Y213867D01*
X231996Y214500D01*
X231825Y215793D01*
X231326Y216998D01*
X230532Y218032D01*
X229498Y218826D01*
X228475Y219250D01*
Y219750D01*
X229498Y220174D01*
X230532Y220968D01*
X231326Y222002D01*
X231825Y223207D01*
X231996Y224500D01*
X231825Y225793D01*
X231326Y226998D01*
X230532Y228032D01*
X229498Y228826D01*
X228475Y229250D01*
Y229750D01*
X229498Y230174D01*
X230532Y230968D01*
X231326Y232002D01*
X231825Y233207D01*
X231996Y234500D01*
X231825Y235793D01*
X231326Y236998D01*
X230532Y238032D01*
X229498Y238826D01*
X228475Y239250D01*
Y239750D01*
X229498Y240174D01*
X230532Y240968D01*
X231326Y242002D01*
X231825Y243207D01*
X231996Y244500D01*
X231825Y245793D01*
X231326Y246998D01*
X230532Y248032D01*
X229498Y248826D01*
X228475Y249250D01*
Y249750D01*
X229498Y250174D01*
X230532Y250968D01*
X231326Y252002D01*
X231825Y253207D01*
X231996Y254500D01*
X231825Y255793D01*
X231326Y256998D01*
X230532Y258032D01*
X229498Y258826D01*
X228475Y259250D01*
Y259750D01*
X229498Y260174D01*
X230532Y260968D01*
X231326Y262002D01*
X231825Y263207D01*
X231996Y264500D01*
X231825Y265793D01*
X231326Y266998D01*
X230532Y268032D01*
X229498Y268826D01*
X228475Y269250D01*
Y269750D01*
X229498Y270174D01*
X230532Y270968D01*
X231326Y272002D01*
X231825Y273207D01*
X231996Y274500D01*
X231825Y275793D01*
X231326Y276998D01*
X230532Y278032D01*
X229498Y278826D01*
X228293Y279325D01*
X227000Y279496D01*
X225707Y279325D01*
X224502Y278826D01*
X223468Y278032D01*
X222799Y277161D01*
X222326Y277322D01*
Y291678D01*
X222799Y291839D01*
X223468Y290968D01*
D02*
G37*
G36*
X309327Y224827D02*
X310403Y224002D01*
X311656Y223483D01*
X313000Y223306D01*
X314344Y223483D01*
X315597Y224002D01*
X316562Y224742D01*
X317010Y224521D01*
Y220868D01*
X316537Y220707D01*
X315960Y221460D01*
X315093Y222125D01*
X314083Y222543D01*
X313500Y222620D01*
Y218500D01*
Y214380D01*
X313997Y214446D01*
X314218Y213997D01*
X313870Y213650D01*
X308026D01*
Y225808D01*
X308502Y225903D01*
X309327Y224827D01*
D02*
G37*
G36*
X386786Y182872D02*
X386866Y182258D01*
X387346Y181102D01*
X388108Y180108D01*
X388474Y179827D01*
Y178173D01*
X388108Y177892D01*
X387346Y176899D01*
X386866Y175742D01*
X386703Y174500D01*
X386866Y173258D01*
X387346Y172101D01*
X388108Y171108D01*
X389102Y170346D01*
X390259Y169867D01*
X390557Y169827D01*
X390718Y169354D01*
X390519Y169159D01*
X389606Y168781D01*
X388821Y168179D01*
X388219Y167394D01*
X387841Y166481D01*
X387777Y166000D01*
X391500D01*
Y165000D01*
X387777D01*
X387841Y164520D01*
X388219Y163606D01*
X388222Y163602D01*
Y160858D01*
X381284Y153920D01*
X380995Y154039D01*
X380820Y154126D01*
X380922Y154896D01*
Y177642D01*
X386312Y183033D01*
X386786Y182872D01*
D02*
G37*
G36*
X209642Y158547D02*
X209505Y157500D01*
X209675Y156207D01*
X210174Y155002D01*
X210968Y153968D01*
X212002Y153174D01*
X213025Y152750D01*
Y152250D01*
X212002Y151826D01*
X210968Y151032D01*
X210174Y149998D01*
X209675Y148793D01*
X209505Y147500D01*
X209675Y146207D01*
X210174Y145002D01*
X210968Y143968D01*
X212002Y143174D01*
X213207Y142675D01*
X213255Y142668D01*
X213416Y142195D01*
X199133Y127912D01*
X198500Y127996D01*
X197207Y127825D01*
X196002Y127326D01*
X194968Y126532D01*
X194174Y125498D01*
X193675Y124293D01*
X193505Y123000D01*
X193675Y121707D01*
X194174Y120502D01*
X194968Y119468D01*
X196002Y118674D01*
X197207Y118175D01*
X198500Y118005D01*
X199133Y118088D01*
X202360Y114860D01*
X202987Y114380D01*
X203201Y114291D01*
X203717Y114077D01*
X204500Y113974D01*
X206785D01*
X206883Y113484D01*
X206502Y113326D01*
X205468Y112532D01*
X204674Y111498D01*
X204175Y110293D01*
X204005Y109000D01*
X204175Y107707D01*
X204674Y106502D01*
X205468Y105468D01*
X205974Y105079D01*
Y103400D01*
X206077Y102617D01*
X206291Y102101D01*
X206380Y101887D01*
X206860Y101260D01*
X217860Y90260D01*
X218487Y89780D01*
X219217Y89477D01*
X220000Y89374D01*
X226252D01*
X231732Y83895D01*
X231650Y83401D01*
X231498Y83326D01*
X230293Y83825D01*
X229000Y83995D01*
X227707Y83825D01*
X226502Y83326D01*
X225468Y82532D01*
X224674Y81498D01*
X224250Y80475D01*
X223750D01*
X223326Y81498D01*
X222532Y82532D01*
X221498Y83326D01*
X220293Y83825D01*
X219000Y83995D01*
X217707Y83825D01*
X216502Y83326D01*
X215468Y82532D01*
X214674Y81498D01*
X214250Y80475D01*
X213750D01*
X213326Y81498D01*
X212532Y82532D01*
X212026Y82921D01*
Y86922D01*
X212026Y86922D01*
X211935Y87614D01*
X211923Y87706D01*
X211620Y88435D01*
X211140Y89062D01*
X191573Y108629D01*
Y141047D01*
X208903Y158376D01*
X209180Y158738D01*
X209642Y158547D01*
D02*
G37*
G36*
X185000Y143579D02*
X185382Y143629D01*
X185686Y143233D01*
X185624Y143083D01*
X185521Y142300D01*
Y107375D01*
X185624Y106592D01*
X185655Y106518D01*
X185240Y106240D01*
X181526Y109953D01*
Y144235D01*
X181974Y144456D01*
X182507Y144047D01*
X183468Y143649D01*
X184000Y143579D01*
Y147500D01*
X185000D01*
Y143579D01*
D02*
G37*
G36*
X251174Y315450D02*
Y266453D01*
X248936Y264215D01*
X248487Y264436D01*
X248496Y264500D01*
X248325Y265793D01*
X247826Y266998D01*
X247032Y268032D01*
X245998Y268826D01*
X244975Y269250D01*
Y269750D01*
X245998Y270174D01*
X247032Y270968D01*
X247826Y272002D01*
X248325Y273207D01*
X248496Y274500D01*
X248325Y275793D01*
X247826Y276998D01*
X247032Y278032D01*
X245998Y278826D01*
X244975Y279250D01*
Y279750D01*
X245998Y280174D01*
X247032Y280968D01*
X247826Y282002D01*
X248325Y283207D01*
X248496Y284500D01*
X248325Y285793D01*
X247826Y286998D01*
X247032Y288032D01*
X245998Y288826D01*
X244793Y289325D01*
X243500Y289495D01*
X242207Y289325D01*
X241002Y288826D01*
X240927Y288769D01*
X240479Y288990D01*
Y291271D01*
X240927Y291492D01*
X241507Y291047D01*
X242468Y290649D01*
X243000Y290579D01*
Y294500D01*
Y298421D01*
X242468Y298351D01*
X241507Y297953D01*
X240927Y297508D01*
X240479Y297729D01*
Y300010D01*
X240927Y300231D01*
X241002Y300174D01*
X242207Y299675D01*
X243500Y299504D01*
X244793Y299675D01*
X245998Y300174D01*
X247032Y300968D01*
X247826Y302002D01*
X248325Y303207D01*
X248496Y304500D01*
X248325Y305793D01*
X247826Y306998D01*
X247032Y308032D01*
X245998Y308826D01*
X244975Y309250D01*
Y309750D01*
X245998Y310174D01*
X247032Y310968D01*
X247826Y312002D01*
X248325Y313207D01*
X248451Y314164D01*
X250733Y315686D01*
X251174Y315450D01*
D02*
G37*
G36*
X334419Y326978D02*
X334047Y326493D01*
X333649Y325532D01*
X333579Y325000D01*
X341421D01*
X341351Y325532D01*
X341249Y325778D01*
X341665Y326056D01*
X342588Y325133D01*
X342505Y324500D01*
X342675Y323207D01*
X343174Y322002D01*
X343968Y320968D01*
X345002Y320174D01*
X346025Y319750D01*
Y319250D01*
X345002Y318826D01*
X343968Y318032D01*
X343174Y316998D01*
X342750Y315975D01*
X342250D01*
X341826Y316998D01*
X341032Y318032D01*
X339998Y318826D01*
X338793Y319325D01*
X337500Y319496D01*
X336207Y319325D01*
X335002Y318826D01*
X333968Y318032D01*
X333174Y316998D01*
X332750Y315975D01*
X332250D01*
X331826Y316998D01*
X331032Y318032D01*
X329998Y318826D01*
X328975Y319250D01*
Y319750D01*
X329998Y320174D01*
X331032Y320968D01*
X331826Y322002D01*
X332325Y323207D01*
X332495Y324500D01*
X332325Y325793D01*
X331826Y326998D01*
X332038Y327427D01*
X334198D01*
X334419Y326978D01*
D02*
G37*
G36*
X404774Y210485D02*
Y41153D01*
X382047Y18426D01*
X341253D01*
X339491Y20188D01*
X339683Y20650D01*
X381438D01*
Y32648D01*
X380736D01*
X380515Y33097D01*
X380826Y33502D01*
X381325Y34707D01*
X381495Y36000D01*
X381325Y37293D01*
X380826Y38498D01*
X380032Y39532D01*
X378998Y40326D01*
X377793Y40825D01*
X376500Y40995D01*
X375207Y40825D01*
X374002Y40326D01*
X372968Y39532D01*
X372174Y38498D01*
X371675Y37293D01*
X371504Y36000D01*
X371675Y34707D01*
X372174Y33502D01*
X372485Y33097D01*
X372264Y32648D01*
X369403D01*
X369242Y33121D01*
X369319Y33181D01*
X369953Y34007D01*
X370351Y34968D01*
X370421Y35500D01*
X366500D01*
Y36000D01*
X366000D01*
Y39921D01*
X365468Y39851D01*
X365222Y39749D01*
X364944Y40165D01*
X372753Y47974D01*
X375000D01*
X375783Y48077D01*
X376299Y48291D01*
X376513Y48379D01*
X377140Y48860D01*
X384640Y56360D01*
X385121Y56987D01*
X385209Y57201D01*
X385423Y57717D01*
X385526Y58500D01*
Y71800D01*
X385423Y72583D01*
X385121Y73313D01*
X384912Y73585D01*
X384640Y73940D01*
X384640Y73940D01*
X382140Y76440D01*
X381513Y76920D01*
X381299Y77009D01*
X380783Y77223D01*
X380000Y77326D01*
X362288D01*
X362190Y77816D01*
X362849Y78089D01*
X363822Y78836D01*
X364568Y79809D01*
X365038Y80941D01*
X365198Y82157D01*
X365038Y83373D01*
X364568Y84506D01*
X363822Y85479D01*
X362849Y86226D01*
X361716Y86695D01*
X360500Y86855D01*
X359284Y86695D01*
X358242Y86263D01*
X357826Y86541D01*
Y97185D01*
X365158D01*
Y106500D01*
X357826D01*
Y117341D01*
X358299Y117501D01*
X358821Y116821D01*
X359606Y116219D01*
X360520Y115841D01*
X360524Y115840D01*
X394425Y81939D01*
Y60953D01*
X386547D01*
Y51047D01*
X391258D01*
X391449Y50585D01*
X390753Y49889D01*
X390468Y49851D01*
X389507Y49453D01*
X388681Y48819D01*
X388047Y47993D01*
X387649Y47032D01*
X387579Y46500D01*
X391500D01*
Y46000D01*
X392000D01*
Y42079D01*
X392532Y42149D01*
X393493Y42547D01*
X394319Y43181D01*
X394953Y44007D01*
X395351Y44968D01*
X395389Y45253D01*
X396655Y46519D01*
X397703D01*
X398551Y46631D01*
X399342Y46958D01*
X400021Y47479D01*
X400542Y48158D01*
X400869Y48949D01*
X400981Y49797D01*
X400981Y49797D01*
X400981Y49797D01*
Y49797D01*
Y83297D01*
X400925Y83721D01*
X400869Y84146D01*
X400705Y84541D01*
X400542Y84936D01*
X400021Y85615D01*
X381489Y104147D01*
X381650Y104620D01*
X382639Y104750D01*
X383700Y105190D01*
X384611Y105889D01*
X385310Y106800D01*
X385750Y107861D01*
X385900Y109000D01*
X385750Y110139D01*
X385310Y111200D01*
X384611Y112111D01*
X383700Y112810D01*
X382639Y113250D01*
X381500Y113400D01*
X380361Y113250D01*
X379300Y112810D01*
X378389Y112111D01*
X377690Y111200D01*
X377250Y110139D01*
X377120Y109150D01*
X376646Y108989D01*
X365160Y120476D01*
X365159Y120481D01*
X364781Y121394D01*
X364778Y121398D01*
Y127602D01*
X364781Y127606D01*
X365159Y128519D01*
X365160Y128524D01*
X393818Y157182D01*
X394113Y157566D01*
X394339Y157861D01*
X394435Y158092D01*
X394666Y158652D01*
X394778Y159500D01*
X394778Y159500D01*
X394778Y159500D01*
Y159500D01*
Y163602D01*
X394781Y163606D01*
X395159Y164520D01*
X395160Y164524D01*
X399918Y169282D01*
X400144Y169577D01*
X400439Y169961D01*
X400766Y170752D01*
X400878Y171600D01*
Y200300D01*
X400766Y201148D01*
X400439Y201939D01*
X400278Y202149D01*
Y206102D01*
X400281Y206106D01*
X400659Y207019D01*
X400660Y207024D01*
X404312Y210676D01*
X404774Y210485D01*
D02*
G37*
G36*
X409574Y333747D02*
Y324240D01*
X409158Y323962D01*
X409148Y323966D01*
X408300Y324078D01*
X407058D01*
X405889Y325247D01*
X405851Y325532D01*
X405453Y326493D01*
X404819Y327319D01*
X403993Y327953D01*
X403032Y328351D01*
X402500Y328421D01*
Y324500D01*
X402000D01*
Y324000D01*
X398079D01*
X398149Y323468D01*
X398547Y322507D01*
X399181Y321681D01*
X400007Y321047D01*
X400968Y320649D01*
X401253Y320612D01*
X401950Y319915D01*
X401758Y319453D01*
X397047D01*
Y309547D01*
X405022D01*
Y255745D01*
X404573Y255524D01*
X404200Y255810D01*
X403139Y256250D01*
X402000Y256400D01*
X400861Y256250D01*
X399800Y255810D01*
X398889Y255111D01*
X398190Y254200D01*
X397750Y253139D01*
X397600Y252000D01*
X397614Y251893D01*
X394460Y248740D01*
X393980Y248113D01*
X393891Y247899D01*
X393677Y247383D01*
X393574Y246600D01*
Y235324D01*
X393126Y235103D01*
X392894Y235281D01*
X391981Y235659D01*
X391500Y235722D01*
Y232000D01*
Y228277D01*
X391981Y228341D01*
X392894Y228719D01*
X393526Y229204D01*
X393974Y228983D01*
Y225173D01*
X393608Y224892D01*
X392846Y223899D01*
X392367Y222742D01*
X392203Y221500D01*
X392263Y221042D01*
X388660Y217440D01*
X388618Y217385D01*
X388565Y217340D01*
X388378Y217072D01*
X388179Y216813D01*
X388153Y216749D01*
X388113Y216692D01*
X388002Y216385D01*
X387877Y216083D01*
X387868Y216015D01*
X387845Y215950D01*
X387817Y215624D01*
X387774Y215300D01*
X387783Y215231D01*
X387777Y215163D01*
X388474Y199831D01*
Y196173D01*
X388108Y195892D01*
X387346Y194898D01*
X386866Y193742D01*
X386703Y192500D01*
X386763Y192043D01*
X375756Y181035D01*
X375275Y180409D01*
X375187Y180195D01*
X374973Y179679D01*
X374870Y178896D01*
Y156149D01*
X361958Y143237D01*
X361500Y143297D01*
X360259Y143133D01*
X359102Y142654D01*
X358403Y142119D01*
X358074Y142495D01*
X373440Y157860D01*
X373920Y158487D01*
X374223Y159217D01*
X374326Y160000D01*
X374326Y160000D01*
Y197400D01*
X374223Y198183D01*
X373920Y198913D01*
X373440Y199540D01*
X372540Y200440D01*
X371913Y200921D01*
X371699Y201009D01*
X371183Y201223D01*
X370400Y201326D01*
X354400D01*
X353617Y201223D01*
X353189Y201046D01*
X352887Y200921D01*
X352615Y200712D01*
X352260Y200440D01*
X352260Y200440D01*
X345447Y193626D01*
X344091D01*
X343870Y194074D01*
X344195Y194498D01*
X344563Y195388D01*
X344623Y195843D01*
X337377D01*
X337437Y195388D01*
X337805Y194498D01*
X338130Y194074D01*
X337909Y193626D01*
X330885D01*
X330787Y194116D01*
X331520Y194420D01*
X332460Y195141D01*
X333181Y196081D01*
X333635Y197176D01*
X333789Y198350D01*
X333759Y198580D01*
X335340Y200160D01*
X335821Y200787D01*
X335909Y201001D01*
X336123Y201517D01*
X336174Y201908D01*
X336226Y202300D01*
X336226Y202300D01*
Y223685D01*
X336343D01*
Y223685D01*
X345657D01*
Y231161D01*
X345783Y231177D01*
X346299Y231391D01*
X346513Y231480D01*
X347140Y231960D01*
X349940Y234760D01*
X350420Y235387D01*
X350509Y235601D01*
X350723Y236117D01*
X350774Y236508D01*
X350826Y236900D01*
X350826Y236900D01*
Y261042D01*
X351325Y261075D01*
X351366Y260758D01*
X351846Y259601D01*
X352608Y258608D01*
X353602Y257846D01*
X354759Y257366D01*
X356000Y257203D01*
X357242Y257366D01*
X358399Y257846D01*
X359392Y258608D01*
X360154Y259601D01*
X360250Y259833D01*
X360750D01*
X360846Y259601D01*
X361608Y258608D01*
X362601Y257846D01*
X363758Y257366D01*
X365000Y257203D01*
X366242Y257366D01*
X367399Y257846D01*
X368392Y258608D01*
X369000Y259401D01*
X369500D01*
X370108Y258608D01*
X371101Y257846D01*
X372258Y257366D01*
X373500Y257203D01*
X374742Y257366D01*
X375899Y257846D01*
X376892Y258608D01*
X377500Y259401D01*
X378000D01*
X378608Y258608D01*
X379602Y257846D01*
X380759Y257366D01*
X382000Y257203D01*
X383242Y257366D01*
X384399Y257846D01*
X385392Y258608D01*
X386154Y259601D01*
X386250Y259833D01*
X386750D01*
X386846Y259601D01*
X387608Y258608D01*
X388601Y257846D01*
X389758Y257366D01*
X391000Y257203D01*
X392242Y257366D01*
X393398Y257846D01*
X394392Y258608D01*
X395154Y259601D01*
X395634Y260758D01*
X395797Y262000D01*
X395634Y263242D01*
X395154Y264399D01*
X394392Y265392D01*
X394026Y265673D01*
Y275831D01*
X394673Y276327D01*
X395498Y277403D01*
X396017Y278656D01*
X396194Y280000D01*
X396017Y281344D01*
X395498Y282597D01*
X394673Y283673D01*
X393597Y284498D01*
X392344Y285017D01*
X391000Y285194D01*
X389656Y285017D01*
X388403Y284498D01*
X387327Y283673D01*
X386999Y283245D01*
X386526Y283406D01*
Y331380D01*
X386423Y332164D01*
X386246Y332591D01*
X386121Y332893D01*
X385640Y333520D01*
X375047Y344112D01*
X375239Y344574D01*
X398747D01*
X409574Y333747D01*
D02*
G37*
G36*
X329502Y277403D02*
X330327Y276327D01*
X331403Y275502D01*
X332656Y274983D01*
X333021Y274935D01*
X333182Y274461D01*
X330460Y271740D01*
X329979Y271113D01*
X329891Y270899D01*
X329677Y270383D01*
X329574Y269600D01*
Y252134D01*
X329101Y251973D01*
X328611Y252611D01*
X327700Y253310D01*
X326639Y253750D01*
X325500Y253900D01*
X324361Y253750D01*
X323300Y253310D01*
X322389Y252611D01*
X321690Y251700D01*
X321250Y250639D01*
X321100Y249500D01*
X321114Y249393D01*
X317897Y246176D01*
X317416Y245549D01*
X317327Y245336D01*
X317114Y244820D01*
X317010Y244036D01*
Y232479D01*
X316562Y232258D01*
X315597Y232998D01*
X314344Y233517D01*
X313000Y233694D01*
X311656Y233517D01*
X310403Y232998D01*
X309327Y232173D01*
X308502Y231097D01*
X308026Y231192D01*
Y275831D01*
X308673Y276327D01*
X309498Y277403D01*
X309750Y278011D01*
X310250D01*
X310502Y277403D01*
X311327Y276327D01*
X312403Y275502D01*
X313656Y274983D01*
X315000Y274806D01*
X316344Y274983D01*
X317597Y275502D01*
X318673Y276327D01*
X318673Y276327D01*
X318673Y276327D01*
X318673D01*
X319251Y277078D01*
X319250Y277076D01*
X319750D01*
X319749Y277078D01*
X320327Y276327D01*
X320327D01*
X320327Y276327D01*
Y276327D01*
X321403Y275502D01*
X322656Y274983D01*
X324000Y274806D01*
X325344Y274983D01*
X326597Y275502D01*
X327673Y276327D01*
X328498Y277403D01*
X328750Y278011D01*
X329250D01*
X329502Y277403D01*
D02*
G37*
G36*
X348502D02*
X349327Y276327D01*
X350403Y275502D01*
X351656Y274983D01*
X352021Y274935D01*
X352182Y274461D01*
X345660Y267940D01*
X345180Y267313D01*
X345091Y267099D01*
X344877Y266583D01*
X344774Y265800D01*
Y264070D01*
X344284Y263972D01*
X344195Y264187D01*
X343609Y264951D01*
X342845Y265537D01*
X341955Y265906D01*
X341500Y265966D01*
Y262343D01*
Y258719D01*
X341955Y258779D01*
X342845Y259148D01*
X343609Y259734D01*
X344195Y260498D01*
X344284Y260713D01*
X344774Y260615D01*
Y247315D01*
X336343D01*
Y244292D01*
X336032Y244187D01*
X335626Y244478D01*
Y268347D01*
X342192Y274912D01*
X343000Y274806D01*
X344344Y274983D01*
X345597Y275502D01*
X346673Y276327D01*
X347498Y277403D01*
X347750Y278011D01*
X348250D01*
X348502Y277403D01*
D02*
G37*
G36*
X229306Y328915D02*
X229115Y328453D01*
X227500D01*
Y324500D01*
X227000D01*
Y324000D01*
X223047D01*
Y320547D01*
X226317D01*
X226926Y319938D01*
X226765Y319465D01*
X225707Y319325D01*
X224502Y318826D01*
X223468Y318032D01*
X222799Y317161D01*
X222326Y317322D01*
Y318700D01*
X222223Y319483D01*
X222009Y319999D01*
X221920Y320213D01*
X221440Y320840D01*
X217886Y324393D01*
X217900Y324500D01*
X217886Y324607D01*
X222753Y329474D01*
X228747D01*
X229306Y328915D01*
D02*
G37*
%LPC*%
G36*
X303362Y53862D02*
X300500D01*
Y51000D01*
X303362D01*
Y53862D01*
D02*
G37*
G36*
X359722Y231500D02*
X352277D01*
X352341Y231019D01*
X352719Y230106D01*
X352722Y230102D01*
Y225015D01*
X339844Y212138D01*
X339156Y211852D01*
X338391Y211266D01*
X337805Y210502D01*
X337437Y209612D01*
X337377Y209157D01*
X341000D01*
Y208157D01*
X337377D01*
X337437Y207703D01*
X337722Y207014D01*
Y197986D01*
X337437Y197297D01*
X337377Y196843D01*
X344623D01*
X344563Y197297D01*
X344278Y197986D01*
Y207014D01*
X344480Y207502D01*
X358318Y221340D01*
X358544Y221634D01*
X358839Y222018D01*
X359166Y222809D01*
X359278Y223657D01*
Y230102D01*
X359281Y230106D01*
X359659Y231019D01*
X359722Y231500D01*
D02*
G37*
G36*
X312500Y222620D02*
X311917Y222543D01*
X310907Y222125D01*
X310040Y221460D01*
X309375Y220593D01*
X308957Y219583D01*
X308880Y219000D01*
X312500D01*
Y222620D01*
D02*
G37*
G36*
Y218000D02*
X308880D01*
X308957Y217417D01*
X309375Y216407D01*
X310040Y215541D01*
X310907Y214875D01*
X311917Y214457D01*
X312500Y214380D01*
Y218000D01*
D02*
G37*
G36*
X367000Y226297D02*
X365758Y226133D01*
X364601Y225654D01*
X363608Y224892D01*
X362846Y223899D01*
X362367Y222742D01*
X362203Y221500D01*
X362367Y220258D01*
X362846Y219102D01*
X363608Y218108D01*
X363974Y217827D01*
Y211673D01*
X363608Y211392D01*
X362846Y210399D01*
X362367Y209242D01*
X362203Y208000D01*
X362367Y206758D01*
X362846Y205602D01*
X363608Y204608D01*
X364601Y203846D01*
X365758Y203366D01*
X367000Y203203D01*
X368242Y203366D01*
X369398Y203846D01*
X370392Y204608D01*
X371154Y205602D01*
X371634Y206758D01*
X371797Y208000D01*
X371634Y209242D01*
X371154Y210399D01*
X370392Y211392D01*
X370026Y211673D01*
Y217827D01*
X370392Y218108D01*
X371154Y219102D01*
X371634Y220258D01*
X371797Y221500D01*
X371634Y222742D01*
X371154Y223899D01*
X370392Y224892D01*
X369398Y225654D01*
X368242Y226133D01*
X367000Y226297D01*
D02*
G37*
G36*
X391000Y45500D02*
X387579D01*
X387649Y44968D01*
X388047Y44007D01*
X388681Y43181D01*
X389507Y42547D01*
X390468Y42149D01*
X391000Y42079D01*
Y45500D01*
D02*
G37*
G36*
X198500Y108500D02*
X195079D01*
X195149Y107968D01*
X195547Y107007D01*
X196181Y106181D01*
X197007Y105547D01*
X197968Y105149D01*
X198500Y105079D01*
Y108500D01*
D02*
G37*
G36*
X367000Y39921D02*
Y36500D01*
X370421D01*
X370351Y37032D01*
X369953Y37993D01*
X369319Y38819D01*
X368493Y39453D01*
X367532Y39851D01*
X367000Y39921D01*
D02*
G37*
G36*
X391500Y143297D02*
X390259Y143133D01*
X389102Y142654D01*
X388108Y141892D01*
X387346Y140899D01*
X386866Y139742D01*
X386703Y138500D01*
X386866Y137259D01*
X387346Y136101D01*
X388108Y135108D01*
X388474Y134827D01*
Y133173D01*
X388108Y132892D01*
X387346Y131898D01*
X386866Y130742D01*
X386703Y129500D01*
X386866Y128259D01*
X387346Y127102D01*
X388108Y126108D01*
X389102Y125346D01*
X390259Y124866D01*
X391143Y124750D01*
Y124250D01*
X390259Y124134D01*
X389102Y123654D01*
X388108Y122892D01*
X387346Y121898D01*
X386866Y120741D01*
X386703Y119500D01*
X386866Y118259D01*
X387346Y117102D01*
X388108Y116108D01*
X388474Y115827D01*
Y112177D01*
X388389Y112111D01*
X387690Y111200D01*
X387250Y110139D01*
X387100Y109000D01*
X387250Y107861D01*
X387690Y106800D01*
X388389Y105889D01*
X389300Y105190D01*
X390361Y104750D01*
X391500Y104600D01*
X392639Y104750D01*
X393700Y105190D01*
X394611Y105889D01*
X395310Y106800D01*
X395750Y107861D01*
X395900Y109000D01*
X395750Y110139D01*
X395310Y111200D01*
X394611Y112111D01*
X394526Y112177D01*
Y115827D01*
X394892Y116108D01*
X395654Y117102D01*
X396133Y118259D01*
X396297Y119500D01*
X396133Y120741D01*
X395654Y121898D01*
X394892Y122892D01*
X393899Y123654D01*
X392741Y124134D01*
X391857Y124250D01*
Y124750D01*
X392741Y124866D01*
X393899Y125346D01*
X394892Y126108D01*
X395654Y127102D01*
X396133Y128259D01*
X396297Y129500D01*
X396133Y130742D01*
X395654Y131898D01*
X394892Y132892D01*
X394526Y133173D01*
Y134827D01*
X394892Y135108D01*
X395654Y136101D01*
X396133Y137259D01*
X396297Y138500D01*
X396133Y139742D01*
X395654Y140899D01*
X394892Y141892D01*
X393899Y142654D01*
X392741Y143133D01*
X391500Y143297D01*
D02*
G37*
G36*
X202921Y108500D02*
X199500D01*
Y105079D01*
X200032Y105149D01*
X200993Y105547D01*
X201819Y106181D01*
X202453Y107007D01*
X202851Y107968D01*
X202921Y108500D01*
D02*
G37*
G36*
X218500Y112921D02*
X217968Y112851D01*
X217007Y112453D01*
X216181Y111819D01*
X215547Y110993D01*
X215149Y110032D01*
X215079Y109500D01*
X218500D01*
Y112921D01*
D02*
G37*
G36*
X219500D02*
Y109500D01*
X222921D01*
X222851Y110032D01*
X222453Y110993D01*
X221819Y111819D01*
X220993Y112453D01*
X220032Y112851D01*
X219500Y112921D01*
D02*
G37*
G36*
X198500D02*
X197968Y112851D01*
X197007Y112453D01*
X196181Y111819D01*
X195547Y110993D01*
X195149Y110032D01*
X195079Y109500D01*
X198500D01*
Y112921D01*
D02*
G37*
G36*
X199500D02*
Y109500D01*
X202921D01*
X202851Y110032D01*
X202453Y110993D01*
X201819Y111819D01*
X200993Y112453D01*
X200032Y112851D01*
X199500Y112921D01*
D02*
G37*
G36*
X325000Y262825D02*
X324622Y262776D01*
X323804Y262437D01*
X323102Y261898D01*
X322563Y261196D01*
X322224Y260378D01*
X322175Y260000D01*
X325000D01*
Y262825D01*
D02*
G37*
G36*
X326000D02*
Y260000D01*
X328825D01*
X328776Y260378D01*
X328437Y261196D01*
X327898Y261898D01*
X327196Y262437D01*
X326378Y262776D01*
X326000Y262825D01*
D02*
G37*
G36*
X340500Y265966D02*
X340045Y265906D01*
X339156Y265537D01*
X338391Y264951D01*
X337805Y264187D01*
X337437Y263297D01*
X337377Y262843D01*
X340500D01*
Y265966D01*
D02*
G37*
G36*
Y261843D02*
X337377D01*
X337437Y261388D01*
X337805Y260498D01*
X338391Y259734D01*
X339156Y259148D01*
X340045Y258779D01*
X340500Y258719D01*
Y261843D01*
D02*
G37*
G36*
X390500Y235722D02*
X390019Y235659D01*
X389106Y235281D01*
X388321Y234679D01*
X387719Y233894D01*
X387341Y232980D01*
X387278Y232500D01*
X390500D01*
Y235722D01*
D02*
G37*
G36*
X325000Y259000D02*
X322175D01*
X322224Y258622D01*
X322563Y257804D01*
X323102Y257102D01*
X323804Y256563D01*
X324622Y256224D01*
X325000Y256175D01*
Y259000D01*
D02*
G37*
G36*
X328825D02*
X326000D01*
Y256175D01*
X326378Y256224D01*
X327196Y256563D01*
X327898Y257102D01*
X328437Y257804D01*
X328776Y258622D01*
X328825Y259000D01*
D02*
G37*
G36*
X341421Y324000D02*
X338000D01*
Y320579D01*
X338532Y320649D01*
X339493Y321047D01*
X340319Y321681D01*
X340953Y322507D01*
X341351Y323468D01*
X341421Y324000D01*
D02*
G37*
G36*
X226500Y328453D02*
X223047D01*
Y325000D01*
X226500D01*
Y328453D01*
D02*
G37*
G36*
X401500Y328421D02*
X400968Y328351D01*
X400007Y327953D01*
X399181Y327319D01*
X398547Y326493D01*
X398149Y325532D01*
X398079Y325000D01*
X401500D01*
Y328421D01*
D02*
G37*
G36*
X337000Y324000D02*
X333579D01*
X333649Y323468D01*
X334047Y322507D01*
X334681Y321681D01*
X335507Y321047D01*
X336468Y320649D01*
X337000Y320579D01*
Y324000D01*
D02*
G37*
G36*
X226500Y284000D02*
X223079D01*
X223149Y283468D01*
X223547Y282507D01*
X224181Y281681D01*
X225007Y281047D01*
X225968Y280649D01*
X226500Y280579D01*
Y284000D01*
D02*
G37*
G36*
X247421Y294000D02*
X244000D01*
Y290579D01*
X244532Y290649D01*
X245493Y291047D01*
X246319Y291681D01*
X246953Y292507D01*
X247351Y293468D01*
X247421Y294000D01*
D02*
G37*
G36*
X244000Y298421D02*
Y295000D01*
X247421D01*
X247351Y295532D01*
X246953Y296493D01*
X246319Y297319D01*
X245493Y297953D01*
X244532Y298351D01*
X244000Y298421D01*
D02*
G37*
G36*
X382500Y235722D02*
Y232500D01*
X385722D01*
X385659Y232980D01*
X385281Y233894D01*
X384679Y234679D01*
X383894Y235281D01*
X382980Y235659D01*
X382500Y235722D01*
D02*
G37*
G36*
X381500Y231500D02*
X378277D01*
X378341Y231019D01*
X378719Y230106D01*
X379321Y229321D01*
X380106Y228719D01*
X381019Y228341D01*
X381500Y228277D01*
Y231500D01*
D02*
G37*
G36*
X385722D02*
X382500D01*
Y228277D01*
X382980Y228341D01*
X383894Y228719D01*
X384679Y229321D01*
X385281Y230106D01*
X385659Y231019D01*
X385722Y231500D01*
D02*
G37*
G36*
X390500D02*
X387278D01*
X387341Y231019D01*
X387719Y230106D01*
X388321Y229321D01*
X389106Y228719D01*
X390019Y228341D01*
X390500Y228277D01*
Y231500D01*
D02*
G37*
G36*
X377222D02*
X374000D01*
Y228277D01*
X374481Y228341D01*
X375394Y228719D01*
X376179Y229321D01*
X376781Y230106D01*
X377159Y231019D01*
X377222Y231500D01*
D02*
G37*
G36*
X364500D02*
X361278D01*
X361341Y231019D01*
X361719Y230106D01*
X362321Y229321D01*
X363106Y228719D01*
X364019Y228341D01*
X364500Y228277D01*
Y231500D01*
D02*
G37*
G36*
X368723D02*
X365500D01*
Y228277D01*
X365981Y228341D01*
X366894Y228719D01*
X367679Y229321D01*
X368281Y230106D01*
X368659Y231019D01*
X368723Y231500D01*
D02*
G37*
G36*
X373000D02*
X369777D01*
X369841Y231019D01*
X370219Y230106D01*
X370821Y229321D01*
X371606Y228719D01*
X372519Y228341D01*
X373000Y228277D01*
Y231500D01*
D02*
G37*
G36*
Y235722D02*
X372519Y235659D01*
X371606Y235281D01*
X370821Y234679D01*
X370219Y233894D01*
X369841Y232980D01*
X369777Y232500D01*
X373000D01*
Y235722D01*
D02*
G37*
G36*
X374000D02*
Y232500D01*
X377222D01*
X377159Y232980D01*
X376781Y233894D01*
X376179Y234679D01*
X375394Y235281D01*
X374481Y235659D01*
X374000Y235722D01*
D02*
G37*
G36*
X381500D02*
X381019Y235659D01*
X380106Y235281D01*
X379321Y234679D01*
X378719Y233894D01*
X378341Y232980D01*
X378277Y232500D01*
X381500D01*
Y235722D01*
D02*
G37*
G36*
X365500D02*
Y232500D01*
X368723D01*
X368659Y232980D01*
X368281Y233894D01*
X367679Y234679D01*
X366894Y235281D01*
X365981Y235659D01*
X365500Y235722D01*
D02*
G37*
G36*
X355500D02*
X355019Y235659D01*
X354106Y235281D01*
X353321Y234679D01*
X352719Y233894D01*
X352341Y232980D01*
X352277Y232500D01*
X355500D01*
Y235722D01*
D02*
G37*
G36*
X356500D02*
Y232500D01*
X359722D01*
X359659Y232980D01*
X359281Y233894D01*
X358679Y234679D01*
X357894Y235281D01*
X356980Y235659D01*
X356500Y235722D01*
D02*
G37*
G36*
X364500D02*
X364019Y235659D01*
X363106Y235281D01*
X362321Y234679D01*
X361719Y233894D01*
X361341Y232980D01*
X361278Y232500D01*
X364500D01*
Y235722D01*
D02*
G37*
%LPD*%
D10*
X199739Y167361D02*
G03*
X200800Y169921I-2561J2561D01*
G01*
D02*
G03*
X201861Y167361I3621J0D01*
G01*
X191939Y70961D02*
G03*
X193000Y73521I-2561J2561D01*
G01*
D02*
G03*
X194061Y70961I3621J0D01*
G01*
X349239Y158061D02*
G03*
X350300Y160621I-2561J2561D01*
G01*
D02*
G03*
X351361Y158061I3621J0D01*
G01*
X281000Y190700D02*
G03*
X278439Y189639I0J-3621D01*
G01*
D02*
G03*
X279500Y192200I-2561J2561D01*
G01*
X257400Y140500D02*
G03*
X254839Y139439I0J-3621D01*
G01*
D02*
G03*
X255900Y142000I-2561J2561D01*
G01*
X264700Y332800D02*
G03*
X265761Y330239I3621J0D01*
G01*
D02*
G03*
X263200Y331300I-2561J-2561D01*
G01*
X331539Y242061D02*
G03*
X332600Y244621I-2561J2561D01*
G01*
D02*
G03*
X333661Y242061I3621J0D01*
G01*
X326661Y240439D02*
G03*
X325600Y237879I2561J-2561D01*
G01*
D02*
G03*
X324539Y240439I-3621J0D01*
G01*
X284039Y222961D02*
G03*
X285100Y225521I-2561J2561D01*
G01*
D02*
G03*
X286161Y222961I3621J0D01*
G01*
X333939Y63661D02*
G03*
X335000Y66221I-2561J2561D01*
G01*
D02*
G03*
X336061Y63661I3621J0D01*
G01*
X259881Y121619D02*
G03*
X258500Y118286I3334J-3334D01*
G01*
D02*
G03*
X257119Y121619I-4714J0D01*
G01*
X266547Y123000D02*
G03*
X265166Y126334I-4714J0D01*
G01*
X265166Y126333D02*
G03*
X268500Y124953I3334J3334D01*
G01*
X269881Y121619D02*
G03*
X268500Y118286I3334J-3334D01*
G01*
D02*
G03*
X267119Y121619I-4714J0D01*
G01*
X276547Y123000D02*
G03*
X275166Y126334I-4714J0D01*
G01*
X275166Y126333D02*
G03*
X278500Y124953I3334J3334D01*
G01*
X279881Y121619D02*
G03*
X278500Y118286I3334J-3334D01*
G01*
D02*
G03*
X277119Y121619I-4714J0D01*
G01*
X286547Y123000D02*
G03*
X285166Y126334I-4714J0D01*
G01*
X285166Y126333D02*
G03*
X288500Y124953I3334J3334D01*
G01*
X289881Y121619D02*
G03*
X288500Y118286I3334J-3334D01*
G01*
D02*
G03*
X287119Y121619I-4714J0D01*
G01*
X257119Y110381D02*
G03*
X258500Y113714I-3334J3334D01*
G01*
D02*
G03*
X259881Y110381I4714J0D01*
G01*
X267119D02*
G03*
X268500Y113714I-3334J3334D01*
G01*
D02*
G03*
X269881Y110381I4714J0D01*
G01*
X277119D02*
G03*
X278500Y113714I-3334J3334D01*
G01*
D02*
G03*
X279881Y110381I4714J0D01*
G01*
X287119D02*
G03*
X288500Y113714I-3334J3334D01*
G01*
D02*
G03*
X289881Y110381I4714J0D01*
G01*
X214000Y51862D02*
G03*
X216325Y52825I0J3289D01*
G01*
D02*
G03*
X215362Y50500I2325J-2325D01*
G01*
X316862Y154000D02*
G03*
X317825Y151675I3289J0D01*
G01*
D02*
G03*
X315500Y152638I-2325J-2325D01*
G01*
X363256Y192500D02*
G03*
X364497Y189503I4239J0D01*
G01*
D02*
G03*
X361500Y190744I-2998J-2998D01*
G01*
Y167256D02*
G03*
X364497Y168498I0J4239D01*
G01*
D02*
G03*
X363256Y165500I2998J-2998D01*
G01*
X362742Y164258D02*
G03*
X361500Y161261I2998J-2998D01*
G01*
D02*
G03*
X360258Y164258I-4239J0D01*
G01*
X195362Y191500D02*
G03*
X196325Y189175I3289J0D01*
G01*
D02*
G03*
X194000Y190138I-2325J-2325D01*
G01*
X390537Y109963D02*
G03*
X391500Y112289I-2325J2325D01*
G01*
D02*
G03*
X392463Y109963I3289J0D01*
G01*
X339828Y175485D02*
G03*
X336999Y176657I-2829J-2829D01*
G01*
D02*
G03*
X339828Y177829I0J4002D01*
G01*
X321850Y280000D02*
G03*
X320330Y283670I-5190J0D01*
G01*
X320330Y283670D02*
G03*
X324000Y282150I3670J3670D01*
G01*
X263362Y26000D02*
G03*
X264325Y23675I3289J0D01*
G01*
D02*
G03*
X262000Y24638I-2325J-2325D01*
G01*
X212638Y26000D02*
G03*
X211675Y28325I-3289J0D01*
G01*
D02*
G03*
X214000Y27362I2325J2325D01*
G01*
X215362Y26000D02*
G03*
X216325Y23675I3289J0D01*
G01*
D02*
G03*
X214000Y24638I-2325J-2325D01*
G01*
X314520Y206980D02*
G03*
X313000Y203310I3670J-3670D01*
G01*
D02*
G03*
X311480Y206980I-5190J0D01*
G01*
X320963Y49537D02*
G03*
X320000Y47211I2325J-2325D01*
G01*
D02*
G03*
X319037Y49537I-3289J0D01*
G01*
X252963D02*
G03*
X252000Y47211I2325J-2325D01*
G01*
D02*
G03*
X251037Y49537I-3289J0D01*
G01*
X361500Y172744D02*
G03*
X358503Y171502I0J-4239D01*
G01*
D02*
G03*
X359744Y174500I-2998J2998D01*
G01*
X361500Y136744D02*
G03*
X358503Y135503I0J-4239D01*
G01*
D02*
G03*
X359744Y138500I-2998J2998D01*
G01*
X292500Y326453D02*
G03*
X295834Y327834I0J4714D01*
G01*
X295834Y327834D02*
G03*
X294453Y324500I3334J-3334D01*
G01*
X292500Y306453D02*
G03*
X295834Y307834I0J4714D01*
G01*
X295834Y307834D02*
G03*
X294453Y304500I3334J-3334D01*
G01*
X292500Y296453D02*
G03*
X295834Y297834I0J4714D01*
G01*
X295834Y297834D02*
G03*
X294453Y294500I3334J-3334D01*
G01*
X292500Y186453D02*
G03*
X295834Y187833I0J4714D01*
G01*
X295834Y187834D02*
G03*
X294453Y184500I3334J-3334D01*
G01*
X292500Y176453D02*
G03*
X295834Y177833I0J4714D01*
G01*
X295834Y177834D02*
G03*
X294453Y174500I3334J-3334D01*
G01*
Y164500D02*
G03*
X295834Y161166I4714J0D01*
G01*
X295834Y161167D02*
G03*
X292500Y162547I-3334J-3334D01*
G01*
X290547Y154500D02*
G03*
X289166Y157834I-4714J0D01*
G01*
X289166Y157834D02*
G03*
X292500Y156453I3334J3334D01*
G01*
X243500Y256453D02*
G03*
X246834Y257834I0J4714D01*
G01*
X246834Y257834D02*
G03*
X245453Y254500I3334J-3334D01*
G01*
Y244500D02*
G03*
X246834Y241166I4714J0D01*
G01*
X246834Y241166D02*
G03*
X243500Y242547I-3334J-3334D01*
G01*
X245453Y234500D02*
G03*
X246834Y231166I4714J0D01*
G01*
X246834Y231166D02*
G03*
X243500Y232547I-3334J-3334D01*
G01*
X245453Y224500D02*
G03*
X246834Y221166I4714J0D01*
G01*
X246834Y221166D02*
G03*
X243500Y222547I-3334J-3334D01*
G01*
X241547Y154500D02*
G03*
X240166Y157834I-4714J0D01*
G01*
X240166Y157834D02*
G03*
X243500Y156453I3334J3334D01*
G01*
X213500Y246756D02*
G03*
X216497Y247997I0J4239D01*
G01*
D02*
G03*
X215256Y245000I2998J-2998D01*
G01*
X362000Y277850D02*
G03*
X358330Y276330I0J-5190D01*
G01*
X358330Y276330D02*
G03*
X359850Y280000I-3670J3670D01*
G01*
X373520Y278480D02*
G03*
X372000Y274810I3670J-3670D01*
G01*
D02*
G03*
X370480Y278480I-5190J0D01*
G01*
X380244Y262000D02*
G03*
X379002Y264998I-4239J0D01*
G01*
D02*
G03*
X382000Y263756I2998J2998D01*
G01*
X380894Y280106D02*
G03*
X383500Y286397I-6291J6291D01*
G01*
X379480Y281520D02*
G03*
X383500Y291225I-9705J9705D01*
G01*
X381650Y282049D02*
G03*
X383500Y282500I554J1747D01*
G01*
X383500Y282500D02*
G03*
X383049Y280650I1296J-1296D01*
G01*
X228953Y194500D02*
G03*
X230334Y191166I4714J0D01*
G01*
X230334Y191166D02*
G03*
X227000Y192547I-3334J-3334D01*
G01*
X325500Y248138D02*
G03*
X323175Y247175I0J-3289D01*
G01*
D02*
G03*
X324138Y249500I-2325J2325D01*
G01*
X212537Y299463D02*
G03*
X213500Y301789I-2325J2325D01*
G01*
D02*
G03*
X214463Y299463I3289J0D01*
G01*
Y297537D02*
G03*
X213500Y295211I2325J-2325D01*
G01*
D02*
G03*
X212537Y297537I-3289J0D01*
G01*
X214463Y310537D02*
G03*
X213500Y308211I2325J-2325D01*
G01*
D02*
G03*
X212537Y310537I-3289J0D01*
G01*
Y286463D02*
G03*
X213500Y288789I-2325J2325D01*
G01*
D02*
G03*
X214463Y286463I3289J0D01*
G01*
Y284537D02*
G03*
X213500Y282211I2325J-2325D01*
G01*
D02*
G03*
X212537Y284537I-3289J0D01*
G01*
X402000Y250638D02*
G03*
X399675Y249675I0J-3289D01*
G01*
D02*
G03*
X400638Y252000I-2325J2325D01*
G01*
X214862Y324500D02*
G03*
X215825Y322175I3289J0D01*
G01*
D02*
G03*
X213500Y323138I-2325J-2325D01*
G01*
Y325862D02*
G03*
X215825Y326825I0J3289D01*
G01*
D02*
G03*
X214862Y324500I2325J-2325D01*
G01*
X212138D02*
G03*
X211175Y326825I-3289J0D01*
G01*
D02*
G03*
X213500Y325862I2325J2325D01*
G01*
X375547Y324500D02*
G03*
X374166Y327834I-4714J0D01*
G01*
X374166Y327834D02*
G03*
X377500Y326453I3334J3334D01*
G01*
X355547Y324500D02*
G03*
X354166Y327834I-4714J0D01*
G01*
X354166Y327834D02*
G03*
X357500Y326453I3334J3334D01*
G01*
X297500Y20200D02*
X314600D01*
X267800D02*
X297500D01*
X313000Y195700D02*
Y208500D01*
Y195700D02*
X332043Y176657D01*
X341000D01*
X209000Y103400D02*
Y109000D01*
Y103400D02*
X220000Y92400D01*
X227506D01*
X234953Y84953D01*
Y71453D02*
Y84953D01*
X214000Y50500D02*
X234953Y71453D01*
X292500Y324500D02*
X307100Y339100D01*
X362900D01*
X377500Y324500D01*
X292500Y174500D02*
X305000Y187000D01*
Y280000D01*
X292500Y164500D02*
X299200Y157800D01*
Y146900D02*
Y157800D01*
Y146900D02*
X335000Y111100D01*
Y62600D02*
Y111100D01*
X227000Y214500D02*
X237300Y204200D01*
Y160700D02*
Y204200D01*
Y160700D02*
X243500Y154500D01*
X381000Y280000D02*
X383500Y282500D01*
Y331380D01*
X371380Y343500D02*
X383500Y331380D01*
X298600Y343500D02*
X371380D01*
X285100Y330000D02*
X298600Y343500D01*
X285100Y221900D02*
Y330000D01*
X281000Y180500D02*
X282500Y179000D01*
Y144900D02*
Y179000D01*
Y144900D02*
X329500Y97900D01*
Y58914D02*
Y97900D01*
Y58914D02*
X334214Y54200D01*
X354700D01*
X243500Y224500D02*
X263500Y204500D01*
Y128000D02*
Y204500D01*
Y128000D02*
X268500Y123000D01*
X243500Y234500D02*
X267500Y210500D01*
Y134000D02*
Y210500D01*
Y134000D02*
X278500Y123000D01*
X243500Y254500D02*
X254200Y265200D01*
Y331800D01*
X270000Y347600D01*
X400000D01*
X412600Y335000D01*
Y237900D02*
Y335000D01*
X407800Y233100D02*
X412600Y237900D01*
X407800Y39900D02*
Y233100D01*
X383300Y15400D02*
X407800Y39900D01*
X340000Y15400D02*
X383300D01*
X333000Y22400D02*
X340000Y15400D01*
X333000Y22400D02*
Y45800D01*
X320000Y58800D02*
X333000Y45800D01*
X310000Y50500D02*
X320000Y58800D01*
X370500Y60000D02*
X376500Y66000D01*
X343000Y60000D02*
X370500D01*
X340500Y62500D02*
X343000Y60000D01*
X340500Y62500D02*
Y129200D01*
X371300Y160000D01*
Y197400D01*
X370400Y198300D02*
X371300Y197400D01*
X354400Y198300D02*
X370400D01*
X346700Y190600D02*
X354400Y198300D01*
X323900Y190600D02*
X346700D01*
X322700Y191800D02*
X323900Y190600D01*
X322700Y191800D02*
Y199900D01*
X325600Y202800D01*
Y241500D01*
X372000Y272000D02*
Y280000D01*
Y272000D02*
X382000Y262000D01*
X391500Y192500D02*
Y199900D01*
X390800Y215300D02*
X391500Y199900D01*
X390800Y215300D02*
X397000Y221500D01*
X198500Y123000D02*
X204500Y117000D01*
X232500D01*
X263800Y85700D01*
X291300D01*
X294500Y82500D01*
Y23200D02*
Y82500D01*
Y23200D02*
X297500Y20200D01*
X314600D02*
X320000Y25600D01*
X262000Y26000D02*
X267800Y20200D01*
X320000Y25600D02*
Y50500D01*
X195900Y305000D02*
Y336900D01*
X202100Y343100D01*
X236400D01*
X249500Y330000D01*
Y318500D02*
Y330000D01*
X243500Y314500D02*
X249500Y318500D01*
X198500Y123000D02*
X220500Y145000D01*
Y202400D01*
X207700Y215200D02*
X220500Y202400D01*
X207700Y215200D02*
Y269200D01*
X213500Y275000D01*
X347800Y265800D02*
X362000Y280000D01*
X347800Y236900D02*
Y265800D01*
X345000Y234100D02*
X347800Y236900D01*
X333200Y234100D02*
X345000D01*
X333200Y202300D02*
Y234100D01*
X329250Y198350D02*
X333200Y202300D01*
X332600Y269600D02*
X343000Y280000D01*
X332600Y241000D02*
Y269600D01*
X237453Y270547D02*
X243500Y264500D01*
X237453Y270547D02*
Y325047D01*
X230000Y332500D02*
X237453Y325047D01*
X221500Y332500D02*
X230000D01*
X213500Y324500D02*
X221500Y332500D01*
X263200Y332800D02*
X276300Y319700D01*
Y213300D02*
Y319700D01*
Y213300D02*
X286500Y203100D01*
Y160500D02*
Y203100D01*
Y160500D02*
X292500Y154500D01*
X243500Y244500D02*
X271500Y216500D01*
Y159791D02*
Y216500D01*
Y159791D02*
X271902Y159389D01*
Y139598D02*
Y159389D01*
Y139598D02*
X288500Y123000D01*
X227000Y194500D02*
X233000Y188500D01*
Y144800D02*
Y188500D01*
Y144800D02*
X239300Y138500D01*
X253900D01*
X257400Y142000D01*
X275500Y186700D02*
X281000Y192200D01*
X275500Y178000D02*
Y186700D01*
Y178000D02*
X278500Y175000D01*
Y143243D02*
Y175000D01*
Y143243D02*
X301000Y120743D01*
Y63600D02*
Y120743D01*
X350300Y163300D02*
X361500Y174500D01*
X350300Y157000D02*
Y163300D01*
X193000Y69900D02*
Y94200D01*
X178500Y108700D02*
X193000Y94200D01*
X178500Y108700D02*
Y161500D01*
X184500Y167500D01*
X206763Y169763D02*
X214500Y177500D01*
X206763Y160516D02*
Y169763D01*
X188547Y142300D02*
X206763Y160516D01*
X188547Y107375D02*
Y142300D01*
Y107375D02*
X209000Y86922D01*
Y79000D02*
Y86922D01*
X361500Y157374D02*
Y165500D01*
X355596Y151469D02*
X361500Y157374D01*
X318031Y151469D02*
X355596D01*
X315500Y154000D02*
X318031Y151469D01*
X377896Y178896D02*
X391500Y192500D01*
X377896Y154896D02*
Y178896D01*
X361500Y138500D02*
X377896Y154896D01*
X206000Y332000D02*
Y337561D01*
Y332000D02*
X213500Y324500D01*
X356500Y36000D02*
X371500Y51000D01*
X375000D01*
X382500Y58500D01*
Y71800D01*
X380000Y74300D02*
X382500Y71800D01*
X360000Y74300D02*
X380000D01*
X354800Y79500D02*
X360000Y74300D01*
X354800Y79500D02*
Y131800D01*
X361500Y138500D01*
X320036Y244036D02*
X325500Y249500D01*
X320036Y215536D02*
Y244036D01*
X313000Y208500D02*
X320036Y215536D01*
X252000Y37600D02*
Y50500D01*
X235000Y20600D02*
X252000Y37600D01*
X219400Y20600D02*
X235000D01*
X214000Y26000D02*
X219400Y20600D01*
X200800Y166300D02*
Y184700D01*
X194000Y191500D02*
X200800Y184700D01*
X317800Y286200D02*
X324000Y280000D01*
X298900Y286200D02*
X317800D01*
X298500Y285800D02*
X298900Y286200D01*
X298500Y190500D02*
Y285800D01*
X292500Y184500D02*
X298500Y190500D01*
X347547Y334453D02*
X357500Y324500D01*
X312000Y334453D02*
X347547D01*
X307547Y330000D02*
X312000Y334453D01*
X307547Y319547D02*
Y330000D01*
X292500Y304500D02*
X307547Y319547D01*
X292500Y294500D02*
X311547Y313547D01*
Y327500D01*
X314500Y330453D01*
X341547D01*
X347500Y324500D01*
X397000Y221500D02*
Y234600D01*
X396600Y235000D02*
X397000Y234600D01*
X396600Y235000D02*
Y246600D01*
X402000Y252000D01*
X198600Y41400D02*
X214000Y26000D01*
X198600Y41400D02*
Y68600D01*
X209000Y79000D01*
X213500Y324500D02*
X219300Y318700D01*
Y250800D02*
Y318700D01*
X213500Y245000D02*
X219300Y250800D01*
X361500Y192500D02*
X367300Y186700D01*
Y171300D02*
Y186700D01*
X361500Y165500D02*
X367300Y171300D01*
X258500Y109000D02*
Y123000D01*
X367000Y208000D02*
Y221500D01*
X391500Y174500D02*
Y183500D01*
X268500Y109000D02*
Y123000D01*
X278500Y109000D02*
Y123000D01*
X288500Y109000D02*
Y123000D01*
X391000Y262000D02*
Y280000D01*
X391500Y109000D02*
Y119500D01*
X213500Y298500D02*
Y311500D01*
Y285500D02*
Y298500D01*
Y275000D02*
Y285500D01*
X391500Y129500D02*
Y138500D01*
D11*
X269704Y77796D02*
G03*
X268500Y74889I2907J-2907D01*
G01*
D02*
G03*
X267296Y77796I-4111J0D01*
G01*
X224000Y51612D02*
G03*
X225899Y52399I0J2685D01*
G01*
X225899Y52399D02*
G03*
X225112Y50500I1899J-1899D01*
G01*
X224786Y49714D02*
G03*
X224000Y47815I1899J-1899D01*
G01*
D02*
G03*
X223214Y49714I-2685J0D01*
G01*
X397000Y209506D02*
G03*
X399571Y210571I0J3636D01*
G01*
D02*
G03*
X398506Y208000I2571J-2571D01*
G01*
X398065Y206935D02*
G03*
X397000Y204364I2571J-2571D01*
G01*
D02*
G03*
X395935Y206935I-3636J0D01*
G01*
X299714Y26786D02*
G03*
X300500Y28685I-1899J1899D01*
G01*
D02*
G03*
X301286Y26786I2685J0D01*
G01*
X391500Y167006D02*
G03*
X394071Y168071I0J3636D01*
G01*
D02*
G03*
X393006Y165500I2571J-2571D01*
G01*
X392565Y164435D02*
G03*
X391500Y161864I2571J-2571D01*
G01*
D02*
G03*
X390435Y164435I-3636J0D01*
G01*
X184500Y149203D02*
G03*
X187407Y150407I0J4111D01*
G01*
X187407Y150407D02*
G03*
X186203Y147500I2907J-2907D01*
G01*
X341000Y210065D02*
G03*
X343403Y211060I0J3398D01*
G01*
D02*
G03*
X342407Y208657I2403J-2403D01*
G01*
X341995Y207662D02*
G03*
X341000Y205259I2403J-2403D01*
G01*
D02*
G03*
X340005Y207662I-3398J0D01*
G01*
Y197338D02*
G03*
X341000Y199741I-2403J2403D01*
G01*
D02*
G03*
X341995Y197338I3398J0D01*
G01*
X300786Y49714D02*
G03*
X300000Y47815I1899J-1899D01*
G01*
D02*
G03*
X299214Y49714I-2685J0D01*
G01*
X270888Y50500D02*
G03*
X270101Y52399I-2685J0D01*
G01*
X270101Y52399D02*
G03*
X272000Y51612I1899J1899D01*
G01*
X272786Y49714D02*
G03*
X272000Y47815I1899J-1899D01*
G01*
D02*
G03*
X271214Y49714I-2685J0D01*
G01*
X361500Y131006D02*
G03*
X364071Y132071I0J3636D01*
G01*
D02*
G03*
X363006Y129500I2571J-2571D01*
G01*
X362565Y128435D02*
G03*
X361500Y125864I2571J-2571D01*
G01*
D02*
G03*
X360435Y128435I-3636J0D01*
G01*
X363006Y119500D02*
G03*
X364071Y116929I3636J0D01*
G01*
D02*
G03*
X361500Y117994I-2571J-2571D01*
G01*
X360435Y120565D02*
G03*
X361500Y123136I-2571J2571D01*
G01*
D02*
G03*
X362565Y120565I3636J0D01*
G01*
X391500Y47703D02*
G03*
X394407Y48907I0J4111D01*
G01*
X394407Y48907D02*
G03*
X393203Y46000I2907J-2907D01*
G01*
X218203Y109000D02*
G03*
X220467Y103533I7732J0D01*
G01*
X220703Y109000D02*
G03*
X224735Y99265I13768J0D01*
G01*
X220180Y107773D02*
G03*
X219000Y105000I2666J-2772D01*
G01*
D02*
G03*
X217820Y107773I-3846J0D01*
G01*
X357065Y230935D02*
G03*
X356000Y228364I2571J-2571D01*
G01*
D02*
G03*
X354935Y230935I-3636J0D01*
G01*
X228703Y324500D02*
G03*
X229907Y321593I4111J0D01*
G01*
X229907Y321593D02*
G03*
X227000Y322797I-2907J-2907D01*
G01*
Y286203D02*
G03*
X229907Y287407I0J4111D01*
G01*
X229907Y287407D02*
G03*
X228703Y284500I2907J-2907D01*
G01*
X403703Y324500D02*
G03*
X404907Y321593I4111J0D01*
G01*
X404907Y321593D02*
G03*
X402000Y322797I-2907J-2907D01*
G01*
X202714Y299286D02*
G03*
X203500Y301185I-1899J1899D01*
G01*
D02*
G03*
X204286Y299286I2685J0D01*
G01*
Y297714D02*
G03*
X203500Y295815I1899J-1899D01*
G01*
D02*
G03*
X202714Y297714I-2685J0D01*
G01*
Y312286D02*
G03*
X203500Y314185I-1899J1899D01*
G01*
D02*
G03*
X204286Y312286I2685J0D01*
G01*
Y310714D02*
G03*
X203500Y308815I1899J-1899D01*
G01*
D02*
G03*
X202714Y310714I-2685J0D01*
G01*
X203500Y284388D02*
G03*
X201601Y283601I0J-2685D01*
G01*
X201601Y283601D02*
G03*
X202388Y285500I-1899J1899D01*
G01*
X202714Y286286D02*
G03*
X203500Y288185I-1899J1899D01*
G01*
D02*
G03*
X204286Y286286I2685J0D01*
G01*
X402000Y243112D02*
G03*
X403899Y243899I0J2685D01*
G01*
X403899Y243899D02*
G03*
X403112Y242000I1899J-1899D01*
G01*
X402786Y241214D02*
G03*
X402000Y239315I1899J-1899D01*
G01*
D02*
G03*
X401214Y241214I-2685J0D01*
G01*
X361500Y129500D02*
X391500Y159500D01*
Y165500D01*
X356000Y223657D02*
Y232000D01*
X341000Y208657D02*
X356000Y223657D01*
X268500Y54000D02*
Y79000D01*
Y54000D02*
X272000Y50500D01*
X227000Y324500D02*
X233203Y318297D01*
Y290703D02*
Y318297D01*
X227000Y284500D02*
X233203Y290703D01*
X361500Y119500D02*
X397703Y83297D01*
Y49797D02*
Y83297D01*
X395297Y49797D02*
X397703D01*
X391500Y46000D02*
X395297Y49797D01*
X402000Y233700D02*
Y242000D01*
Y233700D02*
X403100Y232600D01*
Y214100D02*
Y232600D01*
X397000Y208000D02*
X403100Y214100D01*
X188300Y270300D02*
X203500Y285500D01*
X188300Y186200D02*
Y270300D01*
Y186200D02*
X190800Y183700D01*
Y153800D02*
Y183700D01*
X184500Y147500D02*
X190800Y153800D01*
X402000Y324500D02*
X405700Y320800D01*
X408300D01*
Y248300D02*
Y320800D01*
X402000Y242000D02*
X408300Y248300D01*
X397000Y200900D02*
Y208000D01*
Y200900D02*
X397600Y200300D01*
Y171600D02*
Y200300D01*
X391500Y165500D02*
X397600Y171600D01*
X219000Y105000D02*
Y109000D01*
Y105000D02*
X226430Y97570D01*
X232724D01*
X239203Y91092D01*
Y65703D02*
Y91092D01*
X224000Y50500D02*
X239203Y65703D01*
X203500Y311500D02*
Y324500D01*
Y298500D02*
Y311500D01*
Y285500D02*
Y298500D01*
X361500Y119500D02*
Y129500D01*
X341000Y196343D02*
Y208657D01*
X224000Y26000D02*
Y50500D01*
X300000Y38500D02*
Y50500D01*
Y38500D02*
X300500Y38000D01*
Y26000D02*
Y38000D01*
X272000Y26000D02*
Y50500D01*
D12*
X180502Y31499D02*
X179502Y30499D01*
Y28500D01*
X180502Y27500D01*
X184500D01*
X185500Y28500D01*
Y30499D01*
X184500Y31499D01*
X185500Y33498D02*
Y35497D01*
Y34498D01*
X179502D01*
Y33498D01*
X181501Y39496D02*
Y41495D01*
X182501Y42495D01*
X185500D01*
Y39496D01*
X184500Y38496D01*
X183501Y39496D01*
Y42495D01*
X181501Y44495D02*
X184500D01*
X185500Y45494D01*
Y48493D01*
X186500D01*
X187499Y47493D01*
Y46494D01*
X185500Y48493D02*
X181501D01*
X179502Y56491D02*
X185500D01*
Y59490D01*
X184500Y60489D01*
X183501D01*
X182501Y59490D01*
Y56491D01*
Y59490D01*
X181501Y60489D01*
X180502D01*
X179502Y59490D01*
Y56491D01*
X181501Y62489D02*
X185500D01*
X183501D01*
X182501Y63488D01*
X181501Y64488D01*
Y65488D01*
X185500Y69486D02*
Y71486D01*
X184500Y72486D01*
X182501D01*
X181501Y71486D01*
Y69486D01*
X182501Y68487D01*
X184500D01*
X185500Y69486D01*
Y75485D02*
Y77484D01*
X184500Y78483D01*
X182501D01*
X181501Y77484D01*
Y75485D01*
X182501Y74485D01*
X184500D01*
X185500Y75485D01*
Y80483D02*
X179502D01*
X183501D02*
X181501Y83482D01*
X183501Y80483D02*
X185500Y83482D01*
Y86481D02*
Y89480D01*
X184500Y90480D01*
X183501Y89480D01*
Y87481D01*
X182501Y86481D01*
X181501Y87481D01*
Y90480D01*
X168502Y31499D02*
X167502Y30499D01*
Y28500D01*
X168502Y27500D01*
X172500D01*
X173500Y28500D01*
Y30499D01*
X172500Y31499D01*
X170501D01*
Y29499D01*
X169501Y33498D02*
X172500D01*
X173500Y34498D01*
Y37497D01*
X169501D01*
X173500Y39496D02*
Y41495D01*
Y40496D01*
X169501D01*
Y39496D01*
X168502Y45494D02*
X169501D01*
Y44495D01*
Y46494D01*
Y45494D01*
X172500D01*
X173500Y46494D01*
X169501Y50493D02*
Y52492D01*
X170501Y53492D01*
X173500D01*
Y50493D01*
X172500Y49493D01*
X171501Y50493D01*
Y53492D01*
X169501Y55491D02*
X173500D01*
X171501D01*
X170501Y56491D01*
X169501Y57490D01*
Y58490D01*
X174500Y61489D02*
Y65488D01*
X167502Y67487D02*
Y71486D01*
Y69486D01*
X173500D01*
X169501Y73485D02*
X172500D01*
X173500Y74485D01*
Y77484D01*
X169501D01*
X173500Y79483D02*
X169501D01*
Y82482D01*
X170501Y83482D01*
X173500D01*
Y88480D02*
Y86481D01*
X172500Y85481D01*
X170501D01*
X169501Y86481D01*
Y88480D01*
X170501Y89480D01*
X171501D01*
Y85481D01*
X169501Y91479D02*
X173500D01*
X171501D01*
X170501Y92479D01*
X169501Y93479D01*
Y94478D01*
X167502Y103475D02*
X171501D01*
X173500Y105475D01*
X171501Y107474D01*
X167502D01*
X173500Y113472D02*
Y109474D01*
X169501Y113472D01*
X168502D01*
X167502Y112472D01*
Y110473D01*
X168502Y109474D01*
X173500Y115471D02*
X172500D01*
Y116471D01*
X173500D01*
Y115471D01*
X168502Y120470D02*
X167502Y121470D01*
Y123469D01*
X168502Y124469D01*
X172500D01*
X173500Y123469D01*
Y121470D01*
X172500Y120470D01*
X168502D01*
D13*
X151000Y11000D02*
D03*
X444000D02*
D03*
Y356500D02*
D03*
X151000D02*
D03*
D14*
X317500Y314500D02*
D03*
Y324500D02*
D03*
X327500Y314500D02*
D03*
Y324500D02*
D03*
X337500Y314500D02*
D03*
Y324500D02*
D03*
X347500Y314500D02*
D03*
Y324500D02*
D03*
X357500Y314500D02*
D03*
Y324500D02*
D03*
X367500Y314500D02*
D03*
Y324500D02*
D03*
X377500Y314500D02*
D03*
X402000Y324500D02*
D03*
X227000Y174500D02*
D03*
Y184500D02*
D03*
Y194500D02*
D03*
Y204500D02*
D03*
Y214500D02*
D03*
Y224500D02*
D03*
Y234500D02*
D03*
Y244500D02*
D03*
Y254500D02*
D03*
Y264500D02*
D03*
Y274500D02*
D03*
Y284500D02*
D03*
Y294500D02*
D03*
Y304500D02*
D03*
Y314500D02*
D03*
X219000Y109000D02*
D03*
X209000D02*
D03*
X199000D02*
D03*
X229000Y79000D02*
D03*
X219000D02*
D03*
X209000D02*
D03*
X199000D02*
D03*
X391500Y46000D02*
D03*
X243500Y144500D02*
D03*
Y154500D02*
D03*
Y164500D02*
D03*
Y174500D02*
D03*
Y184500D02*
D03*
Y194500D02*
D03*
Y204500D02*
D03*
Y214500D02*
D03*
Y224500D02*
D03*
Y234500D02*
D03*
Y244500D02*
D03*
Y254500D02*
D03*
Y264500D02*
D03*
Y274500D02*
D03*
Y284500D02*
D03*
Y294500D02*
D03*
Y304500D02*
D03*
Y314500D02*
D03*
X292500Y144500D02*
D03*
Y154500D02*
D03*
Y164500D02*
D03*
Y174500D02*
D03*
Y184500D02*
D03*
Y194500D02*
D03*
Y204500D02*
D03*
Y214500D02*
D03*
Y224500D02*
D03*
Y234500D02*
D03*
Y244500D02*
D03*
Y254500D02*
D03*
Y264500D02*
D03*
Y274500D02*
D03*
Y284500D02*
D03*
Y294500D02*
D03*
Y304500D02*
D03*
Y314500D02*
D03*
X414000Y209500D02*
D03*
D15*
X377500Y324500D02*
D03*
D16*
X213500D02*
D03*
X203500D02*
D03*
X402000Y252000D02*
D03*
Y242000D02*
D03*
X213500Y285500D02*
D03*
X203500D02*
D03*
X213500Y311500D02*
D03*
X203500D02*
D03*
Y298500D02*
D03*
X213500D02*
D03*
X325500Y259500D02*
D03*
Y249500D02*
D03*
X272000Y50500D02*
D03*
X262000D02*
D03*
X320000D02*
D03*
X310000D02*
D03*
X224000Y26000D02*
D03*
X214000D02*
D03*
X272000D02*
D03*
X262000D02*
D03*
X381500Y109000D02*
D03*
X391500D02*
D03*
X204000Y191500D02*
D03*
X194000D02*
D03*
X305500Y154000D02*
D03*
X315500D02*
D03*
X300500Y26000D02*
D03*
X310500D02*
D03*
X224000Y50500D02*
D03*
X214000D02*
D03*
D17*
X376500Y66000D02*
D03*
X258500Y79000D02*
D03*
X288500Y123000D02*
D03*
D18*
X366500Y66000D02*
D03*
X356500D02*
D03*
X346500D02*
D03*
X376500Y36000D02*
D03*
X366500D02*
D03*
X356500D02*
D03*
X346500D02*
D03*
X184500Y167500D02*
D03*
Y157500D02*
D03*
Y147500D02*
D03*
X214500Y177500D02*
D03*
Y167500D02*
D03*
Y157500D02*
D03*
Y147500D02*
D03*
X288500Y109000D02*
D03*
X278500D02*
D03*
X268500D02*
D03*
X258500D02*
D03*
X288500Y79000D02*
D03*
X278500D02*
D03*
X268500D02*
D03*
X278500Y123000D02*
D03*
X268500D02*
D03*
X258500D02*
D03*
X248500D02*
D03*
X238500D02*
D03*
X228500D02*
D03*
X218500D02*
D03*
X198500D02*
D03*
X208500D02*
D03*
D19*
X402000Y314500D02*
D03*
X227000Y324500D02*
D03*
X229000Y109000D02*
D03*
X391500Y56000D02*
D03*
X243500Y324500D02*
D03*
X292500D02*
D03*
X414000Y219500D02*
D03*
D20*
X391000Y262000D02*
D03*
Y232000D02*
D03*
X382000Y262000D02*
D03*
Y232000D02*
D03*
X373500Y262000D02*
D03*
Y232000D02*
D03*
X365000Y262000D02*
D03*
Y232000D02*
D03*
X356000Y262000D02*
D03*
Y232000D02*
D03*
X391500Y119500D02*
D03*
X361500D02*
D03*
X213500Y245000D02*
D03*
Y275000D02*
D03*
X361500Y129500D02*
D03*
X391500D02*
D03*
X361500Y138500D02*
D03*
X391500D02*
D03*
X335500Y165500D02*
D03*
X305500D02*
D03*
X361500Y183500D02*
D03*
X391500D02*
D03*
Y174500D02*
D03*
X361500D02*
D03*
X391500Y165500D02*
D03*
X361500D02*
D03*
X391500Y192500D02*
D03*
X361500D02*
D03*
X397000Y221500D02*
D03*
X367000D02*
D03*
X397000Y208000D02*
D03*
X367000D02*
D03*
D21*
X391000Y280000D02*
D03*
X381000D02*
D03*
X372000D02*
D03*
X362000D02*
D03*
X353000D02*
D03*
X343000D02*
D03*
X315000D02*
D03*
X305000D02*
D03*
X334000D02*
D03*
X324000D02*
D03*
D22*
X252000Y50500D02*
D03*
X300000D02*
D03*
X204000D02*
D03*
D23*
X313000Y228500D02*
D03*
Y218500D02*
D03*
D24*
Y208500D02*
D03*
D25*
X341000Y176657D02*
D03*
Y228343D02*
D03*
X360500Y101843D02*
D03*
X341000Y242657D02*
D03*
D26*
Y196343D02*
D03*
Y208657D02*
D03*
X360500Y82157D02*
D03*
X341000Y262343D02*
D03*
D27*
X184500Y177500D02*
D03*
D28*
X335000Y62600D02*
D03*
X285100Y221900D02*
D03*
X281000Y180500D02*
D03*
X354700Y54200D02*
D03*
X325600Y241500D02*
D03*
X195900Y305000D02*
D03*
X329250Y198350D02*
D03*
X332600Y241000D02*
D03*
X263200Y332800D02*
D03*
X257400Y142000D02*
D03*
X281000Y192200D02*
D03*
X301000Y63600D02*
D03*
X350300Y157000D02*
D03*
X193000Y69900D02*
D03*
X206000Y337561D02*
D03*
X200800Y166300D02*
D03*
M02*
