%FSLAX25Y25*%
%MOIN*%
G70*
G01*
G75*
%ADD10C,0.02000*%
%ADD11C,0.02500*%
%ADD12C,0.01000*%
G04:AMPARAMS|DCode=13|XSize=160mil|YSize=160mil|CornerRadius=40mil|HoleSize=0mil|Usage=FLASHONLY|Rotation=0.000|XOffset=0mil|YOffset=0mil|HoleType=Round|Shape=RoundedRectangle|*
%AMROUNDEDRECTD13*
21,1,0.16000,0.08000,0,0,0.0*
21,1,0.08000,0.16000,0,0,0.0*
1,1,0.08000,0.04000,-0.04000*
1,1,0.08000,-0.04000,-0.04000*
1,1,0.08000,-0.04000,0.04000*
1,1,0.08000,0.04000,0.04000*
%
%ADD13ROUNDEDRECTD13*%
%ADD14C,0.05906*%
%ADD15R,0.05906X0.05906*%
%ADD16C,0.04724*%
%ADD17R,0.05906X0.05906*%
%ADD18C,0.05906*%
%ADD19R,0.05906X0.05906*%
%ADD20C,0.05512*%
%ADD21C,0.06299*%
%ADD22R,0.04724X0.04724*%
%ADD23C,0.06299*%
%ADD24R,0.06299X0.06299*%
%ADD25R,0.05315X0.05315*%
%ADD26C,0.05315*%
%ADD27R,0.05906X0.05906*%
%ADD28C,0.05000*%
D13*
X151000Y11000D02*
D03*
X444000D02*
D03*
Y356500D02*
D03*
X151000D02*
D03*
D14*
X317500Y314500D02*
D03*
Y324500D02*
D03*
X327500Y314500D02*
D03*
Y324500D02*
D03*
X337500Y314500D02*
D03*
Y324500D02*
D03*
X347500Y314500D02*
D03*
Y324500D02*
D03*
X357500Y314500D02*
D03*
Y324500D02*
D03*
X367500Y314500D02*
D03*
Y324500D02*
D03*
X377500Y314500D02*
D03*
X402000Y324500D02*
D03*
X227000Y174500D02*
D03*
Y184500D02*
D03*
Y194500D02*
D03*
Y204500D02*
D03*
Y214500D02*
D03*
Y224500D02*
D03*
Y234500D02*
D03*
Y244500D02*
D03*
Y254500D02*
D03*
Y264500D02*
D03*
Y274500D02*
D03*
Y284500D02*
D03*
Y294500D02*
D03*
Y304500D02*
D03*
Y314500D02*
D03*
X219000Y109000D02*
D03*
X209000D02*
D03*
X199000D02*
D03*
X229000Y79000D02*
D03*
X219000D02*
D03*
X209000D02*
D03*
X199000D02*
D03*
X391500Y46000D02*
D03*
X243500Y144500D02*
D03*
Y154500D02*
D03*
Y164500D02*
D03*
Y174500D02*
D03*
Y184500D02*
D03*
Y194500D02*
D03*
Y204500D02*
D03*
Y214500D02*
D03*
Y224500D02*
D03*
Y234500D02*
D03*
Y244500D02*
D03*
Y254500D02*
D03*
Y264500D02*
D03*
Y274500D02*
D03*
Y284500D02*
D03*
Y294500D02*
D03*
Y304500D02*
D03*
Y314500D02*
D03*
X292500Y144500D02*
D03*
Y154500D02*
D03*
Y164500D02*
D03*
Y174500D02*
D03*
Y184500D02*
D03*
Y194500D02*
D03*
Y204500D02*
D03*
Y214500D02*
D03*
Y224500D02*
D03*
Y234500D02*
D03*
Y244500D02*
D03*
Y254500D02*
D03*
Y264500D02*
D03*
Y274500D02*
D03*
Y284500D02*
D03*
Y294500D02*
D03*
Y304500D02*
D03*
Y314500D02*
D03*
X414000Y209500D02*
D03*
D15*
X377500Y324500D02*
D03*
D16*
X213500D02*
D03*
X203500D02*
D03*
X402000Y252000D02*
D03*
Y242000D02*
D03*
X213500Y285500D02*
D03*
X203500D02*
D03*
X213500Y311500D02*
D03*
X203500D02*
D03*
Y298500D02*
D03*
X213500D02*
D03*
X325500Y259500D02*
D03*
Y249500D02*
D03*
X272000Y50500D02*
D03*
X262000D02*
D03*
X320000D02*
D03*
X310000D02*
D03*
X224000Y26000D02*
D03*
X214000D02*
D03*
X272000D02*
D03*
X262000D02*
D03*
X381500Y109000D02*
D03*
X391500D02*
D03*
X204000Y191500D02*
D03*
X194000D02*
D03*
X305500Y154000D02*
D03*
X315500D02*
D03*
X300500Y26000D02*
D03*
X310500D02*
D03*
X224000Y50500D02*
D03*
X214000D02*
D03*
D17*
X376500Y66000D02*
D03*
X258500Y79000D02*
D03*
X288500Y123000D02*
D03*
D18*
X366500Y66000D02*
D03*
X356500D02*
D03*
X346500D02*
D03*
X376500Y36000D02*
D03*
X366500D02*
D03*
X356500D02*
D03*
X346500D02*
D03*
X184500Y167500D02*
D03*
Y157500D02*
D03*
Y147500D02*
D03*
X214500Y177500D02*
D03*
Y167500D02*
D03*
Y157500D02*
D03*
Y147500D02*
D03*
X288500Y109000D02*
D03*
X278500D02*
D03*
X268500D02*
D03*
X258500D02*
D03*
X288500Y79000D02*
D03*
X278500D02*
D03*
X268500D02*
D03*
X278500Y123000D02*
D03*
X268500D02*
D03*
X258500D02*
D03*
X248500D02*
D03*
X238500D02*
D03*
X228500D02*
D03*
X218500D02*
D03*
X198500D02*
D03*
X208500D02*
D03*
D19*
X402000Y314500D02*
D03*
X227000Y324500D02*
D03*
X229000Y109000D02*
D03*
X391500Y56000D02*
D03*
X243500Y324500D02*
D03*
X292500D02*
D03*
X414000Y219500D02*
D03*
D20*
X391000Y262000D02*
D03*
Y232000D02*
D03*
X382000Y262000D02*
D03*
Y232000D02*
D03*
X373500Y262000D02*
D03*
Y232000D02*
D03*
X365000Y262000D02*
D03*
Y232000D02*
D03*
X356000Y262000D02*
D03*
Y232000D02*
D03*
X391500Y119500D02*
D03*
X361500D02*
D03*
X213500Y245000D02*
D03*
Y275000D02*
D03*
X361500Y129500D02*
D03*
X391500D02*
D03*
X361500Y138500D02*
D03*
X391500D02*
D03*
X335500Y165500D02*
D03*
X305500D02*
D03*
X361500Y183500D02*
D03*
X391500D02*
D03*
Y174500D02*
D03*
X361500D02*
D03*
X391500Y165500D02*
D03*
X361500D02*
D03*
X391500Y192500D02*
D03*
X361500D02*
D03*
X397000Y221500D02*
D03*
X367000D02*
D03*
X397000Y208000D02*
D03*
X367000D02*
D03*
D21*
X391000Y280000D02*
D03*
X381000D02*
D03*
X372000D02*
D03*
X362000D02*
D03*
X353000D02*
D03*
X343000D02*
D03*
X315000D02*
D03*
X305000D02*
D03*
X334000D02*
D03*
X324000D02*
D03*
D22*
X252000Y50500D02*
D03*
X300000D02*
D03*
X204000D02*
D03*
D23*
X313000Y228500D02*
D03*
Y218500D02*
D03*
D24*
Y208500D02*
D03*
D25*
X341000Y176657D02*
D03*
Y228343D02*
D03*
X360500Y101843D02*
D03*
X341000Y242657D02*
D03*
D26*
Y196343D02*
D03*
Y208657D02*
D03*
X360500Y82157D02*
D03*
X341000Y262343D02*
D03*
D27*
X184500Y177500D02*
D03*
M02*
