%FSLAX25Y25*%
%MOIN*%
G70*
G01*
G75*
G04 Layer_Physical_Order=2*
G04 Layer_Color=16711680*
%ADD10C,0.02000*%
%ADD11C,0.02500*%
%ADD12C,0.01000*%
G04:AMPARAMS|DCode=13|XSize=160mil|YSize=160mil|CornerRadius=40mil|HoleSize=0mil|Usage=FLASHONLY|Rotation=0.000|XOffset=0mil|YOffset=0mil|HoleType=Round|Shape=RoundedRectangle|*
%AMROUNDEDRECTD13*
21,1,0.16000,0.08000,0,0,0.0*
21,1,0.08000,0.16000,0,0,0.0*
1,1,0.08000,0.04000,-0.04000*
1,1,0.08000,-0.04000,-0.04000*
1,1,0.08000,-0.04000,0.04000*
1,1,0.08000,0.04000,0.04000*
%
%ADD13ROUNDEDRECTD13*%
%ADD14C,0.05906*%
%ADD15R,0.05906X0.05906*%
%ADD16C,0.04724*%
%ADD17R,0.05906X0.05906*%
%ADD18C,0.05906*%
%ADD19R,0.05906X0.05906*%
%ADD20C,0.05512*%
%ADD21C,0.06299*%
%ADD22R,0.04724X0.04724*%
%ADD23C,0.06299*%
%ADD24R,0.06299X0.06299*%
%ADD25R,0.05315X0.05315*%
%ADD26C,0.05315*%
%ADD27R,0.05906X0.05906*%
%ADD28C,0.05000*%
G36*
X434812Y363522D02*
X434430Y362807D01*
X434087Y361676D01*
X433971Y360500D01*
Y352500D01*
X434087Y351324D01*
X434430Y350193D01*
X434987Y349150D01*
X435737Y348237D01*
X436651Y347487D01*
X437693Y346930D01*
X438824Y346587D01*
X440000Y346471D01*
X448000D01*
X449176Y346587D01*
X450307Y346930D01*
X451022Y347312D01*
X451451Y347055D01*
Y20445D01*
X451022Y20188D01*
X450307Y20570D01*
X449176Y20913D01*
X448000Y21029D01*
X440000D01*
X438824Y20913D01*
X437693Y20570D01*
X436651Y20013D01*
X435737Y19263D01*
X434987Y18350D01*
X434430Y17307D01*
X434087Y16176D01*
X433971Y15000D01*
Y7000D01*
X434087Y5824D01*
X434430Y4693D01*
X434987Y3650D01*
X435520Y3001D01*
X435306Y2549D01*
X159694D01*
X159480Y3001D01*
X160013Y3650D01*
X160570Y4693D01*
X160913Y5824D01*
X161029Y7000D01*
Y15000D01*
X160913Y16176D01*
X160570Y17307D01*
X160013Y18350D01*
X159263Y19263D01*
X158350Y20013D01*
X157307Y20570D01*
X156176Y20913D01*
X155000Y21029D01*
X147000D01*
X145824Y20913D01*
X144693Y20570D01*
X143650Y20013D01*
X143001Y19480D01*
X142549Y19694D01*
Y182500D01*
X142549Y182500D01*
X142549Y182500D01*
Y182500D01*
Y347806D01*
X143001Y348020D01*
X143650Y347487D01*
X144693Y346930D01*
X145824Y346587D01*
X147000Y346471D01*
X155000D01*
X156176Y346587D01*
X157307Y346930D01*
X158350Y347487D01*
X159263Y348237D01*
X160013Y349150D01*
X160570Y350193D01*
X160913Y351324D01*
X161029Y352500D01*
Y360500D01*
X160913Y361676D01*
X160570Y362807D01*
X160188Y363522D01*
X160445Y363951D01*
X434555D01*
X434812Y363522D01*
D02*
G37*
%LPC*%
G36*
X392000Y49921D02*
Y46500D01*
X395421D01*
X395351Y47032D01*
X394953Y47993D01*
X394319Y48819D01*
X393493Y49453D01*
X392532Y49851D01*
X392000Y49921D01*
D02*
G37*
G36*
X391000Y165000D02*
X387777D01*
X387841Y164520D01*
X388219Y163606D01*
X388821Y162821D01*
X389606Y162219D01*
X390519Y161841D01*
X391000Y161777D01*
Y165000D01*
D02*
G37*
G36*
X206825Y298000D02*
X204000D01*
Y295175D01*
X204378Y295224D01*
X205196Y295563D01*
X205898Y296102D01*
X206437Y296804D01*
X206776Y297622D01*
X206825Y298000D01*
D02*
G37*
G36*
X203000D02*
X200175D01*
X200224Y297622D01*
X200563Y296804D01*
X201102Y296102D01*
X201804Y295563D01*
X202622Y295224D01*
X203000Y295175D01*
Y298000D01*
D02*
G37*
G36*
X401500Y245325D02*
X401122Y245276D01*
X400304Y244937D01*
X399602Y244398D01*
X399063Y243696D01*
X398724Y242878D01*
X398675Y242500D01*
X401500D01*
Y245325D01*
D02*
G37*
G36*
X405325Y241500D02*
X402500D01*
Y238675D01*
X402878Y238724D01*
X403696Y239063D01*
X404398Y239602D01*
X404937Y240304D01*
X405276Y241122D01*
X405325Y241500D01*
D02*
G37*
G36*
X395222Y165000D02*
X392000D01*
Y161777D01*
X392480Y161841D01*
X393394Y162219D01*
X394179Y162821D01*
X394781Y163606D01*
X395159Y164520D01*
X395222Y165000D01*
D02*
G37*
G36*
X402500Y245325D02*
Y242500D01*
X405325D01*
X405276Y242878D01*
X404937Y243696D01*
X404398Y244398D01*
X403696Y244937D01*
X402878Y245276D01*
X402500Y245325D01*
D02*
G37*
G36*
X395421Y45500D02*
X392000D01*
Y42079D01*
X392532Y42149D01*
X393493Y42547D01*
X394319Y43181D01*
X394953Y44007D01*
X395351Y44968D01*
X395421Y45500D01*
D02*
G37*
G36*
X223500Y25500D02*
X220675D01*
X220724Y25122D01*
X221063Y24304D01*
X221602Y23602D01*
X222304Y23063D01*
X223122Y22724D01*
X223500Y22675D01*
Y25500D01*
D02*
G37*
G36*
X203000Y327825D02*
X202622Y327776D01*
X201804Y327437D01*
X201102Y326898D01*
X200563Y326196D01*
X200224Y325378D01*
X200175Y325000D01*
X203000D01*
Y327825D01*
D02*
G37*
G36*
X392700Y358326D02*
X212739D01*
X211956Y358223D01*
X211528Y358046D01*
X211226Y357921D01*
X210600Y357440D01*
X196860Y343700D01*
X196379Y343074D01*
X196291Y342860D01*
X196077Y342344D01*
X195974Y341561D01*
Y335000D01*
X196077Y334217D01*
X196291Y333701D01*
X196379Y333487D01*
X196860Y332860D01*
X199800Y329921D01*
X199800Y329921D01*
X200426Y329440D01*
D01*
D01*
Y329440D01*
X200426Y329440D01*
D01*
D01*
X200426D01*
Y329440D01*
D01*
X200426D01*
Y329440D01*
X201156Y329138D01*
X201939Y329035D01*
X201939Y329035D01*
X211768D01*
X211865Y328544D01*
X211300Y328310D01*
X210389Y327611D01*
X209690Y326700D01*
X209250Y325639D01*
X209100Y324500D01*
X209145Y324161D01*
X208696Y323939D01*
X206426Y326210D01*
X205898Y326898D01*
X205196Y327437D01*
X204378Y327776D01*
X204000Y327825D01*
Y324500D01*
X203500D01*
Y324000D01*
X200175D01*
X200224Y323622D01*
X200563Y322804D01*
X201102Y322102D01*
X201790Y321574D01*
X207282Y316082D01*
X207577Y315856D01*
X207961Y315561D01*
X208752Y315234D01*
X209600Y315122D01*
X210277D01*
X210437Y314649D01*
X210389Y314611D01*
X209690Y313700D01*
X209250Y312639D01*
X209100Y311500D01*
X209114Y311393D01*
X205747Y308026D01*
X205180D01*
X205083Y308516D01*
X205196Y308563D01*
X205898Y309102D01*
X206437Y309804D01*
X206776Y310622D01*
X206825Y311000D01*
X200175D01*
X200224Y310622D01*
X200563Y309804D01*
X201102Y309102D01*
X201804Y308563D01*
X201918Y308516D01*
X201820Y308026D01*
X199250D01*
X199109Y308209D01*
X198169Y308931D01*
X197075Y309384D01*
X195900Y309539D01*
X194725Y309384D01*
X193631Y308931D01*
X192691Y308209D01*
X191969Y307269D01*
X191516Y306175D01*
X191361Y305000D01*
X191516Y303825D01*
X191969Y302731D01*
X192691Y301791D01*
X193631Y301069D01*
X194725Y300616D01*
X195900Y300461D01*
X197075Y300616D01*
X198169Y301069D01*
X199109Y301791D01*
X199250Y301974D01*
X201820D01*
X201918Y301484D01*
X201804Y301437D01*
X201102Y300898D01*
X200563Y300196D01*
X200224Y299378D01*
X200175Y299000D01*
X206825D01*
X206776Y299378D01*
X206437Y300196D01*
X205898Y300898D01*
X205196Y301437D01*
X205083Y301484D01*
X205180Y301974D01*
X207000D01*
X207783Y302077D01*
X208299Y302291D01*
X208513Y302379D01*
X209140Y302860D01*
X213393Y307114D01*
X213500Y307100D01*
X214639Y307250D01*
X215700Y307690D01*
X216611Y308389D01*
X217310Y309300D01*
X217750Y310361D01*
X217900Y311500D01*
X217750Y312639D01*
X217310Y313700D01*
X216611Y314611D01*
X216563Y314649D01*
X216723Y315122D01*
X220900D01*
X221324Y315178D01*
X221700Y315227D01*
X222054Y314874D01*
X222005Y314500D01*
X222175Y313207D01*
X222674Y312002D01*
X223468Y310968D01*
X224502Y310174D01*
X225525Y309750D01*
Y309250D01*
X224502Y308826D01*
X223468Y308032D01*
X222674Y306998D01*
X222175Y305793D01*
X222005Y304500D01*
X222088Y303867D01*
X218100Y299880D01*
X217610Y299977D01*
X217310Y300700D01*
X216611Y301611D01*
X215700Y302310D01*
X214639Y302750D01*
X213500Y302900D01*
X212361Y302750D01*
X211300Y302310D01*
X210389Y301611D01*
X209690Y300700D01*
X209250Y299639D01*
X209100Y298500D01*
X209250Y297361D01*
X209690Y296300D01*
X210389Y295389D01*
X211300Y294690D01*
X211960Y294416D01*
X211862Y293926D01*
X183900D01*
X183117Y293823D01*
X182387Y293520D01*
X181760Y293040D01*
X154360Y265640D01*
X153879Y265013D01*
X153791Y264799D01*
X153577Y264283D01*
X153474Y263500D01*
Y69900D01*
X153577Y69117D01*
X153791Y68601D01*
X153879Y68387D01*
X154360Y67760D01*
X167860Y54260D01*
X168487Y53780D01*
X168789Y53654D01*
X169217Y53477D01*
X170000Y53374D01*
X199638D01*
Y46138D01*
X204083D01*
X214060Y36160D01*
X214060Y36160D01*
X214333Y35952D01*
X214687Y35680D01*
X215203Y35466D01*
X215417Y35377D01*
X215508Y35365D01*
X216200Y35274D01*
X216200Y35274D01*
X228120D01*
X228281Y34801D01*
X228077Y34644D01*
X227782Y34418D01*
X222290Y28926D01*
X221602Y28398D01*
X221063Y27696D01*
X220724Y26878D01*
X220675Y26500D01*
X224000D01*
Y26000D01*
X224500D01*
Y22675D01*
X224878Y22724D01*
X225696Y23063D01*
X226398Y23602D01*
X226926Y24290D01*
X231458Y28822D01*
X258102D01*
X258323Y28374D01*
X258190Y28200D01*
X257750Y27139D01*
X257600Y26000D01*
X257750Y24861D01*
X258190Y23800D01*
X258889Y22889D01*
X259800Y22190D01*
X260861Y21750D01*
X262000Y21600D01*
X263139Y21750D01*
X264200Y22190D01*
X265111Y22889D01*
X265810Y23800D01*
X266250Y24861D01*
X266400Y26000D01*
X266355Y26339D01*
X266804Y26561D01*
X269074Y24290D01*
X269602Y23602D01*
X270304Y23063D01*
X271122Y22724D01*
X271500Y22675D01*
Y26000D01*
X272000D01*
Y26500D01*
X275325D01*
X275276Y26878D01*
X274937Y27696D01*
X274398Y28398D01*
X273710Y28926D01*
X268218Y34418D01*
X267719Y34801D01*
X267880Y35274D01*
X296947D01*
X306114Y26107D01*
X306100Y26000D01*
X306145Y25661D01*
X305696Y25439D01*
X303426Y27710D01*
X302898Y28398D01*
X302196Y28937D01*
X301378Y29276D01*
X301000Y29325D01*
Y26000D01*
X300500D01*
Y25500D01*
X297175D01*
X297224Y25122D01*
X297563Y24304D01*
X298102Y23602D01*
X298790Y23074D01*
X307182Y14682D01*
X307477Y14456D01*
X307861Y14161D01*
X308652Y13834D01*
X309500Y13722D01*
X347500D01*
X347924Y13778D01*
X348348Y13834D01*
X348744Y13997D01*
X349139Y14161D01*
X349818Y14682D01*
X367247Y32111D01*
X367532Y32149D01*
X368493Y32547D01*
X369319Y33181D01*
X369953Y34007D01*
X370351Y34968D01*
X370389Y35253D01*
X371062Y35926D01*
X371062Y35926D01*
X371062Y35926D01*
X371225Y35871D01*
X371535Y35765D01*
D01*
X371675Y34707D01*
X372174Y33502D01*
X372968Y32468D01*
X374002Y31674D01*
X375207Y31175D01*
X376500Y31005D01*
X377793Y31175D01*
X378998Y31674D01*
X380032Y32468D01*
X380826Y33502D01*
X381325Y34707D01*
X381495Y36000D01*
X381325Y37293D01*
X380826Y38498D01*
X380032Y39532D01*
X378998Y40326D01*
X377793Y40825D01*
X376735Y40965D01*
X376574Y41438D01*
X377858Y42722D01*
X389279D01*
X389507Y42547D01*
X390468Y42149D01*
X391000Y42079D01*
Y46000D01*
Y49921D01*
X390468Y49851D01*
X389507Y49453D01*
X389279Y49278D01*
X376500D01*
X375652Y49166D01*
X375093Y48935D01*
X374861Y48839D01*
X374566Y48613D01*
X374182Y48318D01*
X365753Y39889D01*
X365468Y39851D01*
X364507Y39453D01*
X363681Y38819D01*
X363047Y37993D01*
X362649Y37032D01*
X362612Y36747D01*
X361938Y36074D01*
X361465Y36235D01*
X361325Y37293D01*
X360826Y38498D01*
X360032Y39532D01*
X358998Y40326D01*
X357793Y40825D01*
X356500Y40995D01*
X355867Y40912D01*
X351840Y44940D01*
X351213Y45421D01*
X350999Y45509D01*
X350483Y45723D01*
X349700Y45826D01*
X321396D01*
X321299Y46316D01*
X322200Y46690D01*
X323111Y47389D01*
X323177Y47474D01*
X331000D01*
X331783Y47577D01*
X332299Y47791D01*
X332513Y47879D01*
X333140Y48360D01*
X345867Y61088D01*
X346500Y61005D01*
X347793Y61175D01*
X348998Y61674D01*
X350032Y62468D01*
X350826Y63502D01*
X351250Y64525D01*
X351750D01*
X352174Y63502D01*
X352968Y62468D01*
X354002Y61674D01*
X355207Y61175D01*
X356500Y61005D01*
X356564Y61013D01*
X356785Y60565D01*
X354929Y58709D01*
X354700Y58739D01*
X353525Y58584D01*
X352431Y58131D01*
X351491Y57409D01*
X350769Y56469D01*
X350316Y55375D01*
X350161Y54200D01*
X350316Y53025D01*
X350769Y51931D01*
X351491Y50991D01*
X352431Y50269D01*
X353525Y49816D01*
X354700Y49661D01*
X355875Y49816D01*
X356969Y50269D01*
X357909Y50991D01*
X358631Y51931D01*
X359084Y53025D01*
X359239Y54200D01*
X359209Y54429D01*
X365867Y61088D01*
X366500Y61005D01*
X367793Y61175D01*
X368998Y61674D01*
X370032Y62468D01*
X370826Y63502D01*
X371057Y64059D01*
X371547Y63961D01*
Y61047D01*
X381453D01*
Y70953D01*
X371547D01*
Y68038D01*
X371057Y67941D01*
X370826Y68498D01*
X370032Y69532D01*
X368998Y70326D01*
X367793Y70825D01*
X366500Y70995D01*
X365207Y70825D01*
X364002Y70326D01*
X362968Y69532D01*
X362174Y68498D01*
X361750Y67475D01*
X361250D01*
X360826Y68498D01*
X360032Y69532D01*
X358998Y70326D01*
X357793Y70825D01*
X356500Y70995D01*
X355867Y70912D01*
X352687Y74092D01*
X352060Y74573D01*
X351846Y74662D01*
X351330Y74876D01*
X350547Y74979D01*
X348611D01*
X348420Y75441D01*
X355357Y82377D01*
X355802Y82157D01*
X355962Y80941D01*
X356432Y79809D01*
X357178Y78836D01*
X358151Y78089D01*
X359284Y77620D01*
X360500Y77460D01*
X361716Y77620D01*
X362849Y78089D01*
X363822Y78836D01*
X364049Y79132D01*
X378747D01*
X388474Y69404D01*
Y60953D01*
X386547D01*
Y51047D01*
X396453D01*
Y60953D01*
X394526D01*
Y70657D01*
X394526Y70657D01*
X394423Y71441D01*
X394121Y72170D01*
X393848Y72525D01*
X393640Y72797D01*
X393640Y72797D01*
X382140Y84297D01*
X381513Y84778D01*
X381299Y84866D01*
X380783Y85080D01*
X380000Y85183D01*
X364049D01*
X363822Y85479D01*
X362849Y86226D01*
X361716Y86695D01*
X360500Y86855D01*
X360280Y87301D01*
X366153Y93174D01*
X388500D01*
X389283Y93277D01*
X389799Y93491D01*
X390013Y93580D01*
X390640Y94060D01*
X399440Y102860D01*
X399921Y103487D01*
X400009Y103701D01*
X400223Y104217D01*
X400326Y105000D01*
Y150000D01*
X400326Y150000D01*
X400223Y150783D01*
X399921Y151513D01*
X399440Y152140D01*
X393740Y157840D01*
X393113Y158320D01*
X392899Y158409D01*
X392383Y158623D01*
X391600Y158726D01*
X380658D01*
X380467Y159188D01*
X387303Y166024D01*
X387351Y166000D01*
X395222D01*
X395159Y166481D01*
X394781Y167394D01*
X394179Y168179D01*
X393394Y168781D01*
X392480Y169159D01*
X391824Y169246D01*
Y169746D01*
X392741Y169867D01*
X393899Y170346D01*
X394892Y171108D01*
X395654Y172101D01*
X396133Y173258D01*
X396297Y174500D01*
X396133Y175742D01*
X395654Y176899D01*
X394892Y177892D01*
X393899Y178654D01*
X393667Y178750D01*
Y179250D01*
X393899Y179346D01*
X394892Y180108D01*
X395654Y181102D01*
X396133Y182258D01*
X396297Y183500D01*
X396133Y184741D01*
X395654Y185898D01*
X394892Y186892D01*
X393899Y187654D01*
X393667Y187750D01*
Y188250D01*
X393899Y188346D01*
X394892Y189108D01*
X395654Y190102D01*
X396133Y191259D01*
X396297Y192500D01*
X396133Y193742D01*
X395654Y194898D01*
X394892Y195892D01*
X393899Y196654D01*
X392741Y197134D01*
X391500Y197297D01*
X390259Y197134D01*
X389102Y196654D01*
X388108Y195892D01*
X387346Y194898D01*
X386866Y193742D01*
X386703Y192500D01*
X386866Y191259D01*
X387346Y190102D01*
X388108Y189108D01*
X389102Y188346D01*
X389333Y188250D01*
Y187750D01*
X389102Y187654D01*
X388108Y186892D01*
X387346Y185898D01*
X386866Y184741D01*
X386703Y183500D01*
X386866Y182258D01*
X387346Y181102D01*
X388108Y180108D01*
X389102Y179346D01*
X389333Y179250D01*
Y178750D01*
X389102Y178654D01*
X388108Y177892D01*
X387346Y176899D01*
X386866Y175742D01*
X386703Y174500D01*
X386763Y174042D01*
X375447Y162726D01*
X365949D01*
X365671Y163142D01*
X366133Y164259D01*
X366297Y165500D01*
X366133Y166742D01*
X365654Y167898D01*
X364892Y168892D01*
X363898Y169654D01*
X363667Y169750D01*
Y170250D01*
X363898Y170346D01*
X364892Y171108D01*
X365654Y172101D01*
X366133Y173258D01*
X366297Y174500D01*
X366133Y175742D01*
X365654Y176899D01*
X364892Y177892D01*
X363898Y178654D01*
X363667Y178750D01*
Y179250D01*
X363898Y179346D01*
X364892Y180108D01*
X365654Y181102D01*
X366133Y182258D01*
X366297Y183500D01*
X366237Y183958D01*
X381453Y199174D01*
X400200D01*
X400983Y199277D01*
X401499Y199491D01*
X401713Y199580D01*
X402340Y200060D01*
X409235Y206956D01*
X409734Y206923D01*
X410468Y205968D01*
X411502Y205174D01*
X412707Y204675D01*
X414000Y204504D01*
X415293Y204675D01*
X416498Y205174D01*
X417532Y205968D01*
X417968Y206536D01*
X418283Y206577D01*
X418799Y206791D01*
X419013Y206879D01*
X419640Y207360D01*
X422140Y209860D01*
X422140Y209860D01*
X422412Y210215D01*
X422620Y210487D01*
X422923Y211217D01*
X423026Y212000D01*
X423026Y212000D01*
X423026Y212000D01*
Y212000D01*
Y225500D01*
X422923Y226283D01*
X422620Y227013D01*
X422140Y227640D01*
X421513Y228120D01*
X420783Y228423D01*
X420000Y228526D01*
X410353D01*
X400377Y238502D01*
X400655Y238918D01*
X401122Y238724D01*
X401500Y238675D01*
Y241500D01*
X398675D01*
X398724Y241122D01*
X398973Y240523D01*
X398576Y240219D01*
X398313Y240421D01*
X398099Y240509D01*
X397583Y240723D01*
X396800Y240826D01*
X388058D01*
X387867Y241288D01*
X397341Y250762D01*
X397832Y250664D01*
X398190Y249800D01*
X398889Y248889D01*
X399800Y248190D01*
X400861Y247750D01*
X402000Y247600D01*
X403139Y247750D01*
X404200Y248190D01*
X405111Y248889D01*
X405810Y249800D01*
X406250Y250861D01*
X406400Y252000D01*
X406386Y252107D01*
X410140Y255860D01*
X410620Y256487D01*
X410709Y256701D01*
X410923Y257217D01*
X411026Y258000D01*
Y340000D01*
X411026Y340000D01*
X410935Y340692D01*
X410923Y340783D01*
X410772Y341148D01*
X410620Y341513D01*
X410140Y342140D01*
X394840Y357440D01*
X394213Y357921D01*
X393999Y358009D01*
X393483Y358223D01*
X392700Y358326D01*
D02*
G37*
G36*
X275325Y25500D02*
X272500D01*
Y22675D01*
X272878Y22724D01*
X273696Y23063D01*
X274398Y23602D01*
X274937Y24304D01*
X275276Y25122D01*
X275325Y25500D01*
D02*
G37*
G36*
X300000Y29325D02*
X299622Y29276D01*
X298804Y28937D01*
X298102Y28398D01*
X297563Y27696D01*
X297224Y26878D01*
X297175Y26500D01*
X300000D01*
Y29325D01*
D02*
G37*
G36*
X203000Y314825D02*
X202622Y314776D01*
X201804Y314437D01*
X201102Y313898D01*
X200563Y313196D01*
X200224Y312378D01*
X200175Y312000D01*
X203000D01*
Y314825D01*
D02*
G37*
G36*
X214000Y30400D02*
X212861Y30250D01*
X211800Y29810D01*
X210889Y29111D01*
X210190Y28200D01*
X209750Y27139D01*
X209600Y26000D01*
X209750Y24861D01*
X210190Y23800D01*
X210889Y22889D01*
X211800Y22190D01*
X212861Y21750D01*
X214000Y21600D01*
X215139Y21750D01*
X216200Y22190D01*
X217111Y22889D01*
X217810Y23800D01*
X218250Y24861D01*
X218400Y26000D01*
X218250Y27139D01*
X217810Y28200D01*
X217111Y29111D01*
X216200Y29810D01*
X215139Y30250D01*
X214000Y30400D01*
D02*
G37*
G36*
X204000Y314825D02*
Y312000D01*
X206825D01*
X206776Y312378D01*
X206437Y313196D01*
X205898Y313898D01*
X205196Y314437D01*
X204378Y314776D01*
X204000Y314825D01*
D02*
G37*
%LPD*%
G36*
X326274Y225420D02*
X327057Y225317D01*
X327058Y225317D01*
X336343D01*
Y223685D01*
X341378D01*
X351503Y213560D01*
X351503Y213560D01*
X352130Y213080D01*
D01*
D01*
Y213080D01*
X352130Y213080D01*
D01*
D01*
X352130D01*
Y213080D01*
D01*
X352130D01*
Y213080D01*
X352859Y212777D01*
X353643Y212674D01*
X353643Y212674D01*
X364575D01*
X364673Y212184D01*
X364601Y212154D01*
X363608Y211392D01*
X362846Y210399D01*
X362367Y209242D01*
X362203Y208000D01*
X362367Y206758D01*
X362846Y205602D01*
X363608Y204608D01*
X364601Y203846D01*
X365758Y203366D01*
X367000Y203203D01*
X368242Y203366D01*
X369398Y203846D01*
X370392Y204608D01*
X371154Y205602D01*
X371634Y206758D01*
X371797Y208000D01*
X371634Y209242D01*
X371154Y210399D01*
X370392Y211392D01*
X369398Y212154D01*
X369327Y212184D01*
X369425Y212674D01*
X391200D01*
X391983Y212777D01*
X392499Y212991D01*
X392713Y213080D01*
X393340Y213560D01*
X396543Y216763D01*
X397000Y216703D01*
X398241Y216866D01*
X399398Y217346D01*
X399822Y217137D01*
Y215458D01*
X396024Y211660D01*
X396020Y211659D01*
X395106Y211281D01*
X394321Y210679D01*
X393719Y209894D01*
X393341Y208980D01*
X393278Y208500D01*
X397000D01*
Y207500D01*
X393278D01*
X393341Y207019D01*
X393719Y206106D01*
X394050Y205674D01*
X393829Y205226D01*
X380200D01*
X379417Y205123D01*
X378687Y204820D01*
X378415Y204612D01*
X378060Y204340D01*
X378060Y204340D01*
X366688Y192967D01*
X366214Y193128D01*
X366133Y193742D01*
X365654Y194898D01*
X364892Y195892D01*
X363898Y196654D01*
X362741Y197134D01*
X361500Y197297D01*
X360259Y197134D01*
X359102Y196654D01*
X358108Y195892D01*
X357346Y194898D01*
X356867Y193742D01*
X356703Y192500D01*
X356867Y191259D01*
X357346Y190102D01*
X358108Y189108D01*
X359102Y188346D01*
X359333Y188250D01*
Y187750D01*
X359102Y187654D01*
X358108Y186892D01*
X357346Y185898D01*
X356867Y184741D01*
X356703Y183500D01*
X356867Y182258D01*
X357346Y181102D01*
X358108Y180108D01*
X359102Y179346D01*
X359333Y179250D01*
Y178750D01*
X359102Y178654D01*
X358108Y177892D01*
X357346Y176899D01*
X356867Y175742D01*
X356703Y174500D01*
X356867Y173258D01*
X357346Y172101D01*
X358108Y171108D01*
X359102Y170346D01*
X359333Y170250D01*
Y169750D01*
X359102Y169654D01*
X358108Y168892D01*
X357346Y167898D01*
X356867Y166742D01*
X356797Y166212D01*
X356323Y166051D01*
X354735Y167640D01*
X354109Y168121D01*
X353895Y168209D01*
X353379Y168423D01*
X352596Y168526D01*
X339173D01*
X338892Y168892D01*
X337898Y169654D01*
X336741Y170133D01*
X335500Y170297D01*
X334259Y170133D01*
X333102Y169654D01*
X332108Y168892D01*
X331827Y168526D01*
X317000D01*
X317000Y168526D01*
X316217Y168423D01*
X315487Y168121D01*
X315132Y167848D01*
X314860Y167640D01*
X314860Y167640D01*
X310088Y162867D01*
X309672Y163145D01*
X310134Y164259D01*
X310297Y165500D01*
X310134Y166742D01*
X309654Y167898D01*
X308892Y168892D01*
X307898Y169654D01*
X306741Y170133D01*
X305500Y170297D01*
X304258Y170133D01*
X303101Y169654D01*
X302108Y168892D01*
X301346Y167898D01*
X300867Y166742D01*
X300703Y165500D01*
X300763Y165042D01*
X296572Y160851D01*
X296196Y161180D01*
X296826Y162002D01*
X297325Y163207D01*
X297496Y164500D01*
X297325Y165793D01*
X296826Y166998D01*
X296032Y168032D01*
X294998Y168826D01*
X293975Y169250D01*
Y169750D01*
X294998Y170174D01*
X296032Y170968D01*
X296826Y172002D01*
X297325Y173207D01*
X297496Y174500D01*
X297325Y175793D01*
X296826Y176998D01*
X296032Y178032D01*
X294998Y178826D01*
X293975Y179250D01*
Y179750D01*
X294998Y180174D01*
X296032Y180968D01*
X296826Y182002D01*
X297325Y183207D01*
X297496Y184500D01*
X297325Y185793D01*
X296826Y186998D01*
X296805Y187026D01*
X297026Y187474D01*
X332500D01*
X333283Y187577D01*
X333799Y187791D01*
X334013Y187880D01*
X334640Y188360D01*
X337482Y191203D01*
X337963Y191829D01*
X338051Y192043D01*
X338265Y192559D01*
X338352Y193219D01*
X338651Y193342D01*
X338902Y193342D01*
X339156Y193148D01*
X340045Y192779D01*
X340500Y192719D01*
Y196343D01*
Y199966D01*
X340045Y199906D01*
X339156Y199537D01*
X338817Y199277D01*
X338368Y199499D01*
Y203458D01*
X338265Y204241D01*
X338051Y204757D01*
X337963Y204971D01*
X337482Y205597D01*
X334640Y208440D01*
X334013Y208921D01*
X333799Y209009D01*
X333283Y209223D01*
X332500Y209326D01*
X323099D01*
X323099Y209326D01*
X322708Y209274D01*
X322316Y209223D01*
X321800Y209009D01*
X321586Y208921D01*
X320960Y208440D01*
X318612Y206092D01*
X318150Y206283D01*
Y213650D01*
X309876D01*
Y215101D01*
X310325Y215322D01*
X310907Y214875D01*
X311917Y214457D01*
X312500Y214380D01*
Y218500D01*
Y222620D01*
X311917Y222543D01*
X310907Y222125D01*
X310325Y221678D01*
X309876Y221899D01*
Y223841D01*
X310325Y224062D01*
X310403Y224002D01*
X311656Y223483D01*
X313000Y223306D01*
X314344Y223483D01*
X315597Y224002D01*
X316673Y224827D01*
X317169Y225474D01*
X326143D01*
X326274Y225420D01*
D02*
G37*
G36*
X386763Y138958D02*
X386703Y138500D01*
X386866Y137259D01*
X387346Y136101D01*
X388108Y135108D01*
X389102Y134346D01*
X389333Y134250D01*
Y133750D01*
X389102Y133654D01*
X388108Y132892D01*
X387346Y131898D01*
X386866Y130742D01*
X386703Y129500D01*
X386866Y128259D01*
X387346Y127102D01*
X388108Y126108D01*
X389102Y125346D01*
X390259Y124866D01*
X391143Y124750D01*
Y124250D01*
X390259Y124134D01*
X389102Y123654D01*
X388108Y122892D01*
X387346Y121898D01*
X386866Y120741D01*
X386703Y119500D01*
X386866Y118259D01*
X387346Y117102D01*
X388108Y116108D01*
X389102Y115346D01*
X390259Y114866D01*
X391500Y114703D01*
X392741Y114866D01*
X393858Y115329D01*
X394274Y115051D01*
Y112935D01*
X393826Y112714D01*
X393700Y112810D01*
X392639Y113250D01*
X391500Y113400D01*
X390361Y113250D01*
X389300Y112810D01*
X388389Y112111D01*
X387690Y111200D01*
X387250Y110139D01*
X387100Y109000D01*
X387250Y107861D01*
X387690Y106800D01*
X388389Y105889D01*
X389300Y105190D01*
X390361Y104750D01*
X391500Y104600D01*
X392020Y104669D01*
X392241Y104220D01*
X387247Y99226D01*
X365158D01*
Y102221D01*
X368911Y105974D01*
X378323D01*
X378389Y105889D01*
X379300Y105190D01*
X380361Y104750D01*
X381500Y104600D01*
X382639Y104750D01*
X383700Y105190D01*
X384611Y105889D01*
X385310Y106800D01*
X385750Y107861D01*
X385900Y109000D01*
X385750Y110139D01*
X385310Y111200D01*
X384611Y112111D01*
X383700Y112810D01*
X382639Y113250D01*
X381500Y113400D01*
X380361Y113250D01*
X379300Y112810D01*
X378389Y112111D01*
X378323Y112026D01*
X367657D01*
X366874Y111923D01*
X366144Y111620D01*
X365518Y111140D01*
X360878Y106500D01*
X355842D01*
Y101464D01*
X344520Y90142D01*
X207116D01*
X206333Y90039D01*
X205817Y89825D01*
X205603Y89737D01*
X204977Y89256D01*
X199633Y83912D01*
X199000Y83995D01*
X197707Y83825D01*
X196502Y83326D01*
X195468Y82532D01*
X194674Y81498D01*
X194175Y80293D01*
X194004Y79000D01*
X194175Y77707D01*
X194674Y76502D01*
X195468Y75468D01*
X196502Y74674D01*
X197707Y74175D01*
X199000Y74005D01*
X200293Y74175D01*
X201498Y74674D01*
X202532Y75468D01*
X203326Y76502D01*
X203750Y77525D01*
X204250D01*
X204674Y76502D01*
X205468Y75468D01*
X206502Y74674D01*
X207707Y74175D01*
X209000Y74005D01*
X210293Y74175D01*
X211498Y74674D01*
X212532Y75468D01*
X213326Y76502D01*
X213750Y77525D01*
X214250D01*
X214674Y76502D01*
X215468Y75468D01*
X216502Y74674D01*
X217707Y74175D01*
X219000Y74005D01*
X220293Y74175D01*
X221498Y74674D01*
X222532Y75468D01*
X223326Y76502D01*
X223750Y77525D01*
X224250D01*
X224674Y76502D01*
X225468Y75468D01*
X226502Y74674D01*
X227707Y74175D01*
X229000Y74005D01*
X230293Y74175D01*
X231498Y74674D01*
X232532Y75468D01*
X233326Y76502D01*
X233825Y77707D01*
X233996Y79000D01*
X233825Y80293D01*
X233326Y81498D01*
X232532Y82532D01*
X231498Y83326D01*
X230837Y83600D01*
X230935Y84090D01*
X345774D01*
X346557Y84193D01*
X347073Y84407D01*
X347287Y84496D01*
X347913Y84977D01*
X360122Y97185D01*
X360953D01*
X361144Y96723D01*
X343399Y78979D01*
X326056D01*
X325272Y78876D01*
X324543Y78573D01*
X323916Y78092D01*
X318749Y72926D01*
X196350D01*
X196209Y73109D01*
X195269Y73831D01*
X194175Y74284D01*
X193000Y74439D01*
X191825Y74284D01*
X190731Y73831D01*
X189791Y73109D01*
X189069Y72169D01*
X188616Y71075D01*
X188461Y69900D01*
X188600Y68849D01*
X188151Y68628D01*
X175526Y81253D01*
Y112232D01*
X175999Y112392D01*
X176408Y111860D01*
X187360Y100908D01*
X187987Y100427D01*
X188201Y100338D01*
X188717Y100124D01*
X189500Y100021D01*
X292347D01*
X293130Y100124D01*
X293646Y100338D01*
X293860Y100427D01*
X294487Y100908D01*
X341809Y148230D01*
X377491D01*
X386763Y138958D01*
D02*
G37*
G36*
X247638Y46138D02*
X252083D01*
X256433Y41788D01*
X256242Y41326D01*
X217453D01*
X213029Y45750D01*
X213250Y46199D01*
X214000Y46100D01*
X215139Y46250D01*
X216200Y46690D01*
X217111Y47389D01*
X217810Y48300D01*
X218250Y49361D01*
X218400Y50500D01*
X218250Y51639D01*
X217810Y52700D01*
X217637Y52926D01*
X217858Y53374D01*
X221445D01*
X221606Y52901D01*
X221602Y52898D01*
X221063Y52196D01*
X220724Y51378D01*
X220675Y51000D01*
X227325D01*
X227276Y51378D01*
X226937Y52196D01*
X226398Y52898D01*
X226394Y52901D01*
X226555Y53374D01*
X247638D01*
Y46138D01*
D02*
G37*
G36*
X352203Y161613D02*
X351925Y161198D01*
X351475Y161384D01*
X350300Y161539D01*
X349125Y161384D01*
X348031Y160931D01*
X347091Y160209D01*
X346369Y159269D01*
X345916Y158175D01*
X345761Y157000D01*
X345916Y155825D01*
X346369Y154731D01*
X346370Y154730D01*
X346148Y154282D01*
X340556D01*
X339773Y154179D01*
X339257Y153965D01*
X339043Y153876D01*
X338416Y153396D01*
X293956Y108935D01*
X293483Y109096D01*
X293325Y110293D01*
X292826Y111498D01*
X292032Y112532D01*
X290998Y113326D01*
X289793Y113825D01*
X288500Y113996D01*
X287207Y113825D01*
X286002Y113326D01*
X284968Y112532D01*
X284174Y111498D01*
X283750Y110475D01*
X283250D01*
X282826Y111498D01*
X282032Y112532D01*
X280998Y113326D01*
X279793Y113825D01*
X278500Y113996D01*
X277207Y113825D01*
X276002Y113326D01*
X274968Y112532D01*
X274174Y111498D01*
X273750Y110475D01*
X273250D01*
X272826Y111498D01*
X272032Y112532D01*
X270998Y113326D01*
X269793Y113825D01*
X268500Y113996D01*
X267207Y113825D01*
X266002Y113326D01*
X264968Y112532D01*
X264174Y111498D01*
X263750Y110475D01*
X263250D01*
X262826Y111498D01*
X262032Y112532D01*
X260998Y113326D01*
X259793Y113825D01*
X258500Y113996D01*
X257207Y113825D01*
X256002Y113326D01*
X254968Y112532D01*
X254174Y111498D01*
X253675Y110293D01*
X253504Y109000D01*
X253675Y107707D01*
X254174Y106502D01*
X253962Y106073D01*
X233953D01*
Y113953D01*
X224047D01*
Y106073D01*
X222302D01*
X222080Y106521D01*
X222453Y107007D01*
X222851Y107968D01*
X222921Y108500D01*
X219000D01*
Y109500D01*
X222921D01*
X222851Y110032D01*
X222453Y110993D01*
X221819Y111819D01*
X220993Y112453D01*
X220032Y112851D01*
X219747Y112889D01*
X215018Y117618D01*
X214339Y118139D01*
X213944Y118303D01*
X213548Y118466D01*
X213124Y118522D01*
X212700Y118578D01*
X211651D01*
X211490Y119052D01*
X212032Y119468D01*
X212826Y120502D01*
X213250Y121525D01*
X213750D01*
X214174Y120502D01*
X214968Y119468D01*
X216002Y118674D01*
X217207Y118175D01*
X218500Y118005D01*
X219793Y118175D01*
X220998Y118674D01*
X222032Y119468D01*
X222826Y120502D01*
X223250Y121525D01*
X223750D01*
X224174Y120502D01*
X224968Y119468D01*
X226002Y118674D01*
X227207Y118175D01*
X228500Y118005D01*
X229793Y118175D01*
X230998Y118674D01*
X232032Y119468D01*
X232826Y120502D01*
X233250Y121525D01*
X233750D01*
X234174Y120502D01*
X234968Y119468D01*
X236002Y118674D01*
X237207Y118175D01*
X238500Y118005D01*
X239793Y118175D01*
X240998Y118674D01*
X242032Y119468D01*
X242826Y120502D01*
X243250Y121525D01*
X243750D01*
X244174Y120502D01*
X244968Y119468D01*
X246002Y118674D01*
X247207Y118175D01*
X248500Y118005D01*
X249793Y118175D01*
X250998Y118674D01*
X252032Y119468D01*
X252826Y120502D01*
X253250Y121525D01*
X253750D01*
X254174Y120502D01*
X254968Y119468D01*
X256002Y118674D01*
X257207Y118175D01*
X258500Y118005D01*
X259793Y118175D01*
X260998Y118674D01*
X262032Y119468D01*
X262826Y120502D01*
X263250Y121525D01*
X263750D01*
X264174Y120502D01*
X264968Y119468D01*
X266002Y118674D01*
X267207Y118175D01*
X268500Y118005D01*
X269793Y118175D01*
X270998Y118674D01*
X272032Y119468D01*
X272826Y120502D01*
X273250Y121525D01*
X273750D01*
X274174Y120502D01*
X274968Y119468D01*
X276002Y118674D01*
X277207Y118175D01*
X278500Y118005D01*
X279793Y118175D01*
X280998Y118674D01*
X282032Y119468D01*
X282826Y120502D01*
X283057Y121059D01*
X283547Y120961D01*
Y118047D01*
X293453D01*
Y127474D01*
X300000D01*
X300783Y127577D01*
X301299Y127791D01*
X301513Y127880D01*
X302140Y128360D01*
X317640Y143860D01*
X318121Y144487D01*
X318423Y145217D01*
X318526Y146000D01*
X318526Y146000D01*
X318526Y146000D01*
Y146000D01*
Y150823D01*
X318611Y150889D01*
X319310Y151800D01*
X319750Y152861D01*
X319900Y154000D01*
X319750Y155139D01*
X319310Y156200D01*
X318611Y157111D01*
X317700Y157810D01*
X316639Y158250D01*
X315500Y158400D01*
X314750Y158301D01*
X314529Y158749D01*
X318253Y162474D01*
X331827D01*
X332108Y162108D01*
X333102Y161346D01*
X334259Y160866D01*
X335500Y160703D01*
X336741Y160866D01*
X337898Y161346D01*
X338892Y162108D01*
X339173Y162474D01*
X351342D01*
X352203Y161613D01*
D02*
G37*
G36*
X197327Y169166D02*
X196869Y168569D01*
X196416Y167475D01*
X196261Y166300D01*
X196416Y165125D01*
X196869Y164031D01*
X197591Y163091D01*
X198531Y162369D01*
X199625Y161916D01*
X200800Y161761D01*
X201029Y161791D01*
X207460Y155360D01*
X208087Y154879D01*
X208301Y154791D01*
X208817Y154577D01*
X209600Y154474D01*
X210579D01*
X210968Y153968D01*
X212002Y153174D01*
X213025Y152750D01*
Y152250D01*
X212002Y151826D01*
X210968Y151032D01*
X210174Y149998D01*
X209675Y148793D01*
X209505Y147500D01*
X209675Y146207D01*
X210174Y145002D01*
X210968Y143968D01*
X212002Y143174D01*
X213207Y142675D01*
X214500Y142505D01*
X215133Y142588D01*
X229360Y128360D01*
X229027Y127926D01*
X228500Y127996D01*
X227207Y127825D01*
X226002Y127326D01*
X224968Y126532D01*
X224174Y125498D01*
X223750Y124475D01*
X223250D01*
X222826Y125498D01*
X222032Y126532D01*
X220998Y127326D01*
X219793Y127825D01*
X218500Y127996D01*
X217207Y127825D01*
X216002Y127326D01*
X214968Y126532D01*
X214174Y125498D01*
X213750Y124475D01*
X213250D01*
X212826Y125498D01*
X212032Y126532D01*
X210998Y127326D01*
X209793Y127825D01*
X208500Y127996D01*
X207207Y127825D01*
X206002Y127326D01*
X204968Y126532D01*
X204174Y125498D01*
X203750Y124475D01*
X203250D01*
X202826Y125498D01*
X202032Y126532D01*
X200998Y127326D01*
X199793Y127825D01*
X198500Y127996D01*
X197207Y127825D01*
X196002Y127326D01*
X194968Y126532D01*
X194174Y125498D01*
X193675Y124293D01*
X193505Y123000D01*
X193675Y121707D01*
X194174Y120502D01*
X194968Y119468D01*
X196002Y118674D01*
X197207Y118175D01*
X198500Y118005D01*
X199793Y118175D01*
X200998Y118674D01*
X202032Y119468D01*
X202826Y120502D01*
X203250Y121525D01*
X203750D01*
X204174Y120502D01*
X204968Y119468D01*
X205510Y119052D01*
X205349Y118578D01*
X205300D01*
X204452Y118466D01*
X203892Y118235D01*
X203661Y118139D01*
X203366Y117913D01*
X202982Y117618D01*
X199250Y113886D01*
X198750D01*
X187778Y124858D01*
Y145279D01*
X187953Y145507D01*
X188351Y146468D01*
X188421Y147000D01*
X184500D01*
Y147500D01*
X184000D01*
Y151421D01*
X183468Y151351D01*
X183222Y151249D01*
X182944Y151665D01*
X183867Y152588D01*
X184500Y152505D01*
X185793Y152675D01*
X186998Y153174D01*
X188032Y153968D01*
X188826Y155002D01*
X189325Y156207D01*
X189496Y157500D01*
X189325Y158793D01*
X188826Y159998D01*
X188032Y161032D01*
X186998Y161826D01*
X185975Y162250D01*
Y162750D01*
X186998Y163174D01*
X188032Y163968D01*
X188421Y164474D01*
X189359D01*
X190143Y164577D01*
X190659Y164791D01*
X190872Y164880D01*
X191499Y165360D01*
X195753Y169615D01*
X197106D01*
X197327Y169166D01*
D02*
G37*
G36*
X391500Y228277D02*
X391981Y228341D01*
X392894Y228719D01*
X392898Y228722D01*
X395142D01*
X397101Y226763D01*
X396941Y226289D01*
X395759Y226133D01*
X394601Y225654D01*
X393608Y224892D01*
X392846Y223899D01*
X392367Y222742D01*
X392203Y221500D01*
X392263Y221042D01*
X389947Y218726D01*
X371449D01*
X371171Y219142D01*
X371634Y220258D01*
X371797Y221500D01*
X371634Y222742D01*
X371154Y223899D01*
X370392Y224892D01*
X369398Y225654D01*
X368242Y226133D01*
X367000Y226297D01*
X365758Y226133D01*
X364601Y225654D01*
X363608Y224892D01*
X363327Y224526D01*
X358253D01*
X354900Y227879D01*
X355121Y228327D01*
X355500Y228277D01*
Y232000D01*
X356500D01*
Y228277D01*
X356980Y228341D01*
X357894Y228719D01*
X357898Y228722D01*
X363102D01*
X363106Y228719D01*
X364019Y228341D01*
X364500Y228277D01*
Y232000D01*
X365500D01*
Y228277D01*
X365981Y228341D01*
X366894Y228719D01*
X366898Y228722D01*
X371602D01*
X371606Y228719D01*
X372519Y228341D01*
X373000Y228277D01*
Y232000D01*
X374000D01*
Y228277D01*
X374481Y228341D01*
X375394Y228719D01*
X375398Y228722D01*
X380102D01*
X380106Y228719D01*
X381019Y228341D01*
X381500Y228277D01*
Y232000D01*
X382500D01*
Y228277D01*
X382980Y228341D01*
X383894Y228719D01*
X383898Y228722D01*
X389102D01*
X389106Y228719D01*
X390019Y228341D01*
X390500Y228277D01*
Y232000D01*
X391500D01*
Y228277D01*
D02*
G37*
G36*
X287547Y326568D02*
Y319547D01*
X290461D01*
X290559Y319057D01*
X290002Y318826D01*
X288968Y318032D01*
X288174Y316998D01*
X287675Y315793D01*
X287505Y314500D01*
X287675Y313207D01*
X288174Y312002D01*
X288968Y310968D01*
X290002Y310174D01*
X291025Y309750D01*
Y309250D01*
X290002Y308826D01*
X288968Y308032D01*
X288174Y306998D01*
X287675Y305793D01*
X287505Y304500D01*
X287675Y303207D01*
X288174Y302002D01*
X288968Y300968D01*
X290002Y300174D01*
X291025Y299750D01*
Y299250D01*
X290002Y298826D01*
X288968Y298032D01*
X288174Y296998D01*
X287675Y295793D01*
X287505Y294500D01*
X287675Y293207D01*
X288174Y292002D01*
X288968Y290968D01*
X290002Y290174D01*
X291025Y289750D01*
Y289250D01*
X290002Y288826D01*
X288968Y288032D01*
X288174Y286998D01*
X287675Y285793D01*
X287505Y284500D01*
X287675Y283207D01*
X288174Y282002D01*
X288968Y280968D01*
X290002Y280174D01*
X291025Y279750D01*
Y279250D01*
X290002Y278826D01*
X288968Y278032D01*
X288174Y276998D01*
X287675Y275793D01*
X287505Y274500D01*
X287675Y273207D01*
X288174Y272002D01*
X288968Y270968D01*
X290002Y270174D01*
X291025Y269750D01*
Y269250D01*
X290002Y268826D01*
X288968Y268032D01*
X288174Y266998D01*
X287675Y265793D01*
X287505Y264500D01*
X287588Y263867D01*
X277460Y253740D01*
X276979Y253113D01*
X276891Y252899D01*
X276677Y252383D01*
X276574Y251600D01*
Y205100D01*
X276677Y204317D01*
X276891Y203801D01*
X276979Y203587D01*
X277460Y202960D01*
X283466Y196955D01*
X283417Y196458D01*
X283058Y196218D01*
X282175Y196584D01*
X281000Y196739D01*
X279825Y196584D01*
X278731Y196131D01*
X277791Y195409D01*
X277650Y195226D01*
X267053D01*
X248412Y213867D01*
X248496Y214500D01*
X248325Y215793D01*
X247826Y216998D01*
X247032Y218032D01*
X245998Y218826D01*
X244975Y219250D01*
Y219750D01*
X245998Y220174D01*
X247032Y220968D01*
X247826Y222002D01*
X248325Y223207D01*
X248496Y224500D01*
X248325Y225793D01*
X247826Y226998D01*
X247032Y228032D01*
X245998Y228826D01*
X244975Y229250D01*
Y229750D01*
X245998Y230174D01*
X247032Y230968D01*
X247826Y232002D01*
X248325Y233207D01*
X248496Y234500D01*
X248325Y235793D01*
X247826Y236998D01*
X247032Y238032D01*
X245998Y238826D01*
X244975Y239250D01*
Y239750D01*
X245998Y240174D01*
X247032Y240968D01*
X247826Y242002D01*
X248325Y243207D01*
X248496Y244500D01*
X248325Y245793D01*
X247826Y246998D01*
X247032Y248032D01*
X245998Y248826D01*
X244975Y249250D01*
Y249750D01*
X245998Y250174D01*
X247032Y250968D01*
X247826Y252002D01*
X248325Y253207D01*
X248496Y254500D01*
X248325Y255793D01*
X247826Y256998D01*
X247032Y258032D01*
X245998Y258826D01*
X244975Y259250D01*
Y259750D01*
X245998Y260174D01*
X247032Y260968D01*
X247826Y262002D01*
X248325Y263207D01*
X248496Y264500D01*
X248325Y265793D01*
X247826Y266998D01*
X247032Y268032D01*
X245998Y268826D01*
X244975Y269250D01*
Y269750D01*
X245998Y270174D01*
X247032Y270968D01*
X247826Y272002D01*
X248325Y273207D01*
X248496Y274500D01*
X248325Y275793D01*
X247826Y276998D01*
X247032Y278032D01*
X245998Y278826D01*
X244975Y279250D01*
Y279750D01*
X245998Y280174D01*
X247032Y280968D01*
X247826Y282002D01*
X248325Y283207D01*
X248496Y284500D01*
X248325Y285793D01*
X247826Y286998D01*
X247032Y288032D01*
X245998Y288826D01*
X244793Y289325D01*
X243500Y289495D01*
X242207Y289325D01*
X241002Y288826D01*
X239968Y288032D01*
X239174Y286998D01*
X238675Y285793D01*
X238505Y284500D01*
X238675Y283207D01*
X239174Y282002D01*
X239968Y280968D01*
X241002Y280174D01*
X242025Y279750D01*
Y279250D01*
X241002Y278826D01*
X239968Y278032D01*
X239174Y276998D01*
X238675Y275793D01*
X238505Y274500D01*
X238675Y273207D01*
X239174Y272002D01*
X239968Y270968D01*
X241002Y270174D01*
X242025Y269750D01*
Y269250D01*
X241002Y268826D01*
X239968Y268032D01*
X239174Y266998D01*
X238675Y265793D01*
X238505Y264500D01*
X238675Y263207D01*
X239174Y262002D01*
X239968Y260968D01*
X241002Y260174D01*
X242025Y259750D01*
Y259250D01*
X241002Y258826D01*
X239968Y258032D01*
X239174Y256998D01*
X238675Y255793D01*
X238505Y254500D01*
X238675Y253207D01*
X239174Y252002D01*
X239968Y250968D01*
X241002Y250174D01*
X242025Y249750D01*
Y249250D01*
X241002Y248826D01*
X239968Y248032D01*
X239174Y246998D01*
X238675Y245793D01*
X238505Y244500D01*
X238675Y243207D01*
X239174Y242002D01*
X239968Y240968D01*
X241002Y240174D01*
X242025Y239750D01*
Y239250D01*
X241002Y238826D01*
X239968Y238032D01*
X239174Y236998D01*
X238675Y235793D01*
X238505Y234500D01*
X238675Y233207D01*
X239174Y232002D01*
X239968Y230968D01*
X241002Y230174D01*
X242025Y229750D01*
Y229250D01*
X241002Y228826D01*
X239968Y228032D01*
X239174Y226998D01*
X238675Y225793D01*
X238505Y224500D01*
X238675Y223207D01*
X239174Y222002D01*
X239968Y220968D01*
X241002Y220174D01*
X242025Y219750D01*
Y219250D01*
X241002Y218826D01*
X239968Y218032D01*
X239234Y217077D01*
X238735Y217044D01*
X231912Y223867D01*
X231996Y224500D01*
X231825Y225793D01*
X231326Y226998D01*
X230532Y228032D01*
X229498Y228826D01*
X228475Y229250D01*
Y229750D01*
X229498Y230174D01*
X230532Y230968D01*
X231326Y232002D01*
X231825Y233207D01*
X231996Y234500D01*
X231825Y235793D01*
X231326Y236998D01*
X230532Y238032D01*
X229498Y238826D01*
X228475Y239250D01*
Y239750D01*
X229498Y240174D01*
X230532Y240968D01*
X231326Y242002D01*
X231825Y243207D01*
X231996Y244500D01*
X231825Y245793D01*
X231326Y246998D01*
X230532Y248032D01*
X229498Y248826D01*
X228475Y249250D01*
Y249750D01*
X229498Y250174D01*
X230532Y250968D01*
X231326Y252002D01*
X231825Y253207D01*
X231996Y254500D01*
X231825Y255793D01*
X231326Y256998D01*
X230532Y258032D01*
X229498Y258826D01*
X228475Y259250D01*
Y259750D01*
X229498Y260174D01*
X230532Y260968D01*
X231326Y262002D01*
X231825Y263207D01*
X231996Y264500D01*
X231825Y265793D01*
X231326Y266998D01*
X230532Y268032D01*
X229498Y268826D01*
X228475Y269250D01*
Y269750D01*
X229498Y270174D01*
X230532Y270968D01*
X231326Y272002D01*
X231825Y273207D01*
X231996Y274500D01*
X231825Y275793D01*
X231326Y276998D01*
X230532Y278032D01*
X229498Y278826D01*
X228293Y279325D01*
X227000Y279496D01*
X225707Y279325D01*
X224502Y278826D01*
X223468Y278032D01*
X222674Y276998D01*
X222175Y275793D01*
X222005Y274500D01*
X222088Y273867D01*
X170360Y222140D01*
X169879Y221513D01*
X169791Y221299D01*
X169577Y220783D01*
X169474Y220000D01*
Y80000D01*
X169577Y79217D01*
X169791Y78701D01*
X169879Y78487D01*
X170360Y77860D01*
X185960Y62260D01*
X186587Y61779D01*
X187317Y61477D01*
X188100Y61374D01*
X271447D01*
X277360Y55460D01*
X277987Y54979D01*
X278717Y54677D01*
X278717Y54677D01*
X278717Y54677D01*
D01*
X278717Y54677D01*
X278717Y54677D01*
X279500Y54574D01*
X307366D01*
X307527Y54101D01*
X306889Y53611D01*
X306190Y52700D01*
X305750Y51639D01*
X305600Y50500D01*
X305750Y49361D01*
X306190Y48300D01*
X306889Y47389D01*
X307800Y46690D01*
X308701Y46316D01*
X308604Y45826D01*
X263396D01*
X263299Y46316D01*
X264200Y46690D01*
X265111Y47389D01*
X265810Y48300D01*
X266250Y49361D01*
X266400Y50500D01*
X266250Y51639D01*
X265810Y52700D01*
X265111Y53611D01*
X264200Y54310D01*
X263139Y54750D01*
X262000Y54900D01*
X261893Y54886D01*
X258240Y58540D01*
X257613Y59021D01*
X257399Y59109D01*
X256883Y59323D01*
X256100Y59426D01*
X171253D01*
X159526Y71153D01*
Y262247D01*
X185153Y287874D01*
X200518D01*
X200740Y287426D01*
X200563Y287196D01*
X200224Y286378D01*
X200175Y286000D01*
X206825D01*
X206776Y286378D01*
X206437Y287196D01*
X206260Y287426D01*
X206482Y287874D01*
X209312D01*
X209590Y287458D01*
X209250Y286639D01*
X209100Y285500D01*
X209250Y284361D01*
X209690Y283300D01*
X210389Y282389D01*
X211300Y281690D01*
X212361Y281250D01*
X213500Y281100D01*
X214639Y281250D01*
X215700Y281690D01*
X216611Y282389D01*
X217310Y283300D01*
X217750Y284361D01*
X217900Y285500D01*
X217750Y286639D01*
X217310Y287700D01*
X216809Y288353D01*
X217340Y288760D01*
X221440Y292860D01*
X221440Y292860D01*
X221648Y293132D01*
X221653Y293138D01*
X221942Y293176D01*
X222202Y293142D01*
X222674Y292002D01*
X223468Y290968D01*
X224502Y290174D01*
X225707Y289675D01*
X226765Y289535D01*
D01*
X226926Y289062D01*
X226926D01*
X226926Y289062D01*
X226253Y288388D01*
X225968Y288351D01*
X225007Y287953D01*
X224181Y287319D01*
X223547Y286493D01*
X223149Y285532D01*
X223079Y285000D01*
X227000D01*
Y284500D01*
X227500D01*
Y280579D01*
X228032Y280649D01*
X228993Y281047D01*
X229819Y281681D01*
X230453Y282507D01*
X230851Y283468D01*
X230889Y283753D01*
X238358Y291222D01*
X241279D01*
X241507Y291047D01*
X242468Y290649D01*
X243000Y290579D01*
Y294500D01*
Y298421D01*
X242468Y298351D01*
X241507Y297953D01*
X241279Y297778D01*
X237000D01*
X236152Y297666D01*
X235593Y297435D01*
X235361Y297339D01*
X235066Y297113D01*
X234682Y296818D01*
X232438Y294574D01*
X232076Y294697D01*
X231963Y295184D01*
X238735Y301956D01*
X239234Y301923D01*
X239968Y300968D01*
X241002Y300174D01*
X242207Y299675D01*
X243500Y299504D01*
X244793Y299675D01*
X245998Y300174D01*
X247032Y300968D01*
X247826Y302002D01*
X248325Y303207D01*
X248496Y304500D01*
X248325Y305793D01*
X247826Y306998D01*
X247032Y308032D01*
X245998Y308826D01*
X244975Y309250D01*
Y309750D01*
X245998Y310174D01*
X247032Y310968D01*
X247421Y311474D01*
X270547D01*
X271330Y311577D01*
X271846Y311791D01*
X272060Y311879D01*
X272687Y312360D01*
X287085Y326759D01*
X287547Y326568D01*
D02*
G37*
G36*
X398974Y260953D02*
X383704Y245683D01*
X345657D01*
Y247315D01*
X340622D01*
X336297Y251640D01*
X335670Y252120D01*
X335457Y252209D01*
X334941Y252423D01*
X334157Y252526D01*
X328677D01*
X328611Y252611D01*
X327700Y253310D01*
X326639Y253750D01*
X325500Y253900D01*
X324361Y253750D01*
X323300Y253310D01*
X322389Y252611D01*
X321690Y251700D01*
X321273Y250694D01*
X320783Y250597D01*
X315534Y255845D01*
X315755Y256294D01*
X315876Y256278D01*
X316300Y256222D01*
X324640D01*
X325000Y256175D01*
Y259500D01*
X326000D01*
Y256175D01*
X326378Y256224D01*
X327196Y256563D01*
X327898Y257102D01*
X328426Y257790D01*
X329700Y259065D01*
X339356D01*
X340045Y258779D01*
X340500Y258719D01*
Y262343D01*
Y265966D01*
X340045Y265906D01*
X339356Y265621D01*
X328343D01*
X327494Y265509D01*
X326704Y265181D01*
X326319Y264887D01*
X326025Y264661D01*
X324142Y262778D01*
X317658D01*
X305956Y274480D01*
X306117Y274953D01*
X306344Y274983D01*
X307597Y275502D01*
X308673Y276327D01*
X309498Y277403D01*
X309750Y278011D01*
X310250D01*
X310502Y277403D01*
X311327Y276327D01*
X312403Y275502D01*
X313656Y274983D01*
X315000Y274806D01*
X315808Y274912D01*
X323010Y267711D01*
X323637Y267230D01*
X323850Y267141D01*
X324366Y266928D01*
X325150Y266825D01*
X346896D01*
X351263Y262457D01*
X351203Y262000D01*
X351366Y260758D01*
X351846Y259601D01*
X352608Y258608D01*
X353602Y257846D01*
X354759Y257366D01*
X356000Y257203D01*
X357242Y257366D01*
X358399Y257846D01*
X359392Y258608D01*
X360154Y259601D01*
X360250Y259833D01*
X360750D01*
X360846Y259601D01*
X361608Y258608D01*
X362601Y257846D01*
X363758Y257366D01*
X365000Y257203D01*
X366242Y257366D01*
X367399Y257846D01*
X368392Y258608D01*
X369000Y259401D01*
X369500D01*
X370108Y258608D01*
X371101Y257846D01*
X372258Y257366D01*
X373500Y257203D01*
X374742Y257366D01*
X375899Y257846D01*
X376892Y258608D01*
X377500Y259401D01*
X378000D01*
X378608Y258608D01*
X379602Y257846D01*
X380759Y257366D01*
X382000Y257203D01*
X383242Y257366D01*
X384399Y257846D01*
X385392Y258608D01*
X386154Y259601D01*
X386250Y259833D01*
X386750D01*
X386846Y259601D01*
X387608Y258608D01*
X388601Y257846D01*
X389758Y257366D01*
X391000Y257203D01*
X392242Y257366D01*
X393398Y257846D01*
X394392Y258608D01*
X395154Y259601D01*
X395634Y260758D01*
X395797Y262000D01*
X395634Y263242D01*
X395154Y264399D01*
X394392Y265392D01*
X393398Y266154D01*
X392242Y266634D01*
X391000Y266797D01*
X389758Y266634D01*
X388601Y266154D01*
X387608Y265392D01*
X386846Y264399D01*
X386750Y264167D01*
X386250D01*
X386154Y264399D01*
X385392Y265392D01*
X384399Y266154D01*
X383242Y266634D01*
X382000Y266797D01*
X380759Y266634D01*
X379602Y266154D01*
X378608Y265392D01*
X378000Y264599D01*
X377500D01*
X376892Y265392D01*
X375899Y266154D01*
X374742Y266634D01*
X373500Y266797D01*
X373042Y266737D01*
X369840Y269940D01*
X369213Y270421D01*
X368999Y270509D01*
X368483Y270723D01*
X367700Y270826D01*
X366453D01*
X362818Y274461D01*
X362979Y274935D01*
X363344Y274983D01*
X364597Y275502D01*
X365673Y276327D01*
X366498Y277403D01*
X366750Y278011D01*
X367250D01*
X367502Y277403D01*
X368327Y276327D01*
X369403Y275502D01*
X370656Y274983D01*
X372000Y274806D01*
X373344Y274983D01*
X374597Y275502D01*
X375673Y276327D01*
X375673Y276327D01*
X375673Y276327D01*
X375673D01*
X376251Y277078D01*
X376250Y277076D01*
X376750D01*
X376749Y277078D01*
X377327Y276327D01*
X377327D01*
X377327Y276327D01*
Y276327D01*
X378403Y275502D01*
X379656Y274983D01*
X381000Y274806D01*
X382344Y274983D01*
X383597Y275502D01*
X384673Y276327D01*
X385498Y277403D01*
X385750Y278011D01*
X386250D01*
X386502Y277403D01*
X387327Y276327D01*
X388403Y275502D01*
X389656Y274983D01*
X391000Y274806D01*
X392344Y274983D01*
X393597Y275502D01*
X394673Y276327D01*
X395498Y277403D01*
X396017Y278656D01*
X396194Y280000D01*
X396017Y281344D01*
X395498Y282597D01*
X394673Y283673D01*
X393597Y284498D01*
X392344Y285017D01*
X391000Y285194D01*
X389656Y285017D01*
X388403Y284498D01*
X387327Y283673D01*
X386502Y282597D01*
X386250Y281989D01*
X385750D01*
X385498Y282597D01*
X384673Y283673D01*
X384545Y283771D01*
X384379Y284171D01*
X384570Y284633D01*
X384639Y284661D01*
X385318Y285182D01*
X385318Y285182D01*
X385318Y285182D01*
X396318Y296182D01*
X396318Y296182D01*
X396318Y296182D01*
X396839Y296861D01*
X397003Y297256D01*
X397166Y297652D01*
X397222Y298076D01*
X397278Y298500D01*
Y309547D01*
X398974D01*
Y260953D01*
D02*
G37*
G36*
X404974Y338747D02*
Y327765D01*
X404526Y327544D01*
X403993Y327953D01*
X403032Y328351D01*
X402747Y328389D01*
X382218Y348918D01*
X381539Y349439D01*
X381144Y349603D01*
X380748Y349766D01*
X380324Y349822D01*
X379900Y349878D01*
X359600D01*
X359176Y349822D01*
X358752Y349766D01*
X358356Y349603D01*
X357961Y349439D01*
X357282Y348918D01*
X336753Y328389D01*
X336468Y328351D01*
X335507Y327953D01*
X334681Y327319D01*
X334047Y326493D01*
X333649Y325532D01*
X333579Y325000D01*
X337500D01*
Y324500D01*
X338000D01*
Y320579D01*
X338532Y320649D01*
X339493Y321047D01*
X340319Y321681D01*
X340953Y322507D01*
X341351Y323468D01*
X341389Y323753D01*
X342062Y324426D01*
X342535Y324265D01*
X342675Y323207D01*
X343174Y322002D01*
X343968Y320968D01*
X345002Y320174D01*
X346025Y319750D01*
Y319250D01*
X345002Y318826D01*
X343968Y318032D01*
X343174Y316998D01*
X342750Y315975D01*
X342250D01*
X341826Y316998D01*
X341032Y318032D01*
X339998Y318826D01*
X338793Y319325D01*
X337500Y319496D01*
X336207Y319325D01*
X335002Y318826D01*
X333968Y318032D01*
X333174Y316998D01*
X332750Y315975D01*
X332250D01*
X331826Y316998D01*
X331032Y318032D01*
X329998Y318826D01*
X328975Y319250D01*
Y319750D01*
X329998Y320174D01*
X331032Y320968D01*
X331826Y322002D01*
X332325Y323207D01*
X332495Y324500D01*
X332325Y325793D01*
X331826Y326998D01*
X331032Y328032D01*
X329998Y328826D01*
X328793Y329325D01*
X327500Y329496D01*
X326867Y329412D01*
X315240Y341040D01*
X314613Y341521D01*
X314399Y341609D01*
X313883Y341823D01*
X313100Y341926D01*
X207339D01*
X207249Y341914D01*
X207175Y341945D01*
X206000Y342100D01*
X204825Y341945D01*
X204026Y341614D01*
X203748Y342030D01*
X213993Y352274D01*
X391447D01*
X404974Y338747D01*
D02*
G37*
G36*
X228347Y328619D02*
X228278Y328453D01*
X227500D01*
Y324500D01*
X226500D01*
Y328453D01*
X223047D01*
Y325183D01*
X219542Y321678D01*
X217398D01*
X217177Y322127D01*
X217310Y322300D01*
X217750Y323361D01*
X217900Y324500D01*
X217750Y325639D01*
X217310Y326700D01*
X216611Y327611D01*
X215700Y328310D01*
X215135Y328544D01*
X215232Y329035D01*
X228069D01*
X228347Y328619D01*
D02*
G37*
%LPC*%
G36*
X262453Y82953D02*
X259000D01*
Y79000D01*
Y75047D01*
X262453D01*
Y75722D01*
X266279D01*
X266507Y75547D01*
X267468Y75149D01*
X268000Y75079D01*
Y79000D01*
Y82921D01*
X267468Y82851D01*
X266507Y82453D01*
X266279Y82278D01*
X262453D01*
Y82953D01*
D02*
G37*
G36*
X292421Y78500D02*
X289000D01*
Y75079D01*
X289532Y75149D01*
X290493Y75547D01*
X291319Y76181D01*
X291953Y77007D01*
X292351Y77968D01*
X292421Y78500D01*
D02*
G37*
G36*
X299500Y53862D02*
X296638D01*
Y53778D01*
X272860D01*
X272500Y53825D01*
Y50500D01*
Y47175D01*
X272860Y47222D01*
X296638D01*
Y47138D01*
X299500D01*
Y50500D01*
Y53862D01*
D02*
G37*
G36*
X258000Y78500D02*
X254547D01*
Y75047D01*
X258000D01*
Y78500D01*
D02*
G37*
G36*
X278000Y82921D02*
X277468Y82851D01*
X276507Y82453D01*
X276279Y82278D01*
X270721D01*
X270493Y82453D01*
X269532Y82851D01*
X269000Y82921D01*
Y79000D01*
Y75079D01*
X269532Y75149D01*
X270493Y75547D01*
X270721Y75722D01*
X276279D01*
X276507Y75547D01*
X277468Y75149D01*
X278000Y75079D01*
Y79000D01*
Y82921D01*
D02*
G37*
G36*
X288000D02*
X287468Y82851D01*
X286507Y82453D01*
X286279Y82278D01*
X280721D01*
X280493Y82453D01*
X279532Y82851D01*
X279000Y82921D01*
Y79000D01*
Y75079D01*
X279532Y75149D01*
X280493Y75547D01*
X280721Y75722D01*
X286279D01*
X286507Y75547D01*
X287468Y75149D01*
X288000Y75079D01*
Y79000D01*
Y82921D01*
D02*
G37*
G36*
X258000Y82953D02*
X254547D01*
Y79500D01*
X258000D01*
Y82953D01*
D02*
G37*
G36*
X289000Y82921D02*
Y79500D01*
X292421D01*
X292351Y80032D01*
X291953Y80993D01*
X291319Y81819D01*
X290493Y82453D01*
X289532Y82851D01*
X289000Y82921D01*
D02*
G37*
G36*
X303362Y53862D02*
X300500D01*
Y51000D01*
X303362D01*
Y53862D01*
D02*
G37*
G36*
Y50000D02*
X300500D01*
Y47138D01*
X303362D01*
Y50000D01*
D02*
G37*
G36*
X223500D02*
X220675D01*
X220724Y49622D01*
X221063Y48804D01*
X221602Y48102D01*
X222304Y47563D01*
X223122Y47224D01*
X223500Y47175D01*
Y50000D01*
D02*
G37*
G36*
X337000Y324000D02*
X333579D01*
X333649Y323468D01*
X334047Y322507D01*
X334681Y321681D01*
X335507Y321047D01*
X336468Y320649D01*
X337000Y320579D01*
Y324000D01*
D02*
G37*
G36*
X244000Y298421D02*
Y295000D01*
X247421D01*
X247351Y295532D01*
X246953Y296493D01*
X246319Y297319D01*
X245493Y297953D01*
X244532Y298351D01*
X244000Y298421D01*
D02*
G37*
G36*
X247421Y294000D02*
X244000D01*
Y290579D01*
X244532Y290649D01*
X245493Y291047D01*
X246319Y291681D01*
X246953Y292507D01*
X247351Y293468D01*
X247421Y294000D01*
D02*
G37*
G36*
X271500Y53825D02*
X271122Y53776D01*
X270304Y53437D01*
X269602Y52898D01*
X269063Y52196D01*
X268724Y51378D01*
X268675Y51000D01*
X271500D01*
Y53825D01*
D02*
G37*
G36*
X227325Y50000D02*
X224500D01*
Y47175D01*
X224878Y47224D01*
X225696Y47563D01*
X226398Y48102D01*
X226937Y48804D01*
X227276Y49622D01*
X227325Y50000D01*
D02*
G37*
G36*
X271500D02*
X268675D01*
X268724Y49622D01*
X269063Y48804D01*
X269602Y48102D01*
X270304Y47563D01*
X271122Y47224D01*
X271500Y47175D01*
Y50000D01*
D02*
G37*
G36*
X341500Y265966D02*
Y262843D01*
X344623D01*
X344563Y263297D01*
X344195Y264187D01*
X343609Y264951D01*
X342845Y265537D01*
X341955Y265906D01*
X341500Y265966D01*
D02*
G37*
G36*
X345657Y181315D02*
X336343D01*
Y172000D01*
X345657D01*
Y181315D01*
D02*
G37*
G36*
X213500Y279797D02*
X212259Y279633D01*
X211102Y279154D01*
X210108Y278392D01*
X209346Y277398D01*
X208867Y276241D01*
X208703Y275000D01*
X208867Y273759D01*
X209346Y272602D01*
X210108Y271608D01*
X211102Y270846D01*
X212259Y270367D01*
X213500Y270203D01*
X214741Y270367D01*
X215898Y270846D01*
X216892Y271608D01*
X217654Y272602D01*
X218133Y273759D01*
X218297Y275000D01*
X218133Y276241D01*
X217654Y277398D01*
X216892Y278392D01*
X215898Y279154D01*
X214741Y279633D01*
X213500Y279797D01*
D02*
G37*
G36*
X203000Y285000D02*
X200175D01*
X200224Y284622D01*
X200563Y283804D01*
X201102Y283102D01*
X201804Y282563D01*
X202622Y282224D01*
X203000Y282175D01*
Y285000D01*
D02*
G37*
G36*
X226500Y284000D02*
X223079D01*
X223149Y283468D01*
X223547Y282507D01*
X224181Y281681D01*
X225007Y281047D01*
X225968Y280649D01*
X226500Y280579D01*
Y284000D01*
D02*
G37*
G36*
X344623Y208157D02*
X341500D01*
Y205034D01*
X341955Y205094D01*
X342845Y205463D01*
X343609Y206049D01*
X344195Y206813D01*
X344563Y207703D01*
X344623Y208157D01*
D02*
G37*
G36*
Y261843D02*
X341500D01*
Y258719D01*
X341955Y258779D01*
X342845Y259148D01*
X343609Y259734D01*
X344195Y260498D01*
X344563Y261388D01*
X344623Y261843D01*
D02*
G37*
G36*
X313500Y222620D02*
Y218500D01*
Y214380D01*
X314083Y214457D01*
X315093Y214875D01*
X315544Y215222D01*
X329800D01*
X337520Y207502D01*
X337805Y206813D01*
X338391Y206049D01*
X339156Y205463D01*
X340045Y205094D01*
X340500Y205034D01*
Y208657D01*
X341000D01*
Y209157D01*
X344623D01*
X344563Y209612D01*
X344195Y210502D01*
X343609Y211266D01*
X342845Y211852D01*
X342156Y212138D01*
X333475Y220818D01*
X332796Y221339D01*
X332401Y221503D01*
X332006Y221666D01*
X331582Y221722D01*
X331157Y221778D01*
X315544D01*
X315093Y222125D01*
X314083Y222543D01*
X313500Y222620D01*
D02*
G37*
G36*
X344623Y195843D02*
X341500D01*
Y192719D01*
X341955Y192779D01*
X342845Y193148D01*
X343609Y193734D01*
X344195Y194498D01*
X344563Y195388D01*
X344623Y195843D01*
D02*
G37*
G36*
X341500Y199966D02*
Y196843D01*
X344623D01*
X344563Y197297D01*
X344195Y198187D01*
X343609Y198951D01*
X342845Y199537D01*
X341955Y199906D01*
X341500Y199966D01*
D02*
G37*
G36*
X185000Y151421D02*
Y148000D01*
X188421D01*
X188351Y148532D01*
X187953Y149493D01*
X187319Y150319D01*
X186493Y150953D01*
X185532Y151351D01*
X185000Y151421D01*
D02*
G37*
G36*
X361000Y123222D02*
X360520Y123159D01*
X359606Y122781D01*
X358821Y122179D01*
X358219Y121394D01*
X357841Y120481D01*
X357778Y120000D01*
X361000D01*
Y123222D01*
D02*
G37*
G36*
X362000D02*
Y120000D01*
X365223D01*
X365159Y120481D01*
X364781Y121394D01*
X364179Y122179D01*
X363394Y122781D01*
X362480Y123159D01*
X362000Y123222D01*
D02*
G37*
G36*
X365223Y119000D02*
X362000D01*
Y115778D01*
X362480Y115841D01*
X363394Y116219D01*
X364179Y116821D01*
X364781Y117606D01*
X365159Y118519D01*
X365223Y119000D01*
D02*
G37*
G36*
X206825Y285000D02*
X204000D01*
Y282175D01*
X204378Y282224D01*
X205196Y282563D01*
X205898Y283102D01*
X206437Y283804D01*
X206776Y284622D01*
X206825Y285000D01*
D02*
G37*
G36*
X361000Y119000D02*
X357778D01*
X357841Y118519D01*
X358219Y117606D01*
X358821Y116821D01*
X359606Y116219D01*
X360520Y115841D01*
X361000Y115778D01*
Y119000D01*
D02*
G37*
G36*
X362000Y133222D02*
Y130000D01*
X365223D01*
X365159Y130481D01*
X364781Y131394D01*
X364179Y132179D01*
X363394Y132781D01*
X362480Y133159D01*
X362000Y133222D01*
D02*
G37*
G36*
X361500Y143297D02*
X360259Y143133D01*
X359102Y142654D01*
X358108Y141892D01*
X357346Y140899D01*
X356867Y139742D01*
X356703Y138500D01*
X356867Y137259D01*
X357346Y136101D01*
X358108Y135108D01*
X359102Y134346D01*
X360259Y133867D01*
X361176Y133746D01*
Y133727D01*
X361318D01*
X361500Y133703D01*
X361682Y133727D01*
X361824D01*
Y133746D01*
X362741Y133867D01*
X363898Y134346D01*
X364892Y135108D01*
X365654Y136101D01*
X366133Y137259D01*
X366297Y138500D01*
X366133Y139742D01*
X365654Y140899D01*
X364892Y141892D01*
X363898Y142654D01*
X362741Y143133D01*
X361500Y143297D01*
D02*
G37*
G36*
X361000Y133222D02*
X360520Y133159D01*
X359606Y132781D01*
X358821Y132179D01*
X358219Y131394D01*
X357841Y130481D01*
X357778Y130000D01*
X361000D01*
Y133222D01*
D02*
G37*
G36*
Y129000D02*
X357778D01*
X357841Y128519D01*
X358219Y127606D01*
X358821Y126821D01*
X359606Y126219D01*
X360520Y125841D01*
X361000Y125777D01*
Y129000D01*
D02*
G37*
G36*
X365223D02*
X362000D01*
Y125777D01*
X362480Y125841D01*
X363394Y126219D01*
X364179Y126821D01*
X364781Y127606D01*
X365159Y128519D01*
X365223Y129000D01*
D02*
G37*
%LPD*%
D10*
X212854Y338900D02*
G03*
X207061Y336500I0J-8194D01*
G01*
X351361Y158061D02*
G03*
X357060Y155700I5699J5699D01*
G01*
X302061Y64661D02*
G03*
X304621Y63600I2561J2561D01*
G01*
D02*
G03*
X302061Y62539I0J-3621D01*
G01*
X258461Y143061D02*
G03*
X261021Y142000I2561J2561D01*
G01*
D02*
G03*
X258461Y140939I0J-3621D01*
G01*
X262139Y331739D02*
G03*
X259579Y332800I-2561J-2561D01*
G01*
D02*
G03*
X262139Y333861I0J3621D01*
G01*
X332377Y238377D02*
G03*
X333079Y241142I-1973J1973D01*
G01*
X330000Y236000D02*
G03*
X331162Y240574I-3263J3263D01*
G01*
X328190Y197290D02*
G03*
X325629Y198350I-2561J-2561D01*
G01*
D02*
G03*
X328190Y199411I0J3621D01*
G01*
X324100Y241500D02*
G03*
X323039Y244061I-3621J0D01*
G01*
D02*
G03*
X325600Y243000I2561J2561D01*
G01*
X279939Y179439D02*
G03*
X277379Y180500I-2561J-2561D01*
G01*
D02*
G03*
X279939Y181561I0J3621D01*
G01*
X286600Y221900D02*
G03*
X287661Y219339I3621J0D01*
G01*
D02*
G03*
X285100Y220400I-2561J-2561D01*
G01*
X335000Y61100D02*
G03*
X332439Y60039I0J-3621D01*
G01*
D02*
G03*
X333500Y62600I-2561J2561D01*
G01*
X342172Y243829D02*
G03*
X345002Y242657I2829J2829D01*
G01*
D02*
G03*
X342172Y241485I0J-4002D01*
G01*
X310500Y27362D02*
G03*
X312825Y28325I0J3289D01*
G01*
D02*
G03*
X311862Y26000I2325J-2325D01*
G01*
X309138D02*
G03*
X308175Y28325I-3289J0D01*
G01*
D02*
G03*
X310500Y27362I2325J2325D01*
G01*
X316463Y153037D02*
G03*
X315500Y150711I2325J-2325D01*
G01*
D02*
G03*
X314537Y153037I-3289J0D01*
G01*
X305500Y155362D02*
G03*
X307825Y156325I0J3289D01*
G01*
D02*
G03*
X306862Y154000I2325J-2325D01*
G01*
X204963Y190537D02*
G03*
X204000Y188211I2325J-2325D01*
G01*
D02*
G03*
X203037Y190537I-3289J0D01*
G01*
X216453Y157500D02*
G03*
X217834Y154166I4714J0D01*
G01*
X217834Y154166D02*
G03*
X214500Y155547I-3334J-3334D01*
G01*
X212547Y167500D02*
G03*
X211166Y170834I-4714J0D01*
G01*
X211166Y170834D02*
G03*
X214500Y169453I3334J3334D01*
G01*
X183119Y178881D02*
G03*
X184500Y182214I-3334J3334D01*
G01*
D02*
G03*
X185881Y178881I4714J0D01*
G01*
X380537Y108037D02*
G03*
X378211Y109000I-2325J-2325D01*
G01*
D02*
G03*
X380537Y109963I0J3289D01*
G01*
X339828Y227171D02*
G03*
X336999Y228343I-2829J-2829D01*
G01*
D02*
G03*
X339828Y229515I0J4002D01*
G01*
X336150Y280000D02*
G03*
X337670Y276330I5190J0D01*
G01*
X337670Y276330D02*
G03*
X334000Y277850I-3670J-3670D01*
G01*
X414000Y217547D02*
G03*
X410666Y216166I0J-4714D01*
G01*
X410666Y216166D02*
G03*
X412047Y219500I-3334J3334D01*
G01*
X415662Y210526D02*
G03*
X417500Y209500I1838J1134D01*
G01*
D02*
G03*
X415662Y208474I0J-2160D01*
G01*
X320963Y51463D02*
G03*
X323289Y50500I2325J2325D01*
G01*
D02*
G03*
X320963Y49537I0J-3289D01*
G01*
X260638Y50500D02*
G03*
X259675Y52825I-3289J0D01*
G01*
D02*
G03*
X262000Y51862I2325J2325D01*
G01*
X293881Y255881D02*
G03*
X297214Y254500I3334J3334D01*
G01*
D02*
G03*
X293881Y253119I0J-4714D01*
G01*
X290547Y214500D02*
G03*
X289166Y217834I-4714J0D01*
G01*
X289166Y217834D02*
G03*
X292500Y216453I3334J3334D01*
G01*
X294453Y204500D02*
G03*
X295834Y201166I4714J0D01*
G01*
X295834Y201167D02*
G03*
X292500Y202547I-3334J-3334D01*
G01*
X294453Y194500D02*
G03*
X295834Y191166I4714J0D01*
G01*
X295834Y191166D02*
G03*
X292500Y192547I-3334J-3334D01*
G01*
X286578Y142000D02*
G03*
X292533Y144467I0J8422D01*
G01*
X281750Y142000D02*
G03*
X291119Y145881I0J13250D01*
G01*
X244881Y325881D02*
G03*
X248214Y324500I3334J3334D01*
G01*
D02*
G03*
X244881Y323119I0J-4714D01*
G01*
X245453Y194500D02*
G03*
X246834Y191166I4714J0D01*
G01*
X246834Y191166D02*
G03*
X243500Y192547I-3334J-3334D01*
G01*
X241547Y164500D02*
G03*
X240166Y167834I-4714J0D01*
G01*
X240166Y167833D02*
G03*
X243500Y166453I3334J3334D01*
G01*
X241547Y144500D02*
G03*
X240166Y147834I-4714J0D01*
G01*
X240166Y147834D02*
G03*
X243500Y146453I3334J3334D01*
G01*
X390119Y57381D02*
G03*
X391500Y60714I-3334J3334D01*
G01*
D02*
G03*
X392881Y57381I4714J0D01*
G01*
X363244Y262000D02*
G03*
X362002Y264998I-4239J0D01*
G01*
D02*
G03*
X365000Y263756I2998J2998D01*
G01*
X227000Y316453D02*
G03*
X230334Y317834I0J4714D01*
G01*
X230334Y317834D02*
G03*
X228953Y314500I3334J-3334D01*
G01*
Y204500D02*
G03*
X230334Y201166I4714J0D01*
G01*
X230334Y201167D02*
G03*
X227000Y202547I-3334J-3334D01*
G01*
X403381Y313119D02*
G03*
X402000Y309786I3334J-3334D01*
G01*
D02*
G03*
X400619Y313119I-4714J0D01*
G01*
X326463Y250463D02*
G03*
X328789Y249500I2325J2325D01*
G01*
D02*
G03*
X326463Y248537I0J-3289D01*
G01*
X213500Y310138D02*
G03*
X211175Y309175I0J-3289D01*
G01*
D02*
G03*
X212138Y311500I-2325J2325D01*
G01*
X402000Y253362D02*
G03*
X404325Y254325I0J3289D01*
G01*
D02*
G03*
X403362Y252000I2325J-2325D01*
G01*
X345119Y34619D02*
G03*
X341786Y36000I-3334J-3334D01*
G01*
D02*
G03*
X345119Y37381I0J4714D01*
G01*
X377500Y312547D02*
G03*
X374166Y311166I0J-4714D01*
G01*
X374166Y311166D02*
G03*
X375547Y314500I-3334J3334D01*
G01*
X366474Y326162D02*
G03*
X367500Y328000I-1134J1838D01*
G01*
D02*
G03*
X368526Y326162I2160J0D01*
G01*
X368080Y328580D02*
G03*
X367458Y324478I2473J-2473D01*
G01*
X370000Y330500D02*
G03*
X369228Y325409I3069J-3069D01*
G01*
X347500Y312547D02*
G03*
X344166Y311166I0J-4714D01*
G01*
X344166Y311166D02*
G03*
X345547Y314500I-3334J3334D01*
G01*
X209359Y172641D02*
X214500Y167500D01*
X204000Y178000D02*
X209359Y172641D01*
X414000Y209500D02*
X417500D01*
X420000Y212000D01*
Y225500D01*
X409100D02*
X420000D01*
X396800Y237800D02*
X409100Y225500D01*
X351300Y237800D02*
X396800D01*
X348500Y235000D02*
X351300Y237800D01*
X348500Y230000D02*
Y235000D01*
Y230000D02*
X357000Y221500D01*
X367000D01*
X315500Y146000D02*
Y154000D01*
X300000Y130500D02*
X315500Y146000D01*
X231500Y130500D02*
X300000D01*
X214500Y147500D02*
X231500Y130500D01*
X376700Y159700D02*
X391500Y174500D01*
X358396Y159700D02*
X376700D01*
X352596Y165500D02*
X358396Y159700D01*
X335500Y165500D02*
X352596D01*
X330000Y57600D02*
X335000Y62600D01*
X279500Y57600D02*
X330000D01*
X272700Y64400D02*
X279500Y57600D01*
X188100Y64400D02*
X272700D01*
X172500Y80000D02*
X188100Y64400D01*
X172500Y80000D02*
Y220000D01*
X227000Y274500D01*
Y204500D02*
X233200Y198300D01*
Y154800D02*
Y198300D01*
Y154800D02*
X243500Y144500D01*
X285100Y221900D02*
X292500Y214500D01*
X243500Y194500D02*
X257500Y180500D01*
X281000D01*
X354700Y54200D02*
X366500Y66000D01*
X279600Y251600D02*
X292500Y264500D01*
X279600Y205100D02*
Y251600D01*
Y205100D02*
X286500Y198200D01*
Y177500D02*
Y198200D01*
X283900Y174900D02*
X286500Y177500D01*
X281235Y174900D02*
X283900D01*
X251335Y145000D02*
X281235Y174900D01*
X251335Y139735D02*
Y145000D01*
X250100Y138500D02*
X251335Y139735D01*
X240000Y138500D02*
X250100D01*
X221000Y157500D02*
X240000Y138500D01*
X221000Y157500D02*
Y183700D01*
X205800Y198900D02*
X221000Y183700D01*
X192200Y198900D02*
X205800D01*
X184500Y191200D02*
X192200Y198900D01*
X184500Y177500D02*
Y191200D01*
X312600Y254500D02*
X325600Y241500D01*
X292500Y254500D02*
X312600D01*
X315000Y280000D02*
X325150Y269850D01*
X348150D01*
X356000Y262000D01*
X367657Y109000D02*
X381500D01*
X360500Y101843D02*
X367657Y109000D01*
X243500Y314500D02*
X270547D01*
X286500Y330453D01*
X298453D01*
Y314204D02*
Y330453D01*
Y314204D02*
X308957Y303700D01*
X366700D01*
X377500Y314500D01*
X207000Y305000D02*
X213500Y311500D01*
X195900Y305000D02*
X207000D01*
X298500Y158500D02*
X305500Y165500D01*
X298500Y138500D02*
Y158500D01*
X294500Y134500D02*
X298500Y138500D01*
X237500Y134500D02*
X294500D01*
X214500Y157500D02*
X237500Y134500D01*
X298650Y198350D02*
X329250D01*
X292500Y204500D02*
X298650Y198350D01*
X332600Y238600D02*
Y241000D01*
X330000Y236000D02*
X332600Y238600D01*
X310000Y236000D02*
X330000D01*
X306850Y232850D02*
X310000Y236000D01*
X306850Y202350D02*
Y232850D01*
Y202350D02*
X319150D01*
X323099Y206300D01*
X332500D01*
X335342Y203458D01*
Y193342D02*
Y203458D01*
X332500Y190500D02*
X335342Y193342D01*
X296500Y190500D02*
X332500D01*
X292500Y194500D02*
X296500Y190500D01*
X237500Y170500D02*
X243500Y164500D01*
X237500Y170500D02*
Y214000D01*
X227000Y224500D02*
X237500Y214000D01*
X320000Y50500D02*
X331000D01*
X346500Y66000D01*
X256100Y56400D02*
X262000Y50500D01*
X170000Y56400D02*
X256100D01*
X156500Y69900D02*
X170000Y56400D01*
X156500Y69900D02*
Y263500D01*
X183900Y290900D01*
X215200D01*
X219300Y295000D01*
Y296800D01*
X227000Y304500D01*
Y294500D02*
X237500Y305000D01*
Y330300D01*
X240000Y332800D01*
X263200D01*
X257400Y142000D02*
X290000D01*
X292500Y144500D01*
X243500Y214500D02*
X265800Y192200D01*
X281000D01*
X301000Y63600D02*
X321703D01*
X330056Y71953D01*
X350547D01*
X356500Y66000D01*
X350300Y157000D02*
X351600Y155700D01*
X391600D01*
X397300Y150000D01*
Y105000D02*
Y150000D01*
X388500Y96200D02*
X397300Y105000D01*
X364900Y96200D02*
X388500D01*
X344653Y75953D02*
X364900Y96200D01*
X326056Y75953D02*
X344653D01*
X320003Y69900D02*
X326056Y75953D01*
X193000Y69900D02*
X320003D01*
X199000Y79000D02*
X207116Y87116D01*
X345774D01*
X360500Y101843D01*
X361500Y183500D02*
X380200Y202200D01*
X400200D01*
X408000Y210000D01*
Y213500D01*
X414000Y219500D01*
X178547Y151547D02*
X184500Y157500D01*
X178547Y114000D02*
Y151547D01*
Y114000D02*
X189500Y103047D01*
X292347D01*
X340556Y151256D01*
X378744D01*
X391500Y138500D01*
X292500Y314500D02*
X307300Y299700D01*
X373200D01*
X383500Y310000D01*
Y330500D01*
X370000D02*
X383500D01*
X367500Y328000D02*
X370000Y330500D01*
X367500Y324500D02*
Y328000D01*
X340700Y307700D02*
X347500Y314500D01*
X314600Y307700D02*
X340700D01*
X308662Y313638D02*
X314600Y307700D01*
X308662Y313638D02*
Y328244D01*
X302453Y334453D02*
X308662Y328244D01*
X277953Y334453D02*
X302453D01*
X268000Y324500D02*
X277953Y334453D01*
X243500Y324500D02*
X268000D01*
X227000Y314500D02*
X231000Y318500D01*
X233000D01*
Y328663D01*
X229602Y332061D02*
X233000Y328663D01*
X201939Y332061D02*
X229602D01*
X199000Y335000D02*
X201939Y332061D01*
X199000Y335000D02*
Y341561D01*
X212739Y355300D01*
X392700D01*
X408000Y340000D01*
Y258000D02*
Y340000D01*
X402000Y252000D02*
X408000Y258000D01*
X313100Y338900D02*
X327500Y324500D01*
X207339Y338900D02*
X313100D01*
X206000Y337561D02*
X207339Y338900D01*
X341000Y242657D02*
X384957D01*
X402000Y259700D01*
Y314500D01*
X317000Y165500D02*
X335500D01*
X305500Y154000D02*
X317000Y165500D01*
X391200Y215700D02*
X397000Y221500D01*
X353643Y215700D02*
X391200D01*
X341000Y228343D02*
X353643Y215700D01*
X204000Y178000D02*
Y191500D01*
X184500Y167500D02*
X189359D01*
X194500Y172641D01*
X209359D01*
X209600Y157500D02*
X214500D01*
X200800Y166300D02*
X209600Y157500D01*
X325500Y249500D02*
X334157D01*
X341000Y242657D01*
X334000Y280000D02*
X340150Y273850D01*
X353150D01*
X365000Y262000D01*
X353000Y280000D02*
X365200Y267800D01*
X367700D01*
X373500Y262000D01*
X391500Y56000D02*
Y70657D01*
X380000Y82157D02*
X391500Y70657D01*
X360500Y82157D02*
X380000D01*
X298200Y38300D02*
X310500Y26000D01*
X216200Y38300D02*
X298200D01*
X204000Y50500D02*
X216200Y38300D01*
X320500Y36000D02*
X346500D01*
X310500Y26000D02*
X320500Y36000D01*
X349700Y42800D02*
X356500Y36000D01*
X259700Y42800D02*
X349700D01*
X252000Y50500D02*
X259700Y42800D01*
X327057Y228343D02*
X341000D01*
X326900Y228500D02*
X327057Y228343D01*
X313000Y228500D02*
X326900D01*
D11*
X259704Y80204D02*
G03*
X262611Y79000I2907J2907D01*
G01*
D02*
G03*
X259704Y77796I0J-4111D01*
G01*
X269704Y80204D02*
G03*
X272611Y79000I2907J2907D01*
G01*
D02*
G03*
X269704Y77796I0J-4111D01*
G01*
X267296D02*
G03*
X264389Y79000I-2907J-2907D01*
G01*
D02*
G03*
X267296Y80204I0J4111D01*
G01*
X279704D02*
G03*
X282611Y79000I2907J2907D01*
G01*
D02*
G03*
X279704Y77796I0J-4111D01*
G01*
X277296D02*
G03*
X274389Y79000I-2907J-2907D01*
G01*
D02*
G03*
X277296Y80204I0J4111D01*
G01*
X287296Y77796D02*
G03*
X284389Y79000I-2907J-2907D01*
G01*
D02*
G03*
X287296Y80204I0J4111D01*
G01*
X397000Y209506D02*
G03*
X399571Y210571I0J3636D01*
G01*
D02*
G03*
X398506Y208000I2571J-2571D01*
G01*
X340005Y261347D02*
G03*
X337602Y262343I-2403J-2403D01*
G01*
D02*
G03*
X340005Y263338I0J3398D01*
G01*
X301612Y26000D02*
G03*
X302399Y24101I2685J0D01*
G01*
X302399Y24101D02*
G03*
X300500Y24888I-1899J-1899D01*
G01*
X185704Y146296D02*
G03*
X184500Y143389I2907J-2907D01*
G01*
D02*
G03*
X183296Y146296I-4111J0D01*
G01*
X339593Y208657D02*
G03*
X338597Y211060I-3398J0D01*
G01*
D02*
G03*
X341000Y210065I2403J2403D01*
G01*
X270888Y26000D02*
G03*
X270101Y27899I-2685J0D01*
G01*
X270101Y27899D02*
G03*
X272000Y27112I1899J1899D01*
G01*
X224000D02*
G03*
X225899Y27899I0J2685D01*
G01*
X225899Y27899D02*
G03*
X225112Y26000I1899J-1899D01*
G01*
X314343Y219843D02*
G03*
X317586Y218500I3243J3243D01*
G01*
D02*
G03*
X314343Y217157I0J-4586D01*
G01*
X299214Y49714D02*
G03*
X297315Y50500I-1899J-1899D01*
G01*
D02*
G03*
X299214Y51286I0J2685D01*
G01*
X272786D02*
G03*
X274685Y50500I1899J1899D01*
G01*
D02*
G03*
X272786Y49714I0J-2685D01*
G01*
X242296Y293296D02*
G03*
X239389Y294500I-2907J-2907D01*
G01*
D02*
G03*
X242296Y295704I0J4111D01*
G01*
X390296Y44796D02*
G03*
X387389Y46000I-2907J-2907D01*
G01*
D02*
G03*
X390296Y47204I0J4111D01*
G01*
X197297Y109000D02*
G03*
X196093Y111907I-4111J0D01*
G01*
X196093Y111907D02*
G03*
X199000Y110703I2907J2907D01*
G01*
D02*
G03*
X201907Y111907I0J4111D01*
G01*
X201907Y111907D02*
G03*
X200703Y109000I2907J-2907D01*
G01*
X217297D02*
G03*
X216093Y111907I-4111J0D01*
G01*
X216093Y111907D02*
G03*
X219000Y110703I2907J2907D01*
G01*
X357065Y233065D02*
G03*
X359636Y232000I2571J2571D01*
G01*
D02*
G03*
X357065Y230935I0J-3636D01*
G01*
X363935D02*
G03*
X361364Y232000I-2571J-2571D01*
G01*
D02*
G03*
X363935Y233065I0J3636D01*
G01*
X366065D02*
G03*
X368636Y232000I2571J2571D01*
G01*
D02*
G03*
X366065Y230935I0J-3636D01*
G01*
X372435D02*
G03*
X369864Y232000I-2571J-2571D01*
G01*
D02*
G03*
X372435Y233065I0J3636D01*
G01*
X374565D02*
G03*
X377136Y232000I2571J2571D01*
G01*
D02*
G03*
X374565Y230935I0J-3636D01*
G01*
X383065Y233065D02*
G03*
X385636Y232000I2571J2571D01*
G01*
D02*
G03*
X383065Y230935I0J-3636D01*
G01*
X380935D02*
G03*
X378364Y232000I-2571J-2571D01*
G01*
D02*
G03*
X380935Y233065I0J3636D01*
G01*
X392065D02*
G03*
X394636Y232000I2571J2571D01*
G01*
D02*
G03*
X392065Y230935I0J-3636D01*
G01*
X389935D02*
G03*
X387364Y232000I-2571J-2571D01*
G01*
D02*
G03*
X389935Y233065I0J3636D01*
G01*
X227000Y322797D02*
G03*
X224093Y321593I0J-4111D01*
G01*
X224093Y321593D02*
G03*
X225297Y324500I-2907J2907D01*
G01*
X227000Y286203D02*
G03*
X229907Y287407I0J4111D01*
G01*
X229907Y287407D02*
G03*
X228703Y284500I2907J-2907D01*
G01*
X400297Y324500D02*
G03*
X399093Y327407I-4111J0D01*
G01*
X399093Y327407D02*
G03*
X402000Y326203I2907J2907D01*
G01*
X400177Y322000D02*
G03*
X402795Y324446I0J2625D01*
G01*
X397500Y322000D02*
G03*
X400301Y324616I0J2808D01*
G01*
X324714Y258714D02*
G03*
X322815Y259500I-1899J-1899D01*
G01*
D02*
G03*
X324714Y260286I0J2685D01*
G01*
X325500Y260612D02*
G03*
X327399Y261399I0J2685D01*
G01*
X327399Y261399D02*
G03*
X326612Y259500I1899J-1899D01*
G01*
X366500Y34297D02*
G03*
X363593Y33093I0J-4111D01*
G01*
X363593Y33093D02*
G03*
X364797Y36000I-2907J2907D01*
G01*
X366500Y37703D02*
G03*
X369407Y38907I0J4111D01*
G01*
X369407Y38907D02*
G03*
X368203Y36000I2907J-2907D01*
G01*
X204612Y324500D02*
G03*
X205399Y322601I2685J0D01*
G01*
X205399Y322601D02*
G03*
X203500Y323388I-1899J-1899D01*
G01*
X337500Y326203D02*
G03*
X340407Y327407I0J4111D01*
G01*
X340407Y327407D02*
G03*
X339203Y324500I2907J-2907D01*
G01*
X203500D02*
X209600Y318400D01*
X220900D01*
X227000Y324500D01*
X237000Y294500D02*
X243500D01*
X227000Y284500D02*
X237000Y294500D01*
X328343Y262343D02*
X341000D01*
X325500Y259500D02*
X328343Y262343D01*
X397000Y208000D02*
X403100Y214100D01*
Y225400D01*
X396500Y232000D02*
X403100Y225400D01*
X391000Y232000D02*
X396500D01*
X316300Y259500D02*
X325500D01*
X298600Y277200D02*
X316300Y259500D01*
X298600Y277200D02*
Y282100D01*
X298800Y282300D01*
Y285000D01*
X301300Y287500D01*
X383000D01*
X394000Y298500D01*
Y318500D01*
X397500Y322000D01*
X399500D01*
X402000Y324500D01*
X184500Y123500D02*
X199000Y109000D01*
X184500Y123500D02*
Y147500D01*
X265900Y32100D02*
X272000Y26000D01*
X230100Y32100D02*
X265900D01*
X224000Y26000D02*
X230100Y32100D01*
X313000Y218500D02*
X331157D01*
X341000Y208657D01*
X376500Y46000D02*
X391500D01*
X366500Y36000D02*
X376500Y46000D01*
X300500Y26000D02*
X309500Y17000D01*
X347500D01*
X366500Y36000D01*
X379900Y346600D02*
X402000Y324500D01*
X359600Y346600D02*
X379900D01*
X337500Y324500D02*
X359600Y346600D01*
X212700Y115300D02*
X219000Y109000D01*
X205300Y115300D02*
X212700D01*
X199000Y109000D02*
X205300Y115300D01*
X382000Y232000D02*
X391000D01*
X373500D02*
X382000D01*
X356000D02*
X365000D01*
X373500D01*
X272000Y50500D02*
X300000D01*
X278500Y79000D02*
X288500D01*
X268500D02*
X278500D01*
X258500D02*
X268500D01*
D13*
X151000Y11000D02*
D03*
X444000D02*
D03*
Y356500D02*
D03*
X151000D02*
D03*
D14*
X317500Y314500D02*
D03*
Y324500D02*
D03*
X327500Y314500D02*
D03*
Y324500D02*
D03*
X337500Y314500D02*
D03*
Y324500D02*
D03*
X347500Y314500D02*
D03*
Y324500D02*
D03*
X357500Y314500D02*
D03*
Y324500D02*
D03*
X367500Y314500D02*
D03*
Y324500D02*
D03*
X377500Y314500D02*
D03*
X402000Y324500D02*
D03*
X227000Y174500D02*
D03*
Y184500D02*
D03*
Y194500D02*
D03*
Y204500D02*
D03*
Y214500D02*
D03*
Y224500D02*
D03*
Y234500D02*
D03*
Y244500D02*
D03*
Y254500D02*
D03*
Y264500D02*
D03*
Y274500D02*
D03*
Y284500D02*
D03*
Y294500D02*
D03*
Y304500D02*
D03*
Y314500D02*
D03*
X219000Y109000D02*
D03*
X209000D02*
D03*
X199000D02*
D03*
X229000Y79000D02*
D03*
X219000D02*
D03*
X209000D02*
D03*
X199000D02*
D03*
X391500Y46000D02*
D03*
X243500Y144500D02*
D03*
Y154500D02*
D03*
Y164500D02*
D03*
Y174500D02*
D03*
Y184500D02*
D03*
Y194500D02*
D03*
Y204500D02*
D03*
Y214500D02*
D03*
Y224500D02*
D03*
Y234500D02*
D03*
Y244500D02*
D03*
Y254500D02*
D03*
Y264500D02*
D03*
Y274500D02*
D03*
Y284500D02*
D03*
Y294500D02*
D03*
Y304500D02*
D03*
Y314500D02*
D03*
X292500Y144500D02*
D03*
Y154500D02*
D03*
Y164500D02*
D03*
Y174500D02*
D03*
Y184500D02*
D03*
Y194500D02*
D03*
Y204500D02*
D03*
Y214500D02*
D03*
Y224500D02*
D03*
Y234500D02*
D03*
Y244500D02*
D03*
Y254500D02*
D03*
Y264500D02*
D03*
Y274500D02*
D03*
Y284500D02*
D03*
Y294500D02*
D03*
Y304500D02*
D03*
Y314500D02*
D03*
X414000Y209500D02*
D03*
D15*
X377500Y324500D02*
D03*
D16*
X213500D02*
D03*
X203500D02*
D03*
X402000Y252000D02*
D03*
Y242000D02*
D03*
X213500Y285500D02*
D03*
X203500D02*
D03*
X213500Y311500D02*
D03*
X203500D02*
D03*
Y298500D02*
D03*
X213500D02*
D03*
X325500Y259500D02*
D03*
Y249500D02*
D03*
X272000Y50500D02*
D03*
X262000D02*
D03*
X320000D02*
D03*
X310000D02*
D03*
X224000Y26000D02*
D03*
X214000D02*
D03*
X272000D02*
D03*
X262000D02*
D03*
X381500Y109000D02*
D03*
X391500D02*
D03*
X204000Y191500D02*
D03*
X194000D02*
D03*
X305500Y154000D02*
D03*
X315500D02*
D03*
X300500Y26000D02*
D03*
X310500D02*
D03*
X224000Y50500D02*
D03*
X214000D02*
D03*
D17*
X376500Y66000D02*
D03*
X258500Y79000D02*
D03*
X288500Y123000D02*
D03*
D18*
X366500Y66000D02*
D03*
X356500D02*
D03*
X346500D02*
D03*
X376500Y36000D02*
D03*
X366500D02*
D03*
X356500D02*
D03*
X346500D02*
D03*
X184500Y167500D02*
D03*
Y157500D02*
D03*
Y147500D02*
D03*
X214500Y177500D02*
D03*
Y167500D02*
D03*
Y157500D02*
D03*
Y147500D02*
D03*
X288500Y109000D02*
D03*
X278500D02*
D03*
X268500D02*
D03*
X258500D02*
D03*
X288500Y79000D02*
D03*
X278500D02*
D03*
X268500D02*
D03*
X278500Y123000D02*
D03*
X268500D02*
D03*
X258500D02*
D03*
X248500D02*
D03*
X238500D02*
D03*
X228500D02*
D03*
X218500D02*
D03*
X198500D02*
D03*
X208500D02*
D03*
D19*
X402000Y314500D02*
D03*
X227000Y324500D02*
D03*
X229000Y109000D02*
D03*
X391500Y56000D02*
D03*
X243500Y324500D02*
D03*
X292500D02*
D03*
X414000Y219500D02*
D03*
D20*
X391000Y262000D02*
D03*
Y232000D02*
D03*
X382000Y262000D02*
D03*
Y232000D02*
D03*
X373500Y262000D02*
D03*
Y232000D02*
D03*
X365000Y262000D02*
D03*
Y232000D02*
D03*
X356000Y262000D02*
D03*
Y232000D02*
D03*
X391500Y119500D02*
D03*
X361500D02*
D03*
X213500Y245000D02*
D03*
Y275000D02*
D03*
X361500Y129500D02*
D03*
X391500D02*
D03*
X361500Y138500D02*
D03*
X391500D02*
D03*
X335500Y165500D02*
D03*
X305500D02*
D03*
X361500Y183500D02*
D03*
X391500D02*
D03*
Y174500D02*
D03*
X361500D02*
D03*
X391500Y165500D02*
D03*
X361500D02*
D03*
X391500Y192500D02*
D03*
X361500D02*
D03*
X397000Y221500D02*
D03*
X367000D02*
D03*
X397000Y208000D02*
D03*
X367000D02*
D03*
D21*
X391000Y280000D02*
D03*
X381000D02*
D03*
X372000D02*
D03*
X362000D02*
D03*
X353000D02*
D03*
X343000D02*
D03*
X315000D02*
D03*
X305000D02*
D03*
X334000D02*
D03*
X324000D02*
D03*
D22*
X252000Y50500D02*
D03*
X300000D02*
D03*
X204000D02*
D03*
D23*
X313000Y228500D02*
D03*
Y218500D02*
D03*
D24*
Y208500D02*
D03*
D25*
X341000Y176657D02*
D03*
Y228343D02*
D03*
X360500Y101843D02*
D03*
X341000Y242657D02*
D03*
D26*
Y196343D02*
D03*
Y208657D02*
D03*
X360500Y82157D02*
D03*
X341000Y262343D02*
D03*
D27*
X184500Y177500D02*
D03*
D28*
X335000Y62600D02*
D03*
X285100Y221900D02*
D03*
X281000Y180500D02*
D03*
X354700Y54200D02*
D03*
X325600Y241500D02*
D03*
X195900Y305000D02*
D03*
X329250Y198350D02*
D03*
X332600Y241000D02*
D03*
X263200Y332800D02*
D03*
X257400Y142000D02*
D03*
X281000Y192200D02*
D03*
X301000Y63600D02*
D03*
X350300Y157000D02*
D03*
X193000Y69900D02*
D03*
X206000Y337561D02*
D03*
X200800Y166300D02*
D03*
M02*
