%FSLAX25Y25*%
%MOIN*%
G70*
G01*
G75*
G04 Layer_Physical_Order=1*
G04 Layer_Color=255*
%ADD10C,0.02000*%
%ADD11C,0.02500*%
%ADD12C,0.01000*%
%ADD13C,0.05906*%
%ADD14R,0.05906X0.05906*%
%ADD15C,0.04724*%
%ADD16R,0.05906X0.05906*%
%ADD17C,0.05906*%
%ADD18R,0.05906X0.05906*%
%ADD19C,0.05512*%
%ADD20C,0.06299*%
%ADD21R,0.04724X0.04724*%
%ADD22C,0.06299*%
%ADD23R,0.06299X0.06299*%
%ADD24R,0.05315X0.05315*%
%ADD25C,0.05315*%
%ADD26R,0.04724X0.04724*%
%ADD27R,0.05906X0.05906*%
G04:AMPARAMS|DCode=28|XSize=160mil|YSize=160mil|CornerRadius=40mil|HoleSize=0mil|Usage=FLASHONLY|Rotation=0.000|XOffset=0mil|YOffset=0mil|HoleType=Round|Shape=RoundedRectangle|*
%AMROUNDEDRECTD28*
21,1,0.16000,0.08000,0,0,0.0*
21,1,0.08000,0.16000,0,0,0.0*
1,1,0.08000,0.04000,-0.04000*
1,1,0.08000,-0.04000,-0.04000*
1,1,0.08000,-0.04000,0.04000*
1,1,0.08000,0.04000,0.04000*
%
%ADD28ROUNDEDRECTD28*%
%ADD29C,0.05000*%
G36*
X494797Y285001D02*
X494662Y284559D01*
X494509Y283000D01*
X494662Y281441D01*
X495117Y279942D01*
X495856Y278560D01*
X496315Y278000D01*
X495856Y277440D01*
X495117Y276058D01*
X494662Y274559D01*
X494509Y273000D01*
X494662Y271441D01*
X495117Y269942D01*
X495856Y268560D01*
X496315Y268000D01*
X495856Y267440D01*
X495117Y266058D01*
X494662Y264559D01*
X494509Y263000D01*
X494662Y261441D01*
X495117Y259942D01*
X495856Y258560D01*
X496315Y258000D01*
X495856Y257440D01*
X495117Y256058D01*
X494662Y254559D01*
X494509Y253000D01*
X494662Y251441D01*
X495117Y249942D01*
X495856Y248560D01*
X496315Y248000D01*
X495856Y247440D01*
X495117Y246058D01*
X494662Y244559D01*
X494509Y243000D01*
X494662Y241441D01*
X495117Y239942D01*
X495856Y238560D01*
X496315Y238000D01*
X495856Y237440D01*
X495117Y236058D01*
X494662Y234559D01*
X494509Y233000D01*
X494662Y231441D01*
X495117Y229942D01*
X495856Y228560D01*
X496315Y228000D01*
X495856Y227440D01*
X495117Y226058D01*
X494662Y224559D01*
X494509Y223000D01*
X494662Y221441D01*
X495117Y219942D01*
X495856Y218560D01*
X496849Y217349D01*
X498060Y216355D01*
X499442Y215617D01*
X500941Y215162D01*
X502500Y215009D01*
X504059Y215162D01*
X505558Y215617D01*
X506940Y216355D01*
X508151Y217349D01*
X509144Y218560D01*
X509563Y219343D01*
X510057Y219416D01*
X527057Y202417D01*
X526799Y201988D01*
X525470Y202392D01*
X524000Y202536D01*
X522530Y202392D01*
X521116Y201963D01*
X519813Y201266D01*
X519524Y201029D01*
X505497D01*
X492029Y214497D01*
Y222024D01*
X492266Y222313D01*
X492963Y223616D01*
X493392Y225030D01*
X493536Y226500D01*
X493392Y227970D01*
X492963Y229384D01*
X492266Y230687D01*
X491329Y231829D01*
X490187Y232766D01*
X488884Y233463D01*
X487470Y233892D01*
X487029Y233935D01*
Y240524D01*
X487266Y240813D01*
X487963Y242116D01*
X488391Y243530D01*
X488536Y245000D01*
X488391Y246470D01*
X487963Y247884D01*
X487266Y249187D01*
X486329Y250329D01*
X485187Y251266D01*
X483884Y251963D01*
X483276Y252147D01*
X483392Y252530D01*
X483536Y254000D01*
X483392Y255470D01*
X482963Y256884D01*
X482266Y258187D01*
X481329Y259329D01*
X480187Y260266D01*
X478884Y260963D01*
X477470Y261391D01*
X476029Y261533D01*
Y264524D01*
X476266Y264813D01*
X476963Y266116D01*
X477391Y267530D01*
X477536Y269000D01*
X477391Y270470D01*
X476963Y271884D01*
X476266Y273187D01*
X475329Y274329D01*
X474807Y274757D01*
X474783Y275256D01*
X477497Y277971D01*
X478524D01*
X478813Y277734D01*
X480116Y277037D01*
X481530Y276608D01*
X483000Y276464D01*
X484470Y276608D01*
X485884Y277037D01*
X487187Y277734D01*
X488329Y278671D01*
X489266Y279813D01*
X489963Y281116D01*
X490391Y282530D01*
X490536Y284000D01*
X490524Y284122D01*
X490878Y284476D01*
X491000Y284464D01*
X492470Y284609D01*
X493884Y285037D01*
X494410Y285318D01*
X494797Y285001D01*
D02*
G37*
G36*
X181572Y329902D02*
X181608Y329530D01*
X182037Y328116D01*
X182734Y326813D01*
X183671Y325671D01*
X184813Y324734D01*
X186116Y324037D01*
X187530Y323608D01*
X189000Y323464D01*
X190470Y323608D01*
X190909Y323742D01*
X191262Y323388D01*
X191162Y323059D01*
X191009Y321500D01*
X191162Y319941D01*
X191617Y318442D01*
X192356Y317060D01*
X192815Y316500D01*
X192356Y315940D01*
X191617Y314558D01*
X191162Y313059D01*
X191023Y311648D01*
X187450D01*
Y293650D01*
X189470D01*
X189662Y293188D01*
X184737Y288263D01*
X183987Y287350D01*
X183430Y286307D01*
X183087Y285176D01*
X182971Y284000D01*
X182971Y284000D01*
X182971D01*
X182971Y284000D01*
X182971D01*
Y196000D01*
X183087Y194824D01*
X183430Y193693D01*
X183987Y192650D01*
X184737Y191737D01*
X232572Y143902D01*
X232609Y143530D01*
X233037Y142116D01*
X233734Y140813D01*
X234671Y139671D01*
X235813Y138734D01*
X237116Y138037D01*
X238530Y137609D01*
X240000Y137464D01*
X241470Y137609D01*
X242884Y138037D01*
X244187Y138734D01*
X245329Y139671D01*
X246266Y140813D01*
X246963Y142116D01*
X247392Y143530D01*
X247536Y145000D01*
X247392Y146470D01*
X246963Y147884D01*
X246266Y149187D01*
X245329Y150329D01*
X244187Y151266D01*
X242884Y151963D01*
X241470Y152392D01*
X241098Y152428D01*
X195029Y198497D01*
Y204370D01*
X195442Y204617D01*
X196941Y204162D01*
X198500Y204009D01*
X200059Y204162D01*
X201558Y204617D01*
X202940Y205356D01*
X203500Y205815D01*
X204060Y205356D01*
X205442Y204617D01*
X206941Y204162D01*
X208500Y204009D01*
X210059Y204162D01*
X211558Y204617D01*
X212940Y205356D01*
X213500Y205815D01*
X214060Y205356D01*
X215442Y204617D01*
X216941Y204162D01*
X218500Y204009D01*
X220059Y204162D01*
X221558Y204617D01*
X222940Y205356D01*
X223500Y205815D01*
X224060Y205356D01*
X225442Y204617D01*
X226941Y204162D01*
X228500Y204009D01*
X230059Y204162D01*
X231558Y204617D01*
X232940Y205356D01*
X233500Y205815D01*
X234060Y205356D01*
X235442Y204617D01*
X236941Y204162D01*
X238500Y204009D01*
X240059Y204162D01*
X241558Y204617D01*
X242940Y205356D01*
X243500Y205815D01*
X244060Y205356D01*
X245442Y204617D01*
X246941Y204162D01*
X246971Y204159D01*
Y181000D01*
X247087Y179824D01*
X247430Y178693D01*
X247987Y177650D01*
X248737Y176737D01*
X294737Y130737D01*
Y130737D01*
X294737Y130737D01*
X294737Y130737D01*
Y130737D01*
X295651Y129987D01*
X296693Y129430D01*
X297824Y129087D01*
X299000Y128971D01*
X328503D01*
X332737Y124737D01*
X333650Y123987D01*
X334693Y123430D01*
X335824Y123087D01*
X337000Y122971D01*
X348503D01*
X359572Y111902D01*
X359609Y111530D01*
X360037Y110116D01*
X360734Y108813D01*
X361006Y108481D01*
X360792Y108029D01*
X353925D01*
X353668Y108458D01*
X353700Y108518D01*
X354144Y109980D01*
X354293Y111500D01*
X354144Y113020D01*
X353700Y114482D01*
X352980Y115830D01*
X352011Y117011D01*
X350830Y117980D01*
X349482Y118700D01*
X348020Y119144D01*
X346500Y119293D01*
X344980Y119144D01*
X343518Y118700D01*
X342170Y117980D01*
X340989Y117011D01*
X340020Y115830D01*
X339300Y114482D01*
X338856Y113020D01*
X338707Y111500D01*
X338856Y109980D01*
X339300Y108518D01*
X339332Y108458D01*
X339075Y108029D01*
X226297D01*
X214035Y120291D01*
X213480Y121330D01*
X212511Y122511D01*
X211330Y123480D01*
X209982Y124200D01*
X208520Y124644D01*
X207000Y124793D01*
X205480Y124644D01*
X204018Y124200D01*
X202670Y123480D01*
X201489Y122511D01*
X200520Y121330D01*
X199800Y119982D01*
X199356Y118520D01*
X199207Y117000D01*
X199356Y115480D01*
X199800Y114018D01*
X200520Y112670D01*
X200971Y112121D01*
Y103497D01*
X189503Y92029D01*
X160682D01*
X160657Y92528D01*
X161470Y92608D01*
X162884Y93037D01*
X164187Y93734D01*
X165329Y94671D01*
X166266Y95813D01*
X166963Y97116D01*
X167392Y98530D01*
X167536Y100000D01*
X167392Y101470D01*
X166963Y102884D01*
X166266Y104187D01*
X166029Y104476D01*
Y207741D01*
X166151Y207890D01*
X166835Y209169D01*
X167256Y210557D01*
X167398Y212000D01*
X167256Y213443D01*
X166835Y214831D01*
X166151Y216110D01*
X166029Y216259D01*
Y261218D01*
X166528Y261243D01*
X166609Y260430D01*
X167037Y259016D01*
X167734Y257713D01*
X168671Y256571D01*
X169813Y255634D01*
X171116Y254937D01*
X172530Y254508D01*
X174000Y254364D01*
X175470Y254508D01*
X176884Y254937D01*
X178187Y255634D01*
X179329Y256571D01*
X180266Y257713D01*
X180963Y259016D01*
X181392Y260430D01*
X181536Y261900D01*
X181392Y263370D01*
X180963Y264784D01*
X180266Y266087D01*
X180029Y266376D01*
Y330791D01*
X180491Y330983D01*
X181572Y329902D01*
D02*
G37*
G36*
X529003Y439004D02*
X528632Y438522D01*
X528129Y437305D01*
X527957Y436000D01*
Y432500D01*
X537000D01*
Y432000D01*
X537500D01*
Y422957D01*
X541000D01*
X542305Y423129D01*
X543522Y423632D01*
X544004Y424003D01*
X544452Y423782D01*
Y310727D01*
X543991Y310536D01*
X531428Y323098D01*
X531391Y323470D01*
X530963Y324884D01*
X530266Y326187D01*
X529329Y327329D01*
X528187Y328266D01*
X526884Y328963D01*
X525470Y329392D01*
X524000Y329536D01*
X522530Y329392D01*
X521116Y328963D01*
X519813Y328266D01*
X519481Y327994D01*
X519029Y328207D01*
Y411000D01*
X518913Y412176D01*
X518570Y413307D01*
X518013Y414350D01*
X517263Y415263D01*
X509263Y423263D01*
X508350Y424013D01*
X507307Y424570D01*
X506176Y424913D01*
X505000Y425029D01*
X487000D01*
X485824Y424913D01*
X484693Y424570D01*
X483650Y424013D01*
X482737Y423263D01*
X477737Y418263D01*
X476987Y417349D01*
X476554Y416540D01*
X476060Y416467D01*
X474263Y418263D01*
X473350Y419013D01*
X472307Y419570D01*
X471176Y419913D01*
X470000Y420029D01*
X435000D01*
X433824Y419913D01*
X432693Y419570D01*
X431650Y419013D01*
X430737Y418263D01*
X412417Y399943D01*
X411988Y400201D01*
X412392Y401530D01*
X412536Y403000D01*
X412392Y404470D01*
X411963Y405884D01*
X411266Y407187D01*
X410329Y408329D01*
X409187Y409266D01*
X407884Y409963D01*
X406470Y410392D01*
X405000Y410536D01*
X403530Y410392D01*
X402116Y409963D01*
X400813Y409266D01*
X400524Y409029D01*
X354497D01*
X343263Y420263D01*
X342350Y421013D01*
X341307Y421570D01*
X340176Y421913D01*
X339000Y422029D01*
X307476D01*
X307187Y422266D01*
X305884Y422963D01*
X304470Y423391D01*
X303000Y423536D01*
X301530Y423391D01*
X300116Y422963D01*
X298813Y422266D01*
X297671Y421329D01*
X296734Y420187D01*
X296037Y418884D01*
X295608Y417470D01*
X295464Y416000D01*
X295608Y414530D01*
X296037Y413116D01*
X296734Y411813D01*
X297671Y410671D01*
X298048Y410362D01*
X297903Y409883D01*
X297441Y409838D01*
X295942Y409383D01*
X294560Y408644D01*
X293349Y407651D01*
X292355Y406440D01*
X291767Y405339D01*
X291279Y405234D01*
X290993Y405453D01*
X290032Y405851D01*
X289500Y405921D01*
Y402000D01*
X288500D01*
Y405921D01*
X287968Y405851D01*
X287007Y405453D01*
X286721Y405234D01*
X286233Y405339D01*
X285645Y406440D01*
X284651Y407651D01*
X283440Y408644D01*
X282058Y409383D01*
X280559Y409838D01*
X279000Y409991D01*
X277441Y409838D01*
X275942Y409383D01*
X274560Y408644D01*
X274000Y408185D01*
X273440Y408644D01*
X272058Y409383D01*
X270559Y409838D01*
X269000Y409991D01*
X267441Y409838D01*
X265942Y409383D01*
X264560Y408644D01*
X263349Y407651D01*
X262355Y406440D01*
X261617Y405058D01*
X261162Y403559D01*
X261009Y402000D01*
X261162Y400441D01*
X261617Y398942D01*
X262355Y397560D01*
X262815Y397000D01*
X262355Y396440D01*
X261617Y395058D01*
X261162Y393559D01*
X261009Y392000D01*
X261162Y390441D01*
X261617Y388942D01*
X261876Y388458D01*
X261619Y388029D01*
X256029D01*
Y406524D01*
X256266Y406813D01*
X256963Y408116D01*
X257392Y409530D01*
X257536Y411000D01*
X257392Y412470D01*
X256963Y413884D01*
X256266Y415187D01*
X255329Y416329D01*
X254187Y417266D01*
X252884Y417963D01*
X251470Y418392D01*
X250000Y418536D01*
X248530Y418392D01*
X247116Y417963D01*
X245813Y417266D01*
X244671Y416329D01*
X243734Y415187D01*
X243037Y413884D01*
X242608Y412470D01*
X242464Y411000D01*
X242608Y409530D01*
X243037Y408116D01*
X243734Y406813D01*
X243971Y406524D01*
Y389997D01*
X242003Y388029D01*
X225879D01*
X225330Y388480D01*
X223982Y389200D01*
X222520Y389644D01*
X221000Y389793D01*
X219480Y389644D01*
X218018Y389200D01*
X216670Y388480D01*
X215489Y387511D01*
X214520Y386330D01*
X213800Y384982D01*
X213356Y383520D01*
X213207Y382000D01*
X213356Y380480D01*
X213800Y379018D01*
X214520Y377670D01*
X215489Y376489D01*
X216670Y375520D01*
X218018Y374800D01*
X219480Y374356D01*
X221000Y374207D01*
X222520Y374356D01*
X223982Y374800D01*
X225330Y375520D01*
X225879Y375971D01*
X238791D01*
X238983Y375509D01*
X221503Y358029D01*
X209533D01*
X209391Y359470D01*
X208963Y360884D01*
X208266Y362187D01*
X207329Y363329D01*
X206187Y364266D01*
X204884Y364963D01*
X203470Y365391D01*
X202000Y365536D01*
X200530Y365391D01*
X199116Y364963D01*
X197813Y364266D01*
X197524Y364029D01*
X197029D01*
Y377121D01*
X197480Y377670D01*
X198200Y379018D01*
X198644Y380480D01*
X198713Y381187D01*
X202263Y384737D01*
X202263Y384737D01*
X203013Y385650D01*
X203376Y386330D01*
X203570Y386693D01*
X203913Y387824D01*
X204029Y389000D01*
Y402741D01*
X204151Y402890D01*
X204835Y404169D01*
X204987Y404672D01*
X205479Y404762D01*
X205602Y404602D01*
X206304Y404063D01*
X207122Y403724D01*
X207500Y403675D01*
Y407000D01*
Y410325D01*
X207122Y410276D01*
X206304Y409937D01*
X205602Y409398D01*
X205479Y409238D01*
X204987Y409328D01*
X204835Y409831D01*
X204151Y411110D01*
X203231Y412231D01*
X202110Y413151D01*
X200831Y413835D01*
X199443Y414256D01*
X198000Y414398D01*
X196557Y414256D01*
X195169Y413835D01*
X193890Y413151D01*
X192769Y412231D01*
X191849Y411110D01*
X191165Y409831D01*
X190744Y408443D01*
X190602Y407000D01*
X190744Y405557D01*
X191165Y404169D01*
X191849Y402890D01*
X191971Y402741D01*
Y391497D01*
X190187Y389713D01*
X189480Y389644D01*
X188018Y389200D01*
X186670Y388480D01*
X185489Y387511D01*
X184520Y386330D01*
X183800Y384982D01*
X183356Y383520D01*
X183207Y382000D01*
X183356Y380480D01*
X183800Y379018D01*
X184520Y377670D01*
X184971Y377121D01*
Y364029D01*
X174000D01*
X172824Y363913D01*
X171693Y363570D01*
X170650Y363013D01*
X169737Y362263D01*
X168987Y361350D01*
X168430Y360307D01*
X168087Y359176D01*
X167971Y358000D01*
Y266376D01*
X167734Y266087D01*
X167037Y264784D01*
X166609Y263370D01*
X166528Y262557D01*
X166029Y262582D01*
Y296500D01*
X165913Y297676D01*
X165570Y298807D01*
X165013Y299850D01*
X164263Y300763D01*
X119213Y345813D01*
X119144Y346520D01*
X118700Y347982D01*
X117980Y349330D01*
X117011Y350511D01*
X115830Y351480D01*
X114482Y352200D01*
X113020Y352644D01*
X111500Y352793D01*
X109980Y352644D01*
X108518Y352200D01*
X107170Y351480D01*
X105989Y350511D01*
X105020Y349330D01*
X104300Y347982D01*
X103856Y346520D01*
X103787Y345813D01*
X94737Y336763D01*
X93987Y335849D01*
X93430Y334807D01*
X93087Y333676D01*
X92971Y332500D01*
Y331476D01*
X92734Y331187D01*
X92331Y330433D01*
X91840Y330531D01*
X91838Y330559D01*
X91383Y332058D01*
X90645Y333440D01*
X90185Y334000D01*
X90645Y334560D01*
X91383Y335942D01*
X91838Y337441D01*
X91991Y339000D01*
X91838Y340559D01*
X91383Y342058D01*
X90645Y343440D01*
X89651Y344651D01*
X88440Y345644D01*
X87339Y346233D01*
X87234Y346721D01*
X87453Y347007D01*
X87851Y347968D01*
X87921Y348500D01*
X80079D01*
X80149Y347968D01*
X80547Y347007D01*
X80766Y346721D01*
X80661Y346233D01*
X79560Y345644D01*
X78349Y344651D01*
X77355Y343440D01*
X76617Y342058D01*
X76162Y340559D01*
X76009Y339000D01*
X76162Y337441D01*
X76617Y335942D01*
X77355Y334560D01*
X77815Y334000D01*
X77355Y333440D01*
X76617Y332058D01*
X76162Y330559D01*
X76009Y329000D01*
X76162Y327441D01*
X76234Y327205D01*
X76047Y326953D01*
X76047D01*
Y311047D01*
X91953D01*
Y323245D01*
X92438Y323367D01*
X92734Y322813D01*
X93671Y321671D01*
X94813Y320734D01*
X96116Y320037D01*
X97530Y319608D01*
X99000Y319464D01*
X100470Y319608D01*
X101884Y320037D01*
X103187Y320734D01*
X104329Y321671D01*
X105266Y322813D01*
X105963Y324116D01*
X106392Y325530D01*
X106536Y327000D01*
X106392Y328470D01*
X105963Y329884D01*
X105596Y330570D01*
X111250Y336224D01*
X111750D01*
X139581Y308393D01*
X139349Y308110D01*
X138665Y306831D01*
X138244Y305443D01*
X138102Y304000D01*
X138244Y302557D01*
X138665Y301169D01*
X139349Y299890D01*
X140079Y299000D01*
X139349Y298110D01*
X138665Y296831D01*
X138244Y295443D01*
X138102Y294000D01*
X138244Y292557D01*
X138665Y291169D01*
X139349Y289890D01*
X140269Y288769D01*
X141390Y287849D01*
X142669Y287165D01*
X144057Y286744D01*
X145500Y286602D01*
X146943Y286744D01*
X148331Y287165D01*
X149610Y287849D01*
X150731Y288769D01*
X151651Y289890D01*
X152335Y291169D01*
X152756Y292557D01*
X152898Y294000D01*
X152853Y294455D01*
X153305Y294669D01*
X153971Y294003D01*
Y218712D01*
X153542Y218455D01*
X152831Y218835D01*
X151443Y219256D01*
X150000Y219398D01*
X148557Y219256D01*
X147169Y218835D01*
X145890Y218151D01*
X144769Y217231D01*
X143849Y216110D01*
X143165Y214831D01*
X142744Y213443D01*
X142602Y212000D01*
X142744Y210557D01*
X143165Y209169D01*
X143849Y207890D01*
X144769Y206769D01*
X145890Y205849D01*
X147169Y205165D01*
X148557Y204744D01*
X150000Y204602D01*
X151443Y204744D01*
X152831Y205165D01*
X153542Y205545D01*
X153971Y205288D01*
Y104476D01*
X153734Y104187D01*
X153037Y102884D01*
X152609Y101470D01*
X152464Y100000D01*
X152609Y98530D01*
X153037Y97116D01*
X153734Y95813D01*
X154671Y94671D01*
X155813Y93734D01*
X157116Y93037D01*
X158530Y92608D01*
X159343Y92528D01*
X159318Y92029D01*
X115000D01*
X113824Y91913D01*
X112693Y91570D01*
X111651Y91013D01*
X110737Y90263D01*
X109987Y89350D01*
X109430Y88307D01*
X109087Y87176D01*
X108971Y86000D01*
Y43000D01*
X109087Y41824D01*
X109430Y40693D01*
X109987Y39650D01*
X110737Y38737D01*
X111651Y37987D01*
X112693Y37430D01*
X113824Y37087D01*
X115000Y36971D01*
X115500Y37020D01*
X116000Y36971D01*
X130524D01*
X130813Y36734D01*
X132116Y36037D01*
X133530Y35609D01*
X135000Y35464D01*
X136470Y35609D01*
X137884Y36037D01*
X139187Y36734D01*
X140329Y37671D01*
X141266Y38813D01*
X141963Y40116D01*
X142392Y41530D01*
X142536Y43000D01*
X142392Y44470D01*
X141963Y45884D01*
X141266Y47187D01*
X140329Y48329D01*
X139187Y49266D01*
X137884Y49963D01*
X136470Y50392D01*
X135000Y50536D01*
X133530Y50392D01*
X132116Y49963D01*
X131080Y49409D01*
X130664Y49687D01*
X130793Y51000D01*
X130644Y52520D01*
X130200Y53982D01*
X129480Y55330D01*
X128511Y56511D01*
X127330Y57480D01*
X125982Y58200D01*
X124520Y58644D01*
X123000Y58793D01*
X121480Y58644D01*
X121431Y58629D01*
X121029Y58927D01*
Y73073D01*
X121431Y73371D01*
X121480Y73356D01*
X123000Y73207D01*
X124520Y73356D01*
X125982Y73800D01*
X127330Y74520D01*
X128511Y75489D01*
X129480Y76670D01*
X130200Y78018D01*
X130644Y79480D01*
X130692Y79971D01*
X152732D01*
X153068Y79601D01*
X153009Y79000D01*
X153162Y77441D01*
X153617Y75942D01*
X154356Y74560D01*
X154815Y74000D01*
X154356Y73440D01*
X153617Y72058D01*
X153162Y70559D01*
X153009Y69000D01*
X153162Y67441D01*
X153617Y65942D01*
X154356Y64560D01*
X154815Y64000D01*
X154356Y63440D01*
X153617Y62058D01*
X153162Y60559D01*
X153009Y59000D01*
X153162Y57441D01*
X153617Y55942D01*
X154356Y54560D01*
X154815Y54000D01*
X154356Y53440D01*
X153617Y52058D01*
X153162Y50559D01*
X153009Y49000D01*
X153162Y47441D01*
X153617Y45942D01*
X154356Y44560D01*
X155349Y43349D01*
X156560Y42355D01*
X157942Y41617D01*
X159441Y41162D01*
X161000Y41009D01*
X162559Y41162D01*
X164058Y41617D01*
X165440Y42355D01*
X166651Y43349D01*
X167645Y44560D01*
X168383Y45942D01*
X168838Y47441D01*
X168991Y49000D01*
X168838Y50559D01*
X168383Y52058D01*
X167645Y53440D01*
X167185Y54000D01*
X167645Y54560D01*
X168383Y55942D01*
X168838Y57441D01*
X168991Y59000D01*
X168838Y60559D01*
X168383Y62058D01*
X167645Y63440D01*
X167185Y64000D01*
X167645Y64560D01*
X168383Y65942D01*
X168838Y67441D01*
X168991Y69000D01*
X168838Y70559D01*
X168383Y72058D01*
X167645Y73440D01*
X167185Y74000D01*
X167645Y74560D01*
X168383Y75942D01*
X168838Y77441D01*
X168991Y79000D01*
X168932Y79601D01*
X169268Y79971D01*
X186762D01*
X187092Y79595D01*
X187079Y79500D01*
X194921D01*
X194851Y80032D01*
X194617Y80596D01*
X195350Y80987D01*
X196263Y81737D01*
X211263Y96737D01*
X211263Y96737D01*
X211263Y96737D01*
X212013Y97650D01*
X212570Y98693D01*
X212570Y98693D01*
X212570Y98693D01*
X212913Y99824D01*
X213029Y101000D01*
X213029Y101000D01*
X213029Y101000D01*
Y101000D01*
Y103591D01*
X213491Y103783D01*
X219537Y97737D01*
X220450Y96987D01*
X221493Y96430D01*
X222624Y96087D01*
X223800Y95971D01*
X506000D01*
X507176Y96087D01*
X508307Y96430D01*
X508307Y96430D01*
X508307Y96430D01*
X509349Y96987D01*
X510263Y97737D01*
X510263Y97737D01*
X510263Y97737D01*
X543991Y131464D01*
X544452Y131273D01*
Y21218D01*
X544004Y20997D01*
X543522Y21368D01*
X542305Y21871D01*
X541000Y22043D01*
X537500D01*
Y13000D01*
X537000D01*
Y12500D01*
X527957D01*
Y9000D01*
X528129Y7695D01*
X528632Y6478D01*
X529003Y5996D01*
X528782Y5548D01*
X21218D01*
X20997Y5996D01*
X21368Y6478D01*
X21871Y7695D01*
X22043Y9000D01*
Y12500D01*
X13000D01*
Y13000D01*
X12500D01*
Y22043D01*
X9000D01*
X7695Y21871D01*
X6478Y21368D01*
X5996Y20997D01*
X5548Y21218D01*
Y36001D01*
X74980D01*
Y49000D01*
X107969D01*
Y67998D01*
X5548D01*
Y322500D01*
Y423782D01*
X5996Y424003D01*
X6478Y423632D01*
X7695Y423129D01*
X9000Y422957D01*
X12500D01*
Y432000D01*
X13000D01*
Y432500D01*
X22043D01*
Y436000D01*
X21871Y437305D01*
X21368Y438522D01*
X20997Y439004D01*
X21218Y439453D01*
X528782D01*
X529003Y439004D01*
D02*
G37*
G36*
X445547Y395047D02*
X445547D01*
X445734Y394795D01*
X445662Y394559D01*
X445509Y393000D01*
X445662Y391441D01*
X446117Y389942D01*
X446855Y388560D01*
X447315Y388000D01*
X446855Y387440D01*
X446117Y386058D01*
X445662Y384559D01*
X445509Y383000D01*
X445662Y381441D01*
X446117Y379942D01*
X446855Y378560D01*
X447849Y377349D01*
X449060Y376356D01*
X450161Y375767D01*
X450266Y375279D01*
X450047Y374993D01*
X449649Y374032D01*
X449579Y373500D01*
X457421D01*
X457351Y374032D01*
X456953Y374993D01*
X456734Y375279D01*
X456839Y375767D01*
X457940Y376356D01*
X459151Y377349D01*
X460145Y378560D01*
X460883Y379942D01*
X461338Y381441D01*
X461491Y383000D01*
X461338Y384559D01*
X460883Y386058D01*
X460145Y387440D01*
X459685Y388000D01*
X460145Y388560D01*
X460883Y389942D01*
X461338Y391441D01*
X461491Y393000D01*
X461338Y394559D01*
X461266Y394795D01*
X461453Y395047D01*
X461453D01*
Y403368D01*
X461915Y403559D01*
X463572Y401902D01*
X463609Y401530D01*
X464037Y400116D01*
X464734Y398813D01*
X465671Y397671D01*
X466813Y396734D01*
X468116Y396037D01*
X469530Y395608D01*
X470971Y395467D01*
Y365497D01*
X464902Y359428D01*
X464530Y359391D01*
X463116Y358963D01*
X461813Y358266D01*
X460671Y357329D01*
X460178Y357378D01*
X460145Y357440D01*
X459685Y358000D01*
X460145Y358560D01*
X460883Y359942D01*
X461338Y361441D01*
X461491Y363000D01*
X461338Y364559D01*
X460883Y366058D01*
X460145Y367440D01*
X459151Y368651D01*
X457940Y369644D01*
X456839Y370233D01*
X456734Y370721D01*
X456953Y371007D01*
X457351Y371968D01*
X457421Y372500D01*
X449579D01*
X449649Y371968D01*
X450047Y371007D01*
X450266Y370721D01*
X450161Y370233D01*
X449060Y369644D01*
X447849Y368651D01*
X446855Y367440D01*
X446117Y366058D01*
X445662Y364559D01*
X445509Y363000D01*
X445662Y361441D01*
X446117Y359942D01*
X446855Y358560D01*
X447315Y358000D01*
X446855Y357440D01*
X446117Y356058D01*
X445662Y354559D01*
X445509Y353000D01*
X445662Y351441D01*
X446117Y349942D01*
X446855Y348560D01*
X447315Y348000D01*
X446855Y347440D01*
X446117Y346058D01*
X445662Y344559D01*
X445509Y343000D01*
X445662Y341441D01*
X446117Y339942D01*
X446855Y338560D01*
X447315Y338000D01*
X446855Y337440D01*
X446117Y336058D01*
X445662Y334559D01*
X445509Y333000D01*
X445662Y331441D01*
X446117Y329942D01*
X446855Y328560D01*
X447315Y328000D01*
X446855Y327440D01*
X446117Y326058D01*
X445662Y324559D01*
X445509Y323000D01*
X445662Y321441D01*
X446050Y320162D01*
X445621Y319905D01*
X410863Y354663D01*
X409949Y355413D01*
X408907Y355970D01*
X407776Y356313D01*
X406600Y356429D01*
X391500D01*
X390324Y356313D01*
X389193Y355970D01*
X388151Y355413D01*
X387237Y354663D01*
X386487Y353749D01*
X385930Y352707D01*
X385587Y351576D01*
X385471Y350400D01*
Y345500D01*
X384691Y344550D01*
X383934Y343134D01*
X383468Y341598D01*
X383311Y340000D01*
X383468Y338402D01*
X383934Y336866D01*
X384691Y335450D01*
X385710Y334209D01*
X386950Y333191D01*
X388366Y332434D01*
X389902Y331968D01*
X391500Y331811D01*
X393098Y331968D01*
X394634Y332434D01*
X396050Y333191D01*
X396500Y333561D01*
X396950Y333191D01*
X398366Y332434D01*
X399902Y331968D01*
X401500Y331811D01*
X403098Y331968D01*
X404634Y332434D01*
X406050Y333191D01*
X407291Y334209D01*
X408309Y335450D01*
X409066Y336866D01*
X409516Y338351D01*
X410001Y338473D01*
X416983Y331491D01*
X416791Y331029D01*
X378997D01*
X376744Y333282D01*
X376769Y333781D01*
X377291Y334209D01*
X378309Y335450D01*
X379066Y336866D01*
X379532Y338402D01*
X379689Y340000D01*
X379532Y341598D01*
X379066Y343134D01*
X378309Y344550D01*
X377291Y345791D01*
X376050Y346809D01*
X374634Y347566D01*
X373098Y348032D01*
X371500Y348189D01*
X369902Y348032D01*
X368366Y347566D01*
X366950Y346809D01*
X366500Y346439D01*
X366050Y346809D01*
X364634Y347566D01*
X363098Y348032D01*
X361500Y348189D01*
X359902Y348032D01*
X358366Y347566D01*
X356950Y346809D01*
X355710Y345791D01*
X354691Y344550D01*
X353934Y343134D01*
X353468Y341598D01*
X353311Y340000D01*
X353468Y338402D01*
X353934Y336866D01*
X354691Y335450D01*
X355710Y334209D01*
X356950Y333191D01*
X358366Y332434D01*
X359902Y331968D01*
X361126Y331848D01*
X365483Y327491D01*
X365291Y327029D01*
X352997D01*
X346744Y333282D01*
X346769Y333781D01*
X347290Y334209D01*
X348309Y335450D01*
X349066Y336866D01*
X349532Y338402D01*
X349689Y340000D01*
X349532Y341598D01*
X349066Y343134D01*
X348309Y344550D01*
X347290Y345791D01*
X346050Y346809D01*
X344634Y347566D01*
X343098Y348032D01*
X341500Y348189D01*
X339902Y348032D01*
X338366Y347566D01*
X336950Y346809D01*
X336500Y346439D01*
X336050Y346809D01*
X334634Y347566D01*
X333098Y348032D01*
X331500Y348189D01*
X329902Y348032D01*
X328366Y347566D01*
X326950Y346809D01*
X325710Y345791D01*
X324691Y344550D01*
X323934Y343134D01*
X323468Y341598D01*
X323311Y340000D01*
X323468Y338402D01*
X323934Y336866D01*
X324691Y335450D01*
X325710Y334209D01*
X326950Y333191D01*
X328217Y332514D01*
X328096Y332029D01*
X317997D01*
X316744Y333282D01*
X316769Y333781D01*
X317290Y334209D01*
X318309Y335450D01*
X319066Y336866D01*
X319532Y338402D01*
X319689Y340000D01*
X319532Y341598D01*
X319066Y343134D01*
X318309Y344550D01*
X317290Y345791D01*
X316050Y346809D01*
X314634Y347566D01*
X313098Y348032D01*
X311500Y348189D01*
X309902Y348032D01*
X308366Y347566D01*
X306950Y346809D01*
X306500Y346439D01*
X306050Y346809D01*
X304634Y347566D01*
X303098Y348032D01*
X301500Y348189D01*
X299902Y348032D01*
X298366Y347566D01*
X296950Y346809D01*
X295709Y345791D01*
X294691Y344550D01*
X293934Y343134D01*
X293468Y341598D01*
X293311Y340000D01*
X293468Y338402D01*
X293934Y336866D01*
X294691Y335450D01*
X295709Y334209D01*
X296950Y333191D01*
X298366Y332434D01*
X299902Y331968D01*
X301126Y331848D01*
X304483Y328491D01*
X304291Y328029D01*
X291997D01*
X286744Y333282D01*
X286769Y333781D01*
X287291Y334209D01*
X288309Y335450D01*
X289066Y336866D01*
X289532Y338402D01*
X289689Y340000D01*
X289532Y341598D01*
X289066Y343134D01*
X288309Y344550D01*
X287291Y345791D01*
X286050Y346809D01*
X284634Y347566D01*
X283098Y348032D01*
X281500Y348189D01*
X279902Y348032D01*
X278366Y347566D01*
X276950Y346809D01*
X276500Y346439D01*
X276050Y346809D01*
X274634Y347566D01*
X273098Y348032D01*
X271500Y348189D01*
X269902Y348032D01*
X268366Y347566D01*
X266950Y346809D01*
X265709Y345791D01*
X264691Y344550D01*
X263934Y343134D01*
X263468Y341598D01*
X263311Y340000D01*
X263468Y338402D01*
X263934Y336866D01*
X264691Y335450D01*
X265709Y334209D01*
X266950Y333191D01*
X268366Y332434D01*
X269902Y331968D01*
X271126Y331848D01*
X285237Y317737D01*
X286151Y316987D01*
X287193Y316430D01*
X288324Y316087D01*
X289500Y315971D01*
X298430D01*
X298766Y315600D01*
X298707Y315000D01*
X298856Y313480D01*
X299300Y312018D01*
X300020Y310670D01*
X300989Y309489D01*
X302170Y308520D01*
X303518Y307800D01*
X304980Y307356D01*
X306500Y307207D01*
X308020Y307356D01*
X309482Y307800D01*
X310830Y308520D01*
X312011Y309489D01*
X312980Y310670D01*
X313700Y312018D01*
X314144Y313480D01*
X314293Y315000D01*
X314237Y315571D01*
X314689Y315784D01*
X330737Y299737D01*
Y299737D01*
X330737Y299737D01*
X330737Y299737D01*
Y299737D01*
X331650Y298987D01*
X332693Y298430D01*
X332693Y298430D01*
X332693Y298430D01*
D01*
X332693Y298430D01*
X332693Y298430D01*
X333824Y298087D01*
X335000Y297971D01*
X420971D01*
Y213655D01*
X420498Y213495D01*
X420496Y213496D01*
X419765Y214057D01*
X418914Y214410D01*
X418500Y214464D01*
Y211000D01*
X418000D01*
Y210500D01*
X414536D01*
X414590Y210086D01*
X414943Y209235D01*
X415504Y208504D01*
X416235Y207943D01*
X417086Y207590D01*
X417558Y207528D01*
X417525Y207029D01*
X316497D01*
X272344Y251182D01*
X272513Y251653D01*
X273443Y251744D01*
X274831Y252165D01*
X276110Y252849D01*
X277231Y253769D01*
X278151Y254890D01*
X278835Y256169D01*
X278987Y256673D01*
X279479Y256762D01*
X279602Y256602D01*
X280304Y256063D01*
X281122Y255724D01*
X281500Y255675D01*
Y259000D01*
Y262325D01*
X281122Y262276D01*
X280304Y261937D01*
X279602Y261398D01*
X279479Y261238D01*
X278987Y261328D01*
X278835Y261831D01*
X278151Y263110D01*
X277231Y264231D01*
X276110Y265151D01*
X275529Y265462D01*
Y281216D01*
X276481Y281341D01*
X277394Y281719D01*
X278179Y282321D01*
X278781Y283106D01*
X279159Y284019D01*
X279288Y285000D01*
X279159Y285981D01*
X278781Y286894D01*
X278179Y287679D01*
X277394Y288281D01*
X276481Y288659D01*
X275529Y288785D01*
Y301500D01*
X275413Y302676D01*
X275070Y303807D01*
X274513Y304850D01*
X273763Y305763D01*
X272023Y307503D01*
X272321Y307905D01*
X272518Y307800D01*
X273980Y307356D01*
X275500Y307207D01*
X277020Y307356D01*
X278482Y307800D01*
X279830Y308520D01*
X281011Y309489D01*
X281980Y310670D01*
X282700Y312018D01*
X283144Y313480D01*
X283293Y315000D01*
X283144Y316520D01*
X282700Y317982D01*
X281980Y319330D01*
X281011Y320511D01*
X279830Y321480D01*
X278482Y322200D01*
X277020Y322644D01*
X275500Y322793D01*
X273980Y322644D01*
X272518Y322200D01*
X271170Y321480D01*
X269989Y320511D01*
X269020Y319330D01*
X268300Y317982D01*
X267856Y316520D01*
X267707Y315000D01*
X267856Y313480D01*
X268300Y312018D01*
X268405Y311821D01*
X268003Y311523D01*
X263428Y316098D01*
X263391Y316470D01*
X262963Y317884D01*
X262266Y319187D01*
X261329Y320329D01*
X260187Y321266D01*
X258884Y321963D01*
X257470Y322392D01*
X256000Y322536D01*
X254530Y322392D01*
X253116Y321963D01*
X251813Y321266D01*
X250671Y320329D01*
X249734Y319187D01*
X249037Y317884D01*
X248608Y316470D01*
X248464Y315000D01*
X248608Y313530D01*
X249037Y312116D01*
X249734Y310813D01*
X250671Y309671D01*
X251813Y308734D01*
X253116Y308037D01*
X254530Y307609D01*
X254902Y307572D01*
X263471Y299003D01*
Y261500D01*
X263556Y260636D01*
X263104Y260422D01*
X258725Y264802D01*
X259057Y265235D01*
X259410Y266086D01*
X259530Y267000D01*
X259410Y267914D01*
X259057Y268765D01*
X258496Y269496D01*
X257765Y270057D01*
X256914Y270410D01*
X256000Y270530D01*
X255086Y270410D01*
X254235Y270057D01*
X253802Y269725D01*
X243428Y280098D01*
X243391Y280470D01*
X242963Y281884D01*
X242266Y283187D01*
X241329Y284329D01*
X240187Y285266D01*
X238884Y285963D01*
X237470Y286391D01*
X236000Y286536D01*
X234530Y286391D01*
X233116Y285963D01*
X231813Y285266D01*
X230671Y284329D01*
X229734Y283187D01*
X229037Y281884D01*
X228608Y280470D01*
X228464Y279000D01*
X228608Y277530D01*
X229037Y276116D01*
X229734Y274813D01*
X230671Y273671D01*
X231813Y272734D01*
X233116Y272037D01*
X234530Y271608D01*
X234902Y271572D01*
X266077Y240397D01*
X266003Y239902D01*
X264813Y239266D01*
X263671Y238329D01*
X262734Y237187D01*
X262037Y235884D01*
X261609Y234470D01*
X261572Y234098D01*
X248737Y221263D01*
X247987Y220350D01*
X247756Y219918D01*
X246941Y219838D01*
X245442Y219383D01*
X244060Y218644D01*
X243500Y218185D01*
X242940Y218644D01*
X241558Y219383D01*
X240059Y219838D01*
X238500Y219991D01*
X236941Y219838D01*
X235442Y219383D01*
X234060Y218644D01*
X233500Y218185D01*
X232940Y218644D01*
X231558Y219383D01*
X230059Y219838D01*
X228500Y219991D01*
X226941Y219838D01*
X225442Y219383D01*
X224060Y218644D01*
X223500Y218185D01*
X222940Y218644D01*
X221558Y219383D01*
X220059Y219838D01*
X218500Y219991D01*
X216941Y219838D01*
X215442Y219383D01*
X214060Y218644D01*
X213500Y218185D01*
X212940Y218644D01*
X211558Y219383D01*
X210059Y219838D01*
X208500Y219991D01*
X206941Y219838D01*
X205442Y219383D01*
X204060Y218644D01*
X203500Y218185D01*
X202940Y218644D01*
X201558Y219383D01*
X200059Y219838D01*
X198500Y219991D01*
X196941Y219838D01*
X195442Y219383D01*
X195029Y219630D01*
Y281503D01*
X203497Y289971D01*
X216524D01*
X216813Y289734D01*
X218116Y289037D01*
X219530Y288609D01*
X221000Y288464D01*
X222470Y288609D01*
X223884Y289037D01*
X225187Y289734D01*
X226329Y290671D01*
X227266Y291813D01*
X227963Y293116D01*
X228125Y293650D01*
X236438D01*
Y308624D01*
X236838Y309941D01*
X236991Y311500D01*
X236838Y313059D01*
X236383Y314558D01*
X235645Y315940D01*
X234651Y317151D01*
X233440Y318144D01*
X232339Y318733D01*
X232234Y319221D01*
X232453Y319507D01*
X232851Y320468D01*
X232921Y321000D01*
X225079D01*
X225149Y320468D01*
X225547Y319507D01*
X225766Y319221D01*
X225661Y318733D01*
X224560Y318144D01*
X223349Y317151D01*
X222356Y315940D01*
X221617Y314558D01*
X221162Y313059D01*
X221023Y311648D01*
X206977D01*
X206838Y313059D01*
X206383Y314558D01*
X205644Y315940D01*
X205185Y316500D01*
X205644Y317060D01*
X206383Y318442D01*
X206838Y319941D01*
X206991Y321500D01*
X206838Y323059D01*
X206383Y324558D01*
X205644Y325940D01*
X205185Y326500D01*
X205644Y327060D01*
X206383Y328442D01*
X206838Y329941D01*
X206991Y331500D01*
X206838Y333059D01*
X206766Y333295D01*
X206953Y333547D01*
X206953D01*
Y345971D01*
X221886D01*
X222143Y345542D01*
X221617Y344558D01*
X221162Y343059D01*
X221009Y341500D01*
X221162Y339941D01*
X221617Y338442D01*
X222356Y337060D01*
X222815Y336500D01*
X222356Y335940D01*
X221617Y334558D01*
X221162Y333059D01*
X221009Y331500D01*
X221162Y329941D01*
X221617Y328442D01*
X222356Y327060D01*
X223349Y325849D01*
X224560Y324855D01*
X225661Y324267D01*
X225766Y323779D01*
X225547Y323493D01*
X225149Y322532D01*
X225079Y322000D01*
X232921D01*
X232851Y322532D01*
X232453Y323493D01*
X232234Y323779D01*
X232339Y324267D01*
X233440Y324855D01*
X234651Y325849D01*
X235645Y327060D01*
X236383Y328442D01*
X236838Y329941D01*
X236991Y331500D01*
X236838Y333059D01*
X236383Y334558D01*
X235645Y335940D01*
X235185Y336500D01*
X235645Y337060D01*
X236383Y338442D01*
X236838Y339941D01*
X236991Y341500D01*
X236838Y343059D01*
X236383Y344558D01*
X235645Y345940D01*
X234651Y347151D01*
X233440Y348145D01*
X232058Y348883D01*
X230559Y349338D01*
X230508Y349343D01*
X230340Y349814D01*
X253497Y372971D01*
X405000D01*
X406176Y373087D01*
X407307Y373430D01*
X408350Y373987D01*
X409263Y374737D01*
X439497Y404971D01*
X445547D01*
Y395047D01*
D02*
G37*
G36*
X504059Y411415D02*
X503868Y410953D01*
X494547D01*
Y395047D01*
X494547D01*
X494734Y394795D01*
X494662Y394559D01*
X494509Y393000D01*
X494662Y391441D01*
X495117Y389942D01*
X495856Y388560D01*
X496315Y388000D01*
X495856Y387440D01*
X495117Y386058D01*
X494662Y384559D01*
X494509Y383000D01*
X494662Y381441D01*
X495117Y379942D01*
X495856Y378560D01*
X496315Y378000D01*
X495856Y377440D01*
X495117Y376058D01*
X494662Y374559D01*
X494509Y373000D01*
X494662Y371441D01*
X495117Y369942D01*
X495856Y368560D01*
X496315Y368000D01*
X495856Y367440D01*
X495117Y366058D01*
X494662Y364559D01*
X494509Y363000D01*
X494662Y361441D01*
X495117Y359942D01*
X495856Y358560D01*
X496315Y358000D01*
X495856Y357440D01*
X495117Y356058D01*
X494662Y354559D01*
X494509Y353000D01*
X494662Y351441D01*
X495117Y349942D01*
X495856Y348560D01*
X496315Y348000D01*
X495856Y347440D01*
X495117Y346058D01*
X494662Y344559D01*
X494509Y343000D01*
X494662Y341441D01*
X495117Y339942D01*
X495856Y338560D01*
X496315Y338000D01*
X495856Y337440D01*
X495117Y336058D01*
X494662Y334559D01*
X494509Y333000D01*
X494662Y331441D01*
X495117Y329942D01*
X495856Y328560D01*
X496315Y328000D01*
X495856Y327440D01*
X495117Y326058D01*
X494662Y324559D01*
X494509Y323000D01*
X494662Y321441D01*
X495117Y319942D01*
X495856Y318560D01*
X496315Y318000D01*
X495856Y317440D01*
X495117Y316058D01*
X494662Y314559D01*
X494509Y313000D01*
X494662Y311441D01*
X495117Y309942D01*
X495856Y308560D01*
X496315Y308000D01*
X495856Y307440D01*
X495117Y306058D01*
X494662Y304559D01*
X494509Y303000D01*
X494662Y301441D01*
X495117Y299942D01*
X495856Y298560D01*
X496063Y298307D01*
X495872Y297845D01*
X495718Y297830D01*
X495187Y298266D01*
X493884Y298963D01*
X492470Y299392D01*
X491000Y299536D01*
X489530Y299392D01*
X488116Y298963D01*
X486813Y298266D01*
X486524Y298029D01*
X476000D01*
X474824Y297913D01*
X473693Y297570D01*
X472650Y297013D01*
X471737Y296263D01*
X461378Y285904D01*
X460893Y286026D01*
X460883Y286058D01*
X460145Y287440D01*
X459685Y288000D01*
X460145Y288560D01*
X460883Y289942D01*
X461338Y291441D01*
X461491Y293000D01*
X461338Y294559D01*
X460883Y296058D01*
X460145Y297440D01*
X459685Y298000D01*
X460145Y298560D01*
X460883Y299942D01*
X461338Y301441D01*
X461491Y303000D01*
X461338Y304559D01*
X460883Y306058D01*
X460145Y307440D01*
X459685Y308000D01*
X460145Y308560D01*
X460883Y309942D01*
X461338Y311441D01*
X461491Y313000D01*
X461338Y314559D01*
X460883Y316058D01*
X460145Y317440D01*
X459685Y318000D01*
X460145Y318560D01*
X460883Y319942D01*
X461338Y321441D01*
X461491Y323000D01*
X461338Y324559D01*
X460883Y326058D01*
X460145Y327440D01*
X459685Y328000D01*
X460145Y328560D01*
X460883Y329942D01*
X461338Y331441D01*
X461491Y333000D01*
X461338Y334559D01*
X460883Y336058D01*
X460145Y337440D01*
X459685Y338000D01*
X460145Y338560D01*
X460883Y339942D01*
X461338Y341441D01*
X461491Y343000D01*
X461338Y344559D01*
X460956Y345818D01*
X461371Y346096D01*
X461813Y345734D01*
X463116Y345037D01*
X464530Y344608D01*
X466000Y344464D01*
X467470Y344608D01*
X468884Y345037D01*
X470187Y345734D01*
X471329Y346671D01*
X472266Y347813D01*
X472963Y349116D01*
X473391Y350530D01*
X473428Y350902D01*
X475509Y352983D01*
X475971Y352791D01*
Y343497D01*
X470902Y338428D01*
X470530Y338391D01*
X469116Y337963D01*
X467813Y337266D01*
X466671Y336329D01*
X465734Y335187D01*
X465037Y333884D01*
X464608Y332470D01*
X464464Y331000D01*
X464608Y329530D01*
X465037Y328116D01*
X465734Y326813D01*
X466671Y325671D01*
X467813Y324734D01*
X469116Y324037D01*
X470530Y323608D01*
X472000Y323464D01*
X473470Y323608D01*
X474884Y324037D01*
X476187Y324734D01*
X477329Y325671D01*
X478266Y326813D01*
X478963Y328116D01*
X479391Y329530D01*
X479428Y329902D01*
X486263Y336737D01*
X486263Y336737D01*
X487013Y337650D01*
X487570Y338693D01*
X487913Y339824D01*
X488029Y341000D01*
X488029Y341000D01*
Y411503D01*
X489497Y412971D01*
X502503D01*
X504059Y411415D01*
D02*
G37*
G36*
X495983Y193491D02*
X495791Y193029D01*
X449497D01*
X449017Y193509D01*
X449209Y193971D01*
X468000D01*
X469176Y194087D01*
X470307Y194430D01*
X471349Y194987D01*
X472263Y195737D01*
X482750Y206224D01*
X483250D01*
X495983Y193491D01*
D02*
G37*
G36*
X442737Y182737D02*
X443650Y181987D01*
X444693Y181430D01*
X445824Y181087D01*
X447000Y180971D01*
X525524D01*
X525813Y180734D01*
X527116Y180037D01*
X528530Y179609D01*
X528971Y179565D01*
Y166029D01*
X440212D01*
X439914Y166431D01*
X440256Y167557D01*
X440398Y169000D01*
X440256Y170443D01*
X439835Y171831D01*
X439151Y173110D01*
X438231Y174231D01*
X437110Y175151D01*
X435831Y175835D01*
X435327Y175987D01*
X435238Y176479D01*
X435398Y176602D01*
X435937Y177304D01*
X436276Y178122D01*
X436325Y178500D01*
X429675D01*
X429724Y178122D01*
X430063Y177304D01*
X430602Y176602D01*
X430762Y176479D01*
X430673Y175987D01*
X430169Y175835D01*
X428890Y175151D01*
X427769Y174231D01*
X426849Y173110D01*
X426165Y171831D01*
X425744Y170443D01*
X425602Y169000D01*
X425744Y167557D01*
X426000Y166714D01*
Y166295D01*
X425810Y166010D01*
X424824Y165913D01*
X423693Y165570D01*
X422650Y165013D01*
X421737Y164263D01*
X408503Y151029D01*
X397784D01*
X397616Y151500D01*
X398651Y152349D01*
X399644Y153560D01*
X400383Y154942D01*
X400838Y156441D01*
X400991Y158000D01*
X400838Y159559D01*
X400383Y161058D01*
X399644Y162440D01*
X399185Y163000D01*
X399644Y163560D01*
X400383Y164942D01*
X400838Y166441D01*
X400991Y168000D01*
X400838Y169559D01*
X400383Y171058D01*
X399644Y172440D01*
X399185Y173000D01*
X399644Y173560D01*
X400383Y174942D01*
X400838Y176441D01*
X400991Y178000D01*
X400838Y179559D01*
X400383Y181058D01*
X399644Y182440D01*
X399185Y183000D01*
X399644Y183560D01*
X400383Y184942D01*
X400838Y186441D01*
X400991Y188000D01*
X400838Y189559D01*
X400383Y191058D01*
X399644Y192440D01*
X398651Y193651D01*
X397616Y194500D01*
X397784Y194971D01*
X430503D01*
X442737Y182737D01*
D02*
G37*
G36*
X309737Y196737D02*
X309737Y196737D01*
X309737Y196737D01*
Y196737D01*
X309737Y196737D01*
Y196737D01*
X310650Y195987D01*
X311693Y195430D01*
X311693Y195430D01*
X311693Y195430D01*
D01*
X311693Y195430D01*
X311693Y195430D01*
X312824Y195087D01*
X314000Y194971D01*
X355047D01*
Y180047D01*
X359120D01*
X359397Y179631D01*
X359149Y179032D01*
X359079Y178500D01*
X366921D01*
X366851Y179032D01*
X366603Y179631D01*
X366880Y180047D01*
X370953D01*
Y194971D01*
X388216D01*
X388385Y194500D01*
X387349Y193651D01*
X386355Y192440D01*
X385617Y191058D01*
X385162Y189559D01*
X385009Y188000D01*
X385162Y186441D01*
X385617Y184942D01*
X386355Y183560D01*
X386815Y183000D01*
X386355Y182440D01*
X385617Y181058D01*
X385162Y179559D01*
X385009Y178000D01*
X385162Y176441D01*
X385617Y174942D01*
X386355Y173560D01*
X386815Y173000D01*
X386355Y172440D01*
X385617Y171058D01*
X385162Y169559D01*
X385009Y168000D01*
X385162Y166441D01*
X385617Y164942D01*
X386355Y163560D01*
X386815Y163000D01*
X386355Y162440D01*
X385617Y161058D01*
X385162Y159559D01*
X385009Y158000D01*
X385162Y156441D01*
X385617Y154942D01*
X386355Y153560D01*
X387349Y152349D01*
X388385Y151500D01*
X388216Y151029D01*
X369497D01*
X365790Y154736D01*
X365819Y155181D01*
X366453Y156007D01*
X366851Y156968D01*
X366921Y157500D01*
X363027D01*
X363000Y157527D01*
Y158500D01*
X366921D01*
X366851Y159032D01*
X366453Y159993D01*
X366234Y160279D01*
X366339Y160767D01*
X367440Y161355D01*
X368651Y162349D01*
X369644Y163560D01*
X370383Y164942D01*
X370838Y166441D01*
X370991Y168000D01*
X370838Y169559D01*
X370383Y171058D01*
X369644Y172440D01*
X368651Y173651D01*
X367440Y174644D01*
X366339Y175233D01*
X366234Y175721D01*
X366453Y176007D01*
X366851Y176968D01*
X366921Y177500D01*
X359079D01*
X359149Y176968D01*
X359547Y176007D01*
X359766Y175721D01*
X359661Y175233D01*
X358560Y174644D01*
X357349Y173651D01*
X356356Y172440D01*
X355617Y171058D01*
X355162Y169559D01*
X355009Y168000D01*
X355162Y166441D01*
X355333Y165880D01*
X354904Y165623D01*
X345428Y175098D01*
X345392Y175470D01*
X344963Y176884D01*
X344266Y178187D01*
X343329Y179329D01*
X342187Y180266D01*
X340884Y180963D01*
X339470Y181392D01*
X338000Y181536D01*
X336530Y181392D01*
X335116Y180963D01*
X333813Y180266D01*
X332671Y179329D01*
X331734Y178187D01*
X331037Y176884D01*
X330609Y175470D01*
X330464Y174000D01*
X330609Y172530D01*
X331037Y171116D01*
X331734Y169813D01*
X332671Y168671D01*
X333813Y167734D01*
X335116Y167037D01*
X336530Y166609D01*
X336902Y166572D01*
X362737Y140737D01*
Y140737D01*
X362737Y140737D01*
X362737Y140737D01*
Y140737D01*
X363650Y139987D01*
X364693Y139430D01*
X364693Y139430D01*
X364693Y139430D01*
D01*
X364693Y139430D01*
X364693Y139430D01*
X365824Y139087D01*
X367000Y138971D01*
X411000D01*
X412176Y139087D01*
X413307Y139430D01*
X413307Y139430D01*
X413307Y139430D01*
X414350Y139987D01*
X415263Y140737D01*
X415263Y140737D01*
X415263Y140737D01*
X428497Y153971D01*
X533971D01*
Y138497D01*
X503503Y108029D01*
X493953D01*
Y119953D01*
X489880D01*
X489603Y120369D01*
X489851Y120968D01*
X489921Y121500D01*
X482079D01*
X482149Y120968D01*
X482397Y120369D01*
X482120Y119953D01*
X478047D01*
Y108029D01*
X401906D01*
X401571Y108399D01*
X401694Y109657D01*
X401547Y111159D01*
X401109Y112602D01*
X400398Y113932D01*
X399441Y115098D01*
X398275Y116055D01*
X396945Y116766D01*
X395501Y117204D01*
X394000Y117352D01*
X392499Y117204D01*
X391055Y116766D01*
X389725Y116055D01*
X388559Y115098D01*
X387602Y113932D01*
X386891Y112602D01*
X386453Y111159D01*
X386305Y109657D01*
X386429Y108399D01*
X386094Y108029D01*
X373207D01*
X372994Y108481D01*
X373266Y108813D01*
X373963Y110116D01*
X374392Y111530D01*
X374536Y113000D01*
X374392Y114470D01*
X373963Y115884D01*
X373266Y117187D01*
X372329Y118329D01*
X371187Y119266D01*
X369884Y119963D01*
X368470Y120391D01*
X368098Y120428D01*
X355263Y133263D01*
X354349Y134013D01*
X353307Y134570D01*
X352176Y134913D01*
X351000Y135029D01*
X339497D01*
X335263Y139263D01*
X334349Y140013D01*
X333307Y140570D01*
X332176Y140913D01*
X331000Y141029D01*
X301497D01*
X292441Y150085D01*
X292632Y150547D01*
X293500D01*
Y154000D01*
X290047D01*
Y153132D01*
X289585Y152941D01*
X259029Y183497D01*
Y204061D01*
X260059Y204162D01*
X261558Y204617D01*
X262940Y205356D01*
X263500Y205815D01*
X264060Y205356D01*
X265442Y204617D01*
X266941Y204162D01*
X268500Y204009D01*
X270059Y204162D01*
X271558Y204617D01*
X272940Y205356D01*
X273500Y205815D01*
X274060Y205356D01*
X275442Y204617D01*
X276941Y204162D01*
X278500Y204009D01*
X280059Y204162D01*
X280295Y204234D01*
X280547Y204047D01*
Y204047D01*
X296453D01*
Y209368D01*
X296915Y209559D01*
X309737Y196737D01*
D02*
G37*
G36*
X286059Y220415D02*
X285868Y219953D01*
X280547D01*
Y219953D01*
X280295Y219766D01*
X280059Y219838D01*
X278500Y219991D01*
X276941Y219838D01*
X275442Y219383D01*
X274060Y218644D01*
X273500Y218185D01*
X272940Y218644D01*
X271558Y219383D01*
X270059Y219838D01*
X268500Y219991D01*
X266941Y219838D01*
X265442Y219383D01*
X264060Y218644D01*
X263795Y218427D01*
X263338Y218630D01*
X263330Y218804D01*
X270098Y225572D01*
X270470Y225608D01*
X271884Y226037D01*
X273187Y226734D01*
X274329Y227671D01*
X275266Y228813D01*
X275902Y230003D01*
X276397Y230077D01*
X286059Y220415D01*
D02*
G37*
G36*
X519813Y315734D02*
X521116Y315037D01*
X522530Y314609D01*
X522902Y314572D01*
X533971Y303503D01*
Y213209D01*
X533509Y213017D01*
X519029Y227497D01*
Y315792D01*
X519481Y316006D01*
X519813Y315734D01*
D02*
G37*
G36*
X347737Y398737D02*
Y398737D01*
X347737Y398737D01*
X347737Y398737D01*
Y398737D01*
X348651Y397987D01*
X349693Y397430D01*
X349693Y397430D01*
X349693Y397430D01*
D01*
X349693Y397430D01*
X349693Y397430D01*
X350824Y397087D01*
X352000Y396971D01*
X352000Y396971D01*
X400524D01*
X400813Y396734D01*
X402116Y396037D01*
X403530Y395608D01*
X405000Y395464D01*
X406470Y395608D01*
X407799Y396012D01*
X408056Y395583D01*
X400503Y388029D01*
X336381D01*
X336124Y388458D01*
X336383Y388942D01*
X336838Y390441D01*
X336991Y392000D01*
X336838Y393559D01*
X336766Y393795D01*
X336953Y394047D01*
X336953D01*
Y408868D01*
X337415Y409059D01*
X347737Y398737D01*
D02*
G37*
%LPC*%
G36*
X31500Y140325D02*
Y137500D01*
X34325D01*
X34276Y137878D01*
X33937Y138696D01*
X33398Y139398D01*
X32696Y139937D01*
X31878Y140276D01*
X31500Y140325D01*
D02*
G37*
G36*
X346000Y141000D02*
X342777D01*
X342841Y140519D01*
X343219Y139606D01*
X343821Y138821D01*
X344606Y138219D01*
X345519Y137841D01*
X346000Y137777D01*
Y141000D01*
D02*
G37*
G36*
X142500Y139723D02*
X142019Y139659D01*
X141106Y139281D01*
X140321Y138679D01*
X139719Y137894D01*
X139341Y136980D01*
X139278Y136500D01*
X142500D01*
Y139723D01*
D02*
G37*
G36*
X143500D02*
Y136500D01*
X146722D01*
X146659Y136980D01*
X146281Y137894D01*
X145679Y138679D01*
X144894Y139281D01*
X143981Y139659D01*
X143500Y139723D01*
D02*
G37*
G36*
X350222Y141000D02*
X347000D01*
Y137777D01*
X347481Y137841D01*
X348394Y138219D01*
X349179Y138821D01*
X349781Y139606D01*
X350159Y140519D01*
X350222Y141000D01*
D02*
G37*
G36*
X70500Y146657D02*
X67377D01*
X67437Y146203D01*
X67805Y145313D01*
X68391Y144549D01*
X69156Y143963D01*
X70045Y143594D01*
X70500Y143534D01*
Y146657D01*
D02*
G37*
G36*
X74623D02*
X71500D01*
Y143534D01*
X71955Y143594D01*
X72844Y143963D01*
X73609Y144549D01*
X74195Y145313D01*
X74563Y146203D01*
X74623Y146657D01*
D02*
G37*
G36*
X346000Y145222D02*
X345519Y145159D01*
X344606Y144781D01*
X343821Y144179D01*
X343219Y143394D01*
X342841Y142481D01*
X342777Y142000D01*
X346000D01*
Y145222D01*
D02*
G37*
G36*
X347000D02*
Y142000D01*
X350222D01*
X350159Y142481D01*
X349781Y143394D01*
X349179Y144179D01*
X348394Y144781D01*
X347481Y145159D01*
X347000Y145222D01*
D02*
G37*
G36*
X485500Y125921D02*
X484968Y125851D01*
X484007Y125453D01*
X483181Y124819D01*
X482547Y123993D01*
X482149Y123032D01*
X482079Y122500D01*
X485500D01*
Y125921D01*
D02*
G37*
G36*
X486500D02*
Y122500D01*
X489921D01*
X489851Y123032D01*
X489453Y123993D01*
X488819Y124819D01*
X487993Y125453D01*
X487032Y125851D01*
X486500Y125921D01*
D02*
G37*
G36*
X261325Y124500D02*
X258500D01*
Y121675D01*
X258878Y121724D01*
X259696Y122063D01*
X260398Y122602D01*
X260937Y123304D01*
X261276Y124122D01*
X261325Y124500D01*
D02*
G37*
G36*
X401657Y137000D02*
X386343D01*
Y121685D01*
X401657D01*
Y137000D01*
D02*
G37*
G36*
X265362Y152362D02*
X250638D01*
Y137638D01*
X250687D01*
X250985Y137236D01*
X250744Y136443D01*
X250602Y135000D01*
X250744Y133557D01*
X251165Y132169D01*
X251849Y130890D01*
X252769Y129769D01*
X253890Y128849D01*
X255169Y128165D01*
X255673Y128013D01*
X255762Y127521D01*
X255602Y127398D01*
X255063Y126696D01*
X254724Y125878D01*
X254675Y125500D01*
X261325D01*
X261276Y125878D01*
X260937Y126696D01*
X260398Y127398D01*
X260238Y127521D01*
X260328Y128013D01*
X260831Y128165D01*
X262110Y128849D01*
X263231Y129769D01*
X264151Y130890D01*
X264835Y132169D01*
X265256Y133557D01*
X265398Y135000D01*
X265256Y136443D01*
X265015Y137236D01*
X265313Y137638D01*
X265362D01*
Y152362D01*
D02*
G37*
G36*
X21000Y144398D02*
X19557Y144256D01*
X18169Y143835D01*
X16890Y143151D01*
X15769Y142231D01*
X14849Y141110D01*
X14165Y139831D01*
X13744Y138443D01*
X13602Y137000D01*
X13744Y135557D01*
X14165Y134169D01*
X14849Y132890D01*
X15769Y131769D01*
X16890Y130849D01*
X18169Y130165D01*
X19557Y129744D01*
X21000Y129602D01*
X22443Y129744D01*
X23831Y130165D01*
X25110Y130849D01*
X26231Y131769D01*
X27151Y132890D01*
X27835Y134169D01*
X27987Y134672D01*
X28479Y134762D01*
X28602Y134602D01*
X29304Y134063D01*
X30122Y133724D01*
X30500Y133675D01*
Y137000D01*
Y140325D01*
X30122Y140276D01*
X29304Y139937D01*
X28602Y139398D01*
X28479Y139238D01*
X27987Y139328D01*
X27835Y139831D01*
X27151Y141110D01*
X26231Y142231D01*
X25110Y143151D01*
X23831Y143835D01*
X22443Y144256D01*
X21000Y144398D01*
D02*
G37*
G36*
X34325Y136500D02*
X31500D01*
Y133675D01*
X31878Y133724D01*
X32696Y134063D01*
X33398Y134602D01*
X33937Y135304D01*
X34276Y136122D01*
X34325Y136500D01*
D02*
G37*
G36*
X142500Y135500D02*
X139278D01*
X139341Y135020D01*
X139719Y134106D01*
X140321Y133321D01*
X141106Y132719D01*
X142019Y132341D01*
X142500Y132278D01*
Y135500D01*
D02*
G37*
G36*
X146722D02*
X143500D01*
Y132278D01*
X143981Y132341D01*
X144894Y132719D01*
X145679Y133321D01*
X146281Y134106D01*
X146659Y135020D01*
X146722Y135500D01*
D02*
G37*
G36*
X70500Y150781D02*
X70045Y150721D01*
X69156Y150352D01*
X68391Y149766D01*
X67805Y149002D01*
X67437Y148112D01*
X67377Y147657D01*
X70500D01*
Y150781D01*
D02*
G37*
G36*
X304500Y158421D02*
Y155000D01*
X307921D01*
X307851Y155532D01*
X307453Y156493D01*
X306819Y157319D01*
X305993Y157953D01*
X305032Y158351D01*
X304500Y158421D01*
D02*
G37*
G36*
X313500D02*
X312968Y158351D01*
X312007Y157953D01*
X311181Y157319D01*
X310547Y156493D01*
X310149Y155532D01*
X310079Y155000D01*
X313500D01*
Y158421D01*
D02*
G37*
G36*
X297953Y158453D02*
X294500D01*
Y155000D01*
X297953D01*
Y158453D01*
D02*
G37*
G36*
X303500Y158421D02*
X302968Y158351D01*
X302007Y157953D01*
X301181Y157319D01*
X300547Y156493D01*
X300149Y155532D01*
X300079Y155000D01*
X303500D01*
Y158421D01*
D02*
G37*
G36*
X314500D02*
Y155000D01*
X317921D01*
X317851Y155532D01*
X317453Y156493D01*
X316819Y157319D01*
X315993Y157953D01*
X315032Y158351D01*
X314500Y158421D01*
D02*
G37*
G36*
X109000Y173793D02*
X107480Y173644D01*
X106018Y173200D01*
X104670Y172480D01*
X103489Y171511D01*
X102520Y170330D01*
X101800Y168982D01*
X101356Y167520D01*
X101207Y166000D01*
X101356Y164480D01*
X101800Y163018D01*
X102520Y161670D01*
X103489Y160489D01*
X104670Y159520D01*
X106018Y158800D01*
X107480Y158356D01*
X109000Y158207D01*
X110520Y158356D01*
X111982Y158800D01*
X113330Y159520D01*
X114511Y160489D01*
X115480Y161670D01*
X116200Y163018D01*
X116644Y164480D01*
X116793Y166000D01*
X116644Y167520D01*
X116200Y168982D01*
X115480Y170330D01*
X114511Y171511D01*
X113330Y172480D01*
X111982Y173200D01*
X110520Y173644D01*
X109000Y173793D01*
D02*
G37*
G36*
X143000D02*
X141480Y173644D01*
X140018Y173200D01*
X138670Y172480D01*
X137489Y171511D01*
X136520Y170330D01*
X135800Y168982D01*
X135356Y167520D01*
X135207Y166000D01*
X135356Y164480D01*
X135800Y163018D01*
X136520Y161670D01*
X137489Y160489D01*
X138670Y159520D01*
X140018Y158800D01*
X141480Y158356D01*
X143000Y158207D01*
X144520Y158356D01*
X145982Y158800D01*
X147330Y159520D01*
X148511Y160489D01*
X149480Y161670D01*
X150200Y163018D01*
X150644Y164480D01*
X150793Y166000D01*
X150644Y167520D01*
X150200Y168982D01*
X149480Y170330D01*
X148511Y171511D01*
X147330Y172480D01*
X145982Y173200D01*
X144520Y173644D01*
X143000Y173793D01*
D02*
G37*
G36*
X323500Y158421D02*
X322968Y158351D01*
X322007Y157953D01*
X321181Y157319D01*
X320547Y156493D01*
X320149Y155532D01*
X320079Y155000D01*
X323500D01*
Y158421D01*
D02*
G37*
G36*
X324500D02*
Y155000D01*
X327921D01*
X327851Y155532D01*
X327453Y156493D01*
X326819Y157319D01*
X325993Y157953D01*
X325032Y158351D01*
X324500Y158421D01*
D02*
G37*
G36*
X303500Y154000D02*
X300079D01*
X300149Y153468D01*
X300547Y152507D01*
X301181Y151681D01*
X302007Y151047D01*
X302968Y150649D01*
X303500Y150579D01*
Y154000D01*
D02*
G37*
G36*
X307921D02*
X304500D01*
Y150579D01*
X305032Y150649D01*
X305993Y151047D01*
X306819Y151681D01*
X307453Y152507D01*
X307851Y153468D01*
X307921Y154000D01*
D02*
G37*
G36*
X71500Y150781D02*
Y147657D01*
X74623D01*
X74563Y148112D01*
X74195Y149002D01*
X73609Y149766D01*
X72844Y150352D01*
X71955Y150721D01*
X71500Y150781D01*
D02*
G37*
G36*
X297953Y154000D02*
X294500D01*
Y150547D01*
X297953D01*
Y154000D01*
D02*
G37*
G36*
X313500D02*
X310079D01*
X310149Y153468D01*
X310547Y152507D01*
X311181Y151681D01*
X312007Y151047D01*
X312968Y150649D01*
X313500Y150579D01*
Y154000D01*
D02*
G37*
G36*
X327921D02*
X324500D01*
Y150579D01*
X325032Y150649D01*
X325993Y151047D01*
X326819Y151681D01*
X327453Y152507D01*
X327851Y153468D01*
X327921Y154000D01*
D02*
G37*
G36*
X293500Y158453D02*
X290047D01*
Y155000D01*
X293500D01*
Y158453D01*
D02*
G37*
G36*
X317921Y154000D02*
X314500D01*
Y150579D01*
X315032Y150649D01*
X315993Y151047D01*
X316819Y151681D01*
X317453Y152507D01*
X317851Y153468D01*
X317921Y154000D01*
D02*
G37*
G36*
X323500D02*
X320079D01*
X320149Y153468D01*
X320547Y152507D01*
X321181Y151681D01*
X322007Y151047D01*
X322968Y150649D01*
X323500Y150579D01*
Y154000D01*
D02*
G37*
G36*
X449000Y59991D02*
X447441Y59838D01*
X445942Y59383D01*
X444560Y58644D01*
X444000Y58185D01*
X443440Y58644D01*
X442058Y59383D01*
X440559Y59838D01*
X439000Y59991D01*
X437441Y59838D01*
X435942Y59383D01*
X434560Y58644D01*
X434000Y58185D01*
X433440Y58644D01*
X432058Y59383D01*
X430559Y59838D01*
X429000Y59991D01*
X427441Y59838D01*
X425942Y59383D01*
X424560Y58644D01*
X424000Y58185D01*
X423440Y58644D01*
X422058Y59383D01*
X420559Y59838D01*
X419000Y59991D01*
X417441Y59838D01*
X415942Y59383D01*
X414560Y58644D01*
X414000Y58185D01*
X413440Y58644D01*
X412058Y59383D01*
X410559Y59838D01*
X409000Y59991D01*
X407441Y59838D01*
X405942Y59383D01*
X404560Y58644D01*
X404000Y58185D01*
X403440Y58644D01*
X402058Y59383D01*
X400559Y59838D01*
X399000Y59991D01*
X397441Y59838D01*
X395942Y59383D01*
X394560Y58644D01*
X394000Y58185D01*
X393440Y58644D01*
X392058Y59383D01*
X390559Y59838D01*
X389000Y59991D01*
X387441Y59838D01*
X385942Y59383D01*
X384560Y58644D01*
X384000Y58185D01*
X383440Y58644D01*
X382058Y59383D01*
X380559Y59838D01*
X379000Y59991D01*
X377441Y59838D01*
X375942Y59383D01*
X374560Y58644D01*
X374000Y58185D01*
X373440Y58644D01*
X372058Y59383D01*
X370559Y59838D01*
X369000Y59991D01*
X367441Y59838D01*
X365942Y59383D01*
X364560Y58644D01*
X364000Y58185D01*
X363440Y58644D01*
X362058Y59383D01*
X360559Y59838D01*
X359000Y59991D01*
X357441Y59838D01*
X355942Y59383D01*
X354560Y58644D01*
X354000Y58185D01*
X353440Y58644D01*
X352058Y59383D01*
X350559Y59838D01*
X349000Y59991D01*
X347441Y59838D01*
X345942Y59383D01*
X344560Y58644D01*
X343349Y57651D01*
X342355Y56440D01*
X341767Y55339D01*
X341279Y55234D01*
X340993Y55453D01*
X340032Y55851D01*
X339500Y55921D01*
Y52000D01*
Y48079D01*
X340032Y48149D01*
X340993Y48547D01*
X341279Y48766D01*
X341767Y48661D01*
X342355Y47560D01*
X343349Y46349D01*
X344560Y45355D01*
X345942Y44617D01*
X347441Y44162D01*
X349000Y44009D01*
X350559Y44162D01*
X352058Y44617D01*
X353440Y45355D01*
X354000Y45815D01*
X354560Y45355D01*
X355942Y44617D01*
X357441Y44162D01*
X359000Y44009D01*
X360559Y44162D01*
X362058Y44617D01*
X363440Y45355D01*
X364000Y45815D01*
X364560Y45355D01*
X365942Y44617D01*
X367441Y44162D01*
X369000Y44009D01*
X370559Y44162D01*
X372058Y44617D01*
X373440Y45355D01*
X374000Y45815D01*
X374560Y45355D01*
X375942Y44617D01*
X377441Y44162D01*
X379000Y44009D01*
X380559Y44162D01*
X382058Y44617D01*
X383440Y45355D01*
X384000Y45815D01*
X384560Y45355D01*
X385942Y44617D01*
X387441Y44162D01*
X389000Y44009D01*
X390559Y44162D01*
X392058Y44617D01*
X393440Y45355D01*
X394000Y45815D01*
X394560Y45355D01*
X395942Y44617D01*
X397441Y44162D01*
X399000Y44009D01*
X400559Y44162D01*
X402058Y44617D01*
X403440Y45355D01*
X404000Y45815D01*
X404560Y45355D01*
X405942Y44617D01*
X407441Y44162D01*
X409000Y44009D01*
X410559Y44162D01*
X412058Y44617D01*
X413440Y45355D01*
X414000Y45815D01*
X414560Y45355D01*
X415942Y44617D01*
X417441Y44162D01*
X419000Y44009D01*
X420559Y44162D01*
X422058Y44617D01*
X423440Y45355D01*
X424000Y45815D01*
X424560Y45355D01*
X425942Y44617D01*
X427441Y44162D01*
X429000Y44009D01*
X430559Y44162D01*
X432058Y44617D01*
X433440Y45355D01*
X434000Y45815D01*
X434560Y45355D01*
X435942Y44617D01*
X437441Y44162D01*
X439000Y44009D01*
X440559Y44162D01*
X442058Y44617D01*
X443440Y45355D01*
X444000Y45815D01*
X444560Y45355D01*
X445942Y44617D01*
X447441Y44162D01*
X449000Y44009D01*
X450559Y44162D01*
X452058Y44617D01*
X453440Y45355D01*
X454651Y46349D01*
X455645Y47560D01*
X456383Y48942D01*
X456838Y50441D01*
X456991Y52000D01*
X456838Y53559D01*
X456383Y55058D01*
X455645Y56440D01*
X454651Y57651D01*
X453440Y58644D01*
X452058Y59383D01*
X450559Y59838D01*
X449000Y59991D01*
D02*
G37*
G36*
X227000Y91793D02*
X225480Y91644D01*
X224018Y91200D01*
X222670Y90480D01*
X221489Y89511D01*
X220520Y88330D01*
X219800Y86982D01*
X219356Y85520D01*
X219207Y84000D01*
X219356Y82480D01*
X219800Y81018D01*
X220520Y79670D01*
X221489Y78489D01*
X222670Y77520D01*
X224018Y76800D01*
X225480Y76356D01*
X227000Y76207D01*
X228520Y76356D01*
X229982Y76800D01*
X231330Y77520D01*
X232511Y78489D01*
X233480Y79670D01*
X234200Y81018D01*
X234644Y82480D01*
X234793Y84000D01*
X234644Y85520D01*
X234200Y86982D01*
X233480Y88330D01*
X232511Y89511D01*
X231330Y90480D01*
X229982Y91200D01*
X228520Y91644D01*
X227000Y91793D01*
D02*
G37*
G36*
X298500Y55953D02*
X295047D01*
Y52500D01*
X298500D01*
Y55953D01*
D02*
G37*
G36*
X329000Y59991D02*
X327441Y59838D01*
X325942Y59383D01*
X324560Y58644D01*
X324000Y58185D01*
X323440Y58644D01*
X322058Y59383D01*
X320559Y59838D01*
X319000Y59991D01*
X317441Y59838D01*
X315942Y59383D01*
X314560Y58644D01*
X314000Y58185D01*
X313440Y58644D01*
X312058Y59383D01*
X310559Y59838D01*
X309000Y59991D01*
X307441Y59838D01*
X305942Y59383D01*
X304560Y58644D01*
X303349Y57651D01*
X302356Y56440D01*
X302095Y55953D01*
X299500D01*
Y52000D01*
Y48047D01*
X302095D01*
X302356Y47560D01*
X303349Y46349D01*
X304560Y45355D01*
X305942Y44617D01*
X307441Y44162D01*
X309000Y44009D01*
X310559Y44162D01*
X312058Y44617D01*
X313440Y45355D01*
X314000Y45815D01*
X314560Y45355D01*
X315942Y44617D01*
X317441Y44162D01*
X319000Y44009D01*
X320559Y44162D01*
X322058Y44617D01*
X323440Y45355D01*
X324000Y45815D01*
X324560Y45355D01*
X325942Y44617D01*
X327441Y44162D01*
X329000Y44009D01*
X330559Y44162D01*
X332058Y44617D01*
X333440Y45355D01*
X334651Y46349D01*
X335645Y47560D01*
X336233Y48661D01*
X336721Y48766D01*
X337007Y48547D01*
X337968Y48149D01*
X338500Y48079D01*
Y52000D01*
Y55921D01*
X337968Y55851D01*
X337007Y55453D01*
X336721Y55234D01*
X336233Y55339D01*
X335645Y56440D01*
X334651Y57651D01*
X333440Y58644D01*
X332058Y59383D01*
X330559Y59838D01*
X329000Y59991D01*
D02*
G37*
G36*
X259000Y83500D02*
X255778D01*
X255841Y83020D01*
X256219Y82106D01*
X256821Y81321D01*
X257606Y80719D01*
X258520Y80341D01*
X259000Y80278D01*
Y83500D01*
D02*
G37*
G36*
X107658Y99815D02*
X92343D01*
Y84500D01*
X107658D01*
Y99815D01*
D02*
G37*
G36*
X259000Y87722D02*
X258520Y87659D01*
X257606Y87281D01*
X256821Y86679D01*
X256219Y85894D01*
X255841Y84980D01*
X255778Y84500D01*
X259000D01*
Y87722D01*
D02*
G37*
G36*
X263223Y83500D02*
X260000D01*
Y80278D01*
X260480Y80341D01*
X261394Y80719D01*
X262179Y81321D01*
X262781Y82106D01*
X263159Y83020D01*
X263223Y83500D01*
D02*
G37*
G36*
X74657Y99815D02*
X59342D01*
Y84500D01*
X74657D01*
Y99815D01*
D02*
G37*
G36*
X17000Y22043D02*
X13500D01*
Y13500D01*
X22043D01*
Y17000D01*
X21871Y18305D01*
X21368Y19522D01*
X20566Y20566D01*
X19522Y21368D01*
X18305Y21871D01*
X17000Y22043D01*
D02*
G37*
G36*
X536500D02*
X533000D01*
X531695Y21871D01*
X530478Y21368D01*
X529434Y20566D01*
X528632Y19522D01*
X528129Y18305D01*
X527957Y17000D01*
Y13500D01*
X536500D01*
Y22043D01*
D02*
G37*
G36*
X120500Y15000D02*
X117675D01*
X117724Y14622D01*
X118063Y13804D01*
X118602Y13102D01*
X119304Y12563D01*
X120122Y12224D01*
X120500Y12175D01*
Y15000D01*
D02*
G37*
G36*
X124325D02*
X121500D01*
Y12175D01*
X121878Y12224D01*
X122696Y12563D01*
X123398Y13102D01*
X123937Y13804D01*
X124276Y14622D01*
X124325Y15000D01*
D02*
G37*
G36*
X121000Y32898D02*
X119557Y32756D01*
X118169Y32335D01*
X116890Y31651D01*
X115769Y30731D01*
X114849Y29610D01*
X114165Y28331D01*
X113744Y26943D01*
X113602Y25500D01*
X113744Y24057D01*
X114165Y22669D01*
X114849Y21390D01*
X115769Y20269D01*
X116890Y19349D01*
X118169Y18665D01*
X118673Y18513D01*
X118762Y18021D01*
X118602Y17898D01*
X118063Y17196D01*
X117724Y16378D01*
X117675Y16000D01*
X124325D01*
X124276Y16378D01*
X123937Y17196D01*
X123398Y17898D01*
X123238Y18021D01*
X123328Y18513D01*
X123831Y18665D01*
X125110Y19349D01*
X126231Y20269D01*
X127151Y21390D01*
X127835Y22669D01*
X128256Y24057D01*
X128398Y25500D01*
X128256Y26943D01*
X127835Y28331D01*
X127151Y29610D01*
X126231Y30731D01*
X125110Y31651D01*
X123831Y32335D01*
X122443Y32756D01*
X121000Y32898D01*
D02*
G37*
G36*
X259500Y61793D02*
X257980Y61644D01*
X256518Y61200D01*
X255170Y60480D01*
X253989Y59511D01*
X253020Y58330D01*
X252300Y56982D01*
X251856Y55520D01*
X251707Y54000D01*
X251856Y52480D01*
X252300Y51018D01*
X253020Y49670D01*
X253989Y48489D01*
X255170Y47520D01*
X256518Y46800D01*
X257980Y46356D01*
X259500Y46207D01*
X261020Y46356D01*
X262482Y46800D01*
X263830Y47520D01*
X265011Y48489D01*
X265980Y49670D01*
X266700Y51018D01*
X267144Y52480D01*
X267293Y54000D01*
X267144Y55520D01*
X266700Y56982D01*
X265980Y58330D01*
X265011Y59511D01*
X263830Y60480D01*
X262482Y61200D01*
X261020Y61644D01*
X259500Y61793D01*
D02*
G37*
G36*
X298500Y51500D02*
X295047D01*
Y48047D01*
X298500D01*
Y51500D01*
D02*
G37*
G36*
X194921Y78500D02*
X187079D01*
X187149Y77968D01*
X187547Y77007D01*
X187766Y76721D01*
X187661Y76233D01*
X186560Y75644D01*
X185349Y74651D01*
X184355Y73440D01*
X183617Y72058D01*
X183162Y70559D01*
X183009Y69000D01*
X183162Y67441D01*
X183617Y65942D01*
X184355Y64560D01*
X184815Y64000D01*
X184355Y63440D01*
X183617Y62058D01*
X183162Y60559D01*
X183009Y59000D01*
X183162Y57441D01*
X183234Y57205D01*
X183047Y56953D01*
X183047D01*
Y41047D01*
X198953D01*
Y56953D01*
X198953D01*
X198766Y57205D01*
X198838Y57441D01*
X198991Y59000D01*
X198838Y60559D01*
X198383Y62058D01*
X197644Y63440D01*
X197185Y64000D01*
X197644Y64560D01*
X198383Y65942D01*
X198838Y67441D01*
X198991Y69000D01*
X198838Y70559D01*
X198383Y72058D01*
X197644Y73440D01*
X196651Y74651D01*
X195440Y75644D01*
X194339Y76233D01*
X194234Y76721D01*
X194453Y77007D01*
X194851Y77968D01*
X194921Y78500D01*
D02*
G37*
G36*
X227000Y61793D02*
X225480Y61644D01*
X224018Y61200D01*
X222670Y60480D01*
X221489Y59511D01*
X220520Y58330D01*
X219800Y56982D01*
X219356Y55520D01*
X219207Y54000D01*
X219356Y52480D01*
X219800Y51018D01*
X220520Y49670D01*
X221489Y48489D01*
X222670Y47520D01*
X224018Y46800D01*
X225480Y46356D01*
X227000Y46207D01*
X228520Y46356D01*
X229982Y46800D01*
X231330Y47520D01*
X232511Y48489D01*
X233480Y49670D01*
X234200Y51018D01*
X234644Y52480D01*
X234793Y54000D01*
X234644Y55520D01*
X234200Y56982D01*
X233480Y58330D01*
X232511Y59511D01*
X231330Y60480D01*
X229982Y61200D01*
X228520Y61644D01*
X227000Y61793D01*
D02*
G37*
G36*
X260000Y87722D02*
Y84500D01*
X263223D01*
X263159Y84980D01*
X262781Y85894D01*
X262179Y86679D01*
X261394Y87281D01*
X260480Y87659D01*
X260000Y87722D01*
D02*
G37*
G36*
X100500Y115466D02*
Y112343D01*
X103623D01*
X103563Y112797D01*
X103195Y113687D01*
X102609Y114451D01*
X101845Y115037D01*
X100955Y115406D01*
X100500Y115466D01*
D02*
G37*
G36*
X436000Y138898D02*
X434557Y138756D01*
X433169Y138335D01*
X431890Y137651D01*
X430769Y136731D01*
X429849Y135610D01*
X429165Y134331D01*
X428744Y132943D01*
X428602Y131500D01*
X428744Y130057D01*
X429165Y128669D01*
X429849Y127390D01*
X430579Y126500D01*
X429849Y125610D01*
X429165Y124331D01*
X428744Y122943D01*
X428602Y121500D01*
X428744Y120057D01*
X429165Y118669D01*
X429849Y117390D01*
X430769Y116269D01*
X431890Y115349D01*
X433169Y114665D01*
X434557Y114244D01*
X436000Y114102D01*
X437443Y114244D01*
X438831Y114665D01*
X440110Y115349D01*
X441231Y116269D01*
X442151Y117390D01*
X442835Y118669D01*
X443256Y120057D01*
X443398Y121500D01*
X443256Y122943D01*
X442835Y124331D01*
X442151Y125610D01*
X441421Y126500D01*
X442151Y127390D01*
X442835Y128669D01*
X443256Y130057D01*
X443398Y131500D01*
X443256Y132943D01*
X442835Y134331D01*
X442151Y135610D01*
X441231Y136731D01*
X440110Y137651D01*
X438831Y138335D01*
X437443Y138756D01*
X436000Y138898D01*
D02*
G37*
G36*
X67500Y115466D02*
Y112343D01*
X70623D01*
X70563Y112797D01*
X70195Y113687D01*
X69609Y114451D01*
X68844Y115037D01*
X67955Y115406D01*
X67500Y115466D01*
D02*
G37*
G36*
X99500D02*
X99045Y115406D01*
X98155Y115037D01*
X97391Y114451D01*
X96805Y113687D01*
X96437Y112797D01*
X96377Y112343D01*
X99500D01*
Y115466D01*
D02*
G37*
G36*
X78658Y174500D02*
X63342D01*
Y159185D01*
X77289D01*
X101287Y135187D01*
X101356Y134480D01*
X101800Y133018D01*
X102520Y131670D01*
X103489Y130489D01*
X104670Y129520D01*
X106018Y128800D01*
X107480Y128356D01*
X108187Y128287D01*
X115572Y120902D01*
X115609Y120530D01*
X116037Y119116D01*
X116734Y117813D01*
X117671Y116671D01*
X118813Y115734D01*
X120116Y115037D01*
X121530Y114609D01*
X123000Y114464D01*
X124470Y114609D01*
X125884Y115037D01*
X127187Y115734D01*
X128329Y116671D01*
X129266Y117813D01*
X129963Y119116D01*
X130392Y120530D01*
X130536Y122000D01*
X130392Y123470D01*
X129963Y124884D01*
X129266Y126187D01*
X128329Y127329D01*
X127187Y128266D01*
X125884Y128963D01*
X124470Y129392D01*
X124098Y129428D01*
X116713Y136813D01*
X116644Y137520D01*
X116200Y138982D01*
X115480Y140330D01*
X114511Y141511D01*
X113330Y142480D01*
X111982Y143200D01*
X110520Y143644D01*
X109813Y143713D01*
X82421Y171106D01*
X81507Y171856D01*
X80465Y172413D01*
X79334Y172756D01*
X78658Y172822D01*
Y174500D01*
D02*
G37*
G36*
X225000Y137398D02*
X223557Y137256D01*
X222169Y136835D01*
X220890Y136151D01*
X219769Y135231D01*
X218849Y134110D01*
X218165Y132831D01*
X217744Y131443D01*
X217602Y130000D01*
X217744Y128557D01*
X218165Y127169D01*
X218849Y125890D01*
X219769Y124769D01*
X220890Y123849D01*
X222169Y123165D01*
X222673Y123013D01*
X222762Y122521D01*
X222602Y122398D01*
X222063Y121696D01*
X221724Y120878D01*
X221675Y120500D01*
X228325D01*
X228276Y120878D01*
X227937Y121696D01*
X227398Y122398D01*
X227238Y122521D01*
X227327Y123013D01*
X227831Y123165D01*
X229110Y123849D01*
X230231Y124769D01*
X231151Y125890D01*
X231835Y127169D01*
X232256Y128557D01*
X232398Y130000D01*
X232256Y131443D01*
X231835Y132831D01*
X231151Y134110D01*
X230231Y135231D01*
X229110Y136151D01*
X227831Y136835D01*
X226443Y137256D01*
X225000Y137398D01*
D02*
G37*
G36*
X257500Y124500D02*
X254675D01*
X254724Y124122D01*
X255063Y123304D01*
X255602Y122602D01*
X256304Y122063D01*
X257122Y121724D01*
X257500Y121675D01*
Y124500D01*
D02*
G37*
G36*
X224500Y119500D02*
X221675D01*
X221724Y119122D01*
X222063Y118304D01*
X222602Y117602D01*
X223304Y117063D01*
X224122Y116724D01*
X224500Y116675D01*
Y119500D01*
D02*
G37*
G36*
X228325D02*
X225500D01*
Y116675D01*
X225878Y116724D01*
X226696Y117063D01*
X227398Y117602D01*
X227937Y118304D01*
X228276Y119122D01*
X228325Y119500D01*
D02*
G37*
G36*
X26500Y111421D02*
Y108000D01*
X29921D01*
X29851Y108532D01*
X29453Y109493D01*
X28819Y110319D01*
X27993Y110953D01*
X27032Y111351D01*
X26500Y111421D01*
D02*
G37*
G36*
X66500Y111343D02*
X63377D01*
X63437Y110888D01*
X63805Y109998D01*
X64391Y109234D01*
X65156Y108648D01*
X66045Y108279D01*
X66500Y108219D01*
Y111343D01*
D02*
G37*
G36*
X29921Y107000D02*
X22079D01*
X22149Y106468D01*
X22397Y105868D01*
X22120Y105453D01*
X18047D01*
Y89547D01*
X33953D01*
Y105453D01*
X29880D01*
X29603Y105868D01*
X29851Y106468D01*
X29921Y107000D01*
D02*
G37*
G36*
X25500Y111421D02*
X24968Y111351D01*
X24007Y110953D01*
X23181Y110319D01*
X22547Y109493D01*
X22149Y108532D01*
X22079Y108000D01*
X25500D01*
Y111421D01*
D02*
G37*
G36*
X70623Y111343D02*
X67500D01*
Y108219D01*
X67955Y108279D01*
X68844Y108648D01*
X69609Y109234D01*
X70195Y109998D01*
X70563Y110888D01*
X70623Y111343D01*
D02*
G37*
G36*
X177000Y124793D02*
X175480Y124644D01*
X174018Y124200D01*
X172670Y123480D01*
X171489Y122511D01*
X170520Y121330D01*
X169800Y119982D01*
X169356Y118520D01*
X169207Y117000D01*
X169356Y115480D01*
X169800Y114018D01*
X170520Y112670D01*
X171489Y111489D01*
X172670Y110520D01*
X174018Y109800D01*
X175480Y109356D01*
X177000Y109207D01*
X178520Y109356D01*
X179982Y109800D01*
X181330Y110520D01*
X182511Y111489D01*
X183480Y112670D01*
X184200Y114018D01*
X184644Y115480D01*
X184793Y117000D01*
X184644Y118520D01*
X184200Y119982D01*
X183480Y121330D01*
X182511Y122511D01*
X181330Y123480D01*
X179982Y124200D01*
X178520Y124644D01*
X177000Y124793D01*
D02*
G37*
G36*
X66500Y115466D02*
X66045Y115406D01*
X65156Y115037D01*
X64391Y114451D01*
X63805Y113687D01*
X63437Y112797D01*
X63377Y112343D01*
X66500D01*
Y115466D01*
D02*
G37*
G36*
X99500Y111343D02*
X96377D01*
X96437Y110888D01*
X96805Y109998D01*
X97391Y109234D01*
X98155Y108648D01*
X99045Y108279D01*
X99500Y108219D01*
Y111343D01*
D02*
G37*
G36*
X103623D02*
X100500D01*
Y108219D01*
X100955Y108279D01*
X101845Y108648D01*
X102609Y109234D01*
X103195Y109998D01*
X103563Y110888D01*
X103623Y111343D01*
D02*
G37*
G36*
X536500Y431500D02*
X527957D01*
Y428000D01*
X528129Y426695D01*
X528632Y425478D01*
X529434Y424434D01*
X530478Y423632D01*
X531695Y423129D01*
X533000Y422957D01*
X536500D01*
Y431500D01*
D02*
G37*
G36*
X21723Y293000D02*
X18500D01*
Y289777D01*
X18981Y289841D01*
X19894Y290219D01*
X20679Y290821D01*
X21281Y291606D01*
X21659Y292519D01*
X21723Y293000D01*
D02*
G37*
G36*
X17500Y297222D02*
X17019Y297159D01*
X16106Y296781D01*
X15321Y296179D01*
X14719Y295394D01*
X14341Y294480D01*
X14277Y294000D01*
X17500D01*
Y297222D01*
D02*
G37*
G36*
X397000Y288722D02*
Y285500D01*
X400222D01*
X400159Y285981D01*
X399781Y286894D01*
X399179Y287679D01*
X398394Y288281D01*
X397481Y288659D01*
X397000Y288722D01*
D02*
G37*
G36*
X17500Y293000D02*
X14277D01*
X14341Y292519D01*
X14719Y291606D01*
X15321Y290821D01*
X16106Y290219D01*
X17019Y289841D01*
X17500Y289777D01*
Y293000D01*
D02*
G37*
G36*
X18500Y297222D02*
Y294000D01*
X21723D01*
X21659Y294480D01*
X21281Y295394D01*
X20679Y296179D01*
X19894Y296781D01*
X18981Y297159D01*
X18500Y297222D01*
D02*
G37*
G36*
X245500Y312464D02*
X245086Y312410D01*
X244235Y312057D01*
X243504Y311496D01*
X242943Y310765D01*
X242590Y309914D01*
X242536Y309500D01*
X245500D01*
Y312464D01*
D02*
G37*
G36*
X246500D02*
Y309500D01*
X249464D01*
X249410Y309914D01*
X249057Y310765D01*
X248496Y311496D01*
X247765Y312057D01*
X246914Y312410D01*
X246500Y312464D01*
D02*
G37*
G36*
X245500Y308500D02*
X242536D01*
X242590Y308086D01*
X242943Y307235D01*
X243504Y306504D01*
X244235Y305943D01*
X245086Y305590D01*
X245500Y305536D01*
Y308500D01*
D02*
G37*
G36*
X249464D02*
X246500D01*
Y305536D01*
X246914Y305590D01*
X247765Y305943D01*
X248496Y306504D01*
X249057Y307235D01*
X249410Y308086D01*
X249464Y308500D01*
D02*
G37*
G36*
X306000Y288722D02*
X305520Y288659D01*
X304606Y288281D01*
X303821Y287679D01*
X303219Y286894D01*
X302841Y285981D01*
X302778Y285500D01*
X306000D01*
Y288722D01*
D02*
G37*
G36*
X307000D02*
Y285500D01*
X310223D01*
X310159Y285981D01*
X309781Y286894D01*
X309179Y287679D01*
X308394Y288281D01*
X307481Y288659D01*
X307000Y288722D01*
D02*
G37*
G36*
X400222Y284500D02*
X397000D01*
Y281277D01*
X397481Y281341D01*
X398394Y281719D01*
X399179Y282321D01*
X399781Y283106D01*
X400159Y284019D01*
X400222Y284500D01*
D02*
G37*
G36*
X171325Y406500D02*
X168500D01*
Y403675D01*
X168878Y403724D01*
X169696Y404063D01*
X170398Y404602D01*
X170937Y405304D01*
X171276Y406122D01*
X171325Y406500D01*
D02*
G37*
G36*
X336000Y288722D02*
X335520Y288659D01*
X334606Y288281D01*
X333821Y287679D01*
X333219Y286894D01*
X332841Y285981D01*
X332778Y285500D01*
X336000D01*
Y288722D01*
D02*
G37*
G36*
X367000D02*
Y285500D01*
X370222D01*
X370159Y285981D01*
X369781Y286894D01*
X369179Y287679D01*
X368394Y288281D01*
X367480Y288659D01*
X367000Y288722D01*
D02*
G37*
G36*
X396000D02*
X395519Y288659D01*
X394606Y288281D01*
X393821Y287679D01*
X393219Y286894D01*
X392841Y285981D01*
X392777Y285500D01*
X396000D01*
Y288722D01*
D02*
G37*
G36*
X337000D02*
Y285500D01*
X340223D01*
X340159Y285981D01*
X339781Y286894D01*
X339179Y287679D01*
X338394Y288281D01*
X337480Y288659D01*
X337000Y288722D01*
D02*
G37*
G36*
X366000D02*
X365519Y288659D01*
X364606Y288281D01*
X363821Y287679D01*
X363219Y286894D01*
X362841Y285981D01*
X362777Y285500D01*
X366000D01*
Y288722D01*
D02*
G37*
G36*
X158000Y414398D02*
X156557Y414256D01*
X155169Y413835D01*
X153890Y413151D01*
X152769Y412231D01*
X151849Y411110D01*
X151165Y409831D01*
X150744Y408443D01*
X150602Y407000D01*
X150744Y405557D01*
X151165Y404169D01*
X151849Y402890D01*
X151971Y402741D01*
Y387259D01*
X151849Y387110D01*
X151165Y385831D01*
X150744Y384443D01*
X150602Y383000D01*
X150744Y381557D01*
X151165Y380169D01*
X151849Y378890D01*
X152769Y377769D01*
X153890Y376849D01*
X155169Y376165D01*
X156557Y375744D01*
X158000Y375602D01*
X159443Y375744D01*
X160831Y376165D01*
X162110Y376849D01*
X163231Y377769D01*
X164151Y378890D01*
X164835Y380169D01*
X164987Y380673D01*
X165479Y380762D01*
X165602Y380602D01*
X166304Y380063D01*
X167122Y379724D01*
X167500Y379675D01*
Y383000D01*
Y386325D01*
X167122Y386276D01*
X166304Y385937D01*
X165602Y385398D01*
X165479Y385238D01*
X164987Y385328D01*
X164835Y385831D01*
X164151Y387110D01*
X164029Y387259D01*
Y402741D01*
X164151Y402890D01*
X164835Y404169D01*
X164987Y404672D01*
X165479Y404762D01*
X165602Y404602D01*
X166304Y404063D01*
X167122Y403724D01*
X167500Y403675D01*
Y407000D01*
Y410325D01*
X167122Y410276D01*
X166304Y409937D01*
X165602Y409398D01*
X165479Y409238D01*
X164987Y409328D01*
X164835Y409831D01*
X164151Y411110D01*
X163231Y412231D01*
X162110Y413151D01*
X160831Y413835D01*
X159443Y414256D01*
X158000Y414398D01*
D02*
G37*
G36*
X171325Y382500D02*
X168500D01*
Y379675D01*
X168878Y379724D01*
X169696Y380063D01*
X170398Y380602D01*
X170937Y381304D01*
X171276Y382122D01*
X171325Y382500D01*
D02*
G37*
G36*
X119500Y386325D02*
X119122Y386276D01*
X118304Y385937D01*
X117602Y385398D01*
X117063Y384696D01*
X116724Y383878D01*
X116675Y383500D01*
X119500D01*
Y386325D01*
D02*
G37*
G36*
X208500Y375464D02*
Y372500D01*
X211464D01*
X211410Y372914D01*
X211057Y373765D01*
X210496Y374496D01*
X209765Y375057D01*
X208914Y375410D01*
X208500Y375464D01*
D02*
G37*
G36*
X119500Y382500D02*
X116675D01*
X116724Y382122D01*
X117063Y381304D01*
X117602Y380602D01*
X118304Y380063D01*
X119122Y379724D01*
X119500Y379675D01*
Y382500D01*
D02*
G37*
G36*
X168500Y386325D02*
Y383500D01*
X171325D01*
X171276Y383878D01*
X170937Y384696D01*
X170398Y385398D01*
X169696Y385937D01*
X168878Y386276D01*
X168500Y386325D01*
D02*
G37*
G36*
X130000Y390398D02*
X128557Y390256D01*
X127169Y389835D01*
X125890Y389151D01*
X124769Y388231D01*
X123849Y387110D01*
X123165Y385831D01*
X123013Y385328D01*
X122521Y385238D01*
X122398Y385398D01*
X121696Y385937D01*
X120878Y386276D01*
X120500Y386325D01*
Y383000D01*
Y379675D01*
X120878Y379724D01*
X121696Y380063D01*
X122398Y380602D01*
X122521Y380762D01*
X123013Y380673D01*
X123165Y380169D01*
X123849Y378890D01*
X124769Y377769D01*
X125890Y376849D01*
X127169Y376165D01*
X128557Y375744D01*
X130000Y375602D01*
X131443Y375744D01*
X132831Y376165D01*
X134110Y376849D01*
X135231Y377769D01*
X136151Y378890D01*
X136835Y380169D01*
X137256Y381557D01*
X137398Y383000D01*
X137256Y384443D01*
X136835Y385831D01*
X136151Y387110D01*
X135231Y388231D01*
X134110Y389151D01*
X132831Y389835D01*
X131443Y390256D01*
X130000Y390398D01*
D02*
G37*
G36*
X71500Y390325D02*
Y387500D01*
X74325D01*
X74276Y387878D01*
X73937Y388696D01*
X73398Y389398D01*
X72696Y389937D01*
X71878Y390276D01*
X71500Y390325D01*
D02*
G37*
G36*
X61000Y394398D02*
X59557Y394256D01*
X58169Y393835D01*
X56890Y393151D01*
X55769Y392231D01*
X54849Y391110D01*
X54165Y389831D01*
X53744Y388443D01*
X53602Y387000D01*
X53744Y385557D01*
X54165Y384169D01*
X54849Y382890D01*
X55769Y381769D01*
X56890Y380849D01*
X58169Y380165D01*
X59557Y379744D01*
X61000Y379602D01*
X62443Y379744D01*
X63831Y380165D01*
X65110Y380849D01*
X66231Y381769D01*
X67151Y382890D01*
X67835Y384169D01*
X67987Y384672D01*
X68479Y384762D01*
X68602Y384602D01*
X69304Y384063D01*
X70122Y383724D01*
X70500Y383675D01*
Y387000D01*
Y390325D01*
X70122Y390276D01*
X69304Y389937D01*
X68602Y389398D01*
X68479Y389238D01*
X67987Y389328D01*
X67835Y389831D01*
X67151Y391110D01*
X66231Y392231D01*
X65110Y393151D01*
X63831Y393835D01*
X62443Y394256D01*
X61000Y394398D01*
D02*
G37*
G36*
X74325Y386500D02*
X71500D01*
Y383675D01*
X71878Y383724D01*
X72696Y384063D01*
X73398Y384602D01*
X73937Y385304D01*
X74276Y386122D01*
X74325Y386500D01*
D02*
G37*
G36*
X133325Y406500D02*
X130500D01*
Y403675D01*
X130878Y403724D01*
X131696Y404063D01*
X132398Y404602D01*
X132937Y405304D01*
X133276Y406122D01*
X133325Y406500D01*
D02*
G37*
G36*
X83500Y352921D02*
X82968Y352851D01*
X82007Y352453D01*
X81181Y351819D01*
X80547Y350993D01*
X80149Y350032D01*
X80079Y349500D01*
X83500D01*
Y352921D01*
D02*
G37*
G36*
X54000Y356991D02*
X52441Y356838D01*
X50942Y356383D01*
X49560Y355644D01*
X48349Y354651D01*
X47355Y353440D01*
X46617Y352058D01*
X46162Y350559D01*
X46009Y349000D01*
X46162Y347441D01*
X46617Y345942D01*
X47355Y344560D01*
X47815Y344000D01*
X47355Y343440D01*
X46617Y342058D01*
X46162Y340559D01*
X46009Y339000D01*
X46162Y337441D01*
X46617Y335942D01*
X47355Y334560D01*
X47815Y334000D01*
X47355Y333440D01*
X46617Y332058D01*
X46162Y330559D01*
X46009Y329000D01*
X46162Y327441D01*
X46617Y325942D01*
X47355Y324560D01*
X47815Y324000D01*
X47355Y323440D01*
X46617Y322058D01*
X46162Y320559D01*
X46009Y319000D01*
X46162Y317441D01*
X46617Y315942D01*
X47355Y314560D01*
X48349Y313349D01*
X49560Y312355D01*
X50942Y311617D01*
X52441Y311162D01*
X54000Y311009D01*
X55559Y311162D01*
X57058Y311617D01*
X58440Y312355D01*
X59651Y313349D01*
X60645Y314560D01*
X61383Y315942D01*
X61838Y317441D01*
X61991Y319000D01*
X61838Y320559D01*
X61383Y322058D01*
X60645Y323440D01*
X60185Y324000D01*
X60645Y324560D01*
X61383Y325942D01*
X61838Y327441D01*
X61991Y329000D01*
X61838Y330559D01*
X61383Y332058D01*
X60645Y333440D01*
X60185Y334000D01*
X60645Y334560D01*
X61383Y335942D01*
X61838Y337441D01*
X61991Y339000D01*
X61838Y340559D01*
X61383Y342058D01*
X60645Y343440D01*
X60185Y344000D01*
X60645Y344560D01*
X61383Y345942D01*
X61838Y347441D01*
X61991Y349000D01*
X61838Y350559D01*
X61383Y352058D01*
X60645Y353440D01*
X59651Y354651D01*
X58440Y355644D01*
X57058Y356383D01*
X55559Y356838D01*
X54000Y356991D01*
D02*
G37*
G36*
X18000Y393793D02*
X16480Y393644D01*
X15018Y393200D01*
X13670Y392480D01*
X12489Y391511D01*
X11520Y390330D01*
X10800Y388982D01*
X10356Y387520D01*
X10287Y386813D01*
X9937Y386463D01*
X9187Y385549D01*
X8630Y384507D01*
X8287Y383376D01*
X8171Y382200D01*
Y327300D01*
X8287Y326124D01*
X8630Y324993D01*
X9187Y323951D01*
X9937Y323037D01*
X10287Y322687D01*
X10356Y321980D01*
X10800Y320518D01*
X11520Y319170D01*
X12489Y317989D01*
X13670Y317020D01*
X15018Y316300D01*
X16480Y315856D01*
X18000Y315707D01*
X19520Y315856D01*
X20982Y316300D01*
X22330Y317020D01*
X23511Y317989D01*
X24480Y319170D01*
X25200Y320518D01*
X25644Y321980D01*
X25793Y323500D01*
X25644Y325020D01*
X25200Y326482D01*
X24480Y327830D01*
X23511Y329011D01*
X22330Y329980D01*
X20982Y330700D01*
X20229Y330929D01*
Y348571D01*
X20982Y348800D01*
X22330Y349520D01*
X23511Y350489D01*
X24480Y351670D01*
X25200Y353018D01*
X25644Y354480D01*
X25793Y356000D01*
X25644Y357520D01*
X25200Y358982D01*
X24480Y360330D01*
X23511Y361511D01*
X22330Y362480D01*
X20982Y363200D01*
X20229Y363429D01*
Y378571D01*
X20982Y378800D01*
X22330Y379520D01*
X23511Y380489D01*
X24480Y381670D01*
X25200Y383018D01*
X25644Y384480D01*
X25793Y386000D01*
X25644Y387520D01*
X25200Y388982D01*
X24480Y390330D01*
X23511Y391511D01*
X22330Y392480D01*
X20982Y393200D01*
X19520Y393644D01*
X18000Y393793D01*
D02*
G37*
G36*
X84500Y352921D02*
Y349500D01*
X87921D01*
X87851Y350032D01*
X87453Y350993D01*
X86819Y351819D01*
X85993Y352453D01*
X85032Y352851D01*
X84500Y352921D01*
D02*
G37*
G36*
X211464Y371500D02*
X208500D01*
Y368536D01*
X208914Y368590D01*
X209765Y368943D01*
X210496Y369504D01*
X211057Y370235D01*
X211410Y371086D01*
X211464Y371500D01*
D02*
G37*
G36*
X207500Y375464D02*
X207086Y375410D01*
X206235Y375057D01*
X205504Y374496D01*
X204943Y373765D01*
X204590Y372914D01*
X204536Y372500D01*
X207500D01*
Y375464D01*
D02*
G37*
G36*
X120000Y414398D02*
X118557Y414256D01*
X117169Y413835D01*
X115890Y413151D01*
X114769Y412231D01*
X113849Y411110D01*
X113165Y409831D01*
X112744Y408443D01*
X112602Y407000D01*
X112744Y405557D01*
X113165Y404169D01*
X113849Y402890D01*
X114769Y401769D01*
X115890Y400849D01*
X117169Y400165D01*
X118557Y399744D01*
X120000Y399602D01*
X121443Y399744D01*
X122831Y400165D01*
X124110Y400849D01*
X125231Y401769D01*
X126151Y402890D01*
X126835Y404169D01*
X126987Y404672D01*
X127479Y404762D01*
X127602Y404602D01*
X128304Y404063D01*
X129122Y403724D01*
X129500Y403675D01*
Y407000D01*
Y410325D01*
X129122Y410276D01*
X128304Y409937D01*
X127602Y409398D01*
X127479Y409238D01*
X126987Y409328D01*
X126835Y409831D01*
X126151Y411110D01*
X125231Y412231D01*
X124110Y413151D01*
X122831Y413835D01*
X121443Y414256D01*
X120000Y414398D01*
D02*
G37*
G36*
X207500Y371500D02*
X204536D01*
X204590Y371086D01*
X204943Y370235D01*
X205504Y369504D01*
X206235Y368943D01*
X207086Y368590D01*
X207500Y368536D01*
Y371500D01*
D02*
G37*
G36*
X400362Y227500D02*
X397500D01*
Y224638D01*
X400362D01*
Y227500D01*
D02*
G37*
G36*
Y231362D02*
X397500D01*
Y228500D01*
X400362D01*
Y231362D01*
D02*
G37*
G36*
X168500Y410325D02*
Y407500D01*
X171325D01*
X171276Y407878D01*
X170937Y408696D01*
X170398Y409398D01*
X169696Y409937D01*
X168878Y410276D01*
X168500Y410325D01*
D02*
G37*
G36*
X130500D02*
Y407500D01*
X133325D01*
X133276Y407878D01*
X132937Y408696D01*
X132398Y409398D01*
X131696Y409937D01*
X130878Y410276D01*
X130500Y410325D01*
D02*
G37*
G36*
X387000Y235398D02*
X385557Y235256D01*
X384169Y234835D01*
X382890Y234151D01*
X382000Y233421D01*
X381110Y234151D01*
X379831Y234835D01*
X378443Y235256D01*
X377000Y235398D01*
X375557Y235256D01*
X374169Y234835D01*
X372890Y234151D01*
X371769Y233231D01*
X370849Y232110D01*
X370165Y230831D01*
X369744Y229443D01*
X369602Y228000D01*
X369744Y226557D01*
X370165Y225169D01*
X370849Y223890D01*
X371769Y222769D01*
X372890Y221849D01*
X374169Y221165D01*
X375557Y220744D01*
X377000Y220602D01*
X378443Y220744D01*
X379831Y221165D01*
X381110Y221849D01*
X382000Y222579D01*
X382890Y221849D01*
X384169Y221165D01*
X385557Y220744D01*
X387000Y220602D01*
X388443Y220744D01*
X389831Y221165D01*
X391110Y221849D01*
X392231Y222769D01*
X393151Y223890D01*
X393561Y224657D01*
X393638Y224638D01*
Y224638D01*
X393638Y224638D01*
X396500D01*
Y228000D01*
Y231362D01*
X393638D01*
X393638Y231362D01*
Y231362D01*
X393561Y231343D01*
X393151Y232110D01*
X392231Y233231D01*
X391110Y234151D01*
X389831Y234835D01*
X388443Y235256D01*
X387000Y235398D01*
D02*
G37*
G36*
X408500Y246464D02*
X408086Y246410D01*
X407235Y246057D01*
X406504Y245496D01*
X405943Y244765D01*
X405590Y243914D01*
X405536Y243500D01*
X408500D01*
Y246464D01*
D02*
G37*
G36*
X409500D02*
Y243500D01*
X412464D01*
X412410Y243914D01*
X412057Y244765D01*
X411496Y245496D01*
X410765Y246057D01*
X409914Y246410D01*
X409500Y246464D01*
D02*
G37*
G36*
X408500Y242500D02*
X405536D01*
X405590Y242086D01*
X405943Y241235D01*
X406504Y240504D01*
X407235Y239943D01*
X408086Y239590D01*
X408500Y239536D01*
Y242500D01*
D02*
G37*
G36*
X412464D02*
X409500D01*
Y239536D01*
X409914Y239590D01*
X410765Y239943D01*
X411496Y240504D01*
X412057Y241235D01*
X412410Y242086D01*
X412464Y242500D01*
D02*
G37*
G36*
X433500Y182325D02*
Y179500D01*
X436325D01*
X436276Y179878D01*
X435937Y180696D01*
X435398Y181398D01*
X434696Y181937D01*
X433878Y182276D01*
X433500Y182325D01*
D02*
G37*
G36*
X32500Y205689D02*
X30902Y205532D01*
X29366Y205066D01*
X27950Y204309D01*
X26709Y203291D01*
X25691Y202050D01*
X24934Y200634D01*
X24468Y199098D01*
X24311Y197500D01*
X24468Y195902D01*
X24934Y194366D01*
X25691Y192950D01*
X26709Y191709D01*
X27950Y190691D01*
X28863Y190203D01*
X28969Y189714D01*
X28875Y189593D01*
X28457Y188583D01*
X28380Y188000D01*
X36620D01*
X36543Y188583D01*
X36125Y189593D01*
X36031Y189714D01*
X36137Y190203D01*
X37050Y190691D01*
X38291Y191709D01*
X39309Y192950D01*
X40066Y194366D01*
X40532Y195902D01*
X40689Y197500D01*
X40532Y199098D01*
X40066Y200634D01*
X39309Y202050D01*
X38291Y203291D01*
X37050Y204309D01*
X35634Y205066D01*
X34098Y205532D01*
X32500Y205689D01*
D02*
G37*
G36*
X36620Y187000D02*
X28380D01*
X28457Y186417D01*
X28603Y186065D01*
X28325Y185650D01*
X24350D01*
Y169350D01*
X40650D01*
Y185650D01*
X36675D01*
X36397Y186065D01*
X36543Y186417D01*
X36620Y187000D01*
D02*
G37*
G36*
X432500Y182325D02*
X432122Y182276D01*
X431304Y181937D01*
X430602Y181398D01*
X430063Y180696D01*
X429724Y179878D01*
X429675Y179500D01*
X432500D01*
Y182325D01*
D02*
G37*
G36*
X324000Y192491D02*
X322441Y192338D01*
X320942Y191883D01*
X319560Y191145D01*
X319000Y190685D01*
X318440Y191145D01*
X317058Y191883D01*
X315559Y192338D01*
X314000Y192491D01*
X312441Y192338D01*
X310942Y191883D01*
X309560Y191145D01*
X309000Y190685D01*
X308440Y191145D01*
X307058Y191883D01*
X305559Y192338D01*
X304000Y192491D01*
X302441Y192338D01*
X300942Y191883D01*
X299560Y191145D01*
X299000Y190685D01*
X298440Y191145D01*
X297058Y191883D01*
X295559Y192338D01*
X294000Y192491D01*
X292441Y192338D01*
X290942Y191883D01*
X289560Y191145D01*
X288349Y190151D01*
X287355Y188940D01*
X286617Y187558D01*
X286162Y186059D01*
X286009Y184500D01*
X286162Y182941D01*
X286617Y181442D01*
X287355Y180060D01*
X288349Y178849D01*
X289560Y177856D01*
X290942Y177117D01*
X292441Y176662D01*
X294000Y176509D01*
X295559Y176662D01*
X297058Y177117D01*
X298440Y177856D01*
X299000Y178315D01*
X299560Y177856D01*
X300942Y177117D01*
X302441Y176662D01*
X304000Y176509D01*
X305559Y176662D01*
X307058Y177117D01*
X308440Y177856D01*
X309000Y178315D01*
X309560Y177856D01*
X310942Y177117D01*
X312441Y176662D01*
X314000Y176509D01*
X315559Y176662D01*
X317058Y177117D01*
X318440Y177856D01*
X319000Y178315D01*
X319560Y177856D01*
X320942Y177117D01*
X322441Y176662D01*
X324000Y176509D01*
X325559Y176662D01*
X327058Y177117D01*
X328440Y177856D01*
X329651Y178849D01*
X330644Y180060D01*
X331383Y181442D01*
X331838Y182941D01*
X331991Y184500D01*
X331838Y186059D01*
X331383Y187558D01*
X330644Y188940D01*
X329651Y190151D01*
X328440Y191145D01*
X327058Y191883D01*
X325559Y192338D01*
X324000Y192491D01*
D02*
G37*
G36*
X96000Y304536D02*
X94530Y304392D01*
X93116Y303963D01*
X91813Y303266D01*
X90671Y302329D01*
X89734Y301187D01*
X89037Y299884D01*
X88608Y298470D01*
X88572Y298098D01*
X75337Y284863D01*
X74587Y283949D01*
X74030Y282907D01*
X73687Y281776D01*
X73571Y280600D01*
Y225400D01*
X73571Y225400D01*
X73571D01*
X73687Y224224D01*
X74030Y223093D01*
X74030Y223093D01*
X74030Y223093D01*
X74587Y222050D01*
X75337Y221137D01*
X75337Y221137D01*
X75337Y221137D01*
X85287Y211187D01*
X85356Y210480D01*
X85800Y209018D01*
X86520Y207670D01*
X87489Y206489D01*
X88670Y205520D01*
X90018Y204800D01*
X91480Y204356D01*
X93000Y204207D01*
X94520Y204356D01*
X95982Y204800D01*
X97330Y205520D01*
X98511Y206489D01*
X99480Y207670D01*
X100200Y209018D01*
X100644Y210480D01*
X100793Y212000D01*
X100644Y213520D01*
X100200Y214982D01*
X99480Y216330D01*
X98511Y217511D01*
X97330Y218480D01*
X95982Y219200D01*
X94520Y219644D01*
X93813Y219713D01*
X85629Y227897D01*
Y278103D01*
X97098Y289572D01*
X97470Y289609D01*
X98884Y290037D01*
X100187Y290734D01*
X101329Y291671D01*
X102266Y292813D01*
X102963Y294116D01*
X103392Y295530D01*
X103536Y297000D01*
X103392Y298470D01*
X102963Y299884D01*
X102266Y301187D01*
X101329Y302329D01*
X100187Y303266D01*
X98884Y303963D01*
X97470Y304392D01*
X96000Y304536D01*
D02*
G37*
G36*
X417500Y214464D02*
X417086Y214410D01*
X416235Y214057D01*
X415504Y213496D01*
X414943Y212765D01*
X414590Y211914D01*
X414536Y211500D01*
X417500D01*
Y214464D01*
D02*
G37*
G36*
X22043Y431500D02*
X13500D01*
Y422957D01*
X17000D01*
X18305Y423129D01*
X19522Y423632D01*
X20566Y424434D01*
X21368Y425478D01*
X21871Y426695D01*
X22043Y428000D01*
Y431500D01*
D02*
G37*
G36*
X208500Y410325D02*
Y407500D01*
X211325D01*
X211276Y407878D01*
X210937Y408696D01*
X210398Y409398D01*
X209696Y409937D01*
X208878Y410276D01*
X208500Y410325D01*
D02*
G37*
G36*
X50953Y270953D02*
X35047D01*
Y255047D01*
X35047D01*
X35234Y254795D01*
X35162Y254559D01*
X35009Y253000D01*
X35162Y251441D01*
X35617Y249942D01*
X36356Y248560D01*
X37349Y247349D01*
X38560Y246356D01*
X39942Y245617D01*
X41441Y245162D01*
X43000Y245009D01*
X44559Y245162D01*
X46058Y245617D01*
X47440Y246356D01*
X48651Y247349D01*
X49645Y248560D01*
X50383Y249942D01*
X50838Y251441D01*
X50991Y253000D01*
X50838Y254559D01*
X50766Y254795D01*
X50953Y255047D01*
X50953D01*
Y270953D01*
D02*
G37*
G36*
X306000Y284500D02*
X302778D01*
X302841Y284019D01*
X303219Y283106D01*
X303821Y282321D01*
X304606Y281719D01*
X305520Y281341D01*
X306000Y281277D01*
Y284500D01*
D02*
G37*
G36*
X310223D02*
X307000D01*
Y281277D01*
X307481Y281341D01*
X308394Y281719D01*
X309179Y282321D01*
X309781Y283106D01*
X310159Y284019D01*
X310223Y284500D01*
D02*
G37*
G36*
X111500Y322793D02*
X109980Y322644D01*
X108518Y322200D01*
X107170Y321480D01*
X105989Y320511D01*
X105020Y319330D01*
X104300Y317982D01*
X103856Y316520D01*
X103707Y315000D01*
X103856Y313480D01*
X104300Y312018D01*
X105020Y310670D01*
X105471Y310121D01*
Y301000D01*
X105587Y299824D01*
X105930Y298693D01*
X105971Y298616D01*
Y291379D01*
X105520Y290830D01*
X104800Y289482D01*
X104356Y288020D01*
X104207Y286500D01*
X104356Y284980D01*
X104800Y283518D01*
X105520Y282170D01*
X106489Y280989D01*
X107670Y280020D01*
X109018Y279300D01*
X110480Y278856D01*
X111187Y278787D01*
X116971Y273003D01*
Y263038D01*
X116519Y262825D01*
X116330Y262980D01*
X114982Y263700D01*
X113520Y264144D01*
X112000Y264293D01*
X110480Y264144D01*
X109018Y263700D01*
X107670Y262980D01*
X106489Y262011D01*
X105520Y260830D01*
X104800Y259482D01*
X104356Y258020D01*
X104207Y256500D01*
X104356Y254980D01*
X104800Y253518D01*
X105520Y252170D01*
X106489Y250989D01*
X107670Y250020D01*
X109018Y249300D01*
X110480Y248856D01*
X112000Y248707D01*
X113520Y248856D01*
X114982Y249300D01*
X116330Y250020D01*
X116519Y250175D01*
X116971Y249961D01*
Y216879D01*
X116520Y216330D01*
X115800Y214982D01*
X115356Y213520D01*
X115207Y212000D01*
X115356Y210480D01*
X115800Y209018D01*
X116520Y207670D01*
X117489Y206489D01*
X118670Y205520D01*
X120018Y204800D01*
X121480Y204356D01*
X123000Y204207D01*
X124520Y204356D01*
X125982Y204800D01*
X127330Y205520D01*
X128511Y206489D01*
X129480Y207670D01*
X130200Y209018D01*
X130644Y210480D01*
X130793Y212000D01*
X130644Y213520D01*
X130200Y214982D01*
X129480Y216330D01*
X129029Y216879D01*
Y275500D01*
X128913Y276676D01*
X128570Y277807D01*
X128013Y278850D01*
X127263Y279763D01*
X119713Y287313D01*
X119644Y288020D01*
X119200Y289482D01*
X118480Y290830D01*
X118029Y291379D01*
Y300500D01*
X118029Y300500D01*
X117913Y301676D01*
X117570Y302807D01*
X117529Y302884D01*
Y310121D01*
X117980Y310670D01*
X118700Y312018D01*
X119144Y313480D01*
X119293Y315000D01*
X119144Y316520D01*
X118700Y317982D01*
X117980Y319330D01*
X117011Y320511D01*
X115830Y321480D01*
X114482Y322200D01*
X113020Y322644D01*
X111500Y322793D01*
D02*
G37*
G36*
X224000Y266398D02*
X222557Y266256D01*
X221764Y266015D01*
X221362Y266313D01*
Y266362D01*
X206638D01*
Y251638D01*
X221362D01*
Y251687D01*
X221764Y251985D01*
X222557Y251744D01*
X224000Y251602D01*
X225443Y251744D01*
X226831Y252165D01*
X228110Y252849D01*
X229231Y253769D01*
X230151Y254890D01*
X230835Y256169D01*
X230987Y256673D01*
X231479Y256762D01*
X231602Y256602D01*
X232304Y256063D01*
X233122Y255724D01*
X233500Y255675D01*
Y259000D01*
Y262325D01*
X233122Y262276D01*
X232304Y261937D01*
X231602Y261398D01*
X231479Y261238D01*
X230987Y261328D01*
X230835Y261831D01*
X230151Y263110D01*
X229231Y264231D01*
X228110Y265151D01*
X226831Y265835D01*
X225443Y266256D01*
X224000Y266398D01*
D02*
G37*
G36*
X336000Y284500D02*
X332778D01*
X332841Y284019D01*
X333219Y283106D01*
X333821Y282321D01*
X334606Y281719D01*
X335520Y281341D01*
X336000Y281277D01*
Y284500D01*
D02*
G37*
G36*
X370222D02*
X367000D01*
Y281277D01*
X367480Y281341D01*
X368394Y281719D01*
X369179Y282321D01*
X369781Y283106D01*
X370159Y284019D01*
X370222Y284500D01*
D02*
G37*
G36*
X396000D02*
X392777D01*
X392841Y284019D01*
X393219Y283106D01*
X393821Y282321D01*
X394606Y281719D01*
X395519Y281341D01*
X396000Y281277D01*
Y284500D01*
D02*
G37*
G36*
X340223D02*
X337000D01*
Y281277D01*
X337480Y281341D01*
X338394Y281719D01*
X339179Y282321D01*
X339781Y283106D01*
X340159Y284019D01*
X340223Y284500D01*
D02*
G37*
G36*
X366000D02*
X362777D01*
X362841Y284019D01*
X363219Y283106D01*
X363821Y282321D01*
X364606Y281719D01*
X365519Y281341D01*
X366000Y281277D01*
Y284500D01*
D02*
G37*
G36*
X285325Y258500D02*
X282500D01*
Y255675D01*
X282878Y255724D01*
X283696Y256063D01*
X284398Y256602D01*
X284937Y257304D01*
X285276Y258122D01*
X285325Y258500D01*
D02*
G37*
G36*
X396500Y261500D02*
X393536D01*
X393590Y261086D01*
X393943Y260235D01*
X394504Y259504D01*
X395235Y258943D01*
X396086Y258590D01*
X396500Y258536D01*
Y261500D01*
D02*
G37*
G36*
X211325Y406500D02*
X208500D01*
Y403675D01*
X208878Y403724D01*
X209696Y404063D01*
X210398Y404602D01*
X210937Y405304D01*
X211276Y406122D01*
X211325Y406500D01*
D02*
G37*
G36*
X237325Y258500D02*
X234500D01*
Y255675D01*
X234878Y255724D01*
X235696Y256063D01*
X236398Y256602D01*
X236937Y257304D01*
X237276Y258122D01*
X237325Y258500D01*
D02*
G37*
G36*
X400464Y261500D02*
X397500D01*
Y258536D01*
X397914Y258590D01*
X398765Y258943D01*
X399496Y259504D01*
X400057Y260235D01*
X400410Y261086D01*
X400464Y261500D01*
D02*
G37*
G36*
X396500Y265464D02*
X396086Y265410D01*
X395235Y265057D01*
X394504Y264496D01*
X393943Y263765D01*
X393590Y262914D01*
X393536Y262500D01*
X396500D01*
Y265464D01*
D02*
G37*
G36*
X397500D02*
Y262500D01*
X400464D01*
X400410Y262914D01*
X400057Y263765D01*
X399496Y264496D01*
X398765Y265057D01*
X397914Y265410D01*
X397500Y265464D01*
D02*
G37*
G36*
X234500Y262325D02*
Y259500D01*
X237325D01*
X237276Y259878D01*
X236937Y260696D01*
X236398Y261398D01*
X235696Y261937D01*
X234878Y262276D01*
X234500Y262325D01*
D02*
G37*
G36*
X282500D02*
Y259500D01*
X285325D01*
X285276Y259878D01*
X284937Y260696D01*
X284398Y261398D01*
X283696Y261937D01*
X282878Y262276D01*
X282500Y262325D01*
D02*
G37*
%LPD*%
D10*
X111997Y133002D02*
G03*
X109000Y134244I-2998J-2998D01*
G01*
X110756Y136000D02*
G03*
X111997Y133002I4239J0D01*
G01*
X106002Y138997D02*
G03*
X109000Y137756I2998J2998D01*
G01*
X107244Y136000D02*
G03*
X106002Y138997I-4239J0D01*
G01*
X15002Y383002D02*
G03*
X16244Y386000I-2998J2998D01*
G01*
X18000Y384244D02*
G03*
X15002Y383002I0J-4239D01*
G01*
Y326498D02*
G03*
X18000Y325256I2998J2998D01*
G01*
X16244Y323500D02*
G03*
X15002Y326498I-4239J0D01*
G01*
X160000Y215289D02*
G03*
X160963Y212963I3289J0D01*
G01*
X159037D02*
G03*
X160000Y215289I-2325J2325D01*
G01*
Y208711D02*
G03*
X159037Y211037I-3289J0D01*
G01*
X160963D02*
G03*
X160000Y208711I2325J-2325D01*
G01*
X305170Y336330D02*
G03*
X301500Y337850I-3670J-3670D01*
G01*
X303650Y340000D02*
G03*
X305170Y336330I5190J0D01*
G01*
X158000Y386289D02*
G03*
X158963Y383963I3289J0D01*
G01*
X157037D02*
G03*
X158000Y386289I-2325J2325D01*
G01*
X269675Y261325D02*
G03*
X272000Y260362I2325J2325D01*
G01*
X270638Y259000D02*
G03*
X269675Y261325I-3289J0D01*
G01*
X207000Y112761D02*
G03*
X205758Y115758I-4239J0D01*
G01*
X208242D02*
G03*
X207000Y112761I2998J-2998D01*
G01*
X213070Y112730D02*
G03*
X207000Y115244I-6070J-6070D01*
G01*
X209656Y116144D02*
G03*
X207000Y117244I-2656J-2656D01*
G01*
X108502Y342003D02*
G03*
X109744Y345000I-2998J2998D01*
G01*
X111500Y343244D02*
G03*
X108502Y342003I0J-4239D01*
G01*
X114497D02*
G03*
X111500Y343244I-2998J-2998D01*
G01*
X113256Y345000D02*
G03*
X114497Y342003I4239J0D01*
G01*
X111500Y310761D02*
G03*
X110258Y313758I-4239J0D01*
G01*
X112742D02*
G03*
X111500Y310761I2998J-2998D01*
G01*
X112000Y290739D02*
G03*
X113242Y287742I4239J0D01*
G01*
X110758D02*
G03*
X112000Y290739I-2998J2998D01*
G01*
X114997Y283503D02*
G03*
X112000Y284744I-2998J-2998D01*
G01*
X113756Y286500D02*
G03*
X114997Y283503I4239J0D01*
G01*
X90003Y214998D02*
G03*
X93000Y213756I2998J2998D01*
G01*
X91244Y212000D02*
G03*
X90003Y214998I-4239J0D01*
G01*
X123000Y216239D02*
G03*
X124242Y213242I4239J0D01*
G01*
X121758D02*
G03*
X123000Y216239I-2998J2998D01*
G01*
X191000Y377761D02*
G03*
X189758Y380758I-4239J0D01*
G01*
X192242D02*
G03*
X191000Y377761I2998J-2998D01*
G01*
X193998Y384998D02*
G03*
X192756Y382000I2998J-2998D01*
G01*
X191000Y383756D02*
G03*
X193998Y384998I0J4239D01*
G01*
X225239Y382000D02*
G03*
X222242Y380758I0J-4239D01*
G01*
Y383242D02*
G03*
X225239Y382000I2998J2998D01*
G01*
X275170Y336330D02*
G03*
X271500Y337850I-3670J-3670D01*
G01*
X273650Y340000D02*
G03*
X275170Y336330I5190J0D01*
G01*
X335170Y336330D02*
G03*
X331500Y337850I-3670J-3670D01*
G01*
X333650Y340000D02*
G03*
X335170Y336330I5190J0D01*
G01*
X365170Y336330D02*
G03*
X361500Y337850I-3670J-3670D01*
G01*
X363650Y340000D02*
G03*
X365170Y336330I5190J0D01*
G01*
X391500Y345190D02*
G03*
X393020Y341520I5190J0D01*
G01*
X389980D02*
G03*
X391500Y345190I-3670J3670D01*
G01*
X158000Y403711D02*
G03*
X157037Y406037I-3289J0D01*
G01*
X158963D02*
G03*
X158000Y403711I2325J-2325D01*
G01*
X198000D02*
G03*
X197037Y406037I-3289J0D01*
G01*
X198963D02*
G03*
X198000Y403711I2325J-2325D01*
G01*
X93439Y294439D02*
G03*
X94500Y297000I-2561J2561D01*
G01*
X96000Y295500D02*
G03*
X93439Y294439I0J-3621D01*
G01*
X266439Y230439D02*
G03*
X267500Y233000I-2561J2561D01*
G01*
X269000Y231500D02*
G03*
X266439Y230439I0J-3621D01*
G01*
X364439Y115561D02*
G03*
X367000Y114500I2561J2561D01*
G01*
X365500Y113000D02*
G03*
X364439Y115561I-3621J0D01*
G01*
X186439Y333561D02*
G03*
X189000Y332500I2561J2561D01*
G01*
X187500Y331000D02*
G03*
X186439Y333561I-3621J0D01*
G01*
X468439Y405561D02*
G03*
X471000Y404500I2561J2561D01*
G01*
X469500Y403000D02*
G03*
X468439Y405561I-3621J0D01*
G01*
X340561Y171439D02*
G03*
X338000Y172500I-2561J-2561D01*
G01*
X339500Y174000D02*
G03*
X340561Y171439I3621J0D01*
G01*
X474561Y333561D02*
G03*
X473500Y331000I2561J-2561D01*
G01*
X472000Y332500D02*
G03*
X474561Y333561I0J3621D01*
G01*
X306621Y416000D02*
G03*
X304061Y414939I0J-3621D01*
G01*
Y417061D02*
G03*
X306621Y416000I2561J2561D01*
G01*
X401379Y403000D02*
G03*
X403939Y404061I0J3621D01*
G01*
Y401939D02*
G03*
X401379Y403000I-2561J-2561D01*
G01*
X238561Y276439D02*
G03*
X236000Y277500I-2561J-2561D01*
G01*
X237500Y279000D02*
G03*
X238561Y276439I3621J0D01*
G01*
X526379Y187000D02*
G03*
X528939Y188061I0J3621D01*
G01*
Y185939D02*
G03*
X526379Y187000I-2561J-2561D01*
G01*
X198379Y358000D02*
G03*
X200939Y359061I0J3621D01*
G01*
Y356939D02*
G03*
X198379Y358000I-2561J-2561D01*
G01*
X174000Y265521D02*
G03*
X175061Y262961I3621J0D01*
G01*
X172939D02*
G03*
X174000Y265521I-2561J2561D01*
G01*
X217379Y296000D02*
G03*
X219939Y297061I0J3621D01*
G01*
Y294939D02*
G03*
X217379Y296000I-2561J-2561D01*
G01*
X237439Y147561D02*
G03*
X240000Y146500I2561J2561D01*
G01*
X238500Y145000D02*
G03*
X237439Y147561I-3621J0D01*
G01*
X486000Y222879D02*
G03*
X484939Y225439I-3621J0D01*
G01*
X487061D02*
G03*
X486000Y222879I2561J-2561D01*
G01*
X520379Y195000D02*
G03*
X522939Y196061I0J3621D01*
G01*
Y193939D02*
G03*
X520379Y195000I-2561J-2561D01*
G01*
X481000Y241379D02*
G03*
X479939Y243939I-3621J0D01*
G01*
X482061D02*
G03*
X481000Y241379I2561J-2561D01*
G01*
X476000Y250379D02*
G03*
X474939Y252939I-3621J0D01*
G01*
X477061D02*
G03*
X476000Y250379I2561J-2561D01*
G01*
X470000Y265379D02*
G03*
X468939Y267939I-3621J0D01*
G01*
X471061D02*
G03*
X470000Y265379I2561J-2561D01*
G01*
X526561Y319439D02*
G03*
X524000Y320500I-2561J-2561D01*
G01*
X525500Y322000D02*
G03*
X526561Y319439I3621J0D01*
G01*
X479379Y284000D02*
G03*
X481939Y285061I0J3621D01*
G01*
Y282939D02*
G03*
X479379Y284000I-2561J-2561D01*
G01*
X487379Y292000D02*
G03*
X489939Y293061I0J3621D01*
G01*
Y290939D02*
G03*
X487379Y292000I-2561J-2561D01*
G01*
X468561Y354561D02*
G03*
X467500Y352000I2561J-2561D01*
G01*
X466000Y353500D02*
G03*
X468561Y354561I0J3621D01*
G01*
X250000Y407379D02*
G03*
X248939Y409939I-3621J0D01*
G01*
X251061D02*
G03*
X250000Y407379I2561J-2561D01*
G01*
X258561Y312439D02*
G03*
X256000Y313500I-2561J-2561D01*
G01*
X257500Y315000D02*
G03*
X258561Y312439I3621J0D01*
G01*
X99000Y330621D02*
G03*
X100061Y328061I3621J0D01*
G01*
X97939D02*
G03*
X99000Y330621I-2561J2561D01*
G01*
X131379Y43000D02*
G03*
X133939Y44061I0J3621D01*
G01*
Y41939D02*
G03*
X131379Y43000I-2561J-2561D01*
G01*
X120439Y124561D02*
G03*
X123000Y123500I2561J2561D01*
G01*
X121500Y122000D02*
G03*
X120439Y124561I-3621J0D01*
G01*
X160000Y103621D02*
G03*
X161061Y101061I3621J0D01*
G01*
X158939D02*
G03*
X160000Y103621I-2561J2561D01*
G01*
X78157Y166843D02*
X109000Y136000D01*
X116000Y43000D02*
X135000D01*
X115000Y86000D02*
X192000D01*
X115000Y43000D02*
Y86000D01*
X192000D02*
X207000Y101000D01*
Y117000D01*
X14200Y327300D02*
X18000Y323500D01*
X14200Y327300D02*
Y382200D01*
X18000Y386000D01*
X79600Y225400D02*
X93000Y212000D01*
X123000D02*
Y275500D01*
X112000Y286500D02*
X123000Y275500D01*
X160000Y212000D02*
Y296500D01*
X111500Y345000D02*
X160000Y296500D01*
X391500Y340000D02*
Y350400D01*
X109000Y136000D02*
X123000Y122000D01*
X198000Y389000D02*
Y407000D01*
X191000Y382000D02*
X198000Y389000D01*
X269500Y261500D02*
X272000Y259000D01*
X160000Y100000D02*
Y212000D01*
X111500Y301000D02*
Y315000D01*
Y301000D02*
X112000Y300500D01*
Y286500D02*
Y300500D01*
X158000Y383000D02*
Y407000D01*
X79600Y225400D02*
Y280600D01*
X99000Y332500D02*
X111500Y345000D01*
X99000Y327000D02*
Y332500D01*
X269500Y261500D02*
Y301500D01*
X256000Y315000D02*
X269500Y301500D01*
X250000Y387500D02*
Y411000D01*
X221000Y382000D02*
X244500D01*
X250000Y387500D01*
X391500Y350400D02*
X406600D01*
X444000Y313000D01*
Y217000D02*
Y313000D01*
Y217000D02*
X446000Y215000D01*
X361500Y340000D02*
X376500Y325000D01*
X426000D01*
X440000Y311000D01*
Y216000D02*
Y311000D01*
Y216000D02*
X445000Y211000D01*
X446000Y215000D02*
X460000D01*
X461000Y216000D01*
Y277000D01*
X476000Y292000D01*
X491000D01*
X445000Y211000D02*
X462000D01*
X465000Y214000D01*
Y274000D01*
X475000Y284000D01*
X483000D01*
X331500Y340000D02*
X350500Y321000D01*
X423000D01*
X435000Y309000D01*
Y215000D02*
Y309000D01*
Y215000D02*
X443000Y207000D01*
X464000D01*
X470000Y213000D01*
Y269000D01*
X301500Y340000D02*
X315500Y326000D01*
X338000D01*
X356000Y308000D01*
X426000D01*
X431000Y303000D01*
Y214000D02*
Y303000D01*
Y214000D02*
X442000Y203000D01*
X466000D01*
X476000Y213000D01*
Y254000D01*
X271500Y340000D02*
X289500Y322000D01*
X317000D01*
X335000Y304000D01*
X424000D01*
X427000Y301000D01*
Y213000D02*
Y301000D01*
Y213000D02*
X440000Y200000D01*
X468000D01*
X481000Y213000D01*
Y245000D01*
X503000Y195000D02*
X524000D01*
X486000Y212000D02*
X503000Y195000D01*
X486000Y212000D02*
Y226500D01*
X189000Y196000D02*
X240000Y145000D01*
X189000Y196000D02*
Y284000D01*
X201000Y296000D01*
X221000D01*
X174000Y261900D02*
Y358000D01*
X208800Y117000D02*
X223800Y102000D01*
X506000D01*
X447000Y187000D02*
X530000D01*
X352000Y403000D02*
X405000D01*
X339000Y416000D02*
X352000Y403000D01*
X303000Y416000D02*
X339000D01*
X236000Y279000D02*
X314000Y201000D01*
X433000D01*
X447000Y187000D01*
X191000Y358000D02*
Y382000D01*
X174000Y358000D02*
X191000D01*
X202000D01*
X506000Y102000D02*
X540000Y136000D01*
Y306000D01*
X524000Y322000D02*
X540000Y306000D01*
X535000Y160000D02*
Y203000D01*
X426000Y160000D02*
X535000D01*
X411000Y145000D02*
X426000Y160000D01*
X367000Y145000D02*
X411000D01*
X338000Y174000D02*
X367000Y145000D01*
X513000Y225000D02*
X535000Y203000D01*
X513000Y225000D02*
Y411000D01*
X505000Y419000D02*
X513000Y411000D01*
X472000Y331000D02*
X482000Y341000D01*
Y414000D01*
X487000Y419000D01*
X505000D01*
X466000Y352000D02*
X477000Y363000D01*
Y407000D01*
X470000Y414000D02*
X477000Y407000D01*
X244500Y382000D02*
X403000D01*
X435000Y414000D01*
X470000D01*
X463000Y411000D02*
X471000Y403000D01*
X437000Y411000D02*
X463000D01*
X405000Y379000D02*
X437000Y411000D01*
X251000Y379000D02*
X405000D01*
X224000Y352000D02*
X251000Y379000D01*
X189000Y352000D02*
X224000D01*
X183000Y346000D02*
X189000Y352000D01*
X183000Y337000D02*
Y346000D01*
Y337000D02*
X189000Y331000D01*
X351000Y129000D02*
X367000Y113000D01*
X337000Y129000D02*
X351000D01*
X331000Y135000D02*
X337000Y129000D01*
X299000Y135000D02*
X331000D01*
X253000Y181000D02*
X299000Y135000D01*
X253000Y181000D02*
Y217000D01*
X269000Y233000D01*
X79600Y280600D02*
X96000Y297000D01*
D11*
X69403Y114245D02*
G03*
X68407Y111843I2403J-2403D01*
G01*
X67000Y113250D02*
G03*
X69403Y114245I0J3398D01*
G01*
X18000Y289864D02*
G03*
X16935Y292435I-3636J0D01*
G01*
X19065D02*
G03*
X18000Y289864I2571J-2571D01*
G01*
X119101Y17399D02*
G03*
X121000Y16612I1899J1899D01*
G01*
X119888Y15500D02*
G03*
X119101Y17399I-2685J0D01*
G01*
X71000Y143759D02*
G03*
X70005Y146162I-3398J0D01*
G01*
X71995D02*
G03*
X71000Y143759I2403J-2403D01*
G01*
X68597Y149560D02*
G03*
X71000Y148565I2403J2403D01*
G01*
X69592Y147157D02*
G03*
X68597Y149560I-3398J0D01*
G01*
X102403Y109440D02*
G03*
X100000Y110435I-2403J-2403D01*
G01*
X101408Y111843D02*
G03*
X102403Y109440I3398J0D01*
G01*
X168000Y385685D02*
G03*
X168786Y383786I2685J0D01*
G01*
X167214D02*
G03*
X168000Y385685I-1899J1899D01*
G01*
X280101Y260899D02*
G03*
X282000Y260112I1899J1899D01*
G01*
X280888Y259000D02*
G03*
X280101Y260899I-2685J0D01*
G01*
X34101Y186478D02*
G03*
X34600Y181900I3098J-1978D01*
G01*
X31994Y187823D02*
G03*
X32400Y184100I2520J-1609D01*
G01*
X32500Y184000D02*
G03*
X31465Y185907I-2274J0D01*
G01*
X33535D02*
G03*
X32500Y184000I1239J-1907D01*
G01*
X29257Y190743D02*
G03*
X32500Y189400I3243J3243D01*
G01*
X30600Y187500D02*
G03*
X29257Y190743I-4586J0D01*
G01*
X275500Y281364D02*
G03*
X274435Y283935I-3636J0D01*
G01*
X276565D02*
G03*
X275500Y281364I2571J-2571D01*
G01*
X279136Y285000D02*
G03*
X276565Y283935I0J-3636D01*
G01*
Y286065D02*
G03*
X279136Y285000I2571J2571D01*
G01*
X310136D02*
G03*
X307565Y283935I0J-3636D01*
G01*
Y286065D02*
G03*
X310136Y285000I2571J2571D01*
G01*
X302864D02*
G03*
X305435Y286065I0J3636D01*
G01*
Y283935D02*
G03*
X302864Y285000I-2571J-2571D01*
G01*
X332864D02*
G03*
X335435Y286065I0J3636D01*
G01*
Y283935D02*
G03*
X332864Y285000I-2571J-2571D01*
G01*
X340136D02*
G03*
X337565Y283935I0J-3636D01*
G01*
Y286065D02*
G03*
X340136Y285000I2571J2571D01*
G01*
X362864D02*
G03*
X365435Y286065I0J3636D01*
G01*
Y283935D02*
G03*
X362864Y285000I-2571J-2571D01*
G01*
X370136D02*
G03*
X367565Y283935I0J-3636D01*
G01*
Y286065D02*
G03*
X370136Y285000I2571J2571D01*
G01*
X369071Y282429D02*
G03*
X366500Y283494I-2571J-2571D01*
G01*
X368006Y285000D02*
G03*
X369071Y282429I3636J0D01*
G01*
X392864Y285000D02*
G03*
X395435Y286065I0J3636D01*
G01*
Y283935D02*
G03*
X392864Y285000I-2571J-2571D01*
G01*
X130000Y404315D02*
G03*
X129214Y406214I-2685J0D01*
G01*
X130786D02*
G03*
X130000Y404315I1899J-1899D01*
G01*
X168000D02*
G03*
X167214Y406214I-2685J0D01*
G01*
X168786D02*
G03*
X168000Y404315I1899J-1899D01*
G01*
X208000D02*
G03*
X207214Y406214I-2685J0D01*
G01*
X208786D02*
G03*
X208000Y404315I1899J-1899D01*
G01*
X121899Y384899D02*
G03*
X121112Y383000I1899J-1899D01*
G01*
X120000Y384112D02*
G03*
X121899Y384899I0J2685D01*
G01*
X418000Y214018D02*
G03*
X418884Y211884I3018J0D01*
G01*
X417116D02*
G03*
X418000Y214018I-2134J2134D01*
G01*
X411134Y240866D02*
G03*
X409000Y241750I-2134J-2134D01*
G01*
X410250Y243000D02*
G03*
X411134Y240866I3018J0D01*
G01*
X393982Y262000D02*
G03*
X396116Y262884I0J3018D01*
G01*
Y261116D02*
G03*
X393982Y262000I-2134J-2134D01*
G01*
X256000Y270018D02*
G03*
X256884Y267884I3018J0D01*
G01*
X255116D02*
G03*
X256000Y270018I-2134J2134D01*
G01*
X248134Y306866D02*
G03*
X246000Y307750I-2134J-2134D01*
G01*
X247250Y309000D02*
G03*
X248134Y306866I3018J0D01*
G01*
X208000Y375018D02*
G03*
X208884Y372884I3018J0D01*
G01*
X207116D02*
G03*
X208000Y375018I-2134J2134D01*
G01*
X100000Y111843D02*
X110000Y101843D01*
Y26500D02*
Y101843D01*
Y26500D02*
X121000Y15500D01*
X130000Y393000D02*
Y407000D01*
X120000Y383000D02*
X130000Y393000D01*
X18000Y202000D02*
X32500Y187500D01*
X18000Y202000D02*
Y293500D01*
X71000Y115843D02*
Y147157D01*
X67000Y111843D02*
X71000Y115843D01*
X208000Y372000D02*
Y407000D01*
X275500Y265500D02*
Y285000D01*
Y265500D02*
X282000Y259000D01*
X32500Y184000D02*
Y187500D01*
Y184000D02*
X34600Y181900D01*
X36257D01*
X71000Y147157D01*
X168000Y383000D02*
Y407000D01*
X275500Y285000D02*
X306500D01*
X336500D01*
X366500D01*
X396500D01*
X246000Y309000D02*
X256000Y299000D01*
Y267000D02*
Y299000D01*
X389500Y262000D02*
X397000D01*
X366500Y285000D02*
X389500Y262000D01*
X418000Y211000D02*
Y234000D01*
X409000Y243000D02*
X418000Y234000D01*
D12*
X9999Y48998D02*
X8999Y49998D01*
X7000D01*
X6000Y48998D01*
Y45000D01*
X7000Y44000D01*
X8999D01*
X9999Y45000D01*
X11998Y44000D02*
X13997D01*
X12998D01*
Y49998D01*
X11998D01*
X17996Y47999D02*
X19996D01*
X20995Y46999D01*
Y44000D01*
X17996D01*
X16996Y45000D01*
X17996Y45999D01*
X20995D01*
X22995Y47999D02*
Y45000D01*
X23994Y44000D01*
X26993D01*
Y43000D01*
X25993Y42001D01*
X24994D01*
X26993Y44000D02*
Y47999D01*
X34991Y49998D02*
Y44000D01*
X37990D01*
X38989Y45000D01*
Y45999D01*
X37990Y46999D01*
X34991D01*
X37990D01*
X38989Y47999D01*
Y48998D01*
X37990Y49998D01*
X34991D01*
X40989Y47999D02*
Y44000D01*
Y45999D01*
X41988Y46999D01*
X42988Y47999D01*
X43988D01*
X47986Y44000D02*
X49986D01*
X50985Y45000D01*
Y46999D01*
X49986Y47999D01*
X47986D01*
X46987Y46999D01*
Y45000D01*
X47986Y44000D01*
X53984D02*
X55984D01*
X56984Y45000D01*
Y46999D01*
X55984Y47999D01*
X53984D01*
X52985Y46999D01*
Y45000D01*
X53984Y44000D01*
X58983D02*
Y49998D01*
Y45999D02*
X61982Y47999D01*
X58983Y45999D02*
X61982Y44000D01*
X64981D02*
X67980D01*
X68980Y45000D01*
X67980Y45999D01*
X65981D01*
X64981Y46999D01*
X65981Y47999D01*
X68980D01*
X9999Y60998D02*
X8999Y61998D01*
X7000D01*
X6000Y60998D01*
Y57000D01*
X7000Y56000D01*
X8999D01*
X9999Y57000D01*
Y58999D01*
X7999D01*
X11998Y59999D02*
Y57000D01*
X12998Y56000D01*
X15997D01*
Y59999D01*
X17996Y56000D02*
X19996D01*
X18996D01*
Y59999D01*
X17996D01*
X23994Y60998D02*
Y59999D01*
X22995D01*
X24994D01*
X23994D01*
Y57000D01*
X24994Y56000D01*
X28993Y59999D02*
X30992D01*
X31992Y58999D01*
Y56000D01*
X28993D01*
X27993Y57000D01*
X28993Y57999D01*
X31992D01*
X33991Y59999D02*
Y56000D01*
Y57999D01*
X34991Y58999D01*
X35990Y59999D01*
X36990D01*
X39989Y55000D02*
X43988D01*
X45987Y61998D02*
X49986D01*
X47986D01*
Y56000D01*
X51985Y59999D02*
Y57000D01*
X52985Y56000D01*
X55984D01*
Y59999D01*
X57983Y56000D02*
Y59999D01*
X60982D01*
X61982Y58999D01*
Y56000D01*
X66980D02*
X64981D01*
X63981Y57000D01*
Y58999D01*
X64981Y59999D01*
X66980D01*
X67980Y58999D01*
Y57999D01*
X63981D01*
X69979Y59999D02*
Y56000D01*
Y57999D01*
X70979Y58999D01*
X71979Y59999D01*
X72978D01*
X81975Y61998D02*
Y57999D01*
X83975Y56000D01*
X85974Y57999D01*
Y61998D01*
X87973Y56000D02*
X89973D01*
X88973D01*
Y61998D01*
X87973Y60998D01*
X92972Y56000D02*
Y57000D01*
X93972D01*
Y56000D01*
X92972D01*
X97970Y60998D02*
X98970Y61998D01*
X100969D01*
X101969Y60998D01*
Y57000D01*
X100969Y56000D01*
X98970D01*
X97970Y57000D01*
Y60998D01*
D13*
X269000Y392000D02*
D03*
Y402000D02*
D03*
X279000Y392000D02*
D03*
Y402000D02*
D03*
X289000Y392000D02*
D03*
Y402000D02*
D03*
X299000Y392000D02*
D03*
Y402000D02*
D03*
X309000Y392000D02*
D03*
Y402000D02*
D03*
X319000Y392000D02*
D03*
Y402000D02*
D03*
X329000Y392000D02*
D03*
X26000Y107500D02*
D03*
X449000Y52000D02*
D03*
X439000D02*
D03*
X429000D02*
D03*
X419000D02*
D03*
X409000D02*
D03*
X399000D02*
D03*
X389000D02*
D03*
X379000D02*
D03*
X369000D02*
D03*
X359000D02*
D03*
X349000D02*
D03*
X339000D02*
D03*
X329000D02*
D03*
X319000D02*
D03*
X309000D02*
D03*
X363000Y178000D02*
D03*
Y168000D02*
D03*
Y158000D02*
D03*
X393000Y188000D02*
D03*
Y178000D02*
D03*
Y168000D02*
D03*
Y158000D02*
D03*
X486000Y122000D02*
D03*
X453500Y223000D02*
D03*
Y233000D02*
D03*
Y243000D02*
D03*
Y253000D02*
D03*
Y263000D02*
D03*
Y273000D02*
D03*
Y283000D02*
D03*
Y293000D02*
D03*
Y303000D02*
D03*
Y313000D02*
D03*
Y323000D02*
D03*
Y333000D02*
D03*
Y343000D02*
D03*
Y353000D02*
D03*
Y363000D02*
D03*
Y373000D02*
D03*
Y383000D02*
D03*
Y393000D02*
D03*
X502500Y223000D02*
D03*
Y233000D02*
D03*
Y243000D02*
D03*
Y253000D02*
D03*
Y263000D02*
D03*
Y273000D02*
D03*
Y283000D02*
D03*
Y293000D02*
D03*
Y303000D02*
D03*
Y313000D02*
D03*
Y323000D02*
D03*
Y333000D02*
D03*
Y343000D02*
D03*
Y353000D02*
D03*
Y363000D02*
D03*
Y373000D02*
D03*
Y383000D02*
D03*
Y393000D02*
D03*
X161000Y79000D02*
D03*
Y69000D02*
D03*
Y59000D02*
D03*
Y49000D02*
D03*
X191000Y79000D02*
D03*
Y69000D02*
D03*
Y59000D02*
D03*
X43000Y253000D02*
D03*
D14*
X329000Y402000D02*
D03*
X299000Y52000D02*
D03*
X363000Y188000D02*
D03*
X191000Y49000D02*
D03*
D15*
X130000Y383000D02*
D03*
X120000D02*
D03*
X61000Y387000D02*
D03*
X71000D02*
D03*
X198000Y407000D02*
D03*
X208000D02*
D03*
X158000D02*
D03*
X168000D02*
D03*
X130000D02*
D03*
X120000D02*
D03*
X31000Y137000D02*
D03*
X21000D02*
D03*
X234000Y259000D02*
D03*
X224000D02*
D03*
X377000Y228000D02*
D03*
X387000D02*
D03*
X282000Y259000D02*
D03*
X272000D02*
D03*
X168000Y383000D02*
D03*
X158000D02*
D03*
X433000Y179000D02*
D03*
Y169000D02*
D03*
X436000Y131500D02*
D03*
Y121500D02*
D03*
X121000Y25500D02*
D03*
Y15500D02*
D03*
X160000Y212000D02*
D03*
X150000D02*
D03*
X145500Y294000D02*
D03*
Y304000D02*
D03*
X225000Y120000D02*
D03*
Y130000D02*
D03*
X258000Y125000D02*
D03*
Y135000D02*
D03*
D16*
X199000Y341500D02*
D03*
X84000Y319000D02*
D03*
D17*
X199000Y331500D02*
D03*
Y321500D02*
D03*
Y311500D02*
D03*
X229000Y341500D02*
D03*
Y331500D02*
D03*
Y321500D02*
D03*
Y311500D02*
D03*
X84000Y329000D02*
D03*
Y339000D02*
D03*
Y349000D02*
D03*
X54000Y319000D02*
D03*
Y329000D02*
D03*
Y339000D02*
D03*
Y349000D02*
D03*
X324000Y184500D02*
D03*
X314000D02*
D03*
X304000D02*
D03*
X294000D02*
D03*
X324000Y154500D02*
D03*
X314000D02*
D03*
X304000D02*
D03*
X278500Y212000D02*
D03*
X268500D02*
D03*
X258500D02*
D03*
X248500D02*
D03*
X238500D02*
D03*
X228500D02*
D03*
X218500D02*
D03*
X198500D02*
D03*
X208500D02*
D03*
D18*
X26000Y97500D02*
D03*
X486000Y112000D02*
D03*
X453500Y403000D02*
D03*
X502500D02*
D03*
X43000Y263000D02*
D03*
D19*
X396500Y315000D02*
D03*
Y285000D02*
D03*
X366500Y315000D02*
D03*
Y285000D02*
D03*
X336500Y315000D02*
D03*
Y285000D02*
D03*
X306500Y315000D02*
D03*
Y285000D02*
D03*
X275500Y315000D02*
D03*
Y285000D02*
D03*
X346500Y111500D02*
D03*
Y141500D02*
D03*
X221000Y382000D02*
D03*
X191000D02*
D03*
X259500Y84000D02*
D03*
Y54000D02*
D03*
X123000Y81000D02*
D03*
Y51000D02*
D03*
X227000Y54000D02*
D03*
Y84000D02*
D03*
X123000Y212000D02*
D03*
X93000D02*
D03*
X112000Y256500D02*
D03*
Y286500D02*
D03*
X111500Y315000D02*
D03*
Y345000D02*
D03*
X207000Y117000D02*
D03*
X177000D02*
D03*
X18000Y293500D02*
D03*
Y323500D02*
D03*
Y356000D02*
D03*
Y386000D02*
D03*
X109000Y136000D02*
D03*
Y166000D02*
D03*
X143000Y136000D02*
D03*
Y166000D02*
D03*
D20*
X401500Y340000D02*
D03*
X391500D02*
D03*
X371500D02*
D03*
X361500D02*
D03*
X341500D02*
D03*
X331500D02*
D03*
X281500D02*
D03*
X271500D02*
D03*
X311500D02*
D03*
X301500D02*
D03*
D21*
X214000Y259000D02*
D03*
X397000Y228000D02*
D03*
D22*
X32500Y197500D02*
D03*
Y187500D02*
D03*
D23*
Y177500D02*
D03*
D24*
X100000Y92157D02*
D03*
X71000Y166843D02*
D03*
X394000Y129343D02*
D03*
X67000Y92157D02*
D03*
D25*
X100000Y111843D02*
D03*
X71000Y147157D02*
D03*
X394000Y109657D02*
D03*
X67000Y111843D02*
D03*
D26*
X258000Y145000D02*
D03*
D27*
X294000Y154500D02*
D03*
X288500Y212000D02*
D03*
D28*
X537000Y432000D02*
D03*
Y13000D02*
D03*
X13000D02*
D03*
Y432000D02*
D03*
D29*
X160000Y100000D02*
D03*
X123000Y122000D02*
D03*
X135000Y43000D02*
D03*
X99000Y327000D02*
D03*
X256000Y315000D02*
D03*
X208000Y372000D02*
D03*
X250000Y411000D02*
D03*
X466000Y352000D02*
D03*
X491000Y292000D02*
D03*
X483000Y284000D02*
D03*
X524000Y322000D02*
D03*
X470000Y269000D02*
D03*
X476000Y254000D02*
D03*
X481000Y245000D02*
D03*
X524000Y195000D02*
D03*
X486000Y226500D02*
D03*
X246000Y309000D02*
D03*
X256000Y267000D02*
D03*
X240000Y145000D02*
D03*
X221000Y296000D02*
D03*
X174000Y261900D02*
D03*
X202000Y358000D02*
D03*
X530000Y187000D02*
D03*
X236000Y279000D02*
D03*
X405000Y403000D02*
D03*
X303000Y416000D02*
D03*
X397000Y262000D02*
D03*
X409000Y243000D02*
D03*
X418000Y211000D02*
D03*
X472000Y331000D02*
D03*
X338000Y174000D02*
D03*
X471000Y403000D02*
D03*
X189000Y331000D02*
D03*
X367000Y113000D02*
D03*
X269000Y233000D02*
D03*
X96000Y297000D02*
D03*
M02*
