%FSLAX25Y25*%
%MOIN*%
G70*
G01*
G75*
G04 Layer_Physical_Order=2*
G04 Layer_Color=16711680*
%ADD10C,0.02000*%
%ADD11C,0.02500*%
%ADD12C,0.01000*%
%ADD13C,0.05906*%
%ADD14R,0.05906X0.05906*%
%ADD15C,0.04724*%
%ADD16R,0.05906X0.05906*%
%ADD17C,0.05906*%
%ADD18R,0.05906X0.05906*%
%ADD19C,0.05512*%
%ADD20C,0.06299*%
%ADD21R,0.04724X0.04724*%
%ADD22C,0.06299*%
%ADD23R,0.06299X0.06299*%
%ADD24R,0.05315X0.05315*%
%ADD25C,0.05315*%
%ADD26R,0.04724X0.04724*%
%ADD27R,0.05906X0.05906*%
G04:AMPARAMS|DCode=28|XSize=160mil|YSize=160mil|CornerRadius=40mil|HoleSize=0mil|Usage=FLASHONLY|Rotation=0.000|XOffset=0mil|YOffset=0mil|HoleType=Round|Shape=RoundedRectangle|*
%AMROUNDEDRECTD28*
21,1,0.16000,0.08000,0,0,0.0*
21,1,0.08000,0.16000,0,0,0.0*
1,1,0.08000,0.04000,-0.04000*
1,1,0.08000,-0.04000,-0.04000*
1,1,0.08000,-0.04000,0.04000*
1,1,0.08000,0.04000,0.04000*
%
%ADD28ROUNDEDRECTD28*%
%ADD29C,0.05000*%
G36*
X343583Y211709D02*
X340137Y208263D01*
X340115Y208237D01*
X340089Y208215D01*
X339740Y207780D01*
X339387Y207349D01*
X339371Y207319D01*
X339350Y207293D01*
X339093Y206799D01*
X338830Y206307D01*
X338820Y206275D01*
X338804Y206244D01*
X338649Y205710D01*
X338487Y205176D01*
X338484Y205142D01*
X338474Y205110D01*
X334995Y186529D01*
X331695D01*
X331383Y187558D01*
X330644Y188940D01*
X329651Y190151D01*
X328440Y191145D01*
X327058Y191883D01*
X325559Y192338D01*
X324594Y192433D01*
X305317Y211709D01*
X305509Y212171D01*
X343391D01*
X343583Y211709D01*
D02*
G37*
G36*
X523971Y301503D02*
Y202533D01*
X522530Y202392D01*
X521431Y202058D01*
X521029Y202356D01*
Y240000D01*
X521029Y240000D01*
X521029Y240000D01*
Y240000D01*
X521029D01*
X521029Y240000D01*
X520913Y241176D01*
X520570Y242307D01*
X520013Y243350D01*
X519263Y244263D01*
X516263Y247263D01*
X515349Y248013D01*
X514307Y248570D01*
X513176Y248913D01*
X512000Y249029D01*
X509881D01*
X509624Y249458D01*
X509883Y249942D01*
X510338Y251441D01*
X510491Y253000D01*
X510338Y254559D01*
X509883Y256058D01*
X509144Y257440D01*
X508685Y258000D01*
X509144Y258560D01*
X509883Y259942D01*
X510338Y261441D01*
X510491Y263000D01*
X510338Y264559D01*
X509883Y266058D01*
X509144Y267440D01*
X508685Y268000D01*
X509144Y268560D01*
X509883Y269942D01*
X510338Y271441D01*
X510491Y273000D01*
X510338Y274559D01*
X509883Y276058D01*
X509144Y277440D01*
X508685Y278000D01*
X509144Y278560D01*
X509883Y279942D01*
X510338Y281441D01*
X510491Y283000D01*
X510338Y284559D01*
X509883Y286058D01*
X509144Y287440D01*
X508685Y288000D01*
X509144Y288560D01*
X509883Y289942D01*
X510338Y291441D01*
X510491Y293000D01*
X510338Y294559D01*
X509883Y296058D01*
X509144Y297440D01*
X508685Y298000D01*
X509144Y298560D01*
X509883Y299942D01*
X510338Y301441D01*
X510491Y303000D01*
X510338Y304559D01*
X509883Y306058D01*
X509144Y307440D01*
X508685Y308000D01*
X509144Y308560D01*
X509883Y309942D01*
X510338Y311441D01*
X510491Y313000D01*
X510347Y314460D01*
X510799Y314674D01*
X523971Y301503D01*
D02*
G37*
G36*
X152603Y101410D02*
X152464Y100000D01*
X152609Y98530D01*
X153037Y97116D01*
X153734Y95813D01*
X154671Y94671D01*
X155813Y93734D01*
X157116Y93037D01*
X158530Y92608D01*
X158902Y92572D01*
X165072Y86402D01*
X164774Y86000D01*
X164058Y86383D01*
X162559Y86838D01*
X161000Y86991D01*
X159441Y86838D01*
X157942Y86383D01*
X156560Y85645D01*
X155349Y84651D01*
X154356Y83440D01*
X153617Y82058D01*
X153162Y80559D01*
X153051Y79429D01*
X145400D01*
X144224Y79313D01*
X143093Y78970D01*
X142051Y78413D01*
X141137Y77663D01*
X123491Y60017D01*
X123029Y60209D01*
Y72503D01*
X123813Y73287D01*
X124520Y73356D01*
X125982Y73800D01*
X127330Y74520D01*
X128511Y75489D01*
X129480Y76670D01*
X130200Y78018D01*
X130644Y79480D01*
X130713Y80187D01*
X152151Y101624D01*
X152603Y101410D01*
D02*
G37*
G36*
X467624Y359849D02*
X467411Y359397D01*
X466000Y359536D01*
X464530Y359391D01*
X463116Y358963D01*
X461813Y358266D01*
X460671Y357329D01*
X460178Y357378D01*
X460145Y357440D01*
X459685Y358000D01*
X460145Y358560D01*
X460883Y359942D01*
X461338Y361441D01*
X461491Y363000D01*
X461338Y364559D01*
X460950Y365838D01*
X461378Y366095D01*
X467624Y359849D01*
D02*
G37*
G36*
X281850Y262824D02*
X281689Y262350D01*
X281122Y262276D01*
X280304Y261937D01*
X279602Y261398D01*
X279479Y261238D01*
X278987Y261328D01*
X278835Y261831D01*
X278151Y263110D01*
X277231Y264231D01*
X276110Y265151D01*
X274831Y265835D01*
X273443Y266256D01*
X272000Y266398D01*
X270557Y266256D01*
X269169Y265835D01*
X267890Y265151D01*
X266769Y264231D01*
X265849Y263110D01*
X265165Y261831D01*
X264744Y260443D01*
X264725Y260252D01*
X257503Y253029D01*
X229071D01*
X228903Y253500D01*
X229231Y253769D01*
X230151Y254890D01*
X230835Y256169D01*
X230987Y256673D01*
X231479Y256762D01*
X231602Y256602D01*
X232304Y256063D01*
X233122Y255724D01*
X233500Y255675D01*
Y259000D01*
X234000D01*
Y259500D01*
X237325D01*
X237276Y259878D01*
X236937Y260696D01*
X236398Y261398D01*
X235865Y261807D01*
X235832Y262306D01*
X241497Y267971D01*
X252219D01*
X252548Y267595D01*
X252536Y267500D01*
X259464D01*
X259452Y267595D01*
X259782Y267971D01*
X276703D01*
X281850Y262824D01*
D02*
G37*
G36*
X228983Y272509D02*
X222748Y266274D01*
X222557Y266256D01*
X221764Y266015D01*
X221362Y266313D01*
Y266362D01*
X206664D01*
X200517Y272509D01*
X200709Y272971D01*
X228791D01*
X228983Y272509D01*
D02*
G37*
G36*
X449649Y371968D02*
X450047Y371007D01*
X450266Y370721D01*
X450161Y370233D01*
X449060Y369644D01*
X447849Y368651D01*
X446855Y367440D01*
X446117Y366058D01*
X445662Y364559D01*
X445509Y363000D01*
X445662Y361441D01*
X446117Y359942D01*
X446855Y358560D01*
X447315Y358000D01*
X446855Y357440D01*
X446117Y356058D01*
X445662Y354559D01*
X445509Y353000D01*
X445662Y351441D01*
X446117Y349942D01*
X446855Y348560D01*
X447315Y348000D01*
X446855Y347440D01*
X446117Y346058D01*
X445662Y344559D01*
X445509Y343000D01*
X445662Y341441D01*
X446117Y339942D01*
X446855Y338560D01*
X447315Y338000D01*
X446855Y337440D01*
X446117Y336058D01*
X445662Y334559D01*
X445622Y334148D01*
X399164Y287690D01*
X398394Y288281D01*
X397481Y288659D01*
X396500Y288788D01*
X395519Y288659D01*
X394606Y288281D01*
X393821Y287679D01*
X393219Y286894D01*
X392841Y285981D01*
X392712Y285000D01*
X392841Y284019D01*
X393219Y283106D01*
X393810Y282336D01*
X382737Y271263D01*
X381987Y270350D01*
X381430Y269307D01*
X381087Y268176D01*
X380971Y267000D01*
Y234712D01*
X380542Y234455D01*
X379831Y234835D01*
X378443Y235256D01*
X377000Y235398D01*
X375557Y235256D01*
X374169Y234835D01*
X372890Y234151D01*
X371769Y233231D01*
X370849Y232110D01*
X370165Y230831D01*
X370134Y230729D01*
X287909D01*
X287717Y231191D01*
X300263Y243737D01*
X300263Y243737D01*
X300263Y243737D01*
X301013Y244651D01*
X301570Y245693D01*
X301570Y245693D01*
X301570Y245693D01*
X301913Y246824D01*
X302029Y248000D01*
X302029Y248000D01*
X302029Y248000D01*
Y248000D01*
Y257200D01*
X301913Y258376D01*
X301570Y259507D01*
X301013Y260549D01*
X300263Y261463D01*
X291163Y270563D01*
X291163Y270563D01*
X283463Y278263D01*
X282550Y279013D01*
X281507Y279570D01*
X280376Y279913D01*
X279200Y280029D01*
X243435D01*
X243391Y280470D01*
X242963Y281884D01*
X242611Y282542D01*
X242868Y282971D01*
X260000D01*
X261176Y283087D01*
X262307Y283430D01*
X262307Y283430D01*
X262307Y283430D01*
X263350Y283987D01*
X264263Y284737D01*
X264263Y284737D01*
X264263Y284737D01*
X272263Y292737D01*
X272263Y292737D01*
X272263Y292737D01*
X273013Y293651D01*
X273570Y294693D01*
X273570Y294693D01*
X273570Y294693D01*
X273913Y295824D01*
X274029Y297000D01*
X274029Y297000D01*
X274029Y297000D01*
Y297000D01*
Y306979D01*
X274399Y307315D01*
X275500Y307207D01*
X277020Y307356D01*
X278482Y307800D01*
X279830Y308520D01*
X281011Y309489D01*
X281980Y310670D01*
X282700Y312018D01*
X283144Y313480D01*
X283213Y314187D01*
X285763Y316737D01*
X286513Y317651D01*
X287070Y318693D01*
X287413Y319824D01*
X287529Y321000D01*
Y334500D01*
X288309Y335450D01*
X289066Y336866D01*
X289532Y338402D01*
X289689Y340000D01*
X289532Y341598D01*
X289066Y343134D01*
X288309Y344550D01*
X287291Y345791D01*
X286050Y346809D01*
X284634Y347566D01*
X283098Y348032D01*
X281500Y348189D01*
X279902Y348032D01*
X278366Y347566D01*
X276950Y346809D01*
X276500Y346439D01*
X276050Y346809D01*
X274634Y347566D01*
X273098Y348032D01*
X271500Y348189D01*
X269902Y348032D01*
X268366Y347566D01*
X266950Y346809D01*
X265709Y345791D01*
X264691Y344550D01*
X263934Y343134D01*
X263468Y341598D01*
X263311Y340000D01*
X263468Y338402D01*
X263934Y336866D01*
X264691Y335450D01*
X265709Y334209D01*
X266950Y333191D01*
X268366Y332434D01*
X269902Y331968D01*
X271500Y331811D01*
X273098Y331968D01*
X274634Y332434D01*
X275042Y332653D01*
X275471Y332396D01*
Y323497D01*
X274687Y322713D01*
X273980Y322644D01*
X272518Y322200D01*
X271170Y321480D01*
X269989Y320511D01*
X269020Y319330D01*
X268931Y319163D01*
X268436Y319090D01*
X258029Y329497D01*
Y353503D01*
X262497Y357971D01*
X308000D01*
X309176Y358087D01*
X310307Y358430D01*
X310307Y358430D01*
X310307Y358430D01*
X311350Y358987D01*
X312263Y359737D01*
X312263Y359737D01*
X312263Y359737D01*
X324497Y371971D01*
X449649D01*
X449649Y371968D01*
D02*
G37*
G36*
X359790Y115069D02*
X359609Y114470D01*
X359464Y113000D01*
X359609Y111530D01*
X360037Y110116D01*
X360734Y108813D01*
X360971Y108524D01*
Y102497D01*
X345491Y87017D01*
X345029Y87209D01*
Y103479D01*
X345399Y103815D01*
X346500Y103707D01*
X348020Y103856D01*
X349482Y104300D01*
X350830Y105020D01*
X352011Y105989D01*
X352980Y107170D01*
X353700Y108518D01*
X354144Y109980D01*
X354213Y110687D01*
X358997Y115471D01*
X359492D01*
X359790Y115069D01*
D02*
G37*
G36*
X408971Y279791D02*
Y246526D01*
X408086Y246410D01*
X407235Y246057D01*
X406504Y245496D01*
X405943Y244765D01*
X405590Y243914D01*
X405470Y243000D01*
X405590Y242086D01*
X405943Y241235D01*
X406504Y240504D01*
X407235Y239943D01*
X408086Y239590D01*
X408971Y239474D01*
Y225497D01*
X407703Y224229D01*
X400362D01*
Y224638D01*
X400362D01*
Y227500D01*
X397000D01*
Y228000D01*
X396500D01*
Y231362D01*
X393638D01*
X393638Y231362D01*
Y231362D01*
X393561Y231343D01*
X393151Y232110D01*
X393029Y232259D01*
Y261526D01*
X393031Y261526D01*
Y262474D01*
X393029Y262474D01*
Y264503D01*
X408509Y279983D01*
X408971Y279791D01*
D02*
G37*
G36*
X47370Y344162D02*
X47573Y343705D01*
X47355Y343440D01*
X46617Y342058D01*
X46162Y340559D01*
X46009Y339000D01*
X46162Y337441D01*
X46617Y335942D01*
X47355Y334560D01*
X47815Y334000D01*
X47355Y333440D01*
X46617Y332058D01*
X46162Y330559D01*
X46009Y329000D01*
X46162Y327441D01*
X46617Y325942D01*
X47355Y324560D01*
X47815Y324000D01*
X47355Y323440D01*
X46617Y322058D01*
X46162Y320559D01*
X46067Y319594D01*
X32750Y306276D01*
X32250D01*
X22090Y316436D01*
X22163Y316931D01*
X22330Y317020D01*
X23511Y317989D01*
X24480Y319170D01*
X25200Y320518D01*
X25644Y321980D01*
X25713Y322687D01*
X47196Y344170D01*
X47370Y344162D01*
D02*
G37*
G36*
X201237Y254737D02*
X202151Y253987D01*
X203193Y253430D01*
X204324Y253087D01*
X205500Y252971D01*
X205500Y252971D01*
X206638D01*
Y251638D01*
X212836D01*
X221737Y242737D01*
X222651Y241987D01*
X223693Y241430D01*
X224824Y241087D01*
X226000Y240971D01*
X260000D01*
X261176Y241087D01*
X262307Y241430D01*
X262307Y241430D01*
X262307Y241430D01*
X263350Y241987D01*
X264263Y242737D01*
X264263Y242737D01*
X264263Y242737D01*
X273252Y251726D01*
X273443Y251744D01*
X274831Y252165D01*
X276110Y252849D01*
X277231Y253769D01*
X278151Y254890D01*
X278835Y256169D01*
X278987Y256673D01*
X279479Y256762D01*
X279602Y256602D01*
X280304Y256063D01*
X281122Y255724D01*
X281500Y255675D01*
Y259000D01*
X282500D01*
Y255675D01*
X282878Y255724D01*
X283696Y256063D01*
X284398Y256602D01*
X284937Y257304D01*
X285276Y258122D01*
X285350Y258689D01*
X285824Y258850D01*
X289971Y254703D01*
Y250497D01*
X278503Y239029D01*
X273476D01*
X273187Y239266D01*
X271884Y239963D01*
X270470Y240391D01*
X269000Y240536D01*
X267530Y240391D01*
X266116Y239963D01*
X264813Y239266D01*
X263671Y238329D01*
X262734Y237187D01*
X262037Y235884D01*
X261609Y234470D01*
X261464Y233000D01*
X261609Y231530D01*
X261730Y231131D01*
X261432Y230729D01*
X213697D01*
X181428Y262998D01*
X181392Y263370D01*
X180963Y264784D01*
X180557Y265542D01*
X180815Y265971D01*
X190003D01*
X201237Y254737D01*
D02*
G37*
G36*
X475794Y286082D02*
X475608Y285470D01*
X475464Y284000D01*
X475608Y282530D01*
X476037Y281116D01*
X476734Y279813D01*
X477006Y279481D01*
X476792Y279029D01*
X474000D01*
X472824Y278913D01*
X471693Y278570D01*
X470650Y278013D01*
X469737Y277263D01*
X469737Y277263D01*
X468902Y276428D01*
X468530Y276392D01*
X467116Y275963D01*
X465813Y275266D01*
X464671Y274329D01*
X463734Y273187D01*
X463037Y271884D01*
X462608Y270470D01*
X462464Y269000D01*
X462608Y267530D01*
X463037Y266116D01*
X463734Y264813D01*
X464671Y263671D01*
X465813Y262734D01*
X467116Y262037D01*
X468530Y261609D01*
X470000Y261464D01*
X471470Y261609D01*
X472884Y262037D01*
X474187Y262734D01*
X475329Y263671D01*
X476266Y264813D01*
X476963Y266116D01*
X477222Y266971D01*
X479791D01*
X479983Y266509D01*
X474902Y261428D01*
X474530Y261391D01*
X473116Y260963D01*
X471813Y260266D01*
X470671Y259329D01*
X469734Y258187D01*
X469037Y256884D01*
X468609Y255470D01*
X468464Y254000D01*
X468609Y252530D01*
X469037Y251116D01*
X469734Y249813D01*
X470671Y248671D01*
X471813Y247734D01*
X473116Y247037D01*
X473386Y246955D01*
X473622Y246514D01*
X473608Y246470D01*
X473464Y245000D01*
X473608Y243530D01*
X474037Y242116D01*
X474734Y240813D01*
X475671Y239671D01*
X476813Y238734D01*
X478116Y238037D01*
X479530Y237609D01*
X481000Y237464D01*
X482470Y237609D01*
X483884Y238037D01*
X485187Y238734D01*
X486329Y239671D01*
X487266Y240813D01*
X487963Y242116D01*
X488391Y243530D01*
X488428Y243902D01*
X491497Y246971D01*
X495119D01*
X495376Y246542D01*
X495117Y246058D01*
X494662Y244559D01*
X494509Y243000D01*
X494662Y241441D01*
X495117Y239942D01*
X495376Y239458D01*
X495119Y239029D01*
X492500D01*
X491324Y238913D01*
X490193Y238570D01*
X489150Y238013D01*
X488237Y237263D01*
X484902Y233928D01*
X484530Y233892D01*
X483116Y233463D01*
X481813Y232766D01*
X480671Y231829D01*
X479734Y230687D01*
X479037Y229384D01*
X478609Y227970D01*
X478464Y226500D01*
X478609Y225030D01*
X479037Y223616D01*
X479734Y222313D01*
X480671Y221171D01*
X481813Y220234D01*
X483116Y219537D01*
X484530Y219109D01*
X486000Y218964D01*
X487470Y219109D01*
X488884Y219537D01*
X490187Y220234D01*
X491329Y221171D01*
X492266Y222313D01*
X492963Y223616D01*
X493392Y225030D01*
X493428Y225402D01*
X494786Y226760D01*
X495282Y226698D01*
X495376Y226542D01*
X495117Y226058D01*
X494662Y224559D01*
X494509Y223000D01*
X494662Y221441D01*
X495117Y219942D01*
X495856Y218560D01*
X496849Y217349D01*
X498060Y216355D01*
X499442Y215617D01*
X500941Y215162D01*
X501906Y215067D01*
X504971Y212003D01*
Y200209D01*
X504509Y200017D01*
X497263Y207263D01*
X496349Y208013D01*
X495307Y208570D01*
X494176Y208913D01*
X493000Y209029D01*
X451497D01*
X451029Y209497D01*
Y215019D01*
X451431Y215317D01*
X451941Y215162D01*
X453500Y215009D01*
X455059Y215162D01*
X456558Y215617D01*
X457940Y216355D01*
X459151Y217349D01*
X460145Y218560D01*
X460883Y219942D01*
X461338Y221441D01*
X461491Y223000D01*
X461338Y224559D01*
X460883Y226058D01*
X460145Y227440D01*
X459685Y228000D01*
X460145Y228560D01*
X460883Y229942D01*
X461338Y231441D01*
X461491Y233000D01*
X461338Y234559D01*
X460883Y236058D01*
X460145Y237440D01*
X459685Y238000D01*
X460145Y238560D01*
X460883Y239942D01*
X461338Y241441D01*
X461491Y243000D01*
X461338Y244559D01*
X460883Y246058D01*
X460145Y247440D01*
X459685Y248000D01*
X460145Y248560D01*
X460883Y249942D01*
X461338Y251441D01*
X461491Y253000D01*
X461338Y254559D01*
X460883Y256058D01*
X460145Y257440D01*
X459685Y258000D01*
X460145Y258560D01*
X460883Y259942D01*
X461338Y261441D01*
X461491Y263000D01*
X461338Y264559D01*
X460883Y266058D01*
X460145Y267440D01*
X459685Y268000D01*
X460145Y268560D01*
X460883Y269942D01*
X461338Y271441D01*
X461433Y272406D01*
X475365Y286339D01*
X475794Y286082D01*
D02*
G37*
G36*
X471971Y346711D02*
Y338533D01*
X470530Y338391D01*
X469116Y337963D01*
X467813Y337266D01*
X466671Y336329D01*
X465734Y335187D01*
X465037Y333884D01*
X464608Y332470D01*
X464464Y331000D01*
X464608Y329530D01*
X465037Y328116D01*
X465734Y326813D01*
X465971Y326524D01*
Y323997D01*
X460902Y318928D01*
X460500Y319226D01*
X460883Y319942D01*
X461338Y321441D01*
X461491Y323000D01*
X461338Y324559D01*
X460883Y326058D01*
X460145Y327440D01*
X459685Y328000D01*
X460145Y328560D01*
X460883Y329942D01*
X461338Y331441D01*
X461491Y333000D01*
X461338Y334559D01*
X460883Y336058D01*
X460145Y337440D01*
X460242Y337930D01*
X460350Y337987D01*
X461263Y338737D01*
X467098Y344572D01*
X467470Y344608D01*
X468884Y345037D01*
X470187Y345734D01*
X471329Y346671D01*
X471500Y346880D01*
X471971Y346711D01*
D02*
G37*
G36*
X76067Y338406D02*
X76162Y337441D01*
X76617Y335942D01*
X77260Y334739D01*
X77115Y334261D01*
X76651Y334013D01*
X75737Y333263D01*
X75737Y333263D01*
X65737Y323263D01*
X64987Y322350D01*
X64430Y321307D01*
X64087Y320176D01*
X63971Y319000D01*
Y318209D01*
X63509Y318017D01*
X61933Y319594D01*
X61838Y320559D01*
X61383Y322058D01*
X60645Y323440D01*
X60185Y324000D01*
X60645Y324560D01*
X61383Y325942D01*
X61838Y327441D01*
X61991Y329000D01*
X61838Y330559D01*
X61383Y332058D01*
X60645Y333440D01*
X60185Y334000D01*
X60645Y334560D01*
X61383Y335942D01*
X61838Y337441D01*
X61991Y339000D01*
X61838Y340559D01*
X61383Y342058D01*
X60645Y343440D01*
X60185Y344000D01*
X60645Y344560D01*
X61383Y345942D01*
X61695Y346971D01*
X67503D01*
X76067Y338406D01*
D02*
G37*
G36*
X463639Y404569D02*
X463609Y404470D01*
X463464Y403000D01*
X463609Y401530D01*
X464037Y400116D01*
X464734Y398813D01*
X465671Y397671D01*
X466813Y396734D01*
X468116Y396037D01*
X469530Y395608D01*
X471000Y395464D01*
X471009Y395465D01*
X486971Y379503D01*
Y314997D01*
X460902Y288928D01*
X460500Y289226D01*
X460883Y289942D01*
X461338Y291441D01*
X461433Y292406D01*
X482263Y313237D01*
X482263Y313237D01*
X482263Y313237D01*
X483013Y314151D01*
X483570Y315193D01*
X483570Y315193D01*
X483570Y315193D01*
X483913Y316324D01*
X484029Y317500D01*
X484029Y317500D01*
X484029Y317500D01*
Y317500D01*
Y358000D01*
X483913Y359176D01*
X483570Y360307D01*
X483013Y361350D01*
X482263Y362263D01*
X462263Y382263D01*
X461482Y382904D01*
X461491Y383000D01*
X461338Y384559D01*
X460883Y386058D01*
X460145Y387440D01*
X459685Y388000D01*
X460145Y388560D01*
X460883Y389942D01*
X461338Y391441D01*
X461491Y393000D01*
X461338Y394559D01*
X461266Y394795D01*
X461453Y395047D01*
X461453D01*
Y404971D01*
X463341D01*
X463639Y404569D01*
D02*
G37*
G36*
X183067Y58406D02*
X183162Y57441D01*
X183234Y57205D01*
X183047Y56953D01*
X183047D01*
Y44029D01*
X167793D01*
X167579Y44481D01*
X167645Y44560D01*
X168383Y45942D01*
X168838Y47441D01*
X168991Y49000D01*
X168838Y50559D01*
X168383Y52058D01*
X167645Y53440D01*
X167185Y54000D01*
X167645Y54560D01*
X168383Y55942D01*
X168838Y57441D01*
X168991Y59000D01*
X168838Y60559D01*
X168383Y62058D01*
X167645Y63440D01*
X167185Y64000D01*
X167645Y64560D01*
X168383Y65942D01*
X168816Y67371D01*
X174103D01*
X183067Y58406D01*
D02*
G37*
G36*
X385491Y155358D02*
X385617Y154942D01*
X386355Y153560D01*
X387349Y152349D01*
X387971Y151839D01*
Y137000D01*
X386343D01*
Y127529D01*
X357709D01*
X357517Y127991D01*
X385006Y155480D01*
X385491Y155358D01*
D02*
G37*
G36*
X494547Y402426D02*
Y395047D01*
X494547D01*
X494734Y394795D01*
X494662Y394559D01*
X494509Y393000D01*
X494662Y391441D01*
X495117Y389942D01*
X495856Y388560D01*
X496073Y388296D01*
X495870Y387838D01*
X495696Y387830D01*
X479017Y404509D01*
X479209Y404971D01*
X492003D01*
X494547Y402426D01*
D02*
G37*
G36*
X127577Y44152D02*
X127464Y43000D01*
X127609Y41530D01*
X128037Y40116D01*
X128734Y38813D01*
X129671Y37671D01*
X130193Y37243D01*
X130217Y36744D01*
X125118Y31644D01*
X125110Y31651D01*
X123831Y32335D01*
X123029Y32578D01*
Y43209D01*
X124520Y43356D01*
X125982Y43800D01*
X127162Y44430D01*
X127577Y44152D01*
D02*
G37*
G36*
X397639Y404569D02*
X397608Y404470D01*
X397464Y403000D01*
X397608Y401530D01*
X398037Y400116D01*
X398734Y398813D01*
X399671Y397671D01*
X400813Y396734D01*
X402116Y396037D01*
X403530Y395608D01*
X405000Y395464D01*
X406470Y395608D01*
X407884Y396037D01*
X409187Y396734D01*
X409476Y396971D01*
X445547D01*
Y395047D01*
X445547D01*
X445734Y394795D01*
X445662Y394559D01*
X445567Y393594D01*
X445003Y393029D01*
X336890D01*
X336838Y393559D01*
X336766Y393795D01*
X336953Y394047D01*
X336953D01*
Y401426D01*
X340497Y404971D01*
X397341D01*
X397639Y404569D01*
D02*
G37*
G36*
X186329Y388200D02*
X185489Y387511D01*
X184520Y386330D01*
X183800Y384982D01*
X183401Y383667D01*
X171303D01*
X171276Y383878D01*
X170937Y384696D01*
X170398Y385398D01*
X169696Y385937D01*
X168878Y386276D01*
X168000Y386391D01*
X167122Y386276D01*
X166304Y385937D01*
X165602Y385398D01*
X165479Y385238D01*
X164987Y385328D01*
X164835Y385831D01*
X164151Y387110D01*
X163241Y388219D01*
X163455Y388671D01*
X186161D01*
X186329Y388200D01*
D02*
G37*
G36*
X529003Y439004D02*
X528632Y438522D01*
X528129Y437305D01*
X527957Y436000D01*
Y432500D01*
X537000D01*
Y432000D01*
X537500D01*
Y422957D01*
X541000D01*
X542305Y423129D01*
X543522Y423632D01*
X544004Y424003D01*
X544452Y423782D01*
Y21218D01*
X544004Y20997D01*
X543522Y21368D01*
X542305Y21871D01*
X541000Y22043D01*
X537500D01*
Y13000D01*
X537000D01*
Y12500D01*
X527957D01*
Y9000D01*
X528129Y7695D01*
X528632Y6478D01*
X529003Y5996D01*
X528782Y5548D01*
X21218D01*
X20997Y5996D01*
X21368Y6478D01*
X21871Y7695D01*
X22043Y9000D01*
Y12500D01*
X13000D01*
Y13000D01*
X12500D01*
Y22043D01*
X9000D01*
X7695Y21871D01*
X6478Y21368D01*
X5996Y20997D01*
X5548Y21218D01*
Y315273D01*
X6009Y315464D01*
X26471Y295003D01*
Y203000D01*
X25691Y202050D01*
X24934Y200634D01*
X24468Y199098D01*
X24311Y197500D01*
X24468Y195902D01*
X24934Y194366D01*
X25691Y192950D01*
X26709Y191709D01*
X27950Y190691D01*
X28863Y190203D01*
X28969Y189714D01*
X28875Y189593D01*
X28457Y188583D01*
X28380Y188000D01*
X36620D01*
X36543Y188583D01*
X36125Y189593D01*
X36031Y189714D01*
X36137Y190203D01*
X37050Y190691D01*
X37915Y191401D01*
X63342Y165974D01*
Y159185D01*
X78658D01*
Y160863D01*
X79334Y160929D01*
X80465Y161273D01*
X81507Y161830D01*
X82421Y162579D01*
X83170Y163493D01*
X83728Y164535D01*
X84071Y165666D01*
X84186Y166843D01*
X84071Y168019D01*
X83728Y169150D01*
X83170Y170192D01*
X82421Y171106D01*
X81507Y171856D01*
X80465Y172413D01*
X79334Y172756D01*
X78658Y172822D01*
Y174500D01*
X71869D01*
X44606Y201763D01*
X43692Y202513D01*
X42650Y203070D01*
X41519Y203413D01*
X40343Y203529D01*
X38529D01*
Y245886D01*
X38958Y246143D01*
X39942Y245617D01*
X41441Y245162D01*
X42406Y245067D01*
X102971Y184503D01*
Y170879D01*
X102520Y170330D01*
X101800Y168982D01*
X101356Y167520D01*
X101207Y166000D01*
X101356Y164480D01*
X101800Y163018D01*
X102520Y161670D01*
X103489Y160489D01*
X104670Y159520D01*
X106018Y158800D01*
X107480Y158356D01*
X109000Y158207D01*
X110520Y158356D01*
X111982Y158800D01*
X113330Y159520D01*
X113879Y159971D01*
X138121D01*
X138670Y159520D01*
X140018Y158800D01*
X141480Y158356D01*
X143000Y158207D01*
X144520Y158356D01*
X145982Y158800D01*
X147330Y159520D01*
X148511Y160489D01*
X149480Y161670D01*
X150200Y163018D01*
X150644Y164480D01*
X150793Y166000D01*
X150644Y167520D01*
X150200Y168982D01*
X149480Y170330D01*
X148511Y171511D01*
X147330Y172480D01*
X145982Y173200D01*
X144520Y173644D01*
X143000Y173793D01*
X141480Y173644D01*
X140018Y173200D01*
X138670Y172480D01*
X138121Y172029D01*
X115029D01*
Y187000D01*
X115029Y187000D01*
X114913Y188176D01*
X114570Y189307D01*
X114013Y190349D01*
X113263Y191263D01*
X113263Y191263D01*
X102817Y201709D01*
X103009Y202171D01*
X146200D01*
X147376Y202287D01*
X148507Y202630D01*
X148507Y202630D01*
X148507Y202630D01*
X149549Y203187D01*
X150463Y203937D01*
X150463Y203937D01*
X150463Y203937D01*
X151252Y204726D01*
X151443Y204744D01*
X152831Y205165D01*
X154110Y205849D01*
X155000Y206579D01*
X155890Y205849D01*
X157169Y205165D01*
X158557Y204744D01*
X160000Y204602D01*
X161443Y204744D01*
X162831Y205165D01*
X164110Y205849D01*
X165231Y206769D01*
X166151Y207890D01*
X166835Y209169D01*
X167256Y210557D01*
X167398Y212000D01*
X167256Y213443D01*
X166835Y214831D01*
X166151Y216110D01*
X165231Y217231D01*
X164110Y218151D01*
X162831Y218835D01*
X161443Y219256D01*
X160000Y219398D01*
X158557Y219256D01*
X157169Y218835D01*
X155890Y218151D01*
X155000Y217421D01*
X154110Y218151D01*
X152831Y218835D01*
X151443Y219256D01*
X150000Y219398D01*
X148557Y219256D01*
X147169Y218835D01*
X145890Y218151D01*
X144769Y217231D01*
X143849Y216110D01*
X143165Y214831D01*
X142983Y214229D01*
X130429D01*
X130200Y214982D01*
X129480Y216330D01*
X128511Y217511D01*
X127330Y218480D01*
X125982Y219200D01*
X124520Y219644D01*
X123000Y219793D01*
X121480Y219644D01*
X120018Y219200D01*
X118670Y218480D01*
X117489Y217511D01*
X116520Y216330D01*
X115800Y214982D01*
X115571Y214229D01*
X100429D01*
X100200Y214982D01*
X99480Y216330D01*
X98511Y217511D01*
X97330Y218480D01*
X95982Y219200D01*
X94520Y219644D01*
X93000Y219793D01*
X91480Y219644D01*
X90018Y219200D01*
X88670Y218480D01*
X87489Y217511D01*
X87038Y217489D01*
X54517Y250009D01*
X54709Y250471D01*
X107121D01*
X107670Y250020D01*
X109018Y249300D01*
X110480Y248856D01*
X112000Y248707D01*
X113520Y248856D01*
X114982Y249300D01*
X116330Y250020D01*
X117511Y250989D01*
X118480Y252170D01*
X119200Y253518D01*
X119644Y254980D01*
X119793Y256500D01*
X119644Y258020D01*
X119200Y259482D01*
X118480Y260830D01*
X117511Y262011D01*
X116330Y262980D01*
X114982Y263700D01*
X113520Y264144D01*
X112000Y264293D01*
X110480Y264144D01*
X109018Y263700D01*
X107670Y262980D01*
X107121Y262529D01*
X51997D01*
X50953Y263574D01*
Y270953D01*
X38529D01*
Y295003D01*
X54000Y310474D01*
X96737Y267737D01*
X97650Y266987D01*
X98693Y266430D01*
X99824Y266087D01*
X101000Y265971D01*
X167185D01*
X167443Y265542D01*
X167037Y264784D01*
X166609Y263370D01*
X166464Y261900D01*
X166609Y260430D01*
X167037Y259016D01*
X167734Y257713D01*
X168671Y256571D01*
X169813Y255634D01*
X171116Y254937D01*
X172530Y254508D01*
X172902Y254472D01*
X202424Y224950D01*
Y224450D01*
X197906Y219933D01*
X196941Y219838D01*
X195442Y219383D01*
X194060Y218644D01*
X192849Y217651D01*
X191856Y216440D01*
X191117Y215058D01*
X190662Y213559D01*
X190509Y212000D01*
X190662Y210441D01*
X191117Y208942D01*
X191856Y207560D01*
X192849Y206349D01*
X194060Y205356D01*
X195442Y204617D01*
X196941Y204162D01*
X198500Y204009D01*
X200059Y204162D01*
X201558Y204617D01*
X202940Y205356D01*
X203500Y205815D01*
X204060Y205356D01*
X205442Y204617D01*
X206941Y204162D01*
X208500Y204009D01*
X210059Y204162D01*
X211558Y204617D01*
X212940Y205356D01*
X213500Y205815D01*
X214060Y205356D01*
X215442Y204617D01*
X216941Y204162D01*
X218500Y204009D01*
X220059Y204162D01*
X221558Y204617D01*
X222940Y205356D01*
X223500Y205815D01*
X224060Y205356D01*
X225442Y204617D01*
X226941Y204162D01*
X228500Y204009D01*
X230059Y204162D01*
X231558Y204617D01*
X232940Y205356D01*
X233500Y205815D01*
X234060Y205356D01*
X235442Y204617D01*
X236941Y204162D01*
X238500Y204009D01*
X240059Y204162D01*
X241558Y204617D01*
X242940Y205356D01*
X243500Y205815D01*
X244060Y205356D01*
X245442Y204617D01*
X246941Y204162D01*
X248500Y204009D01*
X250059Y204162D01*
X251558Y204617D01*
X252940Y205356D01*
X253500Y205815D01*
X254060Y205356D01*
X255442Y204617D01*
X256941Y204162D01*
X257906Y204067D01*
X281737Y180237D01*
Y180237D01*
X281737Y180237D01*
X281737Y180237D01*
Y180237D01*
X282650Y179487D01*
X283693Y178930D01*
X283693Y178930D01*
X283693Y178930D01*
D01*
X283693Y178930D01*
X283693Y178930D01*
X284824Y178587D01*
X286000Y178471D01*
X288810D01*
X289560Y177856D01*
X290942Y177117D01*
X292441Y176662D01*
X294000Y176509D01*
X295559Y176662D01*
X297058Y177117D01*
X298440Y177856D01*
X299000Y178315D01*
X299560Y177856D01*
X300942Y177117D01*
X302441Y176662D01*
X303406Y176567D01*
X305483Y174491D01*
X305291Y174029D01*
X291000D01*
X289824Y173913D01*
X288693Y173570D01*
X287650Y173013D01*
X286737Y172263D01*
X265824Y151350D01*
X265362Y151542D01*
Y152362D01*
X250638D01*
Y151029D01*
X244476D01*
X244187Y151266D01*
X242884Y151963D01*
X241470Y152392D01*
X240000Y152536D01*
X238530Y152392D01*
X237116Y151963D01*
X235813Y151266D01*
X234671Y150329D01*
X233734Y149187D01*
X233037Y147884D01*
X232609Y146470D01*
X232572Y146098D01*
X223748Y137275D01*
X223557Y137256D01*
X222169Y136835D01*
X220890Y136151D01*
X219769Y135231D01*
X218849Y134110D01*
X218165Y132831D01*
X217744Y131443D01*
X217602Y130000D01*
X217744Y128557D01*
X218165Y127169D01*
X218849Y125890D01*
X219769Y124769D01*
X220890Y123849D01*
X222169Y123165D01*
X222673Y123013D01*
X222762Y122521D01*
X222602Y122398D01*
X222063Y121696D01*
X221724Y120878D01*
X221675Y120500D01*
X228325D01*
X228276Y120878D01*
X227937Y121696D01*
X227398Y122398D01*
X227238Y122521D01*
X227327Y123013D01*
X227831Y123165D01*
X229110Y123849D01*
X230231Y124769D01*
X231151Y125890D01*
X231835Y127169D01*
X232256Y128557D01*
X232275Y128748D01*
X241098Y137572D01*
X241470Y137609D01*
X242884Y138037D01*
X244187Y138734D01*
X244476Y138971D01*
X250638D01*
Y137638D01*
X250687D01*
X250985Y137236D01*
X250744Y136443D01*
X250602Y135000D01*
X250744Y133557D01*
X251165Y132169D01*
X251849Y130890D01*
X252769Y129769D01*
X253890Y128849D01*
X255169Y128165D01*
X255673Y128013D01*
X255762Y127521D01*
X255602Y127398D01*
X255063Y126696D01*
X254724Y125878D01*
X254675Y125500D01*
X261325D01*
X261276Y125878D01*
X260937Y126696D01*
X260398Y127398D01*
X260238Y127521D01*
X260328Y128013D01*
X260831Y128165D01*
X262110Y128849D01*
X263231Y129769D01*
X264151Y130890D01*
X264835Y132169D01*
X265256Y133557D01*
X265275Y133748D01*
X289585Y158059D01*
X290047Y157868D01*
Y155000D01*
X293500D01*
Y158453D01*
X290632D01*
X290441Y158915D01*
X293497Y161971D01*
X357810D01*
X358560Y161355D01*
X359661Y160767D01*
X359766Y160279D01*
X359547Y159993D01*
X359149Y159032D01*
X359079Y158500D01*
X366921D01*
X366851Y159032D01*
X366453Y159993D01*
X366234Y160279D01*
X366339Y160767D01*
X367440Y161355D01*
X368651Y162349D01*
X369644Y163560D01*
X370383Y164942D01*
X370838Y166441D01*
X370991Y168000D01*
X370838Y169559D01*
X370383Y171058D01*
X369644Y172440D01*
X368651Y173651D01*
X367440Y174644D01*
X366339Y175233D01*
X366234Y175721D01*
X366453Y176007D01*
X366851Y176968D01*
X366921Y177500D01*
X359079D01*
X359149Y176968D01*
X359547Y176007D01*
X359766Y175721D01*
X359661Y175233D01*
X358560Y174644D01*
X357810Y174029D01*
X345533D01*
X345392Y175470D01*
X344963Y176884D01*
X344896Y177008D01*
X345013Y177150D01*
X345029Y177181D01*
X345050Y177207D01*
X345307Y177701D01*
X345570Y178193D01*
X345580Y178226D01*
X345596Y178256D01*
X345751Y178790D01*
X345913Y179324D01*
X345917Y179358D01*
X345926Y179390D01*
X349983Y201056D01*
X353197Y204271D01*
X408700D01*
X409876Y204387D01*
X411007Y204730D01*
X412049Y205287D01*
X412963Y206037D01*
X415435Y208508D01*
X415504Y208504D01*
X416235Y207943D01*
X417086Y207590D01*
X417500Y207536D01*
Y210573D01*
X417927Y211000D01*
X418000D01*
Y211073D01*
X418427Y211500D01*
X421464D01*
X421410Y211914D01*
X421057Y212765D01*
X420496Y213496D01*
X420492Y213565D01*
X423263Y216337D01*
X424013Y217250D01*
X424570Y218293D01*
X424913Y219424D01*
X425029Y220600D01*
Y284503D01*
X445201Y304674D01*
X445653Y304461D01*
X445509Y303000D01*
X445662Y301441D01*
X446117Y299942D01*
X446855Y298560D01*
X447315Y298000D01*
X446855Y297440D01*
X446117Y296058D01*
X445662Y294559D01*
X445509Y293000D01*
X445662Y291441D01*
X446117Y289942D01*
X446855Y288560D01*
X447315Y288000D01*
X446855Y287440D01*
X446117Y286058D01*
X445662Y284559D01*
X445509Y283000D01*
X445662Y281441D01*
X446117Y279942D01*
X446855Y278560D01*
X447315Y278000D01*
X446855Y277440D01*
X446117Y276058D01*
X445662Y274559D01*
X445509Y273000D01*
X445662Y271441D01*
X446117Y269942D01*
X446855Y268560D01*
X447315Y268000D01*
X446855Y267440D01*
X446117Y266058D01*
X445662Y264559D01*
X445509Y263000D01*
X445662Y261441D01*
X446117Y259942D01*
X446855Y258560D01*
X447315Y258000D01*
X446855Y257440D01*
X446117Y256058D01*
X445662Y254559D01*
X445509Y253000D01*
X445662Y251441D01*
X446117Y249942D01*
X446855Y248560D01*
X447315Y248000D01*
X446855Y247440D01*
X446117Y246058D01*
X445662Y244559D01*
X445567Y243594D01*
X431737Y229763D01*
X430987Y228850D01*
X430430Y227807D01*
X430087Y226676D01*
X429971Y225500D01*
Y195000D01*
X429971Y195000D01*
X429971D01*
X430087Y193824D01*
X430430Y192693D01*
X430987Y191650D01*
X431737Y190737D01*
X432651Y189987D01*
X433693Y189430D01*
X434824Y189087D01*
X436000Y188971D01*
X484503D01*
X488971Y184503D01*
Y125268D01*
X488522Y125047D01*
X487993Y125453D01*
X487032Y125851D01*
X486500Y125921D01*
Y122000D01*
X486000D01*
Y121500D01*
X482079D01*
X482149Y120968D01*
X482397Y120369D01*
X482120Y119953D01*
X478047D01*
Y118029D01*
X442979D01*
X442722Y118458D01*
X442835Y118669D01*
X443256Y120057D01*
X443398Y121500D01*
X443256Y122943D01*
X442835Y124331D01*
X442151Y125610D01*
X441421Y126500D01*
X442151Y127390D01*
X442835Y128669D01*
X443256Y130057D01*
X443398Y131500D01*
X443256Y132943D01*
X442835Y134331D01*
X442151Y135610D01*
X441231Y136731D01*
X440110Y137651D01*
X438831Y138335D01*
X437443Y138756D01*
X436000Y138898D01*
X434557Y138756D01*
X433169Y138335D01*
X431890Y137651D01*
X430769Y136731D01*
X429849Y135610D01*
X429721Y135372D01*
X401657D01*
Y137000D01*
X400029D01*
Y154280D01*
X400383Y154942D01*
X400838Y156441D01*
X400991Y158000D01*
X400838Y159559D01*
X400383Y161058D01*
X399948Y161872D01*
X400195Y162307D01*
X414144Y162971D01*
X428741D01*
X428890Y162849D01*
X430169Y162165D01*
X431557Y161744D01*
X433000Y161602D01*
X434443Y161744D01*
X435831Y162165D01*
X437110Y162849D01*
X438231Y163769D01*
X439151Y164890D01*
X439835Y166169D01*
X440256Y167557D01*
X440398Y169000D01*
X440256Y170443D01*
X439835Y171831D01*
X439151Y173110D01*
X438231Y174231D01*
X437110Y175151D01*
X435831Y175835D01*
X435327Y175987D01*
X435238Y176479D01*
X435398Y176602D01*
X435937Y177304D01*
X436276Y178122D01*
X436325Y178500D01*
X429675D01*
X429724Y178122D01*
X430063Y177304D01*
X430602Y176602D01*
X430762Y176479D01*
X430673Y175987D01*
X430169Y175835D01*
X428890Y175151D01*
X428741Y175029D01*
X414000D01*
X413857Y175015D01*
X413713Y175022D01*
X400585Y174397D01*
X400318Y174820D01*
X400383Y174942D01*
X400838Y176441D01*
X400991Y178000D01*
X400838Y179559D01*
X400383Y181058D01*
X399644Y182440D01*
X399185Y183000D01*
X399644Y183560D01*
X400383Y184942D01*
X400838Y186441D01*
X400991Y188000D01*
X400838Y189559D01*
X400383Y191058D01*
X399644Y192440D01*
X398651Y193651D01*
X397440Y194644D01*
X396058Y195383D01*
X394559Y195838D01*
X393000Y195991D01*
X391441Y195838D01*
X389942Y195383D01*
X388560Y194644D01*
X387349Y193651D01*
X386355Y192440D01*
X385617Y191058D01*
X385162Y189559D01*
X385009Y188000D01*
X385162Y186441D01*
X385617Y184942D01*
X386355Y183560D01*
X386815Y183000D01*
X386355Y182440D01*
X385617Y181058D01*
X385162Y179559D01*
X385009Y178000D01*
X385162Y176441D01*
X385617Y174942D01*
X386260Y173740D01*
X386115Y173261D01*
X385650Y173013D01*
X384737Y172263D01*
X334737Y122263D01*
X333987Y121350D01*
X333430Y120307D01*
X333087Y119176D01*
X332971Y118000D01*
Y84497D01*
X308406Y59933D01*
X307441Y59838D01*
X305942Y59383D01*
X304560Y58644D01*
X303349Y57651D01*
X302356Y56440D01*
X302095Y55953D01*
X299500D01*
Y52000D01*
Y48047D01*
X302095D01*
X302356Y47560D01*
X302971Y46810D01*
Y46497D01*
X300503Y44029D01*
X198953D01*
Y47971D01*
X222121D01*
X222670Y47520D01*
X224018Y46800D01*
X225480Y46356D01*
X227000Y46207D01*
X228520Y46356D01*
X229982Y46800D01*
X231330Y47520D01*
X231879Y47971D01*
X254621D01*
X255170Y47520D01*
X256518Y46800D01*
X257980Y46356D01*
X259500Y46207D01*
X261020Y46356D01*
X262482Y46800D01*
X263830Y47520D01*
X265011Y48489D01*
X265980Y49670D01*
X266700Y51018D01*
X267144Y52480D01*
X267293Y54000D01*
X267144Y55520D01*
X266700Y56982D01*
X265980Y58330D01*
X265011Y59511D01*
X263830Y60480D01*
X262482Y61200D01*
X261020Y61644D01*
X259500Y61793D01*
X257980Y61644D01*
X256518Y61200D01*
X255170Y60480D01*
X254621Y60029D01*
X231879D01*
X231330Y60480D01*
X229982Y61200D01*
X228520Y61644D01*
X227000Y61793D01*
X225480Y61644D01*
X224018Y61200D01*
X222670Y60480D01*
X222121Y60029D01*
X198890D01*
X198838Y60559D01*
X198383Y62058D01*
X198067Y62650D01*
X198258Y63112D01*
X199307Y63430D01*
X200349Y63987D01*
X201263Y64737D01*
X214497Y77971D01*
X222121D01*
X222670Y77520D01*
X224018Y76800D01*
X225480Y76356D01*
X227000Y76207D01*
X228520Y76356D01*
X229982Y76800D01*
X231330Y77520D01*
X232511Y78489D01*
X233480Y79670D01*
X234200Y81018D01*
X234644Y82480D01*
X234793Y84000D01*
X234644Y85520D01*
X234200Y86982D01*
X233480Y88330D01*
X232511Y89511D01*
X231330Y90480D01*
X229982Y91200D01*
X228520Y91644D01*
X227000Y91793D01*
X225480Y91644D01*
X224018Y91200D01*
X222670Y90480D01*
X222121Y90029D01*
X212000D01*
X210824Y89913D01*
X209693Y89570D01*
X208650Y89013D01*
X207737Y88263D01*
X195230Y75757D01*
X194339Y76233D01*
X194234Y76721D01*
X194453Y77007D01*
X194851Y77968D01*
X194921Y78500D01*
X191000D01*
Y79000D01*
X190500D01*
Y82921D01*
X189968Y82851D01*
X189007Y82453D01*
X188181Y81819D01*
X187772Y81286D01*
X187273Y81253D01*
X167428Y101098D01*
X167392Y101470D01*
X166963Y102884D01*
X166266Y104187D01*
X165329Y105329D01*
X164187Y106266D01*
X162884Y106963D01*
X161470Y107392D01*
X160000Y107536D01*
X158589Y107397D01*
X158376Y107849D01*
X161497Y110971D01*
X172121D01*
X172670Y110520D01*
X174018Y109800D01*
X175480Y109356D01*
X177000Y109207D01*
X178520Y109356D01*
X179982Y109800D01*
X181330Y110520D01*
X182511Y111489D01*
X183480Y112670D01*
X184200Y114018D01*
X184644Y115480D01*
X184793Y117000D01*
X184644Y118520D01*
X184200Y119982D01*
X183480Y121330D01*
X182511Y122511D01*
X181330Y123480D01*
X179982Y124200D01*
X178520Y124644D01*
X177000Y124793D01*
X175480Y124644D01*
X174018Y124200D01*
X172670Y123480D01*
X172121Y123029D01*
X159000D01*
X157824Y122913D01*
X156693Y122570D01*
X155650Y122013D01*
X154737Y121263D01*
X129491Y96017D01*
X129029Y96209D01*
Y117524D01*
X129266Y117813D01*
X129963Y119116D01*
X130392Y120530D01*
X130536Y122000D01*
X130392Y123470D01*
X129963Y124884D01*
X129266Y126187D01*
X128329Y127329D01*
X127187Y128266D01*
X125884Y128963D01*
X124470Y129392D01*
X123000Y129536D01*
X121530Y129392D01*
X120116Y128963D01*
X118813Y128266D01*
X117671Y127329D01*
X116734Y126187D01*
X116037Y124884D01*
X115609Y123470D01*
X115464Y122000D01*
X115609Y120530D01*
X116037Y119116D01*
X116734Y117813D01*
X116971Y117524D01*
Y85879D01*
X116520Y85330D01*
X115800Y83982D01*
X115356Y82520D01*
X115287Y81813D01*
X112737Y79263D01*
X111987Y78350D01*
X111430Y77307D01*
X111087Y76176D01*
X110971Y75000D01*
X110971Y75000D01*
X110971D01*
X110971Y75000D01*
X110971D01*
Y29500D01*
X110971Y29500D01*
X110971D01*
X111087Y28324D01*
X111430Y27193D01*
X111430Y27193D01*
X111430Y27193D01*
X111987Y26151D01*
X112737Y25237D01*
X112737Y25237D01*
X112737Y25237D01*
D01*
X112737D01*
Y25237D01*
D01*
X113725Y24248D01*
X113744Y24057D01*
X114165Y22669D01*
X114849Y21390D01*
X115769Y20269D01*
X116890Y19349D01*
X118169Y18665D01*
X118673Y18513D01*
X118762Y18021D01*
X118602Y17898D01*
X118063Y17196D01*
X117724Y16378D01*
X117675Y16000D01*
X124325D01*
X124276Y16378D01*
X123937Y17196D01*
X123398Y17898D01*
X123238Y18021D01*
X123328Y18513D01*
X123831Y18665D01*
X125110Y19349D01*
X125259Y19471D01*
X127500D01*
X128676Y19587D01*
X129807Y19930D01*
X130850Y20487D01*
X131763Y21237D01*
X144026Y33500D01*
X144650Y32987D01*
X145693Y32430D01*
X145693Y32430D01*
X145693Y32430D01*
D01*
X145693Y32430D01*
X145693Y32430D01*
X146824Y32087D01*
X148000Y31971D01*
X303000D01*
X304176Y32087D01*
X305307Y32430D01*
X305307Y32430D01*
X305307Y32430D01*
X306349Y32987D01*
X307263Y33737D01*
X307263Y33737D01*
X307263Y33737D01*
X313263Y39737D01*
X313263Y39737D01*
X313263Y39737D01*
X314013Y40650D01*
X314570Y41693D01*
X314570Y41693D01*
X314570Y41693D01*
X314913Y42824D01*
X315029Y44000D01*
X315029Y44000D01*
X315029Y44000D01*
Y44000D01*
Y44619D01*
X315458Y44876D01*
X315942Y44617D01*
X317441Y44162D01*
X319000Y44009D01*
X320559Y44162D01*
X322058Y44617D01*
X323440Y45355D01*
X324000Y45815D01*
X324560Y45355D01*
X325942Y44617D01*
X327441Y44162D01*
X328406Y44067D01*
X339737Y32737D01*
Y32737D01*
X339737Y32737D01*
X339737Y32737D01*
Y32737D01*
X340651Y31987D01*
X341693Y31430D01*
X341693Y31430D01*
X341693Y31430D01*
D01*
X341693Y31430D01*
X341693Y31430D01*
X342824Y31087D01*
X344000Y30971D01*
X475000D01*
X476176Y31087D01*
X477307Y31430D01*
X478349Y31987D01*
X479263Y32737D01*
X528263Y81737D01*
X528263Y81737D01*
X529013Y82651D01*
X529570Y83693D01*
X529913Y84824D01*
X530029Y86000D01*
Y179467D01*
X531470Y179609D01*
X532884Y180037D01*
X534187Y180734D01*
X535329Y181671D01*
X536266Y182813D01*
X536963Y184116D01*
X537392Y185530D01*
X537536Y187000D01*
X537392Y188470D01*
X536963Y189884D01*
X536266Y191187D01*
X536029Y191476D01*
Y304000D01*
X535913Y305176D01*
X535570Y306307D01*
X535013Y307349D01*
X534263Y308263D01*
X527575Y314951D01*
X527648Y315446D01*
X528187Y315734D01*
X529329Y316671D01*
X530266Y317813D01*
X530963Y319116D01*
X531391Y320530D01*
X531536Y322000D01*
X531391Y323470D01*
X530963Y324884D01*
X530266Y326187D01*
X529329Y327329D01*
X528187Y328266D01*
X526884Y328963D01*
X525470Y329392D01*
X525098Y329428D01*
X510378Y344148D01*
X510338Y344559D01*
X509883Y346058D01*
X509144Y347440D01*
X508685Y348000D01*
X509144Y348560D01*
X509883Y349942D01*
X510338Y351441D01*
X510491Y353000D01*
X510338Y354559D01*
X509883Y356058D01*
X509144Y357440D01*
X508685Y358000D01*
X509144Y358560D01*
X509883Y359942D01*
X510338Y361441D01*
X510491Y363000D01*
X510338Y364559D01*
X509883Y366058D01*
X509144Y367440D01*
X508685Y368000D01*
X509144Y368560D01*
X509883Y369942D01*
X510338Y371441D01*
X510433Y372406D01*
X521263Y383237D01*
X522013Y384151D01*
X522570Y385193D01*
X522913Y386324D01*
X523029Y387500D01*
X523029Y387500D01*
Y407000D01*
X523029Y407000D01*
X522913Y408176D01*
X522570Y409307D01*
X522013Y410350D01*
X521263Y411263D01*
X508263Y424263D01*
X507349Y425013D01*
X506307Y425570D01*
X505176Y425913D01*
X504000Y426029D01*
X317000D01*
X315824Y425913D01*
X314693Y425570D01*
X313650Y425013D01*
X312737Y424263D01*
X309257Y420783D01*
X308757Y420807D01*
X308329Y421329D01*
X307187Y422266D01*
X305884Y422963D01*
X304470Y423391D01*
X303000Y423536D01*
X301530Y423391D01*
X300116Y422963D01*
X298813Y422266D01*
X297671Y421329D01*
X296734Y420187D01*
X296037Y418884D01*
X295608Y417470D01*
X295572Y417098D01*
X289737Y411263D01*
X288987Y410350D01*
X288430Y409307D01*
X288087Y408176D01*
X287971Y407000D01*
Y405851D01*
X287968Y405851D01*
X287007Y405453D01*
X286721Y405234D01*
X286233Y405339D01*
X285645Y406440D01*
X284651Y407651D01*
X283440Y408644D01*
X282058Y409383D01*
X280559Y409838D01*
X279594Y409933D01*
X274263Y415263D01*
X273349Y416013D01*
X272307Y416570D01*
X271176Y416913D01*
X270000Y417029D01*
X254476D01*
X254187Y417266D01*
X252884Y417963D01*
X251470Y418392D01*
X250000Y418536D01*
X248530Y418392D01*
X247116Y417963D01*
X245813Y417266D01*
X244671Y416329D01*
X243734Y415187D01*
X243037Y413884D01*
X242608Y412470D01*
X242464Y411000D01*
X242608Y409530D01*
X243037Y408116D01*
X243734Y406813D01*
X244671Y405671D01*
X245813Y404734D01*
X247116Y404037D01*
X248530Y403609D01*
X250000Y403464D01*
X251470Y403609D01*
X252884Y404037D01*
X254187Y404734D01*
X254476Y404971D01*
X261171D01*
X261469Y404569D01*
X261162Y403559D01*
X261009Y402000D01*
X261162Y400441D01*
X261617Y398942D01*
X262355Y397560D01*
X262815Y397000D01*
X262355Y396440D01*
X261617Y395058D01*
X261162Y393559D01*
X261009Y392000D01*
X261162Y390441D01*
X261617Y388942D01*
X262355Y387560D01*
X263349Y386349D01*
X264560Y385355D01*
X265942Y384617D01*
X267441Y384162D01*
X269000Y384009D01*
X270559Y384162D01*
X272058Y384617D01*
X273440Y385355D01*
X274000Y385815D01*
X274560Y385355D01*
X275942Y384617D01*
X277441Y384162D01*
X279000Y384009D01*
X280559Y384162D01*
X282058Y384617D01*
X283440Y385355D01*
X284000Y385815D01*
X284560Y385355D01*
X285942Y384617D01*
X287441Y384162D01*
X289000Y384009D01*
X290559Y384162D01*
X292058Y384617D01*
X293440Y385355D01*
X294000Y385815D01*
X294560Y385355D01*
X295942Y384617D01*
X297441Y384162D01*
X299000Y384009D01*
X300559Y384162D01*
X302058Y384617D01*
X303440Y385355D01*
X304000Y385815D01*
X304560Y385355D01*
X305942Y384617D01*
X307441Y384162D01*
X309000Y384009D01*
X310559Y384162D01*
X312058Y384617D01*
X312774Y385000D01*
X313072Y384598D01*
X302903Y374429D01*
X263097D01*
X233063Y404463D01*
X232150Y405213D01*
X231107Y405770D01*
X229976Y406113D01*
X228800Y406229D01*
X211669D01*
X211431Y406500D01*
X208000D01*
Y407000D01*
X207500D01*
Y410325D01*
X207122Y410276D01*
X206304Y409937D01*
X205602Y409398D01*
X205479Y409238D01*
X204987Y409328D01*
X204835Y409831D01*
X204151Y411110D01*
X203231Y412231D01*
X202110Y413151D01*
X200831Y413835D01*
X199443Y414256D01*
X198000Y414398D01*
X196557Y414256D01*
X195169Y413835D01*
X193890Y413151D01*
X192769Y412231D01*
X191849Y411110D01*
X191165Y409831D01*
X190744Y408443D01*
X190602Y407000D01*
X190744Y405557D01*
X191165Y404169D01*
X191849Y402890D01*
X192769Y401769D01*
X193463Y401200D01*
X193294Y400729D01*
X162706D01*
X162538Y401200D01*
X163231Y401769D01*
X164151Y402890D01*
X164835Y404169D01*
X164987Y404672D01*
X165479Y404762D01*
X165602Y404602D01*
X166304Y404063D01*
X167122Y403724D01*
X167500Y403675D01*
Y407000D01*
Y410325D01*
X167122Y410276D01*
X166304Y409937D01*
X165602Y409398D01*
X165479Y409238D01*
X164987Y409328D01*
X164835Y409831D01*
X164151Y411110D01*
X163231Y412231D01*
X162110Y413151D01*
X160831Y413835D01*
X159443Y414256D01*
X158000Y414398D01*
X156557Y414256D01*
X155169Y413835D01*
X153890Y413151D01*
X152769Y412231D01*
X151849Y411110D01*
X151165Y409831D01*
X151104Y409629D01*
X132097D01*
X131696Y409937D01*
X130878Y410276D01*
X130000Y410391D01*
X129122Y410276D01*
X128304Y409937D01*
X127903Y409629D01*
X126896D01*
X126835Y409831D01*
X126151Y411110D01*
X125231Y412231D01*
X124110Y413151D01*
X122831Y413835D01*
X121443Y414256D01*
X120000Y414398D01*
X118557Y414256D01*
X117169Y413835D01*
X115890Y413151D01*
X114769Y412231D01*
X113849Y411110D01*
X113165Y409831D01*
X112744Y408443D01*
X112602Y407000D01*
X112744Y405557D01*
X113165Y404169D01*
X113849Y402890D01*
X114769Y401769D01*
X115890Y400849D01*
X117169Y400165D01*
X118557Y399744D01*
X118748Y399726D01*
X119137Y399337D01*
X119137Y399337D01*
X119137Y399337D01*
Y399337D01*
X119137Y399337D01*
Y399337D01*
X120051Y398587D01*
X121093Y398030D01*
X121093Y398030D01*
X121093Y398030D01*
D01*
X121093Y398030D01*
X121093Y398030D01*
X122224Y397687D01*
X123400Y397571D01*
X123400Y397571D01*
X135391D01*
X135583Y397109D01*
X128748Y390275D01*
X128557Y390256D01*
X127169Y389835D01*
X125890Y389151D01*
X124769Y388231D01*
X123849Y387110D01*
X123165Y385831D01*
X123013Y385328D01*
X122521Y385238D01*
X122398Y385398D01*
X121696Y385937D01*
X120878Y386276D01*
X120500Y386325D01*
Y383000D01*
Y379675D01*
X120878Y379724D01*
X121696Y380063D01*
X122398Y380602D01*
X122521Y380762D01*
X123013Y380673D01*
X123165Y380169D01*
X123849Y378890D01*
X124769Y377769D01*
X125890Y376849D01*
X127169Y376165D01*
X128557Y375744D01*
X130000Y375602D01*
X131443Y375744D01*
X132831Y376165D01*
X134110Y376849D01*
X135231Y377769D01*
X136151Y378890D01*
X136835Y380169D01*
X137256Y381557D01*
X137275Y381748D01*
X144197Y388671D01*
X152545D01*
X152759Y388219D01*
X151849Y387110D01*
X151165Y385831D01*
X150744Y384443D01*
X150602Y383000D01*
X150744Y381557D01*
X151165Y380169D01*
X151849Y378890D01*
X152769Y377769D01*
X153890Y376849D01*
X155169Y376165D01*
X156557Y375744D01*
X156748Y375726D01*
X159099Y373375D01*
Y373375D01*
X159099Y373375D01*
X159099Y373375D01*
Y373375D01*
X160013Y372625D01*
X161055Y372068D01*
X161055Y372068D01*
X161055Y372068D01*
D01*
X161055Y372068D01*
X161055Y372068D01*
X162186Y371725D01*
X163362Y371609D01*
X163362Y371609D01*
X186638D01*
X187814Y371725D01*
X188945Y372068D01*
X188945Y372068D01*
X188945Y372068D01*
X189987Y372625D01*
X190901Y373375D01*
X190901Y373375D01*
X190901Y373375D01*
X191813Y374287D01*
X192520Y374356D01*
X193982Y374800D01*
X195330Y375520D01*
X196511Y376489D01*
X197480Y377670D01*
X198200Y379018D01*
X198644Y380480D01*
X198793Y382000D01*
X198644Y383520D01*
X198200Y384982D01*
X197480Y386330D01*
X196511Y387511D01*
X195671Y388200D01*
X195839Y388671D01*
X205803D01*
X213287Y381187D01*
X213356Y380480D01*
X213800Y379018D01*
X214520Y377670D01*
X215489Y376489D01*
X216670Y375520D01*
X218018Y374800D01*
X219480Y374356D01*
X221000Y374207D01*
X222520Y374356D01*
X223982Y374800D01*
X225330Y375520D01*
X226511Y376489D01*
X227480Y377670D01*
X228200Y379018D01*
X228644Y380480D01*
X228793Y382000D01*
X228644Y383520D01*
X228200Y384982D01*
X227480Y386330D01*
X226511Y387511D01*
X225330Y388480D01*
X223982Y389200D01*
X222520Y389644D01*
X221813Y389713D01*
X217817Y393709D01*
X218009Y394171D01*
X226303D01*
X253974Y366500D01*
X247737Y360263D01*
X246987Y359349D01*
X246430Y358307D01*
X246087Y357176D01*
X245971Y356000D01*
Y334209D01*
X245509Y334017D01*
X243763Y335763D01*
X242849Y336513D01*
X241807Y337070D01*
X240676Y337413D01*
X239500Y337529D01*
X236381D01*
X236124Y337958D01*
X236383Y338442D01*
X236838Y339941D01*
X236991Y341500D01*
X236838Y343059D01*
X236383Y344558D01*
X235645Y345940D01*
X234651Y347151D01*
X233440Y348145D01*
X232058Y348883D01*
X230559Y349338D01*
X229000Y349491D01*
X227441Y349338D01*
X225942Y348883D01*
X224560Y348145D01*
X223349Y347151D01*
X222356Y345940D01*
X221617Y344558D01*
X221162Y343059D01*
X221009Y341500D01*
X221162Y339941D01*
X221617Y338442D01*
X222356Y337060D01*
X222815Y336500D01*
X222356Y335940D01*
X221617Y334558D01*
X221162Y333059D01*
X221009Y331500D01*
X221162Y329941D01*
X221617Y328442D01*
X222356Y327060D01*
X223349Y325849D01*
X224560Y324855D01*
X225661Y324267D01*
X225766Y323779D01*
X225547Y323493D01*
X225149Y322532D01*
X225079Y322000D01*
X232921D01*
X232851Y322532D01*
X232453Y323493D01*
X232234Y323779D01*
X232339Y324267D01*
X233440Y324855D01*
X234190Y325471D01*
X237003D01*
X248572Y313902D01*
X248608Y313530D01*
X249037Y312116D01*
X249734Y310813D01*
X250671Y309671D01*
X251813Y308734D01*
X253116Y308037D01*
X254530Y307609D01*
X256000Y307464D01*
X257470Y307609D01*
X258884Y308037D01*
X260187Y308734D01*
X261040Y309434D01*
X261971Y308503D01*
Y299497D01*
X257503Y295029D01*
X229209D01*
X229017Y295491D01*
X233263Y299737D01*
X234013Y300651D01*
X234570Y301693D01*
X234913Y302824D01*
X235029Y304000D01*
Y306310D01*
X235645Y307060D01*
X236383Y308442D01*
X236838Y309941D01*
X236991Y311500D01*
X236838Y313059D01*
X236383Y314558D01*
X235645Y315940D01*
X234651Y317151D01*
X233440Y318144D01*
X232339Y318733D01*
X232234Y319221D01*
X232453Y319507D01*
X232851Y320468D01*
X232921Y321000D01*
X225079D01*
X225149Y320468D01*
X225547Y319507D01*
X225766Y319221D01*
X225661Y318733D01*
X224560Y318144D01*
X223349Y317151D01*
X222356Y315940D01*
X221617Y314558D01*
X221162Y313059D01*
X221009Y311500D01*
X221162Y309941D01*
X221617Y308442D01*
X222356Y307060D01*
X222887Y306413D01*
X219902Y303428D01*
X219530Y303392D01*
X218116Y302963D01*
X216813Y302266D01*
X215671Y301329D01*
X214734Y300187D01*
X214037Y298884D01*
X213609Y297470D01*
X213464Y296000D01*
X213523Y295399D01*
X213187Y295029D01*
X194029D01*
Y304707D01*
X194481Y304921D01*
X194560Y304855D01*
X195942Y304117D01*
X197441Y303662D01*
X199000Y303509D01*
X200559Y303662D01*
X202058Y304117D01*
X203440Y304855D01*
X204651Y305849D01*
X205644Y307060D01*
X206383Y308442D01*
X206838Y309941D01*
X206933Y310906D01*
X217263Y321237D01*
X218013Y322150D01*
X218570Y323193D01*
X218913Y324324D01*
X219029Y325500D01*
Y347000D01*
X218913Y348176D01*
X218570Y349307D01*
X218013Y350349D01*
X217263Y351263D01*
X209428Y359098D01*
X209391Y359470D01*
X208963Y360884D01*
X208266Y362187D01*
X207329Y363329D01*
X206187Y364266D01*
X204884Y364963D01*
X203470Y365391D01*
X202000Y365536D01*
X200530Y365391D01*
X199116Y364963D01*
X197813Y364266D01*
X196671Y363329D01*
X195734Y362187D01*
X195037Y360884D01*
X194608Y359470D01*
X194464Y358000D01*
X194608Y356530D01*
X195037Y355116D01*
X195734Y353813D01*
X196671Y352671D01*
X197813Y351734D01*
X199116Y351037D01*
X200530Y350608D01*
X200902Y350572D01*
X201559Y349915D01*
X201368Y349453D01*
X191047D01*
Y347529D01*
X187500D01*
X186324Y347413D01*
X185193Y347070D01*
X184151Y346513D01*
X183237Y345763D01*
X183237Y345763D01*
X177737Y340263D01*
X176987Y339350D01*
X176430Y338307D01*
X176087Y337176D01*
X175971Y336000D01*
Y287000D01*
X175971Y287000D01*
X175971D01*
X176087Y285824D01*
X176430Y284693D01*
X176430Y284693D01*
X176430Y284693D01*
X176987Y283650D01*
X177737Y282737D01*
X177737Y282737D01*
X177737D01*
Y282737D01*
X177737Y282737D01*
X181983Y278491D01*
X181791Y278029D01*
X103497D01*
X91017Y290509D01*
X91128Y290776D01*
X91613Y290898D01*
X91813Y290734D01*
X93116Y290037D01*
X94530Y289609D01*
X96000Y289464D01*
X97470Y289609D01*
X98884Y290037D01*
X100187Y290734D01*
X101329Y291671D01*
X102266Y292813D01*
X102963Y294116D01*
X103392Y295530D01*
X103536Y297000D01*
X103392Y298470D01*
X102963Y299884D01*
X102266Y301187D01*
X101329Y302329D01*
X100187Y303266D01*
X98884Y303963D01*
X97470Y304392D01*
X96000Y304536D01*
X94530Y304392D01*
X93116Y303963D01*
X91813Y303266D01*
X91524Y303029D01*
X85497D01*
X77941Y310585D01*
X78132Y311047D01*
X91953D01*
Y313065D01*
X92176Y313087D01*
X93307Y313430D01*
X94349Y313987D01*
X95263Y314737D01*
X100098Y319572D01*
X100470Y319608D01*
X101884Y320037D01*
X103187Y320734D01*
X104329Y321671D01*
X105266Y322813D01*
X105963Y324116D01*
X106392Y325530D01*
X106536Y327000D01*
X106392Y328470D01*
X105963Y329884D01*
X105266Y331187D01*
X104329Y332329D01*
X104120Y332500D01*
X104289Y332971D01*
X108003D01*
X138225Y302748D01*
X138244Y302557D01*
X138665Y301169D01*
X139045Y300458D01*
X138788Y300029D01*
X119500D01*
X118324Y299913D01*
X117193Y299570D01*
X116150Y299013D01*
X115237Y298263D01*
X111187Y294213D01*
X110480Y294144D01*
X109018Y293700D01*
X107670Y292980D01*
X106489Y292011D01*
X105520Y290830D01*
X104800Y289482D01*
X104356Y288020D01*
X104207Y286500D01*
X104356Y284980D01*
X104800Y283518D01*
X105520Y282170D01*
X106489Y280989D01*
X107670Y280020D01*
X109018Y279300D01*
X110480Y278856D01*
X112000Y278707D01*
X113520Y278856D01*
X114982Y279300D01*
X116330Y280020D01*
X117511Y280989D01*
X118480Y282170D01*
X119200Y283518D01*
X119644Y284980D01*
X119713Y285687D01*
X121997Y287971D01*
X141241D01*
X141390Y287849D01*
X142669Y287165D01*
X144057Y286744D01*
X145500Y286602D01*
X146943Y286744D01*
X148331Y287165D01*
X149610Y287849D01*
X150731Y288769D01*
X151651Y289890D01*
X152335Y291169D01*
X152756Y292557D01*
X152898Y294000D01*
X152756Y295443D01*
X152335Y296831D01*
X151651Y298110D01*
X150921Y299000D01*
X151651Y299890D01*
X152335Y301169D01*
X152756Y302557D01*
X152898Y304000D01*
X152756Y305443D01*
X152335Y306831D01*
X151651Y308110D01*
X150731Y309231D01*
X149610Y310151D01*
X148331Y310835D01*
X146943Y311256D01*
X146752Y311275D01*
X117699Y340328D01*
X117980Y340670D01*
X118700Y342018D01*
X119144Y343480D01*
X119293Y345000D01*
X119144Y346520D01*
X118700Y347982D01*
X117980Y349330D01*
X117011Y350511D01*
X115830Y351480D01*
X114482Y352200D01*
X113020Y352644D01*
X111500Y352793D01*
X109980Y352644D01*
X108518Y352200D01*
X107170Y351480D01*
X105989Y350511D01*
X105020Y349330D01*
X104300Y347982D01*
X103856Y346520D01*
X103709Y345029D01*
X89190D01*
X88440Y345644D01*
X87339Y346233D01*
X87234Y346721D01*
X87453Y347007D01*
X87851Y347968D01*
X87921Y348500D01*
X84000D01*
Y349000D01*
X83500D01*
Y352921D01*
X82968Y352851D01*
X82007Y352453D01*
X81181Y351819D01*
X80772Y351286D01*
X80273Y351253D01*
X74263Y357263D01*
X73349Y358013D01*
X72307Y358570D01*
X71176Y358913D01*
X70000Y359029D01*
X47500D01*
X46324Y358913D01*
X45193Y358570D01*
X44151Y358013D01*
X43237Y357263D01*
X17187Y331213D01*
X16480Y331144D01*
X16431Y331129D01*
X16029Y331427D01*
Y345503D01*
X18813Y348287D01*
X19520Y348356D01*
X20982Y348800D01*
X22330Y349520D01*
X22879Y349971D01*
X30000D01*
X31176Y350087D01*
X32307Y350430D01*
X33349Y350987D01*
X34263Y351737D01*
X62252Y379726D01*
X62443Y379744D01*
X63831Y380165D01*
X65110Y380849D01*
X66231Y381769D01*
X67151Y382890D01*
X67835Y384169D01*
X67987Y384672D01*
X68479Y384762D01*
X68602Y384602D01*
X69304Y384063D01*
X70122Y383724D01*
X70500Y383675D01*
Y387000D01*
Y390325D01*
X70122Y390276D01*
X69304Y389937D01*
X68602Y389398D01*
X68479Y389238D01*
X67987Y389328D01*
X67835Y389831D01*
X67151Y391110D01*
X66231Y392231D01*
X65110Y393151D01*
X63831Y393835D01*
X62443Y394256D01*
X61000Y394398D01*
X59557Y394256D01*
X58169Y393835D01*
X56890Y393151D01*
X55769Y392231D01*
X54849Y391110D01*
X54165Y389831D01*
X53744Y388443D01*
X53725Y388252D01*
X27503Y362029D01*
X22879D01*
X22330Y362480D01*
X20982Y363200D01*
X19520Y363644D01*
X18000Y363793D01*
X16480Y363644D01*
X15018Y363200D01*
X13670Y362480D01*
X12489Y361511D01*
X11520Y360330D01*
X10800Y358982D01*
X10356Y357520D01*
X10287Y356813D01*
X6009Y352536D01*
X5548Y352727D01*
Y423782D01*
X5996Y424003D01*
X6478Y423632D01*
X7695Y423129D01*
X9000Y422957D01*
X12500D01*
Y432000D01*
X13000D01*
Y432500D01*
X22043D01*
Y436000D01*
X21871Y437305D01*
X21368Y438522D01*
X20997Y439004D01*
X21218Y439453D01*
X528782D01*
X529003Y439004D01*
D02*
G37*
G36*
X388494Y115019D02*
X387602Y113932D01*
X386891Y112602D01*
X386453Y111159D01*
X386305Y109657D01*
X386453Y108156D01*
X386891Y106713D01*
X387602Y105383D01*
X388559Y104217D01*
X389725Y103260D01*
X391055Y102549D01*
X392499Y102111D01*
X394000Y101963D01*
X395501Y102111D01*
X396945Y102549D01*
X398275Y103260D01*
X399441Y104217D01*
X400398Y105383D01*
X400712Y105971D01*
X478047D01*
Y104047D01*
X488971D01*
Y98497D01*
X465503Y75029D01*
X416000D01*
X414824Y74913D01*
X413693Y74570D01*
X412650Y74013D01*
X411737Y73263D01*
X398406Y59933D01*
X397441Y59838D01*
X395942Y59383D01*
X394560Y58644D01*
X394000Y58185D01*
X393440Y58644D01*
X392058Y59383D01*
X390559Y59838D01*
X389000Y59991D01*
X387441Y59838D01*
X385942Y59383D01*
X384560Y58644D01*
X384000Y58185D01*
X383440Y58644D01*
X382058Y59383D01*
X380559Y59838D01*
X379000Y59991D01*
X377441Y59838D01*
X375942Y59383D01*
X374560Y58644D01*
X374000Y58185D01*
X373440Y58644D01*
X372058Y59383D01*
X370559Y59838D01*
X369000Y59991D01*
X367441Y59838D01*
X365942Y59383D01*
X364560Y58644D01*
X364000Y58185D01*
X363440Y58644D01*
X362058Y59383D01*
X360559Y59838D01*
X359000Y59991D01*
X357441Y59838D01*
X355942Y59383D01*
X354560Y58644D01*
X354000Y58185D01*
X353440Y58644D01*
X352058Y59383D01*
X350559Y59838D01*
X349000Y59991D01*
X347441Y59838D01*
X345942Y59383D01*
X344560Y58644D01*
X343349Y57651D01*
X342355Y56440D01*
X341767Y55339D01*
X341279Y55234D01*
X340993Y55453D01*
X340032Y55851D01*
X339500Y55921D01*
Y52000D01*
X338500D01*
Y55921D01*
X337968Y55851D01*
X337007Y55453D01*
X336721Y55234D01*
X336233Y55339D01*
X335645Y56440D01*
X334651Y57651D01*
X334129Y58079D01*
X334104Y58578D01*
X371263Y95737D01*
X372013Y96650D01*
X372570Y97693D01*
X372913Y98824D01*
X373029Y100000D01*
Y108524D01*
X373266Y108813D01*
X373963Y110116D01*
X374392Y111530D01*
X374536Y113000D01*
X374392Y114470D01*
X374210Y115069D01*
X374508Y115471D01*
X388280D01*
X388494Y115019D01*
D02*
G37*
G36*
X150383Y66909D02*
X133902Y50428D01*
X133530Y50392D01*
X132116Y49963D01*
X131080Y49409D01*
X130664Y49687D01*
X130713Y50187D01*
X147897Y67371D01*
X150191D01*
X150383Y66909D01*
D02*
G37*
G36*
X469983Y53509D02*
X466503Y50029D01*
X457132D01*
X456835Y50431D01*
X456838Y50441D01*
X456991Y52000D01*
X456838Y53559D01*
X456835Y53569D01*
X457132Y53971D01*
X469791D01*
X469983Y53509D01*
D02*
G37*
%LPC*%
G36*
X142500Y139723D02*
X142019Y139659D01*
X141106Y139281D01*
X140321Y138679D01*
X139719Y137894D01*
X139341Y136980D01*
X139278Y136500D01*
X142500D01*
Y139723D01*
D02*
G37*
G36*
X143500D02*
Y136500D01*
X146722D01*
X146659Y136980D01*
X146281Y137894D01*
X145679Y138679D01*
X144894Y139281D01*
X143981Y139659D01*
X143500Y139723D01*
D02*
G37*
G36*
X74623Y146657D02*
X71500D01*
Y143534D01*
X71955Y143594D01*
X72844Y143963D01*
X73609Y144549D01*
X74195Y145313D01*
X74563Y146203D01*
X74623Y146657D01*
D02*
G37*
G36*
X70500D02*
X67377D01*
X67437Y146203D01*
X67805Y145313D01*
X68391Y144549D01*
X69156Y143963D01*
X70045Y143594D01*
X70500Y143534D01*
Y146657D01*
D02*
G37*
G36*
X347000Y145222D02*
Y142000D01*
X350222D01*
X350159Y142481D01*
X349781Y143394D01*
X349179Y144179D01*
X348394Y144781D01*
X347481Y145159D01*
X347000Y145222D01*
D02*
G37*
G36*
X350222Y141000D02*
X347000D01*
Y137777D01*
X347481Y137841D01*
X348394Y138219D01*
X349179Y138821D01*
X349781Y139606D01*
X350159Y140519D01*
X350222Y141000D01*
D02*
G37*
G36*
X346000Y145222D02*
X345519Y145159D01*
X344606Y144781D01*
X343821Y144179D01*
X343219Y143394D01*
X342841Y142481D01*
X342777Y142000D01*
X346000D01*
Y145222D01*
D02*
G37*
G36*
X31500Y140325D02*
Y137500D01*
X34325D01*
X34276Y137878D01*
X33937Y138696D01*
X33398Y139398D01*
X32696Y139937D01*
X31878Y140276D01*
X31500Y140325D01*
D02*
G37*
G36*
X346000Y141000D02*
X342777D01*
X342841Y140519D01*
X343219Y139606D01*
X343821Y138821D01*
X344606Y138219D01*
X345519Y137841D01*
X346000Y137777D01*
Y141000D01*
D02*
G37*
G36*
X70500Y150781D02*
X70045Y150721D01*
X69156Y150352D01*
X68391Y149766D01*
X67805Y149002D01*
X67437Y148112D01*
X67377Y147657D01*
X70500D01*
Y150781D01*
D02*
G37*
G36*
X327921Y154000D02*
X324500D01*
Y150579D01*
X325032Y150649D01*
X325993Y151047D01*
X326819Y151681D01*
X327453Y152507D01*
X327851Y153468D01*
X327921Y154000D01*
D02*
G37*
G36*
X323500D02*
X320079D01*
X320149Y153468D01*
X320547Y152507D01*
X321181Y151681D01*
X322007Y151047D01*
X322968Y150649D01*
X323500Y150579D01*
Y154000D01*
D02*
G37*
G36*
X317921D02*
X314500D01*
Y150579D01*
X315032Y150649D01*
X315993Y151047D01*
X316819Y151681D01*
X317453Y152507D01*
X317851Y153468D01*
X317921Y154000D01*
D02*
G37*
G36*
X297953Y158453D02*
X294500D01*
Y155000D01*
X297953D01*
Y158453D01*
D02*
G37*
G36*
X366921Y157500D02*
X363500D01*
Y154079D01*
X364032Y154149D01*
X364993Y154547D01*
X365819Y155181D01*
X366453Y156007D01*
X366851Y156968D01*
X366921Y157500D01*
D02*
G37*
G36*
X362500D02*
X359079D01*
X359149Y156968D01*
X359547Y156007D01*
X360181Y155181D01*
X361007Y154547D01*
X361968Y154149D01*
X362500Y154079D01*
Y157500D01*
D02*
G37*
G36*
X297953Y154000D02*
X294500D01*
Y150547D01*
X297953D01*
Y154000D01*
D02*
G37*
G36*
X293500D02*
X290047D01*
Y150547D01*
X293500D01*
Y154000D01*
D02*
G37*
G36*
X71500Y150781D02*
Y147657D01*
X74623D01*
X74563Y148112D01*
X74195Y149002D01*
X73609Y149766D01*
X72844Y150352D01*
X71955Y150721D01*
X71500Y150781D01*
D02*
G37*
G36*
X313500Y154000D02*
X310079D01*
X310149Y153468D01*
X310547Y152507D01*
X311181Y151681D01*
X312007Y151047D01*
X312968Y150649D01*
X313500Y150579D01*
Y154000D01*
D02*
G37*
G36*
X307921D02*
X304500D01*
Y150579D01*
X305032Y150649D01*
X305993Y151047D01*
X306819Y151681D01*
X307453Y152507D01*
X307851Y153468D01*
X307921Y154000D01*
D02*
G37*
G36*
X303500D02*
X300079D01*
X300149Y153468D01*
X300547Y152507D01*
X301181Y151681D01*
X302007Y151047D01*
X302968Y150649D01*
X303500Y150579D01*
Y154000D01*
D02*
G37*
G36*
X34325Y136500D02*
X31500D01*
Y133675D01*
X31878Y133724D01*
X32696Y134063D01*
X33398Y134602D01*
X33937Y135304D01*
X34276Y136122D01*
X34325Y136500D01*
D02*
G37*
G36*
X260000Y87722D02*
Y84500D01*
X263223D01*
X263159Y84980D01*
X262781Y85894D01*
X262179Y86679D01*
X261394Y87281D01*
X260480Y87659D01*
X260000Y87722D01*
D02*
G37*
G36*
X259000D02*
X258520Y87659D01*
X257606Y87281D01*
X256821Y86679D01*
X256219Y85894D01*
X255841Y84980D01*
X255778Y84500D01*
X259000D01*
Y87722D01*
D02*
G37*
G36*
X263223Y83500D02*
X260000D01*
Y80278D01*
X260480Y80341D01*
X261394Y80719D01*
X262179Y81321D01*
X262781Y82106D01*
X263159Y83020D01*
X263223Y83500D01*
D02*
G37*
G36*
X26500Y111421D02*
Y108000D01*
X29921D01*
X29851Y108532D01*
X29453Y109493D01*
X28819Y110319D01*
X27993Y110953D01*
X27032Y111351D01*
X26500Y111421D01*
D02*
G37*
G36*
X99500Y111343D02*
X96377D01*
X96437Y110888D01*
X96805Y109998D01*
X97391Y109234D01*
X98155Y108648D01*
X99045Y108279D01*
X99500Y108219D01*
Y111343D01*
D02*
G37*
G36*
X70623D02*
X67500D01*
Y108219D01*
X67955Y108279D01*
X68844Y108648D01*
X69609Y109234D01*
X70195Y109998D01*
X70563Y110888D01*
X70623Y111343D01*
D02*
G37*
G36*
X66500D02*
X63377D01*
X63437Y110888D01*
X63805Y109998D01*
X64391Y109234D01*
X65156Y108648D01*
X66045Y108279D01*
X66500Y108219D01*
Y111343D01*
D02*
G37*
G36*
X259000Y83500D02*
X255778D01*
X255841Y83020D01*
X256219Y82106D01*
X256821Y81321D01*
X257606Y80719D01*
X258520Y80341D01*
X259000Y80278D01*
Y83500D01*
D02*
G37*
G36*
X17000Y22043D02*
X13500D01*
Y13500D01*
X22043D01*
Y17000D01*
X21871Y18305D01*
X21368Y19522D01*
X20566Y20566D01*
X19522Y21368D01*
X18305Y21871D01*
X17000Y22043D01*
D02*
G37*
G36*
X124325Y15000D02*
X121500D01*
Y12175D01*
X121878Y12224D01*
X122696Y12563D01*
X123398Y13102D01*
X123937Y13804D01*
X124276Y14622D01*
X124325Y15000D01*
D02*
G37*
G36*
X120500D02*
X117675D01*
X117724Y14622D01*
X118063Y13804D01*
X118602Y13102D01*
X119304Y12563D01*
X120122Y12224D01*
X120500Y12175D01*
Y15000D01*
D02*
G37*
G36*
X536500Y22043D02*
X533000D01*
X531695Y21871D01*
X530478Y21368D01*
X529434Y20566D01*
X528632Y19522D01*
X528129Y18305D01*
X527957Y17000D01*
Y13500D01*
X536500D01*
Y22043D01*
D02*
G37*
G36*
X191500Y82921D02*
Y79500D01*
X194921D01*
X194851Y80032D01*
X194453Y80993D01*
X193819Y81819D01*
X192993Y82453D01*
X192032Y82851D01*
X191500Y82921D01*
D02*
G37*
G36*
X298500Y55953D02*
X295047D01*
Y52500D01*
X298500D01*
Y55953D01*
D02*
G37*
G36*
Y51500D02*
X295047D01*
Y48047D01*
X298500D01*
Y51500D01*
D02*
G37*
G36*
X485500Y125921D02*
X484968Y125851D01*
X484007Y125453D01*
X483181Y124819D01*
X482547Y123993D01*
X482149Y123032D01*
X482079Y122500D01*
X485500D01*
Y125921D01*
D02*
G37*
G36*
X261325Y124500D02*
X258500D01*
Y121675D01*
X258878Y121724D01*
X259696Y122063D01*
X260398Y122602D01*
X260937Y123304D01*
X261276Y124122D01*
X261325Y124500D01*
D02*
G37*
G36*
X257500D02*
X254675D01*
X254724Y124122D01*
X255063Y123304D01*
X255602Y122602D01*
X256304Y122063D01*
X257122Y121724D01*
X257500Y121675D01*
Y124500D01*
D02*
G37*
G36*
X109000Y143793D02*
X107480Y143644D01*
X106018Y143200D01*
X104670Y142480D01*
X103489Y141511D01*
X102520Y140330D01*
X101800Y138982D01*
X101356Y137520D01*
X101207Y136000D01*
X101356Y134480D01*
X101800Y133018D01*
X102520Y131670D01*
X103489Y130489D01*
X104670Y129520D01*
X106018Y128800D01*
X107480Y128356D01*
X109000Y128207D01*
X110520Y128356D01*
X111982Y128800D01*
X113330Y129520D01*
X114511Y130489D01*
X115480Y131670D01*
X116200Y133018D01*
X116644Y134480D01*
X116793Y136000D01*
X116644Y137520D01*
X116200Y138982D01*
X115480Y140330D01*
X114511Y141511D01*
X113330Y142480D01*
X111982Y143200D01*
X110520Y143644D01*
X109000Y143793D01*
D02*
G37*
G36*
X36620Y187000D02*
X28380D01*
X28457Y186417D01*
X28603Y186065D01*
X28325Y185650D01*
X24350D01*
Y177877D01*
X16737Y170263D01*
X15987Y169350D01*
X15430Y168307D01*
X15087Y167176D01*
X14971Y166000D01*
X14971Y166000D01*
X14971D01*
X14971Y166000D01*
X14971D01*
Y141259D01*
X14849Y141110D01*
X14165Y139831D01*
X13744Y138443D01*
X13725Y138252D01*
X13237Y137763D01*
X12487Y136849D01*
X11930Y135807D01*
X11587Y134676D01*
X11471Y133500D01*
X11471Y133500D01*
X11471D01*
X11471Y133500D01*
X11471D01*
Y97500D01*
X11471Y97500D01*
X11471D01*
X11587Y96324D01*
X11930Y95193D01*
X12487Y94151D01*
X13237Y93237D01*
X14151Y92487D01*
X15193Y91930D01*
X16324Y91587D01*
X17500Y91471D01*
X18047D01*
Y89547D01*
X25426D01*
X27079Y87894D01*
X27993Y87144D01*
X29035Y86587D01*
X30166Y86244D01*
X31343Y86128D01*
X59342D01*
Y84500D01*
X74657D01*
Y86128D01*
X92343D01*
Y84500D01*
X107658D01*
Y99815D01*
X92343D01*
Y98186D01*
X74657D01*
Y99815D01*
X59342D01*
Y98186D01*
X33953D01*
Y105453D01*
X29880D01*
X29603Y105868D01*
X29851Y106468D01*
X29921Y107000D01*
X26000D01*
Y107500D01*
X25500D01*
Y111421D01*
X24968Y111351D01*
X24007Y110953D01*
X23978Y110930D01*
X23529Y111152D01*
Y130074D01*
X23831Y130165D01*
X25110Y130849D01*
X26231Y131769D01*
X27151Y132890D01*
X27835Y134169D01*
X27987Y134672D01*
X28479Y134762D01*
X28602Y134602D01*
X29304Y134063D01*
X30122Y133724D01*
X30500Y133675D01*
Y137000D01*
Y140325D01*
X30122Y140276D01*
X29304Y139937D01*
X28602Y139398D01*
X28479Y139238D01*
X27987Y139328D01*
X27835Y139831D01*
X27151Y141110D01*
X27029Y141259D01*
Y163503D01*
X32877Y169350D01*
X40650D01*
Y185650D01*
X36675D01*
X36397Y186065D01*
X36543Y186417D01*
X36620Y187000D01*
D02*
G37*
G36*
X146722Y135500D02*
X143500D01*
Y132278D01*
X143981Y132341D01*
X144894Y132719D01*
X145679Y133321D01*
X146281Y134106D01*
X146659Y135020D01*
X146722Y135500D01*
D02*
G37*
G36*
X142500D02*
X139278D01*
X139341Y135020D01*
X139719Y134106D01*
X140321Y133321D01*
X141106Y132719D01*
X142019Y132341D01*
X142500Y132278D01*
Y135500D01*
D02*
G37*
G36*
X228325Y119500D02*
X225500D01*
Y116675D01*
X225878Y116724D01*
X226696Y117063D01*
X227398Y117602D01*
X227937Y118304D01*
X228276Y119122D01*
X228325Y119500D01*
D02*
G37*
G36*
X66500Y115466D02*
X66045Y115406D01*
X65156Y115037D01*
X64391Y114451D01*
X63805Y113687D01*
X63437Y112797D01*
X63377Y112343D01*
X66500D01*
Y115466D01*
D02*
G37*
G36*
X207000Y124793D02*
X205480Y124644D01*
X204018Y124200D01*
X202670Y123480D01*
X201489Y122511D01*
X200520Y121330D01*
X199800Y119982D01*
X199356Y118520D01*
X199207Y117000D01*
X199356Y115480D01*
X199800Y114018D01*
X200520Y112670D01*
X201489Y111489D01*
X202670Y110520D01*
X204018Y109800D01*
X205480Y109356D01*
X207000Y109207D01*
X208520Y109356D01*
X209982Y109800D01*
X211330Y110520D01*
X212511Y111489D01*
X213480Y112670D01*
X214200Y114018D01*
X214644Y115480D01*
X214661Y115650D01*
X214713Y115824D01*
X214829Y117000D01*
X214713Y118176D01*
X214661Y118350D01*
X214644Y118520D01*
X214200Y119982D01*
X213480Y121330D01*
X212511Y122511D01*
X211330Y123480D01*
X209982Y124200D01*
X208520Y124644D01*
X207000Y124793D01*
D02*
G37*
G36*
X103623Y111343D02*
X100500D01*
Y108219D01*
X100955Y108279D01*
X101845Y108648D01*
X102609Y109234D01*
X103195Y109998D01*
X103563Y110888D01*
X103623Y111343D01*
D02*
G37*
G36*
X67500Y115466D02*
Y112343D01*
X70623D01*
X70563Y112797D01*
X70195Y113687D01*
X69609Y114451D01*
X68844Y115037D01*
X67955Y115406D01*
X67500Y115466D01*
D02*
G37*
G36*
X224500Y119500D02*
X221675D01*
X221724Y119122D01*
X222063Y118304D01*
X222602Y117602D01*
X223304Y117063D01*
X224122Y116724D01*
X224500Y116675D01*
Y119500D01*
D02*
G37*
G36*
X100500Y115466D02*
Y112343D01*
X103623D01*
X103563Y112797D01*
X103195Y113687D01*
X102609Y114451D01*
X101845Y115037D01*
X100955Y115406D01*
X100500Y115466D01*
D02*
G37*
G36*
X99500D02*
X99045Y115406D01*
X98155Y115037D01*
X97391Y114451D01*
X96805Y113687D01*
X96437Y112797D01*
X96377Y112343D01*
X99500D01*
Y115466D01*
D02*
G37*
G36*
X303500Y158421D02*
X302968Y158351D01*
X302007Y157953D01*
X301181Y157319D01*
X300547Y156493D01*
X300149Y155532D01*
X300079Y155000D01*
X303500D01*
Y158421D01*
D02*
G37*
G36*
X246500Y312464D02*
Y309500D01*
X249464D01*
X249410Y309914D01*
X249057Y310765D01*
X248496Y311496D01*
X247765Y312057D01*
X246914Y312410D01*
X246500Y312464D01*
D02*
G37*
G36*
X245500D02*
X245086Y312410D01*
X244235Y312057D01*
X243504Y311496D01*
X242943Y310765D01*
X242590Y309914D01*
X242536Y309500D01*
X245500D01*
Y312464D01*
D02*
G37*
G36*
X111500Y322793D02*
X109980Y322644D01*
X108518Y322200D01*
X107170Y321480D01*
X105989Y320511D01*
X105020Y319330D01*
X104300Y317982D01*
X103856Y316520D01*
X103707Y315000D01*
X103856Y313480D01*
X104300Y312018D01*
X105020Y310670D01*
X105989Y309489D01*
X107170Y308520D01*
X108518Y307800D01*
X109980Y307356D01*
X111500Y307207D01*
X113020Y307356D01*
X114482Y307800D01*
X115830Y308520D01*
X117011Y309489D01*
X117980Y310670D01*
X118700Y312018D01*
X119144Y313480D01*
X119293Y315000D01*
X119144Y316520D01*
X118700Y317982D01*
X117980Y319330D01*
X117011Y320511D01*
X115830Y321480D01*
X114482Y322200D01*
X113020Y322644D01*
X111500Y322793D01*
D02*
G37*
G36*
X311500Y348189D02*
X309902Y348032D01*
X308366Y347566D01*
X306950Y346809D01*
X306500Y346439D01*
X306050Y346809D01*
X304634Y347566D01*
X303098Y348032D01*
X301500Y348189D01*
X299902Y348032D01*
X298366Y347566D01*
X296950Y346809D01*
X295709Y345791D01*
X294691Y344550D01*
X293934Y343134D01*
X293468Y341598D01*
X293311Y340000D01*
X293468Y338402D01*
X293934Y336866D01*
X294691Y335450D01*
X295709Y334209D01*
X296950Y333191D01*
X298366Y332434D01*
X299902Y331968D01*
X301500Y331811D01*
X303098Y331968D01*
X304634Y332434D01*
X305042Y332653D01*
X305471Y332396D01*
Y322692D01*
X304980Y322644D01*
X303518Y322200D01*
X302170Y321480D01*
X300989Y320511D01*
X300020Y319330D01*
X299300Y317982D01*
X298856Y316520D01*
X298707Y315000D01*
X298856Y313480D01*
X299300Y312018D01*
X300020Y310670D01*
X300989Y309489D01*
X302170Y308520D01*
X303518Y307800D01*
X304980Y307356D01*
X306500Y307207D01*
X308020Y307356D01*
X309482Y307800D01*
X310830Y308520D01*
X312011Y309489D01*
X312980Y310670D01*
X313700Y312018D01*
X314144Y313480D01*
X314213Y314187D01*
X315763Y315737D01*
X316513Y316651D01*
X317070Y317693D01*
X317413Y318824D01*
X317529Y320000D01*
Y334500D01*
X318309Y335450D01*
X319066Y336866D01*
X319532Y338402D01*
X319689Y340000D01*
X319532Y341598D01*
X319066Y343134D01*
X318309Y344550D01*
X317290Y345791D01*
X316050Y346809D01*
X314634Y347566D01*
X313098Y348032D01*
X311500Y348189D01*
D02*
G37*
G36*
X401500D02*
X399902Y348032D01*
X398366Y347566D01*
X396950Y346809D01*
X396500Y346439D01*
X396050Y346809D01*
X394634Y347566D01*
X393098Y348032D01*
X391500Y348189D01*
X389902Y348032D01*
X388366Y347566D01*
X386950Y346809D01*
X385710Y345791D01*
X384691Y344550D01*
X383934Y343134D01*
X383468Y341598D01*
X383311Y340000D01*
X383468Y338402D01*
X383934Y336866D01*
X384691Y335450D01*
X385710Y334209D01*
X386950Y333191D01*
X388366Y332434D01*
X389902Y331968D01*
X391500Y331811D01*
X393098Y331968D01*
X394634Y332434D01*
X395042Y332653D01*
X395471Y332396D01*
Y322692D01*
X394980Y322644D01*
X393518Y322200D01*
X392170Y321480D01*
X390989Y320511D01*
X390020Y319330D01*
X389300Y317982D01*
X388856Y316520D01*
X388707Y315000D01*
X388856Y313480D01*
X389300Y312018D01*
X390020Y310670D01*
X390989Y309489D01*
X392170Y308520D01*
X393518Y307800D01*
X394980Y307356D01*
X396500Y307207D01*
X398020Y307356D01*
X399482Y307800D01*
X400830Y308520D01*
X402011Y309489D01*
X402980Y310670D01*
X403700Y312018D01*
X404144Y313480D01*
X404213Y314187D01*
X405763Y315737D01*
X406513Y316651D01*
X407070Y317693D01*
X407413Y318824D01*
X407529Y320000D01*
Y334500D01*
X408309Y335450D01*
X409066Y336866D01*
X409532Y338402D01*
X409689Y340000D01*
X409532Y341598D01*
X409066Y343134D01*
X408309Y344550D01*
X407291Y345791D01*
X406050Y346809D01*
X404634Y347566D01*
X403098Y348032D01*
X401500Y348189D01*
D02*
G37*
G36*
X371500D02*
X369902Y348032D01*
X368366Y347566D01*
X366950Y346809D01*
X366500Y346439D01*
X366050Y346809D01*
X364634Y347566D01*
X363098Y348032D01*
X361500Y348189D01*
X359902Y348032D01*
X358366Y347566D01*
X356950Y346809D01*
X355710Y345791D01*
X354691Y344550D01*
X353934Y343134D01*
X353468Y341598D01*
X353311Y340000D01*
X353468Y338402D01*
X353934Y336866D01*
X354691Y335450D01*
X355710Y334209D01*
X356950Y333191D01*
X358366Y332434D01*
X359902Y331968D01*
X361500Y331811D01*
X363098Y331968D01*
X364634Y332434D01*
X365042Y332653D01*
X365471Y332396D01*
Y322692D01*
X364980Y322644D01*
X363518Y322200D01*
X362170Y321480D01*
X360989Y320511D01*
X360020Y319330D01*
X359300Y317982D01*
X358856Y316520D01*
X358707Y315000D01*
X358856Y313480D01*
X359300Y312018D01*
X360020Y310670D01*
X360989Y309489D01*
X362170Y308520D01*
X363518Y307800D01*
X364980Y307356D01*
X366500Y307207D01*
X368020Y307356D01*
X369482Y307800D01*
X370830Y308520D01*
X372011Y309489D01*
X372980Y310670D01*
X373700Y312018D01*
X374144Y313480D01*
X374213Y314187D01*
X375763Y315737D01*
X376513Y316651D01*
X377070Y317693D01*
X377413Y318824D01*
X377529Y320000D01*
Y334500D01*
X378309Y335450D01*
X379066Y336866D01*
X379532Y338402D01*
X379689Y340000D01*
X379532Y341598D01*
X379066Y343134D01*
X378309Y344550D01*
X377291Y345791D01*
X376050Y346809D01*
X374634Y347566D01*
X373098Y348032D01*
X371500Y348189D01*
D02*
G37*
G36*
X341500D02*
X339902Y348032D01*
X338366Y347566D01*
X336950Y346809D01*
X336500Y346439D01*
X336050Y346809D01*
X334634Y347566D01*
X333098Y348032D01*
X331500Y348189D01*
X329902Y348032D01*
X328366Y347566D01*
X326950Y346809D01*
X325710Y345791D01*
X324691Y344550D01*
X323934Y343134D01*
X323468Y341598D01*
X323311Y340000D01*
X323468Y338402D01*
X323934Y336866D01*
X324691Y335450D01*
X325710Y334209D01*
X326950Y333191D01*
X328366Y332434D01*
X329902Y331968D01*
X331500Y331811D01*
X333098Y331968D01*
X334634Y332434D01*
X335042Y332653D01*
X335471Y332396D01*
Y322692D01*
X334980Y322644D01*
X333518Y322200D01*
X332170Y321480D01*
X330989Y320511D01*
X330020Y319330D01*
X329300Y317982D01*
X328856Y316520D01*
X328707Y315000D01*
X328856Y313480D01*
X329300Y312018D01*
X330020Y310670D01*
X330989Y309489D01*
X332170Y308520D01*
X333518Y307800D01*
X334980Y307356D01*
X336500Y307207D01*
X338020Y307356D01*
X339482Y307800D01*
X340830Y308520D01*
X342011Y309489D01*
X342980Y310670D01*
X343700Y312018D01*
X344144Y313480D01*
X344213Y314187D01*
X345763Y315737D01*
X346513Y316651D01*
X347070Y317693D01*
X347413Y318824D01*
X347529Y320000D01*
Y334500D01*
X348309Y335450D01*
X349066Y336866D01*
X349532Y338402D01*
X349689Y340000D01*
X349532Y341598D01*
X349066Y343134D01*
X348309Y344550D01*
X347290Y345791D01*
X346050Y346809D01*
X344634Y347566D01*
X343098Y348032D01*
X341500Y348189D01*
D02*
G37*
G36*
X249464Y308500D02*
X246500D01*
Y305536D01*
X246914Y305590D01*
X247765Y305943D01*
X248496Y306504D01*
X249057Y307235D01*
X249410Y308086D01*
X249464Y308500D01*
D02*
G37*
G36*
X17500Y293000D02*
X14277D01*
X14341Y292519D01*
X14719Y291606D01*
X15321Y290821D01*
X16106Y290219D01*
X17019Y289841D01*
X17500Y289777D01*
Y293000D01*
D02*
G37*
G36*
X367000Y288722D02*
Y285500D01*
X370222D01*
X370159Y285981D01*
X369781Y286894D01*
X369179Y287679D01*
X368394Y288281D01*
X367480Y288659D01*
X367000Y288722D01*
D02*
G37*
G36*
X366000D02*
X365519Y288659D01*
X364606Y288281D01*
X363821Y287679D01*
X363219Y286894D01*
X362841Y285981D01*
X362777Y285500D01*
X366000D01*
Y288722D01*
D02*
G37*
G36*
X21723Y293000D02*
X18500D01*
Y289777D01*
X18981Y289841D01*
X19894Y290219D01*
X20679Y290821D01*
X21281Y291606D01*
X21659Y292519D01*
X21723Y293000D01*
D02*
G37*
G36*
X245500Y308500D02*
X242536D01*
X242590Y308086D01*
X242943Y307235D01*
X243504Y306504D01*
X244235Y305943D01*
X245086Y305590D01*
X245500Y305536D01*
Y308500D01*
D02*
G37*
G36*
X18500Y297222D02*
Y294000D01*
X21723D01*
X21659Y294480D01*
X21281Y295394D01*
X20679Y296179D01*
X19894Y296781D01*
X18981Y297159D01*
X18500Y297222D01*
D02*
G37*
G36*
X17500D02*
X17019Y297159D01*
X16106Y296781D01*
X15321Y296179D01*
X14719Y295394D01*
X14341Y294480D01*
X14277Y294000D01*
X17500D01*
Y297222D01*
D02*
G37*
G36*
X171325Y406500D02*
X168500D01*
Y403675D01*
X168878Y403724D01*
X169696Y404063D01*
X170398Y404602D01*
X170937Y405304D01*
X171276Y406122D01*
X171325Y406500D01*
D02*
G37*
G36*
X71500Y390325D02*
Y387500D01*
X74325D01*
X74276Y387878D01*
X73937Y388696D01*
X73398Y389398D01*
X72696Y389937D01*
X71878Y390276D01*
X71500Y390325D01*
D02*
G37*
G36*
X74325Y386500D02*
X71500D01*
Y383675D01*
X71878Y383724D01*
X72696Y384063D01*
X73398Y384602D01*
X73937Y385304D01*
X74276Y386122D01*
X74325Y386500D01*
D02*
G37*
G36*
X168500Y410325D02*
Y407500D01*
X171325D01*
X171276Y407878D01*
X170937Y408696D01*
X170398Y409398D01*
X169696Y409937D01*
X168878Y410276D01*
X168500Y410325D01*
D02*
G37*
G36*
X536500Y431500D02*
X527957D01*
Y428000D01*
X528129Y426695D01*
X528632Y425478D01*
X529434Y424434D01*
X530478Y423632D01*
X531695Y423129D01*
X533000Y422957D01*
X536500D01*
Y431500D01*
D02*
G37*
G36*
X22043D02*
X13500D01*
Y422957D01*
X17000D01*
X18305Y423129D01*
X19522Y423632D01*
X20566Y424434D01*
X21368Y425478D01*
X21871Y426695D01*
X22043Y428000D01*
Y431500D01*
D02*
G37*
G36*
X208500Y410325D02*
Y407500D01*
X211325D01*
X211276Y407878D01*
X210937Y408696D01*
X210398Y409398D01*
X209696Y409937D01*
X208878Y410276D01*
X208500Y410325D01*
D02*
G37*
G36*
X119500Y386325D02*
X119122Y386276D01*
X118304Y385937D01*
X117602Y385398D01*
X117063Y384696D01*
X116724Y383878D01*
X116675Y383500D01*
X119500D01*
Y386325D01*
D02*
G37*
G36*
X211464Y371500D02*
X208500D01*
Y368536D01*
X208914Y368590D01*
X209765Y368943D01*
X210496Y369504D01*
X211057Y370235D01*
X211410Y371086D01*
X211464Y371500D01*
D02*
G37*
G36*
X207500D02*
X204536D01*
X204590Y371086D01*
X204943Y370235D01*
X205504Y369504D01*
X206235Y368943D01*
X207086Y368590D01*
X207500Y368536D01*
Y371500D01*
D02*
G37*
G36*
X84500Y352921D02*
Y349500D01*
X87921D01*
X87851Y350032D01*
X87453Y350993D01*
X86819Y351819D01*
X85993Y352453D01*
X85032Y352851D01*
X84500Y352921D01*
D02*
G37*
G36*
X207500Y375464D02*
X207086Y375410D01*
X206235Y375057D01*
X205504Y374496D01*
X204943Y373765D01*
X204590Y372914D01*
X204536Y372500D01*
X207500D01*
Y375464D01*
D02*
G37*
G36*
X119500Y382500D02*
X116675D01*
X116724Y382122D01*
X117063Y381304D01*
X117602Y380602D01*
X118304Y380063D01*
X119122Y379724D01*
X119500Y379675D01*
Y382500D01*
D02*
G37*
G36*
X18000Y393793D02*
X16480Y393644D01*
X15018Y393200D01*
X13670Y392480D01*
X12489Y391511D01*
X11520Y390330D01*
X10800Y388982D01*
X10356Y387520D01*
X10207Y386000D01*
X10356Y384480D01*
X10800Y383018D01*
X11520Y381670D01*
X12489Y380489D01*
X13670Y379520D01*
X15018Y378800D01*
X16480Y378356D01*
X18000Y378207D01*
X19520Y378356D01*
X20982Y378800D01*
X22330Y379520D01*
X23511Y380489D01*
X24480Y381670D01*
X25200Y383018D01*
X25644Y384480D01*
X25793Y386000D01*
X25644Y387520D01*
X25200Y388982D01*
X24480Y390330D01*
X23511Y391511D01*
X22330Y392480D01*
X20982Y393200D01*
X19520Y393644D01*
X18000Y393793D01*
D02*
G37*
G36*
X208500Y375464D02*
Y372500D01*
X211464D01*
X211410Y372914D01*
X211057Y373765D01*
X210496Y374496D01*
X209765Y375057D01*
X208914Y375410D01*
X208500Y375464D01*
D02*
G37*
G36*
X337000Y288722D02*
Y285500D01*
X340223D01*
X340159Y285981D01*
X339781Y286894D01*
X339179Y287679D01*
X338394Y288281D01*
X337480Y288659D01*
X337000Y288722D01*
D02*
G37*
G36*
X237325Y258500D02*
X234500D01*
Y255675D01*
X234878Y255724D01*
X235696Y256063D01*
X236398Y256602D01*
X236937Y257304D01*
X237276Y258122D01*
X237325Y258500D01*
D02*
G37*
G36*
X400362Y231362D02*
X397500D01*
Y228500D01*
X400362D01*
Y231362D01*
D02*
G37*
G36*
X421464Y210500D02*
X418500D01*
Y207536D01*
X418914Y207590D01*
X419765Y207943D01*
X420496Y208504D01*
X421057Y209235D01*
X421410Y210086D01*
X421464Y210500D01*
D02*
G37*
G36*
X396500Y261500D02*
X393536D01*
X393590Y261086D01*
X393943Y260235D01*
X394504Y259504D01*
X395235Y258943D01*
X396086Y258590D01*
X396500Y258536D01*
Y261500D01*
D02*
G37*
G36*
X397500Y265464D02*
Y262500D01*
X400464D01*
X400410Y262914D01*
X400057Y263765D01*
X399496Y264496D01*
X398765Y265057D01*
X397914Y265410D01*
X397500Y265464D01*
D02*
G37*
G36*
X396500D02*
X396086Y265410D01*
X395235Y265057D01*
X394504Y264496D01*
X393943Y263765D01*
X393590Y262914D01*
X393536Y262500D01*
X396500D01*
Y265464D01*
D02*
G37*
G36*
X400464Y261500D02*
X397500D01*
Y258536D01*
X397914Y258590D01*
X398765Y258943D01*
X399496Y259504D01*
X400057Y260235D01*
X400410Y261086D01*
X400464Y261500D01*
D02*
G37*
G36*
X433500Y182325D02*
Y179500D01*
X436325D01*
X436276Y179878D01*
X435937Y180696D01*
X435398Y181398D01*
X434696Y181937D01*
X433878Y182276D01*
X433500Y182325D01*
D02*
G37*
G36*
X314500Y158421D02*
Y155000D01*
X317921D01*
X317851Y155532D01*
X317453Y156493D01*
X316819Y157319D01*
X315993Y157953D01*
X315032Y158351D01*
X314500Y158421D01*
D02*
G37*
G36*
X313500D02*
X312968Y158351D01*
X312007Y157953D01*
X311181Y157319D01*
X310547Y156493D01*
X310149Y155532D01*
X310079Y155000D01*
X313500D01*
Y158421D01*
D02*
G37*
G36*
X304500D02*
Y155000D01*
X307921D01*
X307851Y155532D01*
X307453Y156493D01*
X306819Y157319D01*
X305993Y157953D01*
X305032Y158351D01*
X304500Y158421D01*
D02*
G37*
G36*
X323500D02*
X322968Y158351D01*
X322007Y157953D01*
X321181Y157319D01*
X320547Y156493D01*
X320149Y155532D01*
X320079Y155000D01*
X323500D01*
Y158421D01*
D02*
G37*
G36*
X432500Y182325D02*
X432122Y182276D01*
X431304Y181937D01*
X430602Y181398D01*
X430063Y180696D01*
X429724Y179878D01*
X429675Y179500D01*
X432500D01*
Y182325D01*
D02*
G37*
G36*
X370953Y195953D02*
X355047D01*
Y180047D01*
X359120D01*
X359397Y179631D01*
X359149Y179032D01*
X359079Y178500D01*
X366921D01*
X366851Y179032D01*
X366603Y179631D01*
X366880Y180047D01*
X370953D01*
Y195953D01*
D02*
G37*
G36*
X324500Y158421D02*
Y155000D01*
X327921D01*
X327851Y155532D01*
X327453Y156493D01*
X326819Y157319D01*
X325993Y157953D01*
X325032Y158351D01*
X324500Y158421D01*
D02*
G37*
G36*
X275000Y288722D02*
X274519Y288659D01*
X273606Y288281D01*
X272821Y287679D01*
X272219Y286894D01*
X271841Y285981D01*
X271778Y285500D01*
X275000D01*
Y288722D01*
D02*
G37*
G36*
X370222Y284500D02*
X367000D01*
Y281277D01*
X367480Y281341D01*
X368394Y281719D01*
X369179Y282321D01*
X369781Y283106D01*
X370159Y284019D01*
X370222Y284500D01*
D02*
G37*
G36*
X366000D02*
X362777D01*
X362841Y284019D01*
X363219Y283106D01*
X363821Y282321D01*
X364606Y281719D01*
X365519Y281341D01*
X366000Y281277D01*
Y284500D01*
D02*
G37*
G36*
X276000Y288722D02*
Y285500D01*
X279222D01*
X279159Y285981D01*
X278781Y286894D01*
X278179Y287679D01*
X277394Y288281D01*
X276481Y288659D01*
X276000Y288722D01*
D02*
G37*
G36*
X336000D02*
X335520Y288659D01*
X334606Y288281D01*
X333821Y287679D01*
X333219Y286894D01*
X332841Y285981D01*
X332778Y285500D01*
X336000D01*
Y288722D01*
D02*
G37*
G36*
X307000D02*
Y285500D01*
X310223D01*
X310159Y285981D01*
X309781Y286894D01*
X309179Y287679D01*
X308394Y288281D01*
X307481Y288659D01*
X307000Y288722D01*
D02*
G37*
G36*
X306000D02*
X305520Y288659D01*
X304606Y288281D01*
X303821Y287679D01*
X303219Y286894D01*
X302841Y285981D01*
X302778Y285500D01*
X306000D01*
Y288722D01*
D02*
G37*
G36*
X340223Y284500D02*
X337000D01*
Y281277D01*
X337480Y281341D01*
X338394Y281719D01*
X339179Y282321D01*
X339781Y283106D01*
X340159Y284019D01*
X340223Y284500D01*
D02*
G37*
G36*
X275000D02*
X271778D01*
X271841Y284019D01*
X272219Y283106D01*
X272821Y282321D01*
X273606Y281719D01*
X274519Y281341D01*
X275000Y281277D01*
Y284500D01*
D02*
G37*
G36*
X259464Y266500D02*
X256500D01*
Y263536D01*
X256914Y263590D01*
X257765Y263943D01*
X258496Y264504D01*
X259057Y265235D01*
X259410Y266086D01*
X259464Y266500D01*
D02*
G37*
G36*
X255500D02*
X252536D01*
X252590Y266086D01*
X252943Y265235D01*
X253504Y264504D01*
X254235Y263943D01*
X255086Y263590D01*
X255500Y263536D01*
Y266500D01*
D02*
G37*
G36*
X279222Y284500D02*
X276000D01*
Y281277D01*
X276481Y281341D01*
X277394Y281719D01*
X278179Y282321D01*
X278781Y283106D01*
X279159Y284019D01*
X279222Y284500D01*
D02*
G37*
G36*
X336000D02*
X332778D01*
X332841Y284019D01*
X333219Y283106D01*
X333821Y282321D01*
X334606Y281719D01*
X335520Y281341D01*
X336000Y281277D01*
Y284500D01*
D02*
G37*
G36*
X310223D02*
X307000D01*
Y281277D01*
X307481Y281341D01*
X308394Y281719D01*
X309179Y282321D01*
X309781Y283106D01*
X310159Y284019D01*
X310223Y284500D01*
D02*
G37*
G36*
X306000D02*
X302778D01*
X302841Y284019D01*
X303219Y283106D01*
X303821Y282321D01*
X304606Y281719D01*
X305520Y281341D01*
X306000Y281277D01*
Y284500D01*
D02*
G37*
%LPD*%
D10*
X201834Y215334D02*
G03*
X200453Y212000I3334J-3334D01*
G01*
X198500Y213953D02*
G03*
X201834Y215334I0J4714D01*
G01*
X261834Y208666D02*
G03*
X258500Y210047I-3334J-3334D01*
G01*
X260453Y212000D02*
G03*
X261834Y208666I4714J0D01*
G01*
X270453Y212000D02*
G03*
X272894Y206106I8336J0D01*
G01*
X281834Y208666D02*
G03*
X278500Y210047I-3334J-3334D01*
G01*
X280453Y212000D02*
G03*
X281834Y208666I4714J0D01*
G01*
X291834Y215334D02*
G03*
X290453Y212000I3334J-3334D01*
G01*
X288500Y213953D02*
G03*
X291834Y215334I0J4714D01*
G01*
X293214Y212000D02*
G03*
X289881Y210619I0J-4714D01*
G01*
Y213381D02*
G03*
X293214Y212000I3334J3334D01*
G01*
X289286Y184500D02*
G03*
X292619Y185881I0J4714D01*
G01*
Y183119D02*
G03*
X289286Y184500I-3334J-3334D01*
G01*
X307334Y181167D02*
G03*
X304000Y182547I-3334J-3334D01*
G01*
X305953Y184500D02*
G03*
X307334Y181166I4714J0D01*
G01*
X300666Y187833D02*
G03*
X304000Y186453I3334J3334D01*
G01*
X302047Y184500D02*
G03*
X300666Y187834I-4714J0D01*
G01*
X317334Y181167D02*
G03*
X314000Y182547I-3334J-3334D01*
G01*
X315953Y184500D02*
G03*
X317334Y181166I4714J0D01*
G01*
X310666Y187833D02*
G03*
X314000Y186453I3334J3334D01*
G01*
X312047Y184500D02*
G03*
X310666Y187834I-4714J0D01*
G01*
X320666Y187833D02*
G03*
X324000Y186453I3334J3334D01*
G01*
X322047Y184500D02*
G03*
X320666Y187834I-4714J0D01*
G01*
X254711Y145000D02*
G03*
X257037Y145963I0J3289D01*
G01*
Y144037D02*
G03*
X254711Y145000I-2325J-2325D01*
G01*
X260325Y137325D02*
G03*
X259362Y135000I2325J-2325D01*
G01*
X258000Y136362D02*
G03*
X260325Y137325I0J3289D01*
G01*
X138761Y166000D02*
G03*
X141758Y167242I0J4239D01*
G01*
Y164758D02*
G03*
X138761Y166000I-2998J-2998D01*
G01*
X109000Y170239D02*
G03*
X110242Y167242I4239J0D01*
G01*
X107758D02*
G03*
X109000Y170239I-2998J2998D01*
G01*
X113239Y166000D02*
G03*
X110242Y164758I0J-4239D01*
G01*
Y167242D02*
G03*
X113239Y166000I2998J2998D01*
G01*
X71001Y92157D02*
G03*
X68172Y90985I0J-4002D01*
G01*
Y93329D02*
G03*
X71001Y92157I2829J2829D01*
G01*
X62998D02*
G03*
X65828Y93329I0J4002D01*
G01*
Y90985D02*
G03*
X62998Y92157I-2829J-2829D01*
G01*
X227325Y132325D02*
G03*
X226362Y130000I2325J-2325D01*
G01*
X225000Y131362D02*
G03*
X227325Y132325I0J3289D01*
G01*
X143175Y306325D02*
G03*
X145500Y305362I2325J2325D01*
G01*
X144138Y304000D02*
G03*
X143175Y306325I-3289J0D01*
G01*
X142211Y294000D02*
G03*
X144537Y294963I0J3289D01*
G01*
Y293037D02*
G03*
X142211Y294000I-2325J-2325D01*
G01*
X22239Y356000D02*
G03*
X19242Y354758I0J-4239D01*
G01*
Y357242D02*
G03*
X22239Y356000I2998J2998D01*
G01*
X15002Y353003D02*
G03*
X16244Y356000I-2998J2998D01*
G01*
X18000Y354244D02*
G03*
X15002Y353003I0J-4239D01*
G01*
X20998Y326498D02*
G03*
X19756Y323500I2998J-2998D01*
G01*
X18000Y325256D02*
G03*
X20998Y326498I0J4239D01*
G01*
X147675Y209675D02*
G03*
X148638Y212000I-2325J2325D01*
G01*
X150000Y210638D02*
G03*
X147675Y209675I0J-3289D01*
G01*
X118675Y27825D02*
G03*
X121000Y26862I2325J2325D01*
G01*
X119638Y25500D02*
G03*
X118675Y27825I-3289J0D01*
G01*
X124289Y25500D02*
G03*
X121963Y24537I0J-3289D01*
G01*
Y26463D02*
G03*
X124289Y25500I2325J2325D01*
G01*
X57334Y315666D02*
G03*
X54000Y317047I-3334J-3334D01*
G01*
X55953Y319000D02*
G03*
X57334Y315666I4714J0D01*
G01*
X50666D02*
G03*
X52047Y319000I-3334J3334D01*
G01*
X54000Y317047D02*
G03*
X50666Y315666I0J-4714D01*
G01*
X80666Y342334D02*
G03*
X84000Y340953I3334J3334D01*
G01*
X82047Y339000D02*
G03*
X80666Y342334I-4714J0D01*
G01*
X88714Y339000D02*
G03*
X85381Y337619I0J-4714D01*
G01*
Y340381D02*
G03*
X88714Y339000I3334J3334D01*
G01*
X80000Y329000D02*
G03*
X82460Y330201I0J3120D01*
G01*
Y327799D02*
G03*
X80000Y329000I-2460J-1919D01*
G01*
X88714Y319000D02*
G03*
X85381Y317619I0J-4714D01*
G01*
Y320381D02*
G03*
X88714Y319000I3334J3334D01*
G01*
X432711Y121500D02*
G03*
X435037Y122463I0J3289D01*
G01*
Y120537D02*
G03*
X432711Y121500I-2325J-2325D01*
G01*
X394000Y133344D02*
G03*
X395172Y130515I4002J0D01*
G01*
X392828D02*
G03*
X394000Y133344I-2829J2829D01*
G01*
X398002Y129343D02*
G03*
X395172Y128171I0J-4002D01*
G01*
Y130515D02*
G03*
X398002Y129343I2829J2829D01*
G01*
X75002Y166843D02*
G03*
X72172Y165671I0J-4002D01*
G01*
Y168015D02*
G03*
X75002Y166843I2829J2829D01*
G01*
X68170Y169672D02*
G03*
X71000Y168500I2829J2829D01*
G01*
X69342Y166843D02*
G03*
X68170Y169672I-4002J0D01*
G01*
X95999Y92157D02*
G03*
X98828Y93329I0J4002D01*
G01*
Y90985D02*
G03*
X95999Y92157I-2829J-2829D01*
G01*
X311500Y334810D02*
G03*
X309980Y338480I-5190J0D01*
G01*
X313020D02*
G03*
X311500Y334810I3670J-3670D01*
G01*
X429711Y169000D02*
G03*
X432037Y169963I0J3289D01*
G01*
Y168037D02*
G03*
X429711Y169000I-2325J-2325D01*
G01*
X160325Y380675D02*
G03*
X158000Y381638I-2325J-2325D01*
G01*
X159362Y383000D02*
G03*
X160325Y380675I3289J0D01*
G01*
X269675Y256675D02*
G03*
X270638Y259000I-2325J2325D01*
G01*
X272000Y257638D02*
G03*
X269675Y256675I0J-3289D01*
G01*
X28830Y173830D02*
G03*
X30350Y177500I-3670J3670D01*
G01*
X32500Y175350D02*
G03*
X28830Y173830I0J-5190D01*
G01*
X32500Y202690D02*
G03*
X34020Y199020I5190J0D01*
G01*
X30980D02*
G03*
X32500Y202690I-3670J3670D01*
G01*
X37690Y197500D02*
G03*
X34020Y195980I0J-5190D01*
G01*
Y199020D02*
G03*
X37690Y197500I3670J3670D01*
G01*
X46334Y259666D02*
G03*
X43000Y261047I-3334J-3334D01*
G01*
X44953Y263000D02*
G03*
X46334Y259666I4714J0D01*
G01*
X46334Y249666D02*
G03*
X43000Y251047I-3334J-3334D01*
G01*
X44953Y253000D02*
G03*
X46334Y249666I4714J0D01*
G01*
X387000Y231289D02*
G03*
X387963Y228963I3289J0D01*
G01*
X386037D02*
G03*
X387000Y231289I-2325J2325D01*
G01*
X374675Y225675D02*
G03*
X375638Y228000I-2325J2325D01*
G01*
X377000Y226638D02*
G03*
X374675Y225675I0J-3289D01*
G01*
X210711Y259000D02*
G03*
X213037Y259963I0J3289D01*
G01*
Y258037D02*
G03*
X210711Y259000I-2325J-2325D01*
G01*
X216325Y256675D02*
G03*
X214000Y257638I-2325J-2325D01*
G01*
X215362Y259000D02*
G03*
X216325Y256675I3289J0D01*
G01*
X226325Y261325D02*
G03*
X225362Y259000I2325J-2325D01*
G01*
X224000Y260362D02*
G03*
X226325Y261325I0J3289D01*
G01*
X172761Y117000D02*
G03*
X175758Y118242I0J4239D01*
G01*
Y115758D02*
G03*
X172761Y117000I-2998J-2998D01*
G01*
X194334Y55666D02*
G03*
X191000Y57047I-3334J-3334D01*
G01*
X192953Y59000D02*
G03*
X194334Y55666I4714J0D01*
G01*
X187666Y62334D02*
G03*
X191000Y60953I3334J3334D01*
G01*
X189047Y59000D02*
G03*
X187666Y62334I-4714J0D01*
G01*
X195714Y69000D02*
G03*
X192381Y67619I0J-4714D01*
G01*
Y70381D02*
G03*
X195714Y69000I3334J3334D01*
G01*
X187666Y72334D02*
G03*
X191000Y70953I3334J3334D01*
G01*
X189047Y69000D02*
G03*
X187666Y72334I-4714J0D01*
G01*
X157667Y55666D02*
G03*
X159047Y59000I-3334J3334D01*
G01*
X161000Y57047D02*
G03*
X157666Y55666I0J-4714D01*
G01*
X157667Y65666D02*
G03*
X159047Y69000I-3334J3334D01*
G01*
X161000Y67047D02*
G03*
X157666Y65666I0J-4714D01*
G01*
X114997Y289497D02*
G03*
X113756Y286500I2998J-2998D01*
G01*
X112000Y288256D02*
G03*
X114997Y289497I0J4239D01*
G01*
X107761Y256500D02*
G03*
X110758Y257742I0J4239D01*
G01*
Y255258D02*
G03*
X107761Y256500I-2998J-2998D01*
G01*
X95998Y209002D02*
G03*
X93000Y210244I-2998J-2998D01*
G01*
X94756Y212000D02*
G03*
X95998Y209002I4239J0D01*
G01*
X222761Y84000D02*
G03*
X225758Y85242I0J4239D01*
G01*
Y82758D02*
G03*
X222761Y84000I-2998J-2998D01*
G01*
Y54000D02*
G03*
X225758Y55242I0J4239D01*
G01*
Y52758D02*
G03*
X222761Y54000I-2998J-2998D01*
G01*
X231239D02*
G03*
X228242Y52758I0J-4239D01*
G01*
Y55242D02*
G03*
X231239Y54000I2998J2998D01*
G01*
X125997Y53997D02*
G03*
X124756Y51000I2998J-2998D01*
G01*
X123000Y52756D02*
G03*
X125997Y53997I0J4239D01*
G01*
X120002Y78003D02*
G03*
X121244Y81000I-2998J2998D01*
G01*
X123000Y79244D02*
G03*
X120002Y78003I0J-4239D01*
G01*
X123000Y85239D02*
G03*
X124242Y82242I4239J0D01*
G01*
X121758D02*
G03*
X123000Y85239I-2998J2998D01*
G01*
X125997Y83997D02*
G03*
X124756Y81000I2998J-2998D01*
G01*
X123000Y82756D02*
G03*
X125997Y83997I0J4239D01*
G01*
X255261Y54000D02*
G03*
X258258Y55242I0J4239D01*
G01*
Y52758D02*
G03*
X255261Y54000I-2998J-2998D01*
G01*
X499166Y406334D02*
G03*
X502500Y404953I3334J3334D01*
G01*
X500547Y403000D02*
G03*
X499166Y406334I-4714J0D01*
G01*
X505834Y396334D02*
G03*
X504453Y393000I3334J-3334D01*
G01*
X502500Y394953D02*
G03*
X505834Y396334I0J4714D01*
G01*
X505834Y386334D02*
G03*
X504453Y383000I3334J-3334D01*
G01*
X502500Y384953D02*
G03*
X505834Y386334I0J4714D01*
G01*
X505834Y376334D02*
G03*
X504453Y373000I3334J-3334D01*
G01*
X502500Y374953D02*
G03*
X505834Y376334I0J4714D01*
G01*
X506687Y339313D02*
G03*
X502500Y341047I-4187J-4187D01*
G01*
X504453Y343000D02*
G03*
X505480Y340520I3507J0D01*
G01*
X504453Y333000D02*
G03*
X506894Y327106I8336J0D01*
G01*
X495371Y292000D02*
G03*
X501119Y294381I0J8129D01*
G01*
Y281619D02*
G03*
X495371Y284000I-5748J-5748D01*
G01*
X497786Y273000D02*
G03*
X501119Y274381I0J4714D01*
G01*
Y271619D02*
G03*
X497786Y273000I-3334J-3334D01*
G01*
Y263000D02*
G03*
X501119Y264381I0J4714D01*
G01*
Y261619D02*
G03*
X497786Y263000I-3334J-3334D01*
G01*
Y253000D02*
G03*
X501119Y254381I0J4714D01*
G01*
Y251619D02*
G03*
X497786Y253000I-3334J-3334D01*
G01*
X507214Y243000D02*
G03*
X503881Y241619I0J-4714D01*
G01*
Y244381D02*
G03*
X507214Y243000I3334J3334D01*
G01*
X497786Y233000D02*
G03*
X501119Y234381I0J4714D01*
G01*
Y231619D02*
G03*
X497786Y233000I-3334J-3334D01*
G01*
X505834Y219666D02*
G03*
X502500Y221047I-3334J-3334D01*
G01*
X504453Y223000D02*
G03*
X505834Y219666I4714J0D01*
G01*
X448786Y403000D02*
G03*
X452119Y404381I0J4714D01*
G01*
Y401619D02*
G03*
X448786Y403000I-3334J-3334D01*
G01*
X450166Y389666D02*
G03*
X451547Y393000I-3334J3334D01*
G01*
X453500Y391047D02*
G03*
X450166Y389666I0J-4714D01*
G01*
X457000Y343000D02*
G03*
X455162Y341974I0J-2160D01*
G01*
Y344026D02*
G03*
X457000Y343000I1838J1134D01*
G01*
X453500Y344953D02*
G03*
X462808Y348808I0J13164D01*
G01*
X453500Y342953D02*
G03*
X459394Y345394I0J8336D01*
G01*
X450520Y330520D02*
G03*
X451547Y333000I-2480J2480D01*
G01*
X453500Y331047D02*
G03*
X449313Y329313I0J-5922D01*
G01*
X449800Y323000D02*
G03*
X451888Y324102I0J2529D01*
G01*
Y321898D02*
G03*
X449800Y323000I-2088J-1427D01*
G01*
X453500Y321047D02*
G03*
X443850Y317050I0J-13647D01*
G01*
X453500Y323047D02*
G03*
X447264Y320464I0J-8818D01*
G01*
X453500Y325047D02*
G03*
X450679Y323879I0J-3990D01*
G01*
X448786Y313000D02*
G03*
X452119Y314381I0J4714D01*
G01*
Y311619D02*
G03*
X448786Y313000I-3334J-3334D01*
G01*
X456834Y306334D02*
G03*
X455453Y303000I3334J-3334D01*
G01*
X453500Y304953D02*
G03*
X456834Y306334I0J4714D01*
G01*
X456834Y296334D02*
G03*
X455453Y293000I3334J-3334D01*
G01*
X453500Y294953D02*
G03*
X456834Y296334I0J4714D01*
G01*
X456834Y276334D02*
G03*
X455453Y273000I3334J-3334D01*
G01*
X453500Y274953D02*
G03*
X456834Y276334I0J4714D01*
G01*
X450166Y239666D02*
G03*
X451547Y243000I-3334J3334D01*
G01*
X453500Y241047D02*
G03*
X450166Y239666I0J-4714D01*
G01*
X449000Y233000D02*
G03*
X452074Y234334I0J4208D01*
G01*
Y231666D02*
G03*
X449000Y233000I-3074J-2874D01*
G01*
Y223000D02*
G03*
X452074Y224334I0J4208D01*
G01*
Y221666D02*
G03*
X449000Y223000I-3074J-2874D01*
G01*
X188003Y379002D02*
G03*
X189244Y382000I-2998J2998D01*
G01*
X191000Y380244D02*
G03*
X188003Y379002I0J-4239D01*
G01*
X218003Y384998D02*
G03*
X221000Y383756I2998J2998D01*
G01*
X219244Y382000D02*
G03*
X218003Y384998I-4239J0D01*
G01*
X349498Y114497D02*
G03*
X348256Y111500I2998J-2998D01*
G01*
X346500Y113256D02*
G03*
X349498Y114497I0J4239D01*
G01*
X481286Y112000D02*
G03*
X484619Y113381I0J4714D01*
G01*
Y110619D02*
G03*
X481286Y112000I-3334J-3334D01*
G01*
X389000Y168000D02*
G03*
X391460Y169201I0J3120D01*
G01*
Y166799D02*
G03*
X389000Y168000I-2460J-1919D01*
G01*
X397709Y168224D02*
G03*
X394445Y166686I224J-4709D01*
G01*
X394314Y169445D02*
G03*
X397709Y168224I3171J3488D01*
G01*
X358286Y168000D02*
G03*
X361619Y169381I0J4714D01*
G01*
Y166619D02*
G03*
X358286Y168000I-3334J-3334D01*
G01*
X281500Y334810D02*
G03*
X279980Y338480I-5190J0D01*
G01*
X283020D02*
G03*
X281500Y334810I3670J-3670D01*
G01*
X278498Y317998D02*
G03*
X277256Y315000I2998J-2998D01*
G01*
X275500Y316756D02*
G03*
X278498Y317998I0J4239D01*
G01*
X309497D02*
G03*
X308256Y315000I2998J-2998D01*
G01*
X306500Y316756D02*
G03*
X309497Y317998I0J4239D01*
G01*
X341500Y334810D02*
G03*
X339980Y338480I-5190J0D01*
G01*
X343020D02*
G03*
X341500Y334810I3670J-3670D01*
G01*
X339497Y317998D02*
G03*
X338256Y315000I2998J-2998D01*
G01*
X336500Y316756D02*
G03*
X339497Y317998I0J4239D01*
G01*
X371500Y334810D02*
G03*
X369980Y338480I-5190J0D01*
G01*
X373020D02*
G03*
X371500Y334810I3670J-3670D01*
G01*
X369497Y317998D02*
G03*
X368256Y315000I2998J-2998D01*
G01*
X366500Y316756D02*
G03*
X369497Y317998I0J4239D01*
G01*
X401500Y334810D02*
G03*
X399980Y338480I-5190J0D01*
G01*
X403020D02*
G03*
X401500Y334810I3670J-3670D01*
G01*
X399498Y317998D02*
G03*
X398256Y315000I2998J-2998D01*
G01*
X396500Y316756D02*
G03*
X399498Y317998I0J4239D01*
G01*
X309000Y47286D02*
G03*
X307619Y50619I-4714J0D01*
G01*
X310381D02*
G03*
X309000Y47286I3334J-3334D01*
G01*
X312334Y55334D02*
G03*
X310953Y52000I3334J-3334D01*
G01*
X309000Y53953D02*
G03*
X312334Y55334I0J4714D01*
G01*
X322334Y55334D02*
G03*
X320953Y52000I3334J-3334D01*
G01*
X319000Y53953D02*
G03*
X322334Y55334I0J4714D01*
G01*
X332334Y48666D02*
G03*
X329000Y50047I-3334J-3334D01*
G01*
X330953Y52000D02*
G03*
X332334Y48666I4714J0D01*
G01*
X352334Y48666D02*
G03*
X349000Y50047I-3334J-3334D01*
G01*
X350953Y52000D02*
G03*
X352334Y48666I4714J0D01*
G01*
X402334Y55334D02*
G03*
X400953Y52000I3334J-3334D01*
G01*
X399000Y53953D02*
G03*
X402334Y55334I0J4714D01*
G01*
X412334Y55334D02*
G03*
X410953Y52000I3334J-3334D01*
G01*
X409000Y53953D02*
G03*
X412334Y55334I0J4714D01*
G01*
X422334Y55334D02*
G03*
X420953Y52000I3334J-3334D01*
G01*
X419000Y53953D02*
G03*
X422334Y55334I0J4714D01*
G01*
X432334Y48666D02*
G03*
X429000Y50047I-3334J-3334D01*
G01*
X430953Y52000D02*
G03*
X432334Y48666I4714J0D01*
G01*
X21286Y97500D02*
G03*
X24619Y98881I0J4714D01*
G01*
Y96119D02*
G03*
X21286Y97500I-3334J-3334D01*
G01*
X29334Y94166D02*
G03*
X26000Y95547I-3334J-3334D01*
G01*
X27953Y97500D02*
G03*
X29334Y94166I4714J0D01*
G01*
X21000Y140289D02*
G03*
X21963Y137963I3289J0D01*
G01*
X20037D02*
G03*
X21000Y140289I-2325J2325D01*
G01*
X18675Y134675D02*
G03*
X19638Y137000I-2325J2325D01*
G01*
X21000Y135638D02*
G03*
X18675Y134675I0J-3289D01*
G01*
X122325Y404675D02*
G03*
X120000Y405638I-2325J-2325D01*
G01*
X121362Y407000D02*
G03*
X122325Y404675I3289J0D01*
G01*
X155675D02*
G03*
X156638Y407000I-2325J2325D01*
G01*
X158000Y405638D02*
G03*
X155675Y404675I0J-3289D01*
G01*
X200325D02*
G03*
X198000Y405638I-2325J-2325D01*
G01*
X199362Y407000D02*
G03*
X200325Y404675I3289J0D01*
G01*
X58675Y384675D02*
G03*
X59638Y387000I-2325J2325D01*
G01*
X61000Y385638D02*
G03*
X58675Y384675I0J-3289D01*
G01*
X229000Y306786D02*
G03*
X227619Y310119I-4714J0D01*
G01*
X230381D02*
G03*
X229000Y306786I3334J-3334D01*
G01*
X233714Y331500D02*
G03*
X230381Y330119I0J-4714D01*
G01*
Y332881D02*
G03*
X233714Y331500I3334J3334D01*
G01*
X202333Y314834D02*
G03*
X200953Y311500I3334J-3334D01*
G01*
X199000Y313453D02*
G03*
X202334Y314834I0J4714D01*
G01*
X195667Y318166D02*
G03*
X197047Y321500I-3334J3334D01*
G01*
X199000Y319547D02*
G03*
X195666Y318166I0J-4714D01*
G01*
X193078Y331000D02*
G03*
X197619Y332881I0J6421D01*
G01*
Y330119D02*
G03*
X195493Y331000I-2127J-2127D01*
G01*
X194286Y341500D02*
G03*
X197619Y342881I0J4714D01*
G01*
Y340119D02*
G03*
X194286Y341500I-3334J-3334D01*
G01*
X132325Y385325D02*
G03*
X131362Y383000I2325J-2325D01*
G01*
X130000Y384362D02*
G03*
X132325Y385325I0J3289D01*
G01*
X332334Y405334D02*
G03*
X330953Y402000I3334J-3334D01*
G01*
X329000Y403953D02*
G03*
X332334Y405334I0J4714D01*
G01*
Y388666D02*
G03*
X329000Y390047I-3334J-3334D01*
G01*
X330953Y392000D02*
G03*
X332334Y388666I4714J0D01*
G01*
X325666D02*
G03*
X327047Y392000I-3334J3334D01*
G01*
X329000Y390047D02*
G03*
X325666Y388666I0J-4714D01*
G01*
X322334Y405334D02*
G03*
X320953Y402000I3334J-3334D01*
G01*
X319000Y403953D02*
G03*
X322334Y405334I0J4714D01*
G01*
X312334Y405334D02*
G03*
X310953Y402000I3334J-3334D01*
G01*
X309000Y403953D02*
G03*
X312334Y405334I0J4714D01*
G01*
X302334Y405334D02*
G03*
X300953Y402000I3334J-3334D01*
G01*
X299000Y403953D02*
G03*
X302334Y405334I0J4714D01*
G01*
X295666Y395334D02*
G03*
X299000Y393953I3334J3334D01*
G01*
X297047Y392000D02*
G03*
X295666Y395334I-4714J0D01*
G01*
X275666Y405334D02*
G03*
X279000Y403953I3334J3334D01*
G01*
X277047Y402000D02*
G03*
X275666Y405334I-4714J0D01*
G01*
X92379Y297000D02*
G03*
X94939Y298061I0J3621D01*
G01*
Y295939D02*
G03*
X92379Y297000I-2561J-2561D01*
G01*
X272621Y233000D02*
G03*
X270061Y231939I0J-3621D01*
G01*
Y234061D02*
G03*
X272621Y233000I2561J2561D01*
G01*
X367000Y109379D02*
G03*
X365939Y111939I-3621J0D01*
G01*
X368061D02*
G03*
X367000Y109379I2561J-2561D01*
G01*
X192621Y331000D02*
G03*
X190061Y329939I0J-3621D01*
G01*
Y332061D02*
G03*
X192621Y331000I2561J2561D01*
G01*
X475268Y399732D02*
G03*
X471000Y401500I-4268J-4268D01*
G01*
X334379Y174000D02*
G03*
X336939Y175061I0J3621D01*
G01*
Y172939D02*
G03*
X334379Y174000I-2561J-2561D01*
G01*
X472000Y327379D02*
G03*
X470939Y329939I-3621J0D01*
G01*
X473061D02*
G03*
X472000Y327379I2561J-2561D01*
G01*
X300439Y413439D02*
G03*
X301500Y416000I-2561J2561D01*
G01*
X303000Y414500D02*
G03*
X300439Y413439I0J-3621D01*
G01*
X408621Y403000D02*
G03*
X406061Y401939I0J-3621D01*
G01*
Y404061D02*
G03*
X408621Y403000I2561J2561D01*
G01*
X232379Y279000D02*
G03*
X234939Y280061I0J3621D01*
G01*
Y277939D02*
G03*
X232379Y279000I-2561J-2561D01*
G01*
X530000Y190621D02*
G03*
X531061Y188061I3621J0D01*
G01*
X528939D02*
G03*
X530000Y190621I-2561J2561D01*
G01*
X204561Y355439D02*
G03*
X202000Y356500I-2561J-2561D01*
G01*
X203500Y358000D02*
G03*
X204561Y355439I3621J0D01*
G01*
X176561Y259339D02*
G03*
X174000Y260400I-2561J-2561D01*
G01*
X175500Y261900D02*
G03*
X176561Y259339I3621J0D01*
G01*
X223561Y298561D02*
G03*
X222500Y296000I2561J-2561D01*
G01*
X221000Y297500D02*
G03*
X223561Y298561I0J3621D01*
G01*
X237439Y142439D02*
G03*
X238500Y145000I-2561J2561D01*
G01*
X240000Y143500D02*
G03*
X237439Y142439I0J-3621D01*
G01*
X243621Y145000D02*
G03*
X241061Y143939I0J-3621D01*
G01*
Y146061D02*
G03*
X243621Y145000I2561J2561D01*
G01*
X488561Y229061D02*
G03*
X487500Y226500I2561J-2561D01*
G01*
X486000Y228000D02*
G03*
X488561Y229061I0J3621D01*
G01*
X524000Y191379D02*
G03*
X522939Y193939I-3621J0D01*
G01*
X525061D02*
G03*
X524000Y191379I2561J-2561D01*
G01*
X483561Y247561D02*
G03*
X482500Y245000I2561J-2561D01*
G01*
X481000Y246500D02*
G03*
X483561Y247561I0J3621D01*
G01*
X478561Y256561D02*
G03*
X477500Y254000I2561J-2561D01*
G01*
X476000Y255500D02*
G03*
X478561Y256561I0J3621D01*
G01*
X472561Y271561D02*
G03*
X471500Y269000I2561J-2561D01*
G01*
X470000Y270500D02*
G03*
X472561Y271561I0J3621D01*
G01*
X521439Y324561D02*
G03*
X524000Y323500I2561J2561D01*
G01*
X522500Y322000D02*
G03*
X521439Y324561I-3621J0D01*
G01*
X486621Y284000D02*
G03*
X484061Y282939I0J-3621D01*
G01*
Y285061D02*
G03*
X486621Y284000I2561J2561D01*
G01*
X494621Y292000D02*
G03*
X492061Y290939I0J-3621D01*
G01*
Y293061D02*
G03*
X494621Y292000I2561J2561D01*
G01*
X463439Y349439D02*
G03*
X464500Y352000I-2561J2561D01*
G01*
X466000Y350500D02*
G03*
X463439Y349439I0J-3621D01*
G01*
X253621Y411000D02*
G03*
X251061Y409939I0J-3621D01*
G01*
Y412061D02*
G03*
X253621Y411000I2561J2561D01*
G01*
X253439Y317561D02*
G03*
X256000Y316500I2561J2561D01*
G01*
X254500Y315000D02*
G03*
X253439Y317561I-3621J0D01*
G01*
X96439Y324439D02*
G03*
X97500Y327000I-2561J2561D01*
G01*
X99000Y325500D02*
G03*
X96439Y324439I0J-3621D01*
G01*
X137561Y45561D02*
G03*
X136500Y43000I2561J-2561D01*
G01*
X135000Y44500D02*
G03*
X137561Y45561I0J3621D01*
G01*
X123000Y118379D02*
G03*
X121939Y120939I-3621J0D01*
G01*
X124061D02*
G03*
X123000Y118379I2561J-2561D01*
G01*
X162561Y97439D02*
G03*
X160000Y98500I-2561J-2561D01*
G01*
X161500Y100000D02*
G03*
X162561Y97439I3621J0D01*
G01*
X32500Y297500D02*
X54000Y319000D01*
X32500Y197500D02*
Y297500D01*
X21000Y166000D02*
X32500Y177500D01*
X21000Y137000D02*
Y166000D01*
X17500Y133500D02*
X21000Y137000D01*
X17500Y97500D02*
Y133500D01*
Y97500D02*
X26000D01*
X160000Y100000D02*
X191000Y69000D01*
X117000Y75000D02*
X123000Y81000D01*
X117000Y29500D02*
Y75000D01*
Y29500D02*
X121000Y25500D01*
X123000Y81000D02*
Y122000D01*
X393000Y158000D02*
X394000Y157000D01*
Y129343D02*
Y157000D01*
X389000Y168000D02*
X393000D01*
X339000Y118000D02*
X389000Y168000D01*
X339000Y82000D02*
Y118000D01*
X309000Y52000D02*
X339000Y82000D01*
X191000Y69000D02*
X197000D01*
X212000Y84000D01*
X227000D01*
X144000Y42000D02*
X161000Y59000D01*
X144000Y42000D02*
X148000Y38000D01*
X303000D01*
X309000Y44000D01*
Y52000D01*
X360000Y41000D02*
X473000D01*
X349000Y52000D02*
X360000Y41000D01*
X487000Y195000D02*
X495000Y187000D01*
Y96000D02*
Y187000D01*
X468000Y69000D02*
X495000Y96000D01*
X416000Y69000D02*
X468000D01*
X399000Y52000D02*
X416000Y69000D01*
X487625Y198875D02*
X499000Y187500D01*
Y94000D02*
Y187500D01*
X470000Y65000D02*
X499000Y94000D01*
X422000Y65000D02*
X470000D01*
X409000Y52000D02*
X422000Y65000D01*
X505000Y93000D02*
Y191000D01*
X472000Y60000D02*
X505000Y93000D01*
X427000Y60000D02*
X472000D01*
X419000Y52000D02*
X427000Y60000D01*
X469000Y44000D02*
X511000Y86000D01*
X437000Y44000D02*
X469000D01*
X429000Y52000D02*
X437000Y44000D01*
X511000Y86000D02*
Y214500D01*
X502500Y223000D02*
X511000Y214500D01*
X135000Y43000D02*
X161000Y69000D01*
X84000Y339000D02*
X110500D01*
X145500Y304000D01*
X18000Y323500D02*
X47500Y353000D01*
X70000D01*
X84000Y339000D01*
X93000Y212000D02*
X96800Y208200D01*
X146200D01*
X150000Y212000D01*
X119500Y294000D02*
X145500D01*
X112000Y286500D02*
X119500Y294000D01*
X49500Y256500D02*
X112000D01*
X43000Y263000D02*
X49500Y256500D01*
X31343Y92157D02*
X67000D01*
X26000Y97500D02*
X31343Y92157D01*
X314000Y184500D02*
X318000Y180500D01*
X340000D01*
X344400Y204000D01*
X350700Y210300D01*
X408700D01*
X288500Y212000D02*
X294700Y218200D01*
X207000Y117000D02*
X208800D01*
X396343Y112000D02*
X486000D01*
X394000Y109657D02*
X396343Y112000D01*
X394000Y129343D02*
X433843D01*
X436000Y131500D01*
X356500Y121500D02*
X436000D01*
X346500Y111500D02*
X356500Y121500D01*
X414000Y169000D02*
X433000D01*
X393000Y168000D02*
X414000Y169000D01*
X30000Y356000D02*
X61000Y387000D01*
X18000Y356000D02*
X30000D01*
X154600Y403600D02*
X158000Y407000D01*
X123400Y403600D02*
X154600D01*
X120000Y407000D02*
X123400Y403600D01*
X196000Y54000D02*
X227000D01*
X191000Y59000D02*
X196000Y54000D01*
X176600Y73400D02*
X191000Y59000D01*
X145400Y73400D02*
X176600D01*
X123000Y51000D02*
X145400Y73400D01*
X159000Y117000D02*
X177000D01*
X123000Y81000D02*
X159000Y117000D01*
X71000Y166843D02*
X78157D01*
X32500Y197500D02*
X40343D01*
X71000Y166843D01*
X288500Y212000D02*
X296500D01*
X324000Y184500D01*
X294300Y204200D02*
X314000Y184500D01*
X286300Y204200D02*
X294300D01*
X278500Y212000D02*
X286300Y204200D01*
X286000Y184500D02*
X294000D01*
X258500Y212000D02*
X286000Y184500D01*
X240000Y145000D02*
X258000D01*
X225000Y130000D02*
X240000Y145000D01*
X291000Y168000D02*
X363000D01*
X258000Y135000D02*
X291000Y168000D01*
X198000Y407000D02*
X204800Y400200D01*
X228800D01*
X260600Y368400D01*
X305400D01*
X329000Y392000D01*
X198500Y212000D02*
X211200Y224700D01*
X373700D01*
X377000Y228000D01*
X158000Y383000D02*
X163362Y377638D01*
X186638D01*
X191000Y382000D01*
X208300Y394700D02*
X221000Y382000D01*
X141700Y394700D02*
X208300D01*
X130000Y383000D02*
X141700Y394700D01*
X109000Y166000D02*
X143000D01*
X67000Y92157D02*
X100000D01*
X227000Y54000D02*
X259500D01*
X109000Y166000D02*
Y187000D01*
X43000Y253000D02*
X109000Y187000D01*
X70000Y310000D02*
Y319000D01*
X80000Y329000D01*
X84000D01*
X91000Y319000D02*
X99000Y327000D01*
X84000Y319000D02*
X91000D01*
X10000Y348000D02*
X18000Y356000D01*
X10000Y320000D02*
Y348000D01*
Y320000D02*
X32500Y297500D01*
X239500Y331500D02*
X256000Y315000D01*
X229000Y331500D02*
X239500D01*
X214000Y259000D02*
X226000Y247000D01*
X260000D01*
X272000Y259000D01*
X224000D02*
X239000Y274000D01*
X279200D01*
X286900Y266300D01*
X188000Y310500D02*
X199000Y321500D01*
X188000Y289000D02*
Y310500D01*
X54000Y319000D02*
X101000Y272000D01*
X192500D01*
X205500Y259000D01*
X214000D01*
X502500Y383000D02*
X512000Y392500D01*
Y407253D01*
X502500Y393000D02*
X508000Y398500D01*
Y406000D01*
X319000Y402000D02*
X331000Y414000D01*
X500000D01*
X508000Y406000D01*
X329000Y402000D02*
X338000Y411000D01*
X494500D01*
X502500Y403000D01*
Y373000D02*
X517000Y387500D01*
X294000Y397000D02*
X299000Y392000D01*
X250000Y411000D02*
X270000D01*
X279000Y402000D01*
X457000Y343000D02*
X466000Y352000D01*
X453500Y343000D02*
X457000D01*
X396500Y315000D02*
X401500Y320000D01*
Y340000D01*
X366500Y315000D02*
X371500Y320000D01*
Y340000D01*
X491000Y292000D02*
X501500D01*
X502500Y293000D01*
X483000Y284000D02*
X501500D01*
X502500Y283000D01*
X503000Y343000D02*
X524000Y322000D01*
X502500Y343000D02*
X503000D01*
X336500Y315000D02*
X341500Y320000D01*
Y340000D01*
X470000Y269000D02*
X474000Y273000D01*
X502500D01*
X188000Y289000D02*
X260000D01*
X268000Y297000D01*
X311500Y320000D02*
Y340000D01*
X306500Y315000D02*
X311500Y320000D01*
X476000Y254000D02*
X485000Y263000D01*
X502500D01*
X281500Y321000D02*
Y340000D01*
X275500Y315000D02*
X281500Y321000D01*
X481000Y245000D02*
X489000Y253000D01*
X502500D01*
X436000Y195000D02*
X487000D01*
X436000D02*
Y225500D01*
X453500Y243000D01*
X440000Y198875D02*
X487625D01*
X440000D02*
Y224000D01*
X449000Y233000D01*
X453500D01*
X493000Y203000D02*
X505000Y191000D01*
X449000Y203000D02*
X493000D01*
X445000Y207000D02*
X449000Y203000D01*
X445000Y207000D02*
Y219000D01*
X449000Y223000D01*
X453500D01*
X387000Y228000D02*
Y267000D01*
X453000Y333000D01*
X453500D01*
X329000Y52000D02*
X344000Y37000D01*
X475000D01*
X502500Y243000D02*
X512000D01*
X475000Y37000D02*
X524000Y86000D01*
Y195000D01*
X486000Y226500D02*
X492500Y233000D01*
X502500D01*
X221000Y296000D02*
X229000Y304000D01*
Y311500D01*
X174000Y261900D02*
X211200Y224700D01*
X202000Y358000D02*
X213000Y347000D01*
Y325500D02*
Y347000D01*
X199000Y311500D02*
X213000Y325500D01*
X502500Y331500D02*
Y333000D01*
Y331500D02*
X530000Y304000D01*
Y186500D02*
Y187000D01*
Y304000D01*
X190000Y279000D02*
X236000D01*
X182000Y287000D02*
X190000Y279000D01*
X182000Y287000D02*
Y336000D01*
X187500Y341500D01*
X199000D01*
X329000Y392000D02*
X334000Y387000D01*
X447500D01*
X453500Y393000D01*
X405000Y403000D02*
X453500D01*
X294000Y407000D02*
X303000Y416000D01*
X294000Y397000D02*
Y407000D01*
X309000Y402000D02*
X324000Y417000D01*
X502253D01*
X512000Y407253D01*
X299000Y402000D02*
X317000Y420000D01*
X504000D01*
X517000Y407000D01*
Y387500D02*
Y407000D01*
X449800Y323000D02*
X453500D01*
X294700Y218200D02*
X410200D01*
X290500Y198000D02*
X304000Y184500D01*
X281000Y198000D02*
X290500D01*
X268500Y210500D02*
X281000Y198000D01*
X268500Y210500D02*
Y212000D01*
X453500Y303000D02*
X472000Y321500D01*
Y331000D01*
X314500Y174000D02*
X338000D01*
X304000Y184500D02*
X314500Y174000D01*
X473000Y41000D02*
X515000Y83000D01*
Y240000D01*
X512000Y243000D02*
X515000Y240000D01*
X410200Y218200D02*
X415000Y223000D01*
Y288200D01*
X449800Y323000D01*
X408700Y210300D02*
X419000Y220600D01*
Y287000D01*
X445000Y313000D01*
X453500D01*
Y273000D02*
X493000Y312500D01*
Y382000D01*
X472000Y403000D02*
X493000Y382000D01*
X471000Y403000D02*
X472000D01*
X189000Y331000D02*
X198500D01*
X199000Y331500D01*
X268000Y297000D02*
Y311000D01*
X252000Y327000D02*
X268000Y311000D01*
X252000Y327000D02*
Y356000D01*
X260000Y364000D01*
X308000D01*
X453500Y293000D02*
X478000Y317500D01*
X319000Y52000D02*
X367000Y100000D01*
Y113000D01*
X269000Y233000D02*
X281000D01*
X296000Y248000D01*
Y257200D01*
X286900Y266300D02*
X296000Y257200D01*
X70000Y310000D02*
X83000Y297000D01*
X96000D01*
X308000Y364000D02*
X322000Y378000D01*
X458000D01*
X478000Y358000D01*
Y317500D02*
Y358000D01*
X121000Y25500D02*
X127500D01*
X144000Y42000D01*
D11*
X298111Y154500D02*
G03*
X295204Y153296I0J-4111D01*
G01*
Y155704D02*
G03*
X298111Y154500I2907J2907D01*
G01*
X291093Y151593D02*
G03*
X292297Y154500I-2907J2907D01*
G01*
X294000Y152797D02*
G03*
X291093Y151593I0J-4111D01*
G01*
X308111Y154500D02*
G03*
X305204Y153296I0J-4111D01*
G01*
Y155704D02*
G03*
X308111Y154500I2907J2907D01*
G01*
X299889D02*
G03*
X302796Y155704I0J4111D01*
G01*
Y153296D02*
G03*
X299889Y154500I-2907J-2907D01*
G01*
X309889D02*
G03*
X312796Y155704I0J4111D01*
G01*
Y153296D02*
G03*
X309889Y154500I-2907J-2907D01*
G01*
X318111D02*
G03*
X315204Y153296I0J-4111D01*
G01*
Y155704D02*
G03*
X318111Y154500I2907J2907D01*
G01*
X328111D02*
G03*
X325204Y153296I0J-4111D01*
G01*
Y155704D02*
G03*
X328111Y154500I2907J2907D01*
G01*
X319889D02*
G03*
X322796Y155704I0J4111D01*
G01*
Y153296D02*
G03*
X319889Y154500I-2907J-2907D01*
G01*
X260685Y125000D02*
G03*
X258786Y124214I0J-2685D01*
G01*
Y125786D02*
G03*
X260685Y125000I1899J1899D01*
G01*
X256101Y123101D02*
G03*
X256888Y125000I-1899J1899D01*
G01*
X258000Y123888D02*
G03*
X256101Y123101I0J-2685D01*
G01*
X255315Y125000D02*
G03*
X257214Y125786I0J2685D01*
G01*
Y124214D02*
G03*
X255315Y125000I-1899J-1899D01*
G01*
X139364Y136000D02*
G03*
X141935Y137065I0J3636D01*
G01*
Y134935D02*
G03*
X139364Y136000I-2571J-2571D01*
G01*
X146636D02*
G03*
X144065Y134935I0J-3636D01*
G01*
Y137065D02*
G03*
X146636Y136000I2571J2571D01*
G01*
X70398Y111843D02*
G03*
X67995Y110847I0J-3398D01*
G01*
Y112838D02*
G03*
X70398Y111843I2403J2403D01*
G01*
X63602D02*
G03*
X66005Y112838I0J3398D01*
G01*
Y110847D02*
G03*
X63602Y111843I-2403J-2403D01*
G01*
X226899Y121899D02*
G03*
X226112Y120000I1899J-1899D01*
G01*
X225000Y121112D02*
G03*
X226899Y121899I0J2685D01*
G01*
X223101D02*
G03*
X225000Y121112I1899J1899D01*
G01*
X223888Y120000D02*
G03*
X223101Y121899I-2685J0D01*
G01*
X84000Y353111D02*
G03*
X85204Y350204I4111J0D01*
G01*
X82796D02*
G03*
X84000Y353111I-2907J2907D01*
G01*
X102403Y114245D02*
G03*
X101408Y111843I2403J-2403D01*
G01*
X100000Y113250D02*
G03*
X102403Y114245I0J3398D01*
G01*
X96602Y111843D02*
G03*
X99005Y112838I0J3398D01*
G01*
Y110847D02*
G03*
X96602Y111843I-2403J-2403D01*
G01*
X431101Y180899D02*
G03*
X433000Y180112I1899J1899D01*
G01*
X431888Y179000D02*
G03*
X431101Y180899I-2685J0D01*
G01*
X434899Y177101D02*
G03*
X433000Y177888I-1899J-1899D01*
G01*
X434112Y179000D02*
G03*
X434899Y177101I2685J0D01*
G01*
X280101Y260899D02*
G03*
X282000Y260112I1899J1899D01*
G01*
X280888Y259000D02*
G03*
X280101Y260899I-2685J0D01*
G01*
X398899Y229899D02*
G03*
X398112Y228000I1899J-1899D01*
G01*
X397000Y229112D02*
G03*
X398899Y229899I0J2685D01*
G01*
X397000Y230685D02*
G03*
X397786Y228786I2685J0D01*
G01*
X396214D02*
G03*
X397000Y230685I-1899J1899D01*
G01*
X235899Y260899D02*
G03*
X235112Y259000I1899J-1899D01*
G01*
X234000Y260112D02*
G03*
X235899Y260899I0J2685D01*
G01*
X193907Y81907D02*
G03*
X192703Y79000I2907J-2907D01*
G01*
X191000Y80703D02*
G03*
X193907Y81907I0J4111D01*
G01*
X263136Y84000D02*
G03*
X260565Y82935I0J-3636D01*
G01*
Y85065D02*
G03*
X263136Y84000I2571J2571D01*
G01*
X256929Y86571D02*
G03*
X259500Y85506I2571J2571D01*
G01*
X257994Y84000D02*
G03*
X256929Y86571I-3636J0D01*
G01*
X450593Y370093D02*
G03*
X451797Y373000I-2907J2907D01*
G01*
X453500Y371297D02*
G03*
X450593Y370093I0J-4111D01*
G01*
X343929Y144071D02*
G03*
X346500Y143006I2571J2571D01*
G01*
X344994Y141500D02*
G03*
X343929Y144071I-3636J0D01*
G01*
X486000Y126000D02*
G03*
X487180Y123227I3846J0D01*
G01*
X484820D02*
G03*
X486000Y126000I-2666J2772D01*
G01*
X484297Y122000D02*
G03*
X480265Y131735I-13768J0D01*
G01*
X486797Y122000D02*
G03*
X484533Y127467I-7732J0D01*
G01*
X360093Y155093D02*
G03*
X361297Y158000I-2907J2907D01*
G01*
X363000Y156297D02*
G03*
X360093Y155093I0J-4111D01*
G01*
X365907Y160907D02*
G03*
X364703Y158000I2907J-2907D01*
G01*
X363000Y159703D02*
G03*
X365907Y160907I0J4111D01*
G01*
Y175093D02*
G03*
X363000Y176297I-2907J-2907D01*
G01*
X364703Y178000D02*
G03*
X365907Y175093I4111J0D01*
G01*
X399071Y287571D02*
G03*
X398006Y285000I2571J-2571D01*
G01*
X396500Y286506D02*
G03*
X399071Y287571I0J3636D01*
G01*
X296093Y54907D02*
G03*
X299000Y53703I2907J2907D01*
G01*
X297297Y52000D02*
G03*
X296093Y54907I-4111J0D01*
G01*
X28907Y110407D02*
G03*
X27703Y107500I2907J-2907D01*
G01*
X26000Y109203D02*
G03*
X28907Y110407I0J4111D01*
G01*
X31000Y134315D02*
G03*
X30214Y136214I-2685J0D01*
G01*
X31786D02*
G03*
X31000Y134315I1899J-1899D01*
G01*
X131899Y408899D02*
G03*
X131112Y407000I1899J-1899D01*
G01*
X130000Y408112D02*
G03*
X131899Y408899I0J2685D01*
G01*
X166101D02*
G03*
X168000Y408112I1899J1899D01*
G01*
X166888Y407000D02*
G03*
X166101Y408899I-2685J0D01*
G01*
X169899D02*
G03*
X169112Y407000I1899J-1899D01*
G01*
X168000Y408112D02*
G03*
X169899Y408899I0J2685D01*
G01*
X206101D02*
G03*
X208000Y408112I1899J1899D01*
G01*
X206888Y407000D02*
G03*
X206101Y408899I-2685J0D01*
G01*
X209899D02*
G03*
X209112Y407000I1899J-1899D01*
G01*
X208000Y408112D02*
G03*
X209899Y408899I0J2685D01*
G01*
X72899Y385101D02*
G03*
X71000Y385888I-1899J-1899D01*
G01*
X72112Y387000D02*
G03*
X72899Y385101I2685J0D01*
G01*
X233111Y321500D02*
G03*
X230204Y320296I0J-4111D01*
G01*
Y322704D02*
G03*
X233111Y321500I2907J2907D01*
G01*
X226093Y324407D02*
G03*
X229000Y323203I2907J2907D01*
G01*
X227297Y321500D02*
G03*
X226093Y324407I-4111J0D01*
G01*
X117315Y383000D02*
G03*
X119214Y383786I0J2685D01*
G01*
Y382214D02*
G03*
X117315Y383000I-1899J-1899D01*
G01*
X289000Y406111D02*
G03*
X290204Y403204I4111J0D01*
G01*
X287796D02*
G03*
X289000Y406111I-2907J2907D01*
G01*
X415866Y208866D02*
G03*
X416750Y211000I-2134J2134D01*
G01*
X418000Y209750D02*
G03*
X415866Y208866I0J-3018D01*
G01*
X409000Y240000D02*
G03*
X408120Y242112I-2975J0D01*
G01*
X409880D02*
G03*
X409000Y240000I2094J-2112D01*
G01*
X404745Y235745D02*
G03*
X407750Y243000I-7255J7255D01*
G01*
X409013Y240013D02*
G03*
X410250Y243000I-2987J2987D01*
G01*
X397000Y258982D02*
G03*
X396116Y261116I-3018J0D01*
G01*
X397884D02*
G03*
X397000Y258982I2134J-2134D01*
G01*
X259018Y267000D02*
G03*
X256884Y266116I0J-3018D01*
G01*
Y267884D02*
G03*
X259018Y267000I2134J2134D01*
G01*
X252982D02*
G03*
X255116Y267884I0J3018D01*
G01*
Y266116D02*
G03*
X252982Y267000I-2134J-2134D01*
G01*
X243866Y311134D02*
G03*
X246000Y310250I2134J2134D01*
G01*
X244750Y309000D02*
G03*
X243866Y311134I-3018J0D01*
G01*
X210134Y369866D02*
G03*
X208000Y370750I-2134J-2134D01*
G01*
X209250Y372000D02*
G03*
X210134Y369866I3018J0D01*
G01*
X30343Y111843D02*
X31000Y112500D01*
Y137000D01*
X259500Y84000D02*
X267000D01*
X299000Y52000D01*
X248500Y115500D02*
X258000Y125000D01*
X248500Y95000D02*
Y115500D01*
Y95000D02*
X259500Y84000D01*
X207000Y95000D02*
X248500D01*
X191000Y79000D02*
X207000Y95000D01*
X75000Y383000D02*
X120000D01*
X71000Y387000D02*
X75000Y383000D01*
X164300Y410700D02*
X168000Y407000D01*
X133700Y410700D02*
X164300D01*
X130000Y407000D02*
X133700Y410700D01*
X168000Y407000D02*
X171700Y410700D01*
X204300D01*
X208000Y407000D01*
X30343Y111843D02*
X67000D01*
X26000Y107500D02*
X30343Y111843D01*
X209000Y136000D02*
X225000Y120000D01*
X143000Y136000D02*
X209000D01*
X230000Y125000D02*
X258000D01*
X225000Y120000D02*
X230000Y125000D01*
X363000Y178000D02*
X367700Y173300D01*
X486000Y122000D02*
Y126000D01*
X433000Y179000D02*
X486000Y126000D01*
X258000Y125000D02*
X264500D01*
X294000Y154500D01*
X324000D02*
X333500D01*
X346500Y141500D01*
X100000Y111843D02*
X124157Y136000D01*
X143000D01*
X67000Y111843D02*
X100000D01*
X314000Y154500D02*
X324000D01*
X304000D02*
X314000D01*
X294000D02*
X304000D01*
X75000Y383000D02*
X84000Y374000D01*
Y349000D02*
Y374000D01*
X208000Y407000D02*
X221000Y420000D01*
X283000D01*
X289000Y414000D01*
Y402000D02*
Y414000D01*
X221000Y329500D02*
X229000Y321500D01*
X221000Y329500D02*
Y359000D01*
X208000Y372000D02*
X221000Y359000D01*
X396500Y285000D02*
X410000Y298500D01*
Y329500D01*
X453500Y373000D01*
X234000Y259000D02*
X242000Y267000D01*
X274000D01*
X282000Y259000D01*
X229000Y321500D02*
X233500D01*
X246000Y309000D01*
X333500Y154500D02*
X359500D01*
X363000Y158000D01*
X397000Y228000D02*
Y262000D01*
X363000Y158000D02*
X372000Y167000D01*
Y173300D01*
X367700D02*
X372000D01*
Y195000D01*
X382000Y205000D01*
X397000Y228000D02*
X409000Y240000D01*
Y243000D01*
X382000Y205000D02*
X412000D01*
X418000Y211000D01*
X412000Y200000D02*
Y205000D01*
Y200000D02*
X433000Y179000D01*
D13*
X269000Y392000D02*
D03*
Y402000D02*
D03*
X279000Y392000D02*
D03*
Y402000D02*
D03*
X289000Y392000D02*
D03*
Y402000D02*
D03*
X299000Y392000D02*
D03*
Y402000D02*
D03*
X309000Y392000D02*
D03*
Y402000D02*
D03*
X319000Y392000D02*
D03*
Y402000D02*
D03*
X329000Y392000D02*
D03*
X26000Y107500D02*
D03*
X449000Y52000D02*
D03*
X439000D02*
D03*
X429000D02*
D03*
X419000D02*
D03*
X409000D02*
D03*
X399000D02*
D03*
X389000D02*
D03*
X379000D02*
D03*
X369000D02*
D03*
X359000D02*
D03*
X349000D02*
D03*
X339000D02*
D03*
X329000D02*
D03*
X319000D02*
D03*
X309000D02*
D03*
X363000Y178000D02*
D03*
Y168000D02*
D03*
Y158000D02*
D03*
X393000Y188000D02*
D03*
Y178000D02*
D03*
Y168000D02*
D03*
Y158000D02*
D03*
X486000Y122000D02*
D03*
X453500Y223000D02*
D03*
Y233000D02*
D03*
Y243000D02*
D03*
Y253000D02*
D03*
Y263000D02*
D03*
Y273000D02*
D03*
Y283000D02*
D03*
Y293000D02*
D03*
Y303000D02*
D03*
Y313000D02*
D03*
Y323000D02*
D03*
Y333000D02*
D03*
Y343000D02*
D03*
Y353000D02*
D03*
Y363000D02*
D03*
Y373000D02*
D03*
Y383000D02*
D03*
Y393000D02*
D03*
X502500Y223000D02*
D03*
Y233000D02*
D03*
Y243000D02*
D03*
Y253000D02*
D03*
Y263000D02*
D03*
Y273000D02*
D03*
Y283000D02*
D03*
Y293000D02*
D03*
Y303000D02*
D03*
Y313000D02*
D03*
Y323000D02*
D03*
Y333000D02*
D03*
Y343000D02*
D03*
Y353000D02*
D03*
Y363000D02*
D03*
Y373000D02*
D03*
Y383000D02*
D03*
Y393000D02*
D03*
X161000Y79000D02*
D03*
Y69000D02*
D03*
Y59000D02*
D03*
Y49000D02*
D03*
X191000Y79000D02*
D03*
Y69000D02*
D03*
Y59000D02*
D03*
X43000Y253000D02*
D03*
D14*
X329000Y402000D02*
D03*
X299000Y52000D02*
D03*
X363000Y188000D02*
D03*
X191000Y49000D02*
D03*
D15*
X130000Y383000D02*
D03*
X120000D02*
D03*
X61000Y387000D02*
D03*
X71000D02*
D03*
X198000Y407000D02*
D03*
X208000D02*
D03*
X158000D02*
D03*
X168000D02*
D03*
X130000D02*
D03*
X120000D02*
D03*
X31000Y137000D02*
D03*
X21000D02*
D03*
X234000Y259000D02*
D03*
X224000D02*
D03*
X377000Y228000D02*
D03*
X387000D02*
D03*
X282000Y259000D02*
D03*
X272000D02*
D03*
X168000Y383000D02*
D03*
X158000D02*
D03*
X433000Y179000D02*
D03*
Y169000D02*
D03*
X436000Y131500D02*
D03*
Y121500D02*
D03*
X121000Y25500D02*
D03*
Y15500D02*
D03*
X160000Y212000D02*
D03*
X150000D02*
D03*
X145500Y294000D02*
D03*
Y304000D02*
D03*
X225000Y120000D02*
D03*
Y130000D02*
D03*
X258000Y125000D02*
D03*
Y135000D02*
D03*
D16*
X199000Y341500D02*
D03*
X84000Y319000D02*
D03*
D17*
X199000Y331500D02*
D03*
Y321500D02*
D03*
Y311500D02*
D03*
X229000Y341500D02*
D03*
Y331500D02*
D03*
Y321500D02*
D03*
Y311500D02*
D03*
X84000Y329000D02*
D03*
Y339000D02*
D03*
Y349000D02*
D03*
X54000Y319000D02*
D03*
Y329000D02*
D03*
Y339000D02*
D03*
Y349000D02*
D03*
X324000Y184500D02*
D03*
X314000D02*
D03*
X304000D02*
D03*
X294000D02*
D03*
X324000Y154500D02*
D03*
X314000D02*
D03*
X304000D02*
D03*
X278500Y212000D02*
D03*
X268500D02*
D03*
X258500D02*
D03*
X248500D02*
D03*
X238500D02*
D03*
X228500D02*
D03*
X218500D02*
D03*
X198500D02*
D03*
X208500D02*
D03*
D18*
X26000Y97500D02*
D03*
X486000Y112000D02*
D03*
X453500Y403000D02*
D03*
X502500D02*
D03*
X43000Y263000D02*
D03*
D19*
X396500Y315000D02*
D03*
Y285000D02*
D03*
X366500Y315000D02*
D03*
Y285000D02*
D03*
X336500Y315000D02*
D03*
Y285000D02*
D03*
X306500Y315000D02*
D03*
Y285000D02*
D03*
X275500Y315000D02*
D03*
Y285000D02*
D03*
X346500Y111500D02*
D03*
Y141500D02*
D03*
X221000Y382000D02*
D03*
X191000D02*
D03*
X259500Y84000D02*
D03*
Y54000D02*
D03*
X123000Y81000D02*
D03*
Y51000D02*
D03*
X227000Y54000D02*
D03*
Y84000D02*
D03*
X123000Y212000D02*
D03*
X93000D02*
D03*
X112000Y256500D02*
D03*
Y286500D02*
D03*
X111500Y315000D02*
D03*
Y345000D02*
D03*
X207000Y117000D02*
D03*
X177000D02*
D03*
X18000Y293500D02*
D03*
Y323500D02*
D03*
Y356000D02*
D03*
Y386000D02*
D03*
X109000Y136000D02*
D03*
Y166000D02*
D03*
X143000Y136000D02*
D03*
Y166000D02*
D03*
D20*
X401500Y340000D02*
D03*
X391500D02*
D03*
X371500D02*
D03*
X361500D02*
D03*
X341500D02*
D03*
X331500D02*
D03*
X281500D02*
D03*
X271500D02*
D03*
X311500D02*
D03*
X301500D02*
D03*
D21*
X214000Y259000D02*
D03*
X397000Y228000D02*
D03*
D22*
X32500Y197500D02*
D03*
Y187500D02*
D03*
D23*
Y177500D02*
D03*
D24*
X100000Y92157D02*
D03*
X71000Y166843D02*
D03*
X394000Y129343D02*
D03*
X67000Y92157D02*
D03*
D25*
X100000Y111843D02*
D03*
X71000Y147157D02*
D03*
X394000Y109657D02*
D03*
X67000Y111843D02*
D03*
D26*
X258000Y145000D02*
D03*
D27*
X294000Y154500D02*
D03*
X288500Y212000D02*
D03*
D28*
X537000Y432000D02*
D03*
Y13000D02*
D03*
X13000D02*
D03*
Y432000D02*
D03*
D29*
X160000Y100000D02*
D03*
X123000Y122000D02*
D03*
X135000Y43000D02*
D03*
X99000Y327000D02*
D03*
X256000Y315000D02*
D03*
X208000Y372000D02*
D03*
X250000Y411000D02*
D03*
X466000Y352000D02*
D03*
X491000Y292000D02*
D03*
X483000Y284000D02*
D03*
X524000Y322000D02*
D03*
X470000Y269000D02*
D03*
X476000Y254000D02*
D03*
X481000Y245000D02*
D03*
X524000Y195000D02*
D03*
X486000Y226500D02*
D03*
X246000Y309000D02*
D03*
X256000Y267000D02*
D03*
X240000Y145000D02*
D03*
X221000Y296000D02*
D03*
X174000Y261900D02*
D03*
X202000Y358000D02*
D03*
X530000Y187000D02*
D03*
X236000Y279000D02*
D03*
X405000Y403000D02*
D03*
X303000Y416000D02*
D03*
X397000Y262000D02*
D03*
X409000Y243000D02*
D03*
X418000Y211000D02*
D03*
X472000Y331000D02*
D03*
X338000Y174000D02*
D03*
X471000Y403000D02*
D03*
X189000Y331000D02*
D03*
X367000Y113000D02*
D03*
X269000Y233000D02*
D03*
X96000Y297000D02*
D03*
M02*
