%FSLAX25Y25*%
%MOIN*%
G70*
G01*
G75*
G04 Layer_Physical_Order=2*
G04 Layer_Color=16711680*
%ADD10C,0.02000*%
%ADD11C,0.02500*%
%ADD12C,0.01000*%
%ADD13C,0.05906*%
%ADD14R,0.05906X0.05906*%
%ADD15R,0.04724X0.04724*%
%ADD16C,0.04724*%
%ADD17C,0.05512*%
%ADD18C,0.05315*%
%ADD19R,0.05315X0.05315*%
%ADD20R,0.05906X0.05906*%
%ADD21C,0.06299*%
%ADD22R,0.06299X0.06299*%
%ADD23C,0.06299*%
%ADD24R,0.05906X0.05906*%
%ADD25C,0.05906*%
%ADD26R,0.05906X0.05906*%
G04:AMPARAMS|DCode=27|XSize=160mil|YSize=160mil|CornerRadius=40mil|HoleSize=0mil|Usage=FLASHONLY|Rotation=0.000|XOffset=0mil|YOffset=0mil|HoleType=Round|Shape=RoundedRectangle|*
%AMROUNDEDRECTD27*
21,1,0.16000,0.08000,0,0,0.0*
21,1,0.08000,0.16000,0,0,0.0*
1,1,0.08000,0.04000,-0.04000*
1,1,0.08000,-0.04000,-0.04000*
1,1,0.08000,-0.04000,0.04000*
1,1,0.08000,0.04000,0.04000*
%
%ADD27ROUNDEDRECTD27*%
%ADD28C,0.05000*%
G36*
X383787Y137687D02*
X383856Y136980D01*
X384300Y135518D01*
X385020Y134170D01*
X385160Y134000D01*
X385020Y133830D01*
X384300Y132482D01*
X383856Y131020D01*
X383707Y129500D01*
X383856Y127980D01*
X384300Y126518D01*
X385020Y125170D01*
X385570Y124500D01*
X385020Y123830D01*
X384300Y122482D01*
X383856Y121020D01*
X383707Y119500D01*
X383856Y117980D01*
X384300Y116518D01*
X384421Y116290D01*
X384104Y115903D01*
X382943Y116256D01*
X381500Y116398D01*
X380057Y116256D01*
X378669Y115835D01*
X377390Y115151D01*
X377241Y115029D01*
X367657D01*
X366481Y114913D01*
X365350Y114570D01*
X364308Y114013D01*
X363394Y113263D01*
X359631Y109500D01*
X352842D01*
Y102711D01*
X343276Y93145D01*
X207116D01*
X205940Y93029D01*
X204809Y92686D01*
X203767Y92129D01*
X202853Y91379D01*
X198406Y86933D01*
X197441Y86838D01*
X195942Y86383D01*
X194560Y85645D01*
X193349Y84651D01*
X192356Y83440D01*
X191617Y82058D01*
X191162Y80559D01*
X191009Y79000D01*
X191162Y77441D01*
X191235Y77202D01*
X190116Y76863D01*
X188813Y76166D01*
X187671Y75229D01*
X187063Y74488D01*
X186563Y74463D01*
X178529Y82497D01*
Y104839D01*
X178991Y105030D01*
X185237Y98784D01*
Y98784D01*
X185237Y98784D01*
X185237Y98784D01*
Y98784D01*
X186151Y98034D01*
X187193Y97477D01*
X187193Y97477D01*
X187193Y97477D01*
D01*
X187193Y97477D01*
X187193Y97477D01*
X188324Y97134D01*
X189500Y97018D01*
X292347D01*
X293523Y97134D01*
X294654Y97477D01*
X294654Y97477D01*
X294654Y97477D01*
X295697Y98034D01*
X296610Y98784D01*
X296610Y98784D01*
X296610Y98784D01*
X343053Y145227D01*
X356729D01*
X356897Y144756D01*
X355989Y144011D01*
X355020Y142830D01*
X354300Y141482D01*
X353856Y140020D01*
X353707Y138500D01*
X353856Y136980D01*
X354300Y135518D01*
X355020Y134170D01*
X355989Y132989D01*
X357170Y132020D01*
X358203Y131468D01*
X358219Y131394D01*
X357841Y130481D01*
X357778Y130000D01*
X365223D01*
X365159Y130481D01*
X364781Y131394D01*
X364797Y131468D01*
X365830Y132020D01*
X367011Y132989D01*
X367980Y134170D01*
X368700Y135518D01*
X369144Y136980D01*
X369293Y138500D01*
X369144Y140020D01*
X368700Y141482D01*
X367980Y142830D01*
X367011Y144011D01*
X366103Y144756D01*
X366271Y145227D01*
X376247D01*
X383787Y137687D01*
D02*
G37*
G36*
X430965Y360582D02*
X430957Y360500D01*
Y352500D01*
X431130Y350736D01*
X431645Y349039D01*
X432481Y347476D01*
X433605Y346105D01*
X434976Y344981D01*
X436539Y344145D01*
X438236Y343630D01*
X440000Y343456D01*
X448000D01*
X448082Y343464D01*
X448453Y343129D01*
Y24371D01*
X448082Y24035D01*
X448000Y24044D01*
X440000D01*
X438236Y23870D01*
X436539Y23355D01*
X434976Y22519D01*
X433605Y21395D01*
X432481Y20024D01*
X431645Y18461D01*
X431130Y16764D01*
X430957Y15000D01*
Y7000D01*
X431063Y5918D01*
X430727Y5548D01*
X164273D01*
X163937Y5918D01*
X164044Y7000D01*
Y15000D01*
X163870Y16764D01*
X163355Y18461D01*
X162519Y20024D01*
X161395Y21395D01*
X160024Y22519D01*
X158461Y23355D01*
X156764Y23870D01*
X155000Y24044D01*
X147000D01*
X145918Y23937D01*
X145547Y24273D01*
Y182500D01*
Y343227D01*
X145918Y343563D01*
X147000Y343456D01*
X155000D01*
X156764Y343630D01*
X158461Y344145D01*
X160024Y344981D01*
X161395Y346105D01*
X162519Y347476D01*
X163355Y349039D01*
X163870Y350736D01*
X164044Y352500D01*
Y360500D01*
X164035Y360582D01*
X164371Y360952D01*
X209557D01*
X209679Y360468D01*
X209390Y360313D01*
X208476Y359563D01*
X194737Y345824D01*
X193987Y344910D01*
X193430Y343868D01*
X193087Y342737D01*
X192971Y341561D01*
Y335000D01*
X193087Y333824D01*
X193430Y332693D01*
X193987Y331650D01*
X194737Y330737D01*
X197676Y327798D01*
Y327798D01*
X197676Y327798D01*
X197676Y327798D01*
Y327798D01*
X198023Y327513D01*
X197698Y326903D01*
X197340Y325725D01*
X197220Y324500D01*
X197274Y323944D01*
X197220Y323388D01*
X197340Y322163D01*
X197698Y320985D01*
X198278Y319899D01*
X199059Y318947D01*
X200011Y318166D01*
X201097Y317586D01*
X201723Y317396D01*
X203787Y315331D01*
X203566Y314882D01*
X203500Y314891D01*
X202622Y314776D01*
X201804Y314437D01*
X201102Y313898D01*
X200563Y313196D01*
X200224Y312378D01*
X200136Y311706D01*
X199691Y311478D01*
X198784Y311963D01*
X197370Y312391D01*
X195900Y312536D01*
X194430Y312391D01*
X193016Y311963D01*
X191713Y311266D01*
X190571Y310329D01*
X189634Y309187D01*
X188937Y307884D01*
X188508Y306470D01*
X188364Y305000D01*
X188508Y303530D01*
X188937Y302116D01*
X189634Y300813D01*
X190571Y299671D01*
X191713Y298734D01*
X193016Y298037D01*
X194430Y297608D01*
X195900Y297464D01*
X197370Y297608D01*
X198784Y298037D01*
X199691Y298522D01*
X200136Y298294D01*
X200224Y297622D01*
X200339Y297345D01*
X200061Y296929D01*
X183900D01*
X182724Y296813D01*
X181593Y296470D01*
X180551Y295913D01*
X179637Y295163D01*
X152237Y267763D01*
X151487Y266849D01*
X150930Y265807D01*
X150587Y264676D01*
X150471Y263500D01*
Y69900D01*
X150587Y68724D01*
X150930Y67593D01*
X151487Y66550D01*
X152237Y65637D01*
X165737Y52137D01*
X166650Y51387D01*
X167693Y50830D01*
X168824Y50487D01*
X170000Y50371D01*
X196638D01*
Y43138D01*
X202836D01*
X211937Y34037D01*
X211937Y34037D01*
X212389Y33666D01*
X212292Y33175D01*
X211169Y32835D01*
X209890Y32151D01*
X208769Y31231D01*
X207849Y30110D01*
X207165Y28831D01*
X206744Y27443D01*
X206602Y26000D01*
X206744Y24557D01*
X207165Y23169D01*
X207849Y21890D01*
X208769Y20769D01*
X209890Y19849D01*
X211169Y19165D01*
X212557Y18744D01*
X214000Y18602D01*
X215443Y18744D01*
X216831Y19165D01*
X218110Y19849D01*
X219231Y20769D01*
X219526Y21129D01*
X220024Y21178D01*
X220511Y20778D01*
X221597Y20198D01*
X222775Y19840D01*
X224000Y19720D01*
X224556Y19774D01*
X225112Y19720D01*
X226337Y19840D01*
X227516Y20198D01*
X228601Y20778D01*
X229553Y21559D01*
X230334Y22511D01*
X230914Y23597D01*
X231104Y24223D01*
X232701Y25820D01*
X254620D01*
X254744Y24557D01*
X255165Y23169D01*
X255849Y21890D01*
X256769Y20769D01*
X257890Y19849D01*
X259169Y19165D01*
X260557Y18744D01*
X262000Y18602D01*
X263443Y18744D01*
X264831Y19165D01*
X266110Y19849D01*
X267231Y20769D01*
X267391Y20785D01*
X267399Y20778D01*
X268484Y20198D01*
X269663Y19840D01*
X270888Y19720D01*
X271444Y19774D01*
X272000Y19720D01*
X273225Y19840D01*
X274403Y20198D01*
X275489Y20778D01*
X276441Y21559D01*
X277222Y22511D01*
X277802Y23597D01*
X278160Y24775D01*
X278280Y26000D01*
X278225Y26556D01*
X278280Y27112D01*
X278160Y28337D01*
X277802Y29515D01*
X277222Y30601D01*
X276441Y31553D01*
X276140Y31800D01*
X276308Y32271D01*
X295703D01*
X296605Y31368D01*
X296581Y30869D01*
X296059Y30441D01*
X295278Y29489D01*
X294698Y28403D01*
X294340Y27225D01*
X294220Y26000D01*
X294274Y25444D01*
X294220Y24888D01*
X294340Y23663D01*
X294698Y22485D01*
X295278Y21399D01*
X296059Y20447D01*
X297011Y19666D01*
X298097Y19086D01*
X298723Y18896D01*
X305059Y12559D01*
X306011Y11778D01*
X306591Y11468D01*
X307097Y11198D01*
X308275Y10840D01*
X309500Y10720D01*
X347500D01*
X348725Y10840D01*
X349546Y11089D01*
X349903Y11198D01*
X350989Y11778D01*
X351941Y12559D01*
X367497Y28115D01*
X367725Y28138D01*
X368903Y28495D01*
X369989Y29075D01*
X370941Y29857D01*
X371395Y29901D01*
X372060Y29355D01*
X373442Y28617D01*
X374941Y28162D01*
X376500Y28009D01*
X378059Y28162D01*
X379558Y28617D01*
X380940Y29355D01*
X382151Y30349D01*
X383144Y31560D01*
X383883Y32942D01*
X384338Y34441D01*
X384491Y36000D01*
X384338Y37559D01*
X383883Y39058D01*
X383758Y39291D01*
X384016Y39720D01*
X386629D01*
X386807Y39574D01*
X387893Y38994D01*
X389071Y38636D01*
X390296Y38516D01*
X391521Y38636D01*
X392699Y38994D01*
X393785Y39574D01*
X394737Y40355D01*
X395280Y41017D01*
X395941Y41559D01*
X396722Y42511D01*
X397302Y43597D01*
X397660Y44775D01*
X397780Y46000D01*
X397660Y47225D01*
X397532Y47646D01*
X397830Y48047D01*
X399453D01*
Y63953D01*
X397529D01*
Y70657D01*
X397529Y70657D01*
X397413Y71834D01*
X397070Y72965D01*
X396513Y74007D01*
X395763Y74921D01*
X384263Y86421D01*
X383349Y87170D01*
X382307Y87727D01*
X381176Y88071D01*
X380000Y88186D01*
X366066D01*
X365875Y88648D01*
X367397Y90171D01*
X388500D01*
X389676Y90287D01*
X390807Y90630D01*
X391849Y91187D01*
X392763Y91937D01*
X401563Y100737D01*
X401563Y100737D01*
X401563Y100737D01*
X402313Y101651D01*
X402870Y102693D01*
X402870Y102693D01*
X402870Y102693D01*
X403213Y103824D01*
X403329Y105000D01*
X403329Y105000D01*
X403329Y105000D01*
Y105000D01*
Y150000D01*
X403329Y150000D01*
X403329Y150000D01*
Y150000D01*
X403329D01*
X403329Y150000D01*
X403213Y151176D01*
X402870Y152307D01*
X402313Y153349D01*
X401563Y154263D01*
X395863Y159963D01*
X394950Y160713D01*
X393907Y161270D01*
X392999Y161546D01*
X392974Y162045D01*
X393394Y162219D01*
X394179Y162821D01*
X394781Y163606D01*
X395159Y164520D01*
X395222Y165000D01*
X391500D01*
Y165973D01*
X391527Y166000D01*
X395222D01*
X395159Y166481D01*
X394781Y167394D01*
X394797Y167468D01*
X395830Y168020D01*
X397011Y168989D01*
X397980Y170170D01*
X398700Y171518D01*
X399144Y172980D01*
X399293Y174500D01*
X399144Y176020D01*
X398700Y177482D01*
X397980Y178830D01*
X397840Y179000D01*
X397980Y179170D01*
X398700Y180518D01*
X399144Y181980D01*
X399293Y183500D01*
X399144Y185020D01*
X398700Y186482D01*
X397980Y187830D01*
X397840Y188000D01*
X397980Y188170D01*
X398700Y189518D01*
X399144Y190980D01*
X399293Y192500D01*
X399144Y194020D01*
X398700Y195482D01*
X398561Y195742D01*
X398818Y196171D01*
X400200D01*
X401376Y196287D01*
X402507Y196630D01*
X403549Y197187D01*
X404463Y197937D01*
X409462Y202936D01*
X409560Y202855D01*
X410942Y202117D01*
X412441Y201662D01*
X414000Y201509D01*
X415559Y201662D01*
X417058Y202117D01*
X418440Y202855D01*
X419651Y203849D01*
X419687Y203893D01*
X419807Y203930D01*
X419807Y203930D01*
X419807Y203930D01*
X420850Y204487D01*
X421763Y205237D01*
X421763Y205237D01*
X421763Y205237D01*
X424263Y207737D01*
X425013Y208650D01*
X425570Y209693D01*
X425913Y210824D01*
X426029Y212000D01*
Y225500D01*
X425913Y226676D01*
X425570Y227807D01*
X425013Y228850D01*
X424263Y229763D01*
X423350Y230513D01*
X422307Y231070D01*
X421176Y231413D01*
X420000Y231529D01*
X411597D01*
X404172Y238955D01*
X404204Y239454D01*
X404398Y239602D01*
X404937Y240304D01*
X405276Y241122D01*
X405325Y241500D01*
X402000D01*
Y242500D01*
X405325D01*
X405276Y242878D01*
X404937Y243696D01*
X404398Y244398D01*
X404238Y244521D01*
X404327Y245013D01*
X404831Y245165D01*
X406110Y245849D01*
X407231Y246769D01*
X408151Y247890D01*
X408835Y249169D01*
X409256Y250557D01*
X409274Y250748D01*
X412263Y253737D01*
X413013Y254650D01*
X413570Y255693D01*
X413913Y256824D01*
X414029Y258000D01*
Y340000D01*
X414029Y340000D01*
X414029Y340000D01*
Y340000D01*
X414029D01*
X414029Y340000D01*
X413913Y341176D01*
X413570Y342307D01*
X413013Y343350D01*
X412263Y344263D01*
X396963Y359563D01*
X396049Y360313D01*
X395760Y360468D01*
X395882Y360952D01*
X430629D01*
X430965Y360582D01*
D02*
G37*
%LPC*%
G36*
X361000Y123222D02*
X360520Y123159D01*
X359606Y122781D01*
X358821Y122179D01*
X358219Y121394D01*
X357841Y120481D01*
X357778Y120000D01*
X361000D01*
Y123222D01*
D02*
G37*
G36*
X365223Y119000D02*
X362000D01*
Y115778D01*
X362480Y115841D01*
X363394Y116219D01*
X364179Y116821D01*
X364781Y117606D01*
X365159Y118519D01*
X365223Y119000D01*
D02*
G37*
G36*
X361000D02*
X357778D01*
X357841Y118519D01*
X358219Y117606D01*
X358821Y116821D01*
X359606Y116219D01*
X360520Y115841D01*
X361000Y115778D01*
Y119000D01*
D02*
G37*
G36*
X365223Y129000D02*
X362000D01*
Y125777D01*
X362480Y125841D01*
X363394Y126219D01*
X364179Y126821D01*
X364781Y127606D01*
X365159Y128519D01*
X365223Y129000D01*
D02*
G37*
G36*
X361000D02*
X357778D01*
X357841Y128519D01*
X358219Y127606D01*
X358821Y126821D01*
X359606Y126219D01*
X360520Y125841D01*
X361000Y125777D01*
Y129000D01*
D02*
G37*
G36*
X362000Y123222D02*
Y120000D01*
X365223D01*
X365159Y120481D01*
X364781Y121394D01*
X364179Y122179D01*
X363394Y122781D01*
X362480Y123159D01*
X362000Y123222D01*
D02*
G37*
%LPD*%
D10*
X344166Y311166D02*
G03*
X345547Y314500I-3334J3334D01*
G01*
X347500Y312547D02*
G03*
X344166Y311166I0J-4714D01*
G01*
X370000Y330500D02*
G03*
X369228Y325409I3069J-3069D01*
G01*
X368080Y328580D02*
G03*
X367458Y324478I2473J-2473D01*
G01*
X367500Y328000D02*
G03*
X368526Y326162I2160J0D01*
G01*
X366474D02*
G03*
X367500Y328000I-1134J1838D01*
G01*
X374166Y311166D02*
G03*
X375547Y314500I-3334J3334D01*
G01*
X377500Y312547D02*
G03*
X374166Y311166I0J-4714D01*
G01*
X341786Y36000D02*
G03*
X345119Y37381I0J4714D01*
G01*
Y34619D02*
G03*
X341786Y36000I-3334J-3334D01*
G01*
X404325Y254325D02*
G03*
X403362Y252000I2325J-2325D01*
G01*
X402000Y253362D02*
G03*
X404325Y254325I0J3289D01*
G01*
X211175Y309175D02*
G03*
X212138Y311500I-2325J2325D01*
G01*
X213500Y310138D02*
G03*
X211175Y309175I0J-3289D01*
G01*
X328789Y249500D02*
G03*
X326463Y248537I0J-3289D01*
G01*
Y250463D02*
G03*
X328789Y249500I2325J2325D01*
G01*
X402000Y309786D02*
G03*
X400619Y313119I-4714J0D01*
G01*
X403381D02*
G03*
X402000Y309786I3334J-3334D01*
G01*
X230334Y201167D02*
G03*
X227000Y202547I-3334J-3334D01*
G01*
X228953Y204500D02*
G03*
X230334Y201166I4714J0D01*
G01*
Y317834D02*
G03*
X228953Y314500I3334J-3334D01*
G01*
X227000Y316453D02*
G03*
X230334Y317834I0J4714D01*
G01*
X362002Y264998D02*
G03*
X365000Y263756I2998J2998D01*
G01*
X363244Y262000D02*
G03*
X362002Y264998I-4239J0D01*
G01*
X391500Y60714D02*
G03*
X392881Y57381I4714J0D01*
G01*
X390119D02*
G03*
X391500Y60714I-3334J3334D01*
G01*
X240166Y147834D02*
G03*
X243500Y146453I3334J3334D01*
G01*
X241547Y144500D02*
G03*
X240166Y147834I-4714J0D01*
G01*
X240166Y167833D02*
G03*
X243500Y166453I3334J3334D01*
G01*
X241547Y164500D02*
G03*
X240166Y167834I-4714J0D01*
G01*
X246834Y191166D02*
G03*
X243500Y192547I-3334J-3334D01*
G01*
X245453Y194500D02*
G03*
X246834Y191166I4714J0D01*
G01*
X248214Y324500D02*
G03*
X244881Y323119I0J-4714D01*
G01*
Y325881D02*
G03*
X248214Y324500I3334J3334D01*
G01*
X281750Y142000D02*
G03*
X291119Y145881I0J13250D01*
G01*
X286578Y142000D02*
G03*
X292533Y144467I0J8422D01*
G01*
X295834Y191166D02*
G03*
X292500Y192547I-3334J-3334D01*
G01*
X294453Y194500D02*
G03*
X295834Y191166I4714J0D01*
G01*
X295834Y201167D02*
G03*
X292500Y202547I-3334J-3334D01*
G01*
X294453Y204500D02*
G03*
X295834Y201166I4714J0D01*
G01*
X289166Y217834D02*
G03*
X292500Y216453I3334J3334D01*
G01*
X290547Y214500D02*
G03*
X289166Y217834I-4714J0D01*
G01*
X297214Y254500D02*
G03*
X293881Y253119I0J-4714D01*
G01*
Y255881D02*
G03*
X297214Y254500I3334J3334D01*
G01*
X259675Y52825D02*
G03*
X262000Y51862I2325J2325D01*
G01*
X260638Y50500D02*
G03*
X259675Y52825I-3289J0D01*
G01*
X323289Y50500D02*
G03*
X320963Y49537I0J-3289D01*
G01*
Y51463D02*
G03*
X323289Y50500I2325J2325D01*
G01*
X417500Y209500D02*
G03*
X415662Y208474I0J-2160D01*
G01*
Y210526D02*
G03*
X417500Y209500I1838J1134D01*
G01*
X410666Y216166D02*
G03*
X412047Y219500I-3334J3334D01*
G01*
X414000Y217547D02*
G03*
X410666Y216166I0J-4714D01*
G01*
X337670Y276330D02*
G03*
X334000Y277850I-3670J-3670D01*
G01*
X336150Y280000D02*
G03*
X337670Y276330I5190J0D01*
G01*
X336999Y228343D02*
G03*
X339828Y229515I0J4002D01*
G01*
Y227171D02*
G03*
X336999Y228343I-2829J-2829D01*
G01*
X378211Y109000D02*
G03*
X380537Y109963I0J3289D01*
G01*
Y108037D02*
G03*
X378211Y109000I-2325J-2325D01*
G01*
X184500Y182214D02*
G03*
X185881Y178881I4714J0D01*
G01*
X183119D02*
G03*
X184500Y182214I-3334J3334D01*
G01*
X211166Y170834D02*
G03*
X214500Y169453I3334J3334D01*
G01*
X212547Y167500D02*
G03*
X211166Y170834I-4714J0D01*
G01*
X217834Y154166D02*
G03*
X214500Y155547I-3334J-3334D01*
G01*
X216453Y157500D02*
G03*
X217834Y154166I4714J0D01*
G01*
X204000Y188211D02*
G03*
X203037Y190537I-3289J0D01*
G01*
X204963D02*
G03*
X204000Y188211I2325J-2325D01*
G01*
X307825Y156325D02*
G03*
X306862Y154000I2325J-2325D01*
G01*
X305500Y155362D02*
G03*
X307825Y156325I0J3289D01*
G01*
X315500Y150711D02*
G03*
X314537Y153037I-3289J0D01*
G01*
X316463D02*
G03*
X315500Y150711I2325J-2325D01*
G01*
X308175Y28325D02*
G03*
X310500Y27362I2325J2325D01*
G01*
X309138Y26000D02*
G03*
X308175Y28325I-3289J0D01*
G01*
X312825D02*
G03*
X311862Y26000I2325J-2325D01*
G01*
X310500Y27362D02*
G03*
X312825Y28325I0J3289D01*
G01*
X345002Y242657D02*
G03*
X342172Y241485I0J-4002D01*
G01*
Y243829D02*
G03*
X345002Y242657I2829J2829D01*
G01*
X332439Y60039D02*
G03*
X333500Y62600I-2561J2561D01*
G01*
X335000Y61100D02*
G03*
X332439Y60039I0J-3621D01*
G01*
X287661Y219339D02*
G03*
X285100Y220400I-2561J-2561D01*
G01*
X286600Y221900D02*
G03*
X287661Y219339I3621J0D01*
G01*
X277379Y180500D02*
G03*
X279939Y181561I0J3621D01*
G01*
Y179439D02*
G03*
X277379Y180500I-2561J-2561D01*
G01*
X323039Y244061D02*
G03*
X325600Y243000I2561J2561D01*
G01*
X324100Y241500D02*
G03*
X323039Y244061I-3621J0D01*
G01*
X325629Y198350D02*
G03*
X328190Y199411I0J3621D01*
G01*
Y197290D02*
G03*
X325629Y198350I-2561J-2561D01*
G01*
X330000Y236000D02*
G03*
X331162Y240574I-3263J3263D01*
G01*
X332377Y238377D02*
G03*
X333079Y241142I-1973J1973D01*
G01*
X259579Y332800D02*
G03*
X262139Y333861I0J3621D01*
G01*
Y331739D02*
G03*
X259579Y332800I-2561J-2561D01*
G01*
X261021Y142000D02*
G03*
X258461Y140939I0J-3621D01*
G01*
Y143061D02*
G03*
X261021Y142000I2561J2561D01*
G01*
X304621Y63600D02*
G03*
X302061Y62539I0J-3621D01*
G01*
Y64661D02*
G03*
X304621Y63600I2561J2561D01*
G01*
X351361Y158061D02*
G03*
X357060Y155700I5699J5699D01*
G01*
X212854Y338900D02*
G03*
X207061Y336500I0J-8194D01*
G01*
X313000Y228500D02*
X326900D01*
X327057Y228343D01*
X341000D01*
X252000Y50500D02*
X259700Y42800D01*
X349700D01*
X356500Y36000D01*
X310500Y26000D02*
X320500Y36000D01*
X346500D01*
X204000Y50500D02*
X216200Y38300D01*
X298200D01*
X310500Y26000D01*
X360500Y82157D02*
X380000D01*
X391500Y70657D01*
Y56000D02*
Y70657D01*
X367700Y267800D02*
X373500Y262000D01*
X365200Y267800D02*
X367700D01*
X353000Y280000D02*
X365200Y267800D01*
X353150Y273850D02*
X365000Y262000D01*
X340150Y273850D02*
X353150D01*
X334000Y280000D02*
X340150Y273850D01*
X334157Y249500D02*
X341000Y242657D01*
X325500Y249500D02*
X334157D01*
X200800Y166300D02*
X209600Y157500D01*
X214500D01*
X194500Y172641D02*
X209359D01*
X189359Y167500D02*
X194500Y172641D01*
X184500Y167500D02*
X189359D01*
X204000Y178000D02*
Y191500D01*
X341000Y228343D02*
X353643Y215700D01*
X391200D01*
X397000Y221500D01*
X305500Y154000D02*
X317000Y165500D01*
X335500D01*
X402000Y259700D02*
Y314500D01*
X384957Y242657D02*
X402000Y259700D01*
X341000Y242657D02*
X384957D01*
X206000Y337561D02*
X207339Y338900D01*
X313100D01*
X327500Y324500D01*
X402000Y252000D02*
X408000Y258000D01*
Y340000D01*
X392700Y355300D02*
X408000Y340000D01*
X212739Y355300D02*
X392700D01*
X199000Y341561D02*
X212739Y355300D01*
X199000Y335000D02*
Y341561D01*
Y335000D02*
X201939Y332061D01*
X229602D01*
X233000Y328663D01*
Y318500D02*
Y328663D01*
X231000Y318500D02*
X233000D01*
X227000Y314500D02*
X231000Y318500D01*
X243500Y324500D02*
X268000D01*
X277953Y334453D01*
X302453D01*
X308662Y328244D01*
Y313638D02*
Y328244D01*
Y313638D02*
X314600Y307700D01*
X340700D01*
X347500Y314500D01*
X367500Y324500D02*
Y328000D01*
X370000Y330500D01*
X383500D01*
Y310000D02*
Y330500D01*
X373200Y299700D02*
X383500Y310000D01*
X307300Y299700D02*
X373200D01*
X292500Y314500D02*
X307300Y299700D01*
X378744Y151256D02*
X391500Y138500D01*
X340556Y151256D02*
X378744D01*
X292347Y103047D02*
X340556Y151256D01*
X189500Y103047D02*
X292347D01*
X178547Y114000D02*
X189500Y103047D01*
X178547Y114000D02*
Y151547D01*
X184500Y157500D01*
X408000Y213500D02*
X414000Y219500D01*
X408000Y210000D02*
Y213500D01*
X400200Y202200D02*
X408000Y210000D01*
X380200Y202200D02*
X400200D01*
X361500Y183500D02*
X380200Y202200D01*
X345774Y87116D02*
X360500Y101843D01*
X207116Y87116D02*
X345774D01*
X199000Y79000D02*
X207116Y87116D01*
X193000Y69900D02*
X320003D01*
X326056Y75953D01*
X344653D01*
X364900Y96200D01*
X388500D01*
X397300Y105000D01*
Y150000D01*
X391600Y155700D02*
X397300Y150000D01*
X351600Y155700D02*
X391600D01*
X350300Y157000D02*
X351600Y155700D01*
X350547Y71953D02*
X356500Y66000D01*
X330056Y71953D02*
X350547D01*
X321703Y63600D02*
X330056Y71953D01*
X301000Y63600D02*
X321703D01*
X265800Y192200D02*
X281000D01*
X243500Y214500D02*
X265800Y192200D01*
X290000Y142000D02*
X292500Y144500D01*
X257400Y142000D02*
X290000D01*
X240000Y332800D02*
X263200D01*
X237500Y330300D02*
X240000Y332800D01*
X237500Y305000D02*
Y330300D01*
X227000Y294500D02*
X237500Y305000D01*
X219300Y296800D02*
X227000Y304500D01*
X219300Y295000D02*
Y296800D01*
X215200Y290900D02*
X219300Y295000D01*
X183900Y290900D02*
X215200D01*
X156500Y263500D02*
X183900Y290900D01*
X156500Y69900D02*
Y263500D01*
Y69900D02*
X170000Y56400D01*
X256100D01*
X262000Y50500D01*
X331000D02*
X346500Y66000D01*
X320000Y50500D02*
X331000D01*
X227000Y224500D02*
X237500Y214000D01*
Y170500D02*
Y214000D01*
Y170500D02*
X243500Y164500D01*
X292500Y194500D02*
X296500Y190500D01*
X332500D01*
X335342Y193342D01*
Y203458D01*
X332500Y206300D02*
X335342Y203458D01*
X323099Y206300D02*
X332500D01*
X319150Y202350D02*
X323099Y206300D01*
X306850Y202350D02*
X319150D01*
X306850D02*
Y232850D01*
X310000Y236000D01*
X330000D01*
X332600Y238600D01*
Y241000D01*
X292500Y204500D02*
X298650Y198350D01*
X329250D01*
X214500Y157500D02*
X237500Y134500D01*
X294500D01*
X298500Y138500D01*
Y158500D01*
X305500Y165500D01*
X195900Y305000D02*
X207000D01*
X213500Y311500D01*
X366700Y303700D02*
X377500Y314500D01*
X308957Y303700D02*
X366700D01*
X298453Y314204D02*
X308957Y303700D01*
X298453Y314204D02*
Y330453D01*
X286500D02*
X298453D01*
X270547Y314500D02*
X286500Y330453D01*
X243500Y314500D02*
X270547D01*
X360500Y101843D02*
X367657Y109000D01*
X381500D01*
X348150Y269850D02*
X356000Y262000D01*
X325150Y269850D02*
X348150D01*
X315000Y280000D02*
X325150Y269850D01*
X292500Y254500D02*
X312600D01*
X325600Y241500D01*
X184500Y177500D02*
Y191200D01*
X192200Y198900D01*
X205800D01*
X221000Y183700D01*
Y157500D02*
Y183700D01*
Y157500D02*
X240000Y138500D01*
X250100D01*
X251335Y139735D01*
Y145000D01*
X281235Y174900D01*
X283900D01*
X286500Y177500D01*
Y198200D01*
X279600Y205100D02*
X286500Y198200D01*
X279600Y205100D02*
Y251600D01*
X292500Y264500D01*
X354700Y54200D02*
X366500Y66000D01*
X257500Y180500D02*
X281000D01*
X243500Y194500D02*
X257500Y180500D01*
X285100Y221900D02*
X292500Y214500D01*
X233200Y154800D02*
X243500Y144500D01*
X233200Y154800D02*
Y198300D01*
X227000Y204500D02*
X233200Y198300D01*
X172500Y220000D02*
X227000Y274500D01*
X172500Y80000D02*
Y220000D01*
Y80000D02*
X188100Y64400D01*
X272700D01*
X279500Y57600D01*
X330000D01*
X335000Y62600D01*
X335500Y165500D02*
X352596D01*
X358396Y159700D01*
X376700D01*
X391500Y174500D01*
X214500Y147500D02*
X231500Y130500D01*
X300000D01*
X315500Y146000D01*
Y154000D01*
X357000Y221500D02*
X367000D01*
X348500Y230000D02*
X357000Y221500D01*
X348500Y230000D02*
Y235000D01*
X351300Y237800D01*
X396800D01*
X409100Y225500D01*
X420000D01*
Y212000D02*
Y225500D01*
X417500Y209500D02*
X420000Y212000D01*
X414000Y209500D02*
X417500D01*
X204000Y178000D02*
X209359Y172641D01*
X214500Y167500D01*
D11*
X340407Y327407D02*
G03*
X339203Y324500I2907J-2907D01*
G01*
X337500Y326203D02*
G03*
X340407Y327407I0J4111D01*
G01*
X205399Y322601D02*
G03*
X203500Y323388I-1899J-1899D01*
G01*
X204612Y324500D02*
G03*
X205399Y322601I2685J0D01*
G01*
X369407Y38907D02*
G03*
X368203Y36000I2907J-2907D01*
G01*
X366500Y37703D02*
G03*
X369407Y38907I0J4111D01*
G01*
X363593Y33093D02*
G03*
X364797Y36000I-2907J2907D01*
G01*
X366500Y34297D02*
G03*
X363593Y33093I0J-4111D01*
G01*
X327399Y261399D02*
G03*
X326612Y259500I1899J-1899D01*
G01*
X325500Y260612D02*
G03*
X327399Y261399I0J2685D01*
G01*
X322815Y259500D02*
G03*
X324714Y260286I0J2685D01*
G01*
Y258714D02*
G03*
X322815Y259500I-1899J-1899D01*
G01*
X397500Y322000D02*
G03*
X400301Y324616I0J2808D01*
G01*
X400177Y322000D02*
G03*
X402795Y324446I0J2625D01*
G01*
X399093Y327407D02*
G03*
X402000Y326203I2907J2907D01*
G01*
X400297Y324500D02*
G03*
X399093Y327407I-4111J0D01*
G01*
X229907Y287407D02*
G03*
X228703Y284500I2907J-2907D01*
G01*
X227000Y286203D02*
G03*
X229907Y287407I0J4111D01*
G01*
X224093Y321593D02*
G03*
X225297Y324500I-2907J2907D01*
G01*
X227000Y322797D02*
G03*
X224093Y321593I0J-4111D01*
G01*
X387364Y232000D02*
G03*
X389935Y233065I0J3636D01*
G01*
Y230935D02*
G03*
X387364Y232000I-2571J-2571D01*
G01*
X394636D02*
G03*
X392065Y230935I0J-3636D01*
G01*
Y233065D02*
G03*
X394636Y232000I2571J2571D01*
G01*
X378364D02*
G03*
X380935Y233065I0J3636D01*
G01*
Y230935D02*
G03*
X378364Y232000I-2571J-2571D01*
G01*
X385636D02*
G03*
X383065Y230935I0J-3636D01*
G01*
Y233065D02*
G03*
X385636Y232000I2571J2571D01*
G01*
X377136D02*
G03*
X374565Y230935I0J-3636D01*
G01*
Y233065D02*
G03*
X377136Y232000I2571J2571D01*
G01*
X369864D02*
G03*
X372435Y233065I0J3636D01*
G01*
Y230935D02*
G03*
X369864Y232000I-2571J-2571D01*
G01*
X368636D02*
G03*
X366065Y230935I0J-3636D01*
G01*
Y233065D02*
G03*
X368636Y232000I2571J2571D01*
G01*
X361364D02*
G03*
X363935Y233065I0J3636D01*
G01*
Y230935D02*
G03*
X361364Y232000I-2571J-2571D01*
G01*
X359636D02*
G03*
X357065Y230935I0J-3636D01*
G01*
Y233065D02*
G03*
X359636Y232000I2571J2571D01*
G01*
X216093Y111907D02*
G03*
X219000Y110703I2907J2907D01*
G01*
X217297Y109000D02*
G03*
X216093Y111907I-4111J0D01*
G01*
X201907D02*
G03*
X200703Y109000I2907J-2907D01*
G01*
X199000Y110703D02*
G03*
X201907Y111907I0J4111D01*
G01*
X196093D02*
G03*
X199000Y110703I2907J2907D01*
G01*
X197297Y109000D02*
G03*
X196093Y111907I-4111J0D01*
G01*
X387389Y46000D02*
G03*
X390296Y47204I0J4111D01*
G01*
Y44796D02*
G03*
X387389Y46000I-2907J-2907D01*
G01*
X239389Y294500D02*
G03*
X242296Y295704I0J4111D01*
G01*
Y293296D02*
G03*
X239389Y294500I-2907J-2907D01*
G01*
X274685Y50500D02*
G03*
X272786Y49714I0J-2685D01*
G01*
Y51286D02*
G03*
X274685Y50500I1899J1899D01*
G01*
X297315D02*
G03*
X299214Y51286I0J2685D01*
G01*
Y49714D02*
G03*
X297315Y50500I-1899J-1899D01*
G01*
X317586Y218500D02*
G03*
X314343Y217157I0J-4586D01*
G01*
Y219843D02*
G03*
X317586Y218500I3243J3243D01*
G01*
X225899Y27899D02*
G03*
X225112Y26000I1899J-1899D01*
G01*
X224000Y27112D02*
G03*
X225899Y27899I0J2685D01*
G01*
X270101D02*
G03*
X272000Y27112I1899J1899D01*
G01*
X270888Y26000D02*
G03*
X270101Y27899I-2685J0D01*
G01*
X338597Y211060D02*
G03*
X341000Y210065I2403J2403D01*
G01*
X339593Y208657D02*
G03*
X338597Y211060I-3398J0D01*
G01*
X184500Y143389D02*
G03*
X183296Y146296I-4111J0D01*
G01*
X185704D02*
G03*
X184500Y143389I2907J-2907D01*
G01*
X302399Y24101D02*
G03*
X300500Y24888I-1899J-1899D01*
G01*
X301612Y26000D02*
G03*
X302399Y24101I2685J0D01*
G01*
X337602Y262343D02*
G03*
X340005Y263338I0J3398D01*
G01*
Y261347D02*
G03*
X337602Y262343I-2403J-2403D01*
G01*
X399571Y210571D02*
G03*
X398506Y208000I2571J-2571D01*
G01*
X397000Y209506D02*
G03*
X399571Y210571I0J3636D01*
G01*
X284389Y79000D02*
G03*
X287296Y80204I0J4111D01*
G01*
Y77796D02*
G03*
X284389Y79000I-2907J-2907D01*
G01*
X274389D02*
G03*
X277296Y80204I0J4111D01*
G01*
Y77796D02*
G03*
X274389Y79000I-2907J-2907D01*
G01*
X282611D02*
G03*
X279704Y77796I0J-4111D01*
G01*
Y80204D02*
G03*
X282611Y79000I2907J2907D01*
G01*
X264389D02*
G03*
X267296Y80204I0J4111D01*
G01*
Y77796D02*
G03*
X264389Y79000I-2907J-2907D01*
G01*
X272611D02*
G03*
X269704Y77796I0J-4111D01*
G01*
Y80204D02*
G03*
X272611Y79000I2907J2907D01*
G01*
X262611D02*
G03*
X259704Y77796I0J-4111D01*
G01*
Y80204D02*
G03*
X262611Y79000I2907J2907D01*
G01*
X258500D02*
X268500D01*
X278500D01*
X288500D01*
X272000Y50500D02*
X300000D01*
X365000Y232000D02*
X373500D01*
X356000D02*
X365000D01*
X373500D02*
X382000D01*
X391000D01*
X199000Y109000D02*
X205300Y115300D01*
X212700D01*
X219000Y109000D01*
X337500Y324500D02*
X359600Y346600D01*
X379900D01*
X402000Y324500D01*
X347500Y17000D02*
X366500Y36000D01*
X309500Y17000D02*
X347500D01*
X300500Y26000D02*
X309500Y17000D01*
X366500Y36000D02*
X376500Y46000D01*
X391500D01*
X331157Y218500D02*
X341000Y208657D01*
X313000Y218500D02*
X331157D01*
X224000Y26000D02*
X230100Y32100D01*
X265900D01*
X272000Y26000D01*
X184500Y123500D02*
Y147500D01*
Y123500D02*
X199000Y109000D01*
X399500Y322000D02*
X402000Y324500D01*
X397500Y322000D02*
X399500D01*
X394000Y318500D02*
X397500Y322000D01*
X394000Y298500D02*
Y318500D01*
X383000Y287500D02*
X394000Y298500D01*
X301300Y287500D02*
X383000D01*
X298800Y285000D02*
X301300Y287500D01*
X298800Y282300D02*
Y285000D01*
X298600Y282100D02*
X298800Y282300D01*
X298600Y277200D02*
Y282100D01*
Y277200D02*
X316300Y259500D01*
X325500D01*
X391000Y232000D02*
X396500D01*
X403100Y225400D01*
Y214100D02*
Y225400D01*
X397000Y208000D02*
X403100Y214100D01*
X325500Y259500D02*
X328343Y262343D01*
X341000D01*
X227000Y284500D02*
X237000Y294500D01*
X243500D01*
X220900Y318400D02*
X227000Y324500D01*
X209600Y318400D02*
X220900D01*
X203500Y324500D02*
X209600Y318400D01*
D13*
X208500Y123000D02*
D03*
X198500D02*
D03*
X218500D02*
D03*
X228500D02*
D03*
X238500D02*
D03*
X248500D02*
D03*
X258500D02*
D03*
X268500D02*
D03*
X278500D02*
D03*
X268500Y79000D02*
D03*
X278500D02*
D03*
X288500D02*
D03*
X258500Y109000D02*
D03*
X268500D02*
D03*
X278500D02*
D03*
X288500D02*
D03*
X214500Y147500D02*
D03*
Y157500D02*
D03*
Y167500D02*
D03*
Y177500D02*
D03*
X184500Y147500D02*
D03*
Y157500D02*
D03*
Y167500D02*
D03*
X346500Y36000D02*
D03*
X356500D02*
D03*
X366500D02*
D03*
X376500D02*
D03*
X346500Y66000D02*
D03*
X356500D02*
D03*
X366500D02*
D03*
D14*
X288500Y123000D02*
D03*
X258500Y79000D02*
D03*
X376500Y66000D02*
D03*
D15*
X204000Y50500D02*
D03*
X300000D02*
D03*
X252000D02*
D03*
D16*
X214000D02*
D03*
X224000D02*
D03*
X310500Y26000D02*
D03*
X300500D02*
D03*
X315500Y154000D02*
D03*
X305500D02*
D03*
X194000Y191500D02*
D03*
X204000D02*
D03*
X391500Y109000D02*
D03*
X381500D02*
D03*
X262000Y26000D02*
D03*
X272000D02*
D03*
X214000D02*
D03*
X224000D02*
D03*
X310000Y50500D02*
D03*
X320000D02*
D03*
X262000D02*
D03*
X272000D02*
D03*
X325500Y249500D02*
D03*
Y259500D02*
D03*
X213500Y298500D02*
D03*
X203500D02*
D03*
Y311500D02*
D03*
X213500D02*
D03*
X203500Y285500D02*
D03*
X213500D02*
D03*
X402000Y242000D02*
D03*
Y252000D02*
D03*
X203500Y324500D02*
D03*
X213500D02*
D03*
D17*
X367000Y208000D02*
D03*
X397000D02*
D03*
X367000Y221500D02*
D03*
X397000D02*
D03*
X361500Y192500D02*
D03*
X391500D02*
D03*
X361500Y165500D02*
D03*
X391500D02*
D03*
X361500Y174500D02*
D03*
X391500D02*
D03*
Y183500D02*
D03*
X361500D02*
D03*
X305500Y165500D02*
D03*
X335500D02*
D03*
X391500Y138500D02*
D03*
X361500D02*
D03*
X391500Y129500D02*
D03*
X361500D02*
D03*
X213500Y275000D02*
D03*
Y245000D02*
D03*
X361500Y119500D02*
D03*
X391500D02*
D03*
X356000Y232000D02*
D03*
Y262000D02*
D03*
X365000Y232000D02*
D03*
Y262000D02*
D03*
X373500Y232000D02*
D03*
Y262000D02*
D03*
X382000Y232000D02*
D03*
Y262000D02*
D03*
X391000Y232000D02*
D03*
Y262000D02*
D03*
D18*
X341000Y262343D02*
D03*
X360500Y82157D02*
D03*
X341000Y208657D02*
D03*
Y196343D02*
D03*
D19*
Y242657D02*
D03*
X360500Y101843D02*
D03*
X341000Y228343D02*
D03*
Y176657D02*
D03*
D20*
X184500Y177500D02*
D03*
D21*
X324000Y280000D02*
D03*
X334000D02*
D03*
X305000D02*
D03*
X315000D02*
D03*
X343000D02*
D03*
X353000D02*
D03*
X362000D02*
D03*
X372000D02*
D03*
X381000D02*
D03*
X391000D02*
D03*
D22*
X313000Y208500D02*
D03*
D23*
Y218500D02*
D03*
Y228500D02*
D03*
D24*
X414000Y219500D02*
D03*
X292500Y324500D02*
D03*
X243500D02*
D03*
X391500Y56000D02*
D03*
X229000Y109000D02*
D03*
X227000Y324500D02*
D03*
X402000Y314500D02*
D03*
D25*
X414000Y209500D02*
D03*
X292500Y314500D02*
D03*
Y304500D02*
D03*
Y294500D02*
D03*
Y284500D02*
D03*
Y274500D02*
D03*
Y264500D02*
D03*
Y254500D02*
D03*
Y244500D02*
D03*
Y234500D02*
D03*
Y224500D02*
D03*
Y214500D02*
D03*
Y204500D02*
D03*
Y194500D02*
D03*
Y184500D02*
D03*
Y174500D02*
D03*
Y164500D02*
D03*
Y154500D02*
D03*
Y144500D02*
D03*
X243500Y314500D02*
D03*
Y304500D02*
D03*
Y294500D02*
D03*
Y284500D02*
D03*
Y274500D02*
D03*
Y264500D02*
D03*
Y254500D02*
D03*
Y244500D02*
D03*
Y234500D02*
D03*
Y224500D02*
D03*
Y214500D02*
D03*
Y204500D02*
D03*
Y194500D02*
D03*
Y184500D02*
D03*
Y174500D02*
D03*
Y164500D02*
D03*
Y154500D02*
D03*
Y144500D02*
D03*
X391500Y46000D02*
D03*
X199000Y79000D02*
D03*
X209000D02*
D03*
X219000D02*
D03*
X229000D02*
D03*
X199000Y109000D02*
D03*
X209000D02*
D03*
X219000D02*
D03*
X227000Y314500D02*
D03*
Y304500D02*
D03*
Y294500D02*
D03*
Y284500D02*
D03*
Y274500D02*
D03*
Y264500D02*
D03*
Y254500D02*
D03*
Y244500D02*
D03*
Y234500D02*
D03*
Y224500D02*
D03*
Y214500D02*
D03*
Y204500D02*
D03*
Y194500D02*
D03*
Y184500D02*
D03*
Y174500D02*
D03*
X402000Y324500D02*
D03*
X377500Y314500D02*
D03*
X367500Y324500D02*
D03*
Y314500D02*
D03*
X357500Y324500D02*
D03*
Y314500D02*
D03*
X347500Y324500D02*
D03*
Y314500D02*
D03*
X337500Y324500D02*
D03*
Y314500D02*
D03*
X327500Y324500D02*
D03*
Y314500D02*
D03*
X317500Y324500D02*
D03*
Y314500D02*
D03*
D26*
X377500Y324500D02*
D03*
D27*
X151000Y356500D02*
D03*
X444000D02*
D03*
Y11000D02*
D03*
X151000D02*
D03*
D28*
X200800Y166300D02*
D03*
X206000Y337561D02*
D03*
X193000Y69900D02*
D03*
X350300Y157000D02*
D03*
X301000Y63600D02*
D03*
X281000Y192200D02*
D03*
X257400Y142000D02*
D03*
X263200Y332800D02*
D03*
X332600Y241000D02*
D03*
X329250Y198350D02*
D03*
X195900Y305000D02*
D03*
X325600Y241500D02*
D03*
X354700Y54200D02*
D03*
X281000Y180500D02*
D03*
X285100Y221900D02*
D03*
X335000Y62600D02*
D03*
M02*
