%FSLAX25Y25*%
%MOIN*%
G70*
G01*
G75*
G04 Layer_Color=255*
%ADD10C,0.02000*%
%ADD11C,0.02500*%
%ADD12C,0.01000*%
%ADD13C,0.05906*%
%ADD14R,0.05906X0.05906*%
%ADD15C,0.04724*%
%ADD16R,0.05906X0.05906*%
%ADD17C,0.05906*%
%ADD18R,0.05906X0.05906*%
%ADD19C,0.05512*%
%ADD20C,0.06299*%
%ADD21R,0.04724X0.04724*%
%ADD22C,0.06299*%
%ADD23R,0.06299X0.06299*%
%ADD24R,0.05315X0.05315*%
%ADD25C,0.05315*%
%ADD26R,0.04724X0.04724*%
%ADD27R,0.05906X0.05906*%
G04:AMPARAMS|DCode=28|XSize=160mil|YSize=160mil|CornerRadius=40mil|HoleSize=0mil|Usage=FLASHONLY|Rotation=0.000|XOffset=0mil|YOffset=0mil|HoleType=Round|Shape=RoundedRectangle|*
%AMROUNDEDRECTD28*
21,1,0.16000,0.08000,0,0,0.0*
21,1,0.08000,0.16000,0,0,0.0*
1,1,0.08000,0.04000,-0.04000*
1,1,0.08000,-0.04000,-0.04000*
1,1,0.08000,-0.04000,0.04000*
1,1,0.08000,0.04000,0.04000*
%
%ADD28ROUNDEDRECTD28*%
%ADD29C,0.05000*%
D13*
X269000Y392000D02*
D03*
Y402000D02*
D03*
X279000Y392000D02*
D03*
Y402000D02*
D03*
X289000Y392000D02*
D03*
Y402000D02*
D03*
X299000Y392000D02*
D03*
Y402000D02*
D03*
X309000Y392000D02*
D03*
Y402000D02*
D03*
X319000Y392000D02*
D03*
Y402000D02*
D03*
X329000Y392000D02*
D03*
X26000Y107500D02*
D03*
X449000Y52000D02*
D03*
X439000D02*
D03*
X429000D02*
D03*
X419000D02*
D03*
X409000D02*
D03*
X399000D02*
D03*
X389000D02*
D03*
X379000D02*
D03*
X369000D02*
D03*
X359000D02*
D03*
X349000D02*
D03*
X339000D02*
D03*
X329000D02*
D03*
X319000D02*
D03*
X309000D02*
D03*
X363000Y178000D02*
D03*
Y168000D02*
D03*
Y158000D02*
D03*
X393000Y188000D02*
D03*
Y178000D02*
D03*
Y168000D02*
D03*
Y158000D02*
D03*
X486000Y122000D02*
D03*
X453500Y223000D02*
D03*
Y233000D02*
D03*
Y243000D02*
D03*
Y253000D02*
D03*
Y263000D02*
D03*
Y273000D02*
D03*
Y283000D02*
D03*
Y293000D02*
D03*
Y303000D02*
D03*
Y313000D02*
D03*
Y323000D02*
D03*
Y333000D02*
D03*
Y343000D02*
D03*
Y353000D02*
D03*
Y363000D02*
D03*
Y373000D02*
D03*
Y383000D02*
D03*
Y393000D02*
D03*
X502500Y223000D02*
D03*
Y233000D02*
D03*
Y243000D02*
D03*
Y253000D02*
D03*
Y263000D02*
D03*
Y273000D02*
D03*
Y283000D02*
D03*
Y293000D02*
D03*
Y303000D02*
D03*
Y313000D02*
D03*
Y323000D02*
D03*
Y333000D02*
D03*
Y343000D02*
D03*
Y353000D02*
D03*
Y363000D02*
D03*
Y373000D02*
D03*
Y383000D02*
D03*
Y393000D02*
D03*
X161000Y79000D02*
D03*
Y69000D02*
D03*
Y59000D02*
D03*
Y49000D02*
D03*
X191000Y79000D02*
D03*
Y69000D02*
D03*
Y59000D02*
D03*
X43000Y253000D02*
D03*
D14*
X329000Y402000D02*
D03*
X299000Y52000D02*
D03*
X363000Y188000D02*
D03*
X191000Y49000D02*
D03*
D15*
X130000Y383000D02*
D03*
X120000D02*
D03*
X61000Y387000D02*
D03*
X71000D02*
D03*
X198000Y407000D02*
D03*
X208000D02*
D03*
X158000D02*
D03*
X168000D02*
D03*
X130000D02*
D03*
X120000D02*
D03*
X31000Y137000D02*
D03*
X21000D02*
D03*
X234000Y259000D02*
D03*
X224000D02*
D03*
X377000Y228000D02*
D03*
X387000D02*
D03*
X282000Y259000D02*
D03*
X272000D02*
D03*
X168000Y383000D02*
D03*
X158000D02*
D03*
X433000Y179000D02*
D03*
Y169000D02*
D03*
X436000Y131500D02*
D03*
Y121500D02*
D03*
X121000Y25500D02*
D03*
Y15500D02*
D03*
X160000Y212000D02*
D03*
X150000D02*
D03*
X145500Y294000D02*
D03*
Y304000D02*
D03*
X225000Y120000D02*
D03*
Y130000D02*
D03*
X258000Y125000D02*
D03*
Y135000D02*
D03*
D16*
X199000Y341500D02*
D03*
X84000Y319000D02*
D03*
D17*
X199000Y331500D02*
D03*
Y321500D02*
D03*
Y311500D02*
D03*
X229000Y341500D02*
D03*
Y331500D02*
D03*
Y321500D02*
D03*
Y311500D02*
D03*
X84000Y329000D02*
D03*
Y339000D02*
D03*
Y349000D02*
D03*
X54000Y319000D02*
D03*
Y329000D02*
D03*
Y339000D02*
D03*
Y349000D02*
D03*
X324000Y184500D02*
D03*
X314000D02*
D03*
X304000D02*
D03*
X294000D02*
D03*
X324000Y154500D02*
D03*
X314000D02*
D03*
X304000D02*
D03*
X278500Y212000D02*
D03*
X268500D02*
D03*
X258500D02*
D03*
X248500D02*
D03*
X238500D02*
D03*
X228500D02*
D03*
X218500D02*
D03*
X198500D02*
D03*
X208500D02*
D03*
D18*
X26000Y97500D02*
D03*
X486000Y112000D02*
D03*
X453500Y403000D02*
D03*
X502500D02*
D03*
X43000Y263000D02*
D03*
D19*
X396500Y315000D02*
D03*
Y285000D02*
D03*
X366500Y315000D02*
D03*
Y285000D02*
D03*
X336500Y315000D02*
D03*
Y285000D02*
D03*
X306500Y315000D02*
D03*
Y285000D02*
D03*
X275500Y315000D02*
D03*
Y285000D02*
D03*
X346500Y111500D02*
D03*
Y141500D02*
D03*
X221000Y382000D02*
D03*
X191000D02*
D03*
X259500Y84000D02*
D03*
Y54000D02*
D03*
X123000Y81000D02*
D03*
Y51000D02*
D03*
X227000Y54000D02*
D03*
Y84000D02*
D03*
X123000Y212000D02*
D03*
X93000D02*
D03*
X112000Y256500D02*
D03*
Y286500D02*
D03*
X111500Y315000D02*
D03*
Y345000D02*
D03*
X207000Y117000D02*
D03*
X177000D02*
D03*
X18000Y293500D02*
D03*
Y323500D02*
D03*
Y356000D02*
D03*
Y386000D02*
D03*
X109000Y136000D02*
D03*
Y166000D02*
D03*
X143000Y136000D02*
D03*
Y166000D02*
D03*
D20*
X401500Y340000D02*
D03*
X391500D02*
D03*
X371500D02*
D03*
X361500D02*
D03*
X341500D02*
D03*
X331500D02*
D03*
X281500D02*
D03*
X271500D02*
D03*
X311500D02*
D03*
X301500D02*
D03*
D21*
X214000Y259000D02*
D03*
X397000Y228000D02*
D03*
D22*
X32500Y197500D02*
D03*
Y187500D02*
D03*
D23*
Y177500D02*
D03*
D24*
X100000Y92157D02*
D03*
X71000Y166843D02*
D03*
X394000Y129343D02*
D03*
X67000Y92157D02*
D03*
D25*
X100000Y111843D02*
D03*
X71000Y147157D02*
D03*
X394000Y109657D02*
D03*
X67000Y111843D02*
D03*
D26*
X258000Y145000D02*
D03*
D27*
X294000Y154500D02*
D03*
X288500Y212000D02*
D03*
D28*
X537000Y432000D02*
D03*
Y13000D02*
D03*
X13000D02*
D03*
Y432000D02*
D03*
M02*
