M48
;Layer_Color=9474304
;FILE_FORMAT=2:5
INCH,LZ
;TYPE=PLATED
T1F00S00C0.02756
T2F00S00C0.02800
T3F00S00C0.03150
T4F00S00C0.03346
T5F00S00C0.03543
T6F00S00C0.03937
T7F00S00C0.12500
%
T01
X0204Y00505
X0214
X0224
Y0026
X0214
X0262
X0272
Y00505
X0262
X0252
X03
X031
X032
X03105Y0026
X03005
X03815Y0109
X03915
X03155Y0154
X03055
X0204Y01915
X0194
X02035Y02855
Y02985
Y03115
Y03245
X02135
Y03115
Y02985
Y02855
X03255Y02595
Y02495
X0402Y0252
Y0242
T02
X03547Y00542
X0335Y00626
X0301Y00636
X02574Y0142
X0281Y01805
Y01922
X032925Y019835
X03503Y0157
X02008Y01663
X0193Y00699
X01959Y0305
X0206Y0337561
X02632Y03328
X02851Y02219
X03256Y02415
X03326Y0241
T03
X03605Y0082157
Y0101843
X0341Y0176657
Y0196343
Y0208657
Y0228343
Y0242657
Y0262343
X0343Y028
X0334
X0324
X0315
X0305
X0353
X0362
X0372
X0381
X0391
T04
X03915Y01195
Y01295
Y01385
Y01655
Y01745
Y01835
Y01925
X0397Y0208
X0367
X03615Y01925
Y01835
Y01745
Y01655
X03355
X03055
X03615Y01385
Y01295
Y01195
X0367Y02215
X0365Y0232
X0356
Y0262
X0365
X02135Y0275
Y0245
X03735Y0232
X0382
X0391
X0397Y02215
X0391Y0262
X0382
X03735
T05
X03465Y0036
X03565
X03665
X03765
X03915Y0046
Y0056
X03765Y0066
X0414Y02095
X02925Y02045
Y01945
Y01845
Y01745
Y01645
Y01545
Y01445
X02885Y0123
X02785
X02685
X02585
X02485
X02385
X02285
X02185
X0219Y0109
X0229
X02585
X02685
X02785
X02885
Y0079
X02785
X02685
X02585
X0229
X0219
X02145Y01475
Y01575
Y01675
Y01775
X0227Y01745
Y01845
Y01945
Y02045
X02435
Y01945
Y01845
Y01745
Y01645
Y01545
Y01445
X03465Y0066
X03565
X03665
X0209Y0079
X0199
Y0109
X0209
X02085Y0123
X01985
X01845Y01475
Y01575
Y01675
Y01775
X0227Y02145
Y02245
Y02345
Y02445
Y02545
Y02645
Y02745
Y02845
Y02945
Y03045
Y03145
Y03245
X02435
Y03145
Y03045
Y02945
Y02845
Y02745
Y02645
Y02545
Y02445
Y02345
Y02245
Y02145
X02925
Y02245
Y02345
Y02445
Y02545
Y02645
Y02745
Y02845
Y02945
Y03045
Y03145
Y03245
X03175
Y03145
X03275
Y03245
X03375
Y03145
X03475
Y03245
X03575
Y03145
X03675
Y03245
X03775
Y03145
X0402
Y03245
X0414Y02195
T06
X0313Y02085
Y02185
Y02285
T07
X0151Y0011
X0444
X0151Y03565
X0444
M30
